<?xml version="1.0" encoding="utf-8" standalone="no"?>
<!DOCTYPE svg PUBLIC "-//W3C//DTD SVG 1.1//EN"
  "http://www.w3.org/Graphics/SVG/1.1/DTD/svg11.dtd">
<svg xmlns:xlink="http://www.w3.org/1999/xlink" width="683.004844pt" height="407.276344pt" viewBox="0 0 683.004844 407.276344" xmlns="http://www.w3.org/2000/svg" version="1.1">
 <metadata>
  <rdf:RDF xmlns:dc="http://purl.org/dc/elements/1.1/" xmlns:cc="http://creativecommons.org/ns#" xmlns:rdf="http://www.w3.org/1999/02/22-rdf-syntax-ns#">
   <cc:Work>
    <dc:type rdf:resource="http://purl.org/dc/dcmitype/StillImage"/>
    <dc:date>2026-04-02T18:38:13.784215</dc:date>
    <dc:format>image/svg+xml</dc:format>
    <dc:creator>
     <cc:Agent>
      <dc:title>Matplotlib v3.10.8, https://matplotlib.org/</dc:title>
     </cc:Agent>
    </dc:creator>
   </cc:Work>
  </rdf:RDF>
 </metadata>
 <defs>
  <style type="text/css">*{stroke-linejoin: round; stroke-linecap: butt}</style>
 </defs>
 <g id="figure_1">
  <g id="patch_1">
   <path d="M 0 407.276344 
L 683.004844 407.276344 
L 683.004844 0 
L 0 0 
z
" style="fill: #ffffff"/>
  </g>
  <g id="axes_1">
   <g id="patch_2">
    <path d="M 42.674844 370.204 
L 675.804844 370.204 
L 675.804844 36.684 
L 42.674844 36.684 
z
" style="fill: #fafafa"/>
   </g>
   <g id="patch_3">
    <path d="M 71.45348 370.204 
L 90.639238 370.204 
L 90.639238 253.861464 
L 71.45348 253.861464 
z
" clip-path="url(#ped35d23c7a)" style="fill: #2166ac; opacity: 0.6; stroke: #ffffff; stroke-linejoin: miter"/>
   </g>
   <g id="patch_4">
    <path d="M 90.639238 370.204 
L 109.824995 370.204 
L 109.824995 350.813577 
L 90.639238 350.813577 
z
" clip-path="url(#ped35d23c7a)" style="fill: #2166ac; opacity: 0.6; stroke: #ffffff; stroke-linejoin: miter"/>
   </g>
   <g id="patch_5">
    <path d="M 109.824995 370.204 
L 129.010753 370.204 
L 129.010753 370.204 
L 109.824995 370.204 
z
" clip-path="url(#ped35d23c7a)" style="fill: #2166ac; opacity: 0.6; stroke: #ffffff; stroke-linejoin: miter"/>
   </g>
   <g id="patch_6">
    <path d="M 129.010753 370.204 
L 148.19651 370.204 
L 148.19651 350.813577 
L 129.010753 350.813577 
z
" clip-path="url(#ped35d23c7a)" style="fill: #2166ac; opacity: 0.6; stroke: #ffffff; stroke-linejoin: miter"/>
   </g>
   <g id="patch_7">
    <path d="M 148.19651 370.204 
L 167.382268 370.204 
L 167.382268 350.813577 
L 148.19651 350.813577 
z
" clip-path="url(#ped35d23c7a)" style="fill: #2166ac; opacity: 0.6; stroke: #ffffff; stroke-linejoin: miter"/>
   </g>
   <g id="patch_8">
    <path d="M 167.382268 370.204 
L 186.568026 370.204 
L 186.568026 350.813577 
L 167.382268 350.813577 
z
" clip-path="url(#ped35d23c7a)" style="fill: #2166ac; opacity: 0.6; stroke: #ffffff; stroke-linejoin: miter"/>
   </g>
   <g id="patch_9">
    <path d="M 186.568026 370.204 
L 205.753783 370.204 
L 205.753783 370.204 
L 186.568026 370.204 
z
" clip-path="url(#ped35d23c7a)" style="fill: #2166ac; opacity: 0.6; stroke: #ffffff; stroke-linejoin: miter"/>
   </g>
   <g id="patch_10">
    <path d="M 205.753783 370.204 
L 224.939541 370.204 
L 224.939541 331.423155 
L 205.753783 331.423155 
z
" clip-path="url(#ped35d23c7a)" style="fill: #2166ac; opacity: 0.6; stroke: #ffffff; stroke-linejoin: miter"/>
   </g>
   <g id="patch_11">
    <path d="M 224.939541 370.204 
L 244.125298 370.204 
L 244.125298 370.204 
L 224.939541 370.204 
z
" clip-path="url(#ped35d23c7a)" style="fill: #2166ac; opacity: 0.6; stroke: #ffffff; stroke-linejoin: miter"/>
   </g>
   <g id="patch_12">
    <path d="M 244.125298 370.204 
L 263.311056 370.204 
L 263.311056 350.813577 
L 244.125298 350.813577 
z
" clip-path="url(#ped35d23c7a)" style="fill: #2166ac; opacity: 0.6; stroke: #ffffff; stroke-linejoin: miter"/>
   </g>
   <g id="patch_13">
    <path d="M 263.311056 370.204 
L 282.496813 370.204 
L 282.496813 273.251887 
L 263.311056 273.251887 
z
" clip-path="url(#ped35d23c7a)" style="fill: #2166ac; opacity: 0.6; stroke: #ffffff; stroke-linejoin: miter"/>
   </g>
   <g id="patch_14">
    <path d="M 282.496813 370.204 
L 301.682571 370.204 
L 301.682571 312.032732 
L 282.496813 312.032732 
z
" clip-path="url(#ped35d23c7a)" style="fill: #2166ac; opacity: 0.6; stroke: #ffffff; stroke-linejoin: miter"/>
   </g>
   <g id="patch_15">
    <path d="M 301.682571 370.204 
L 320.868329 370.204 
L 320.868329 350.813577 
L 301.682571 350.813577 
z
" clip-path="url(#ped35d23c7a)" style="fill: #2166ac; opacity: 0.6; stroke: #ffffff; stroke-linejoin: miter"/>
   </g>
   <g id="patch_16">
    <path d="M 320.868329 370.204 
L 340.054086 370.204 
L 340.054086 331.423155 
L 320.868329 331.423155 
z
" clip-path="url(#ped35d23c7a)" style="fill: #2166ac; opacity: 0.6; stroke: #ffffff; stroke-linejoin: miter"/>
   </g>
   <g id="patch_17">
    <path d="M 340.054086 370.204 
L 359.239844 370.204 
L 359.239844 292.642309 
L 340.054086 292.642309 
z
" clip-path="url(#ped35d23c7a)" style="fill: #2166ac; opacity: 0.6; stroke: #ffffff; stroke-linejoin: miter"/>
   </g>
   <g id="patch_18">
    <path d="M 359.239844 370.204 
L 378.425601 370.204 
L 378.425601 312.032732 
L 359.239844 312.032732 
z
" clip-path="url(#ped35d23c7a)" style="fill: #2166ac; opacity: 0.6; stroke: #ffffff; stroke-linejoin: miter"/>
   </g>
   <g id="patch_19">
    <path d="M 378.425601 370.204 
L 397.611359 370.204 
L 397.611359 312.032732 
L 378.425601 312.032732 
z
" clip-path="url(#ped35d23c7a)" style="fill: #2166ac; opacity: 0.6; stroke: #ffffff; stroke-linejoin: miter"/>
   </g>
   <g id="patch_20">
    <path d="M 397.611359 370.204 
L 416.797116 370.204 
L 416.797116 292.642309 
L 397.611359 292.642309 
z
" clip-path="url(#ped35d23c7a)" style="fill: #2166ac; opacity: 0.6; stroke: #ffffff; stroke-linejoin: miter"/>
   </g>
   <g id="patch_21">
    <path d="M 416.797116 370.204 
L 435.982874 370.204 
L 435.982874 253.861464 
L 416.797116 253.861464 
z
" clip-path="url(#ped35d23c7a)" style="fill: #2166ac; opacity: 0.6; stroke: #ffffff; stroke-linejoin: miter"/>
   </g>
   <g id="patch_22">
    <path d="M 435.982874 370.204 
L 455.168632 370.204 
L 455.168632 312.032732 
L 435.982874 312.032732 
z
" clip-path="url(#ped35d23c7a)" style="fill: #2166ac; opacity: 0.6; stroke: #ffffff; stroke-linejoin: miter"/>
   </g>
   <g id="patch_23">
    <path d="M 455.168632 370.204 
L 474.354389 370.204 
L 474.354389 292.642309 
L 455.168632 292.642309 
z
" clip-path="url(#ped35d23c7a)" style="fill: #2166ac; opacity: 0.6; stroke: #ffffff; stroke-linejoin: miter"/>
   </g>
   <g id="patch_24">
    <path d="M 474.354389 370.204 
L 493.540147 370.204 
L 493.540147 176.299773 
L 474.354389 176.299773 
z
" clip-path="url(#ped35d23c7a)" style="fill: #2166ac; opacity: 0.6; stroke: #ffffff; stroke-linejoin: miter"/>
   </g>
   <g id="patch_25">
    <path d="M 493.540147 370.204 
L 512.725904 370.204 
L 512.725904 195.690196 
L 493.540147 195.690196 
z
" clip-path="url(#ped35d23c7a)" style="fill: #2166ac; opacity: 0.6; stroke: #ffffff; stroke-linejoin: miter"/>
   </g>
   <g id="patch_26">
    <path d="M 512.725904 370.204 
L 531.911662 370.204 
L 531.911662 253.861464 
L 512.725904 253.861464 
z
" clip-path="url(#ped35d23c7a)" style="fill: #2166ac; opacity: 0.6; stroke: #ffffff; stroke-linejoin: miter"/>
   </g>
   <g id="patch_27">
    <path d="M 531.911662 370.204 
L 551.09742 370.204 
L 551.09742 331.423155 
L 531.911662 331.423155 
z
" clip-path="url(#ped35d23c7a)" style="fill: #2166ac; opacity: 0.6; stroke: #ffffff; stroke-linejoin: miter"/>
   </g>
   <g id="patch_28">
    <path d="M 551.09742 370.204 
L 570.283177 370.204 
L 570.283177 312.032732 
L 551.09742 312.032732 
z
" clip-path="url(#ped35d23c7a)" style="fill: #2166ac; opacity: 0.6; stroke: #ffffff; stroke-linejoin: miter"/>
   </g>
   <g id="patch_29">
    <path d="M 570.283177 370.204 
L 589.468935 370.204 
L 589.468935 253.861464 
L 570.283177 253.861464 
z
" clip-path="url(#ped35d23c7a)" style="fill: #2166ac; opacity: 0.6; stroke: #ffffff; stroke-linejoin: miter"/>
   </g>
   <g id="patch_30">
    <path d="M 589.468935 370.204 
L 608.654692 370.204 
L 608.654692 292.642309 
L 589.468935 292.642309 
z
" clip-path="url(#ped35d23c7a)" style="fill: #2166ac; opacity: 0.6; stroke: #ffffff; stroke-linejoin: miter"/>
   </g>
   <g id="patch_31">
    <path d="M 608.654692 370.204 
L 627.84045 370.204 
L 627.84045 331.423155 
L 608.654692 331.423155 
z
" clip-path="url(#ped35d23c7a)" style="fill: #2166ac; opacity: 0.6; stroke: #ffffff; stroke-linejoin: miter"/>
   </g>
   <g id="patch_32">
    <path d="M 627.84045 370.204 
L 647.026207 370.204 
L 647.026207 234.471041 
L 627.84045 234.471041 
z
" clip-path="url(#ped35d23c7a)" style="fill: #2166ac; opacity: 0.6; stroke: #ffffff; stroke-linejoin: miter"/>
   </g>
   <g id="patch_33">
    <path d="M 71.45348 370.204 
L 84.336757 370.204 
L 84.336757 341.32781 
L 71.45348 341.32781 
z
" clip-path="url(#ped35d23c7a)" style="fill: #b2182b; opacity: 0.6; stroke: #ffffff; stroke-linejoin: miter"/>
   </g>
   <g id="patch_34">
    <path d="M 84.336757 370.204 
L 97.220033 370.204 
L 97.220033 370.204 
L 84.336757 370.204 
z
" clip-path="url(#ped35d23c7a)" style="fill: #b2182b; opacity: 0.6; stroke: #ffffff; stroke-linejoin: miter"/>
   </g>
   <g id="patch_35">
    <path d="M 97.220033 370.204 
L 110.10331 370.204 
L 110.10331 370.204 
L 97.220033 370.204 
z
" clip-path="url(#ped35d23c7a)" style="fill: #b2182b; opacity: 0.6; stroke: #ffffff; stroke-linejoin: miter"/>
   </g>
   <g id="patch_36">
    <path d="M 110.10331 370.204 
L 122.986586 370.204 
L 122.986586 370.204 
L 110.10331 370.204 
z
" clip-path="url(#ped35d23c7a)" style="fill: #b2182b; opacity: 0.6; stroke: #ffffff; stroke-linejoin: miter"/>
   </g>
   <g id="patch_37">
    <path d="M 122.986586 370.204 
L 135.869863 370.204 
L 135.869863 370.204 
L 122.986586 370.204 
z
" clip-path="url(#ped35d23c7a)" style="fill: #b2182b; opacity: 0.6; stroke: #ffffff; stroke-linejoin: miter"/>
   </g>
   <g id="patch_38">
    <path d="M 135.869863 370.204 
L 148.75314 370.204 
L 148.75314 370.204 
L 135.869863 370.204 
z
" clip-path="url(#ped35d23c7a)" style="fill: #b2182b; opacity: 0.6; stroke: #ffffff; stroke-linejoin: miter"/>
   </g>
   <g id="patch_39">
    <path d="M 148.75314 370.204 
L 161.636416 370.204 
L 161.636416 370.204 
L 148.75314 370.204 
z
" clip-path="url(#ped35d23c7a)" style="fill: #b2182b; opacity: 0.6; stroke: #ffffff; stroke-linejoin: miter"/>
   </g>
   <g id="patch_40">
    <path d="M 161.636416 370.204 
L 174.519693 370.204 
L 174.519693 341.32781 
L 161.636416 341.32781 
z
" clip-path="url(#ped35d23c7a)" style="fill: #b2182b; opacity: 0.6; stroke: #ffffff; stroke-linejoin: miter"/>
   </g>
   <g id="patch_41">
    <path d="M 174.519693 370.204 
L 187.402969 370.204 
L 187.402969 341.32781 
L 174.519693 341.32781 
z
" clip-path="url(#ped35d23c7a)" style="fill: #b2182b; opacity: 0.6; stroke: #ffffff; stroke-linejoin: miter"/>
   </g>
   <g id="patch_42">
    <path d="M 187.402969 370.204 
L 200.286246 370.204 
L 200.286246 341.32781 
L 187.402969 341.32781 
z
" clip-path="url(#ped35d23c7a)" style="fill: #b2182b; opacity: 0.6; stroke: #ffffff; stroke-linejoin: miter"/>
   </g>
   <g id="patch_43">
    <path d="M 200.286246 370.204 
L 213.169522 370.204 
L 213.169522 341.32781 
L 200.286246 341.32781 
z
" clip-path="url(#ped35d23c7a)" style="fill: #b2182b; opacity: 0.6; stroke: #ffffff; stroke-linejoin: miter"/>
   </g>
   <g id="patch_44">
    <path d="M 213.169522 370.204 
L 226.052799 370.204 
L 226.052799 341.32781 
L 213.169522 341.32781 
z
" clip-path="url(#ped35d23c7a)" style="fill: #b2182b; opacity: 0.6; stroke: #ffffff; stroke-linejoin: miter"/>
   </g>
   <g id="patch_45">
    <path d="M 226.052799 370.204 
L 238.936076 370.204 
L 238.936076 312.451619 
L 226.052799 312.451619 
z
" clip-path="url(#ped35d23c7a)" style="fill: #b2182b; opacity: 0.6; stroke: #ffffff; stroke-linejoin: miter"/>
   </g>
   <g id="patch_46">
    <path d="M 238.936076 370.204 
L 251.819352 370.204 
L 251.819352 254.699238 
L 238.936076 254.699238 
z
" clip-path="url(#ped35d23c7a)" style="fill: #b2182b; opacity: 0.6; stroke: #ffffff; stroke-linejoin: miter"/>
   </g>
   <g id="patch_47">
    <path d="M 251.819352 370.204 
L 264.702629 370.204 
L 264.702629 341.32781 
L 251.819352 341.32781 
z
" clip-path="url(#ped35d23c7a)" style="fill: #b2182b; opacity: 0.6; stroke: #ffffff; stroke-linejoin: miter"/>
   </g>
   <g id="patch_48">
    <path d="M 264.702629 370.204 
L 277.585905 370.204 
L 277.585905 312.451619 
L 264.702629 312.451619 
z
" clip-path="url(#ped35d23c7a)" style="fill: #b2182b; opacity: 0.6; stroke: #ffffff; stroke-linejoin: miter"/>
   </g>
   <g id="patch_49">
    <path d="M 277.585905 370.204 
L 290.469182 370.204 
L 290.469182 254.699238 
L 277.585905 254.699238 
z
" clip-path="url(#ped35d23c7a)" style="fill: #b2182b; opacity: 0.6; stroke: #ffffff; stroke-linejoin: miter"/>
   </g>
   <g id="patch_50">
    <path d="M 290.469182 370.204 
L 303.352458 370.204 
L 303.352458 196.946857 
L 290.469182 196.946857 
z
" clip-path="url(#ped35d23c7a)" style="fill: #b2182b; opacity: 0.6; stroke: #ffffff; stroke-linejoin: miter"/>
   </g>
   <g id="patch_51">
    <path d="M 303.352458 370.204 
L 316.235735 370.204 
L 316.235735 52.565905 
L 303.352458 52.565905 
z
" clip-path="url(#ped35d23c7a)" style="fill: #b2182b; opacity: 0.6; stroke: #ffffff; stroke-linejoin: miter"/>
   </g>
   <g id="patch_52">
    <path d="M 316.235735 370.204 
L 329.119012 370.204 
L 329.119012 225.823048 
L 316.235735 225.823048 
z
" clip-path="url(#ped35d23c7a)" style="fill: #b2182b; opacity: 0.6; stroke: #ffffff; stroke-linejoin: miter"/>
   </g>
   <g id="patch_53">
    <path d="M 329.119012 370.204 
L 342.002288 370.204 
L 342.002288 225.823048 
L 329.119012 225.823048 
z
" clip-path="url(#ped35d23c7a)" style="fill: #b2182b; opacity: 0.6; stroke: #ffffff; stroke-linejoin: miter"/>
   </g>
   <g id="patch_54">
    <path d="M 342.002288 370.204 
L 354.885565 370.204 
L 354.885565 225.823048 
L 342.002288 225.823048 
z
" clip-path="url(#ped35d23c7a)" style="fill: #b2182b; opacity: 0.6; stroke: #ffffff; stroke-linejoin: miter"/>
   </g>
   <g id="patch_55">
    <path d="M 354.885565 370.204 
L 367.768841 370.204 
L 367.768841 168.070667 
L 354.885565 168.070667 
z
" clip-path="url(#ped35d23c7a)" style="fill: #b2182b; opacity: 0.6; stroke: #ffffff; stroke-linejoin: miter"/>
   </g>
   <g id="patch_56">
    <path d="M 367.768841 370.204 
L 380.652118 370.204 
L 380.652118 110.318286 
L 367.768841 110.318286 
z
" clip-path="url(#ped35d23c7a)" style="fill: #b2182b; opacity: 0.6; stroke: #ffffff; stroke-linejoin: miter"/>
   </g>
   <g id="patch_57">
    <path d="M 380.652118 370.204 
L 393.535394 370.204 
L 393.535394 225.823048 
L 380.652118 225.823048 
z
" clip-path="url(#ped35d23c7a)" style="fill: #b2182b; opacity: 0.6; stroke: #ffffff; stroke-linejoin: miter"/>
   </g>
   <g id="patch_58">
    <path d="M 393.535394 370.204 
L 406.418671 370.204 
L 406.418671 196.946857 
L 393.535394 196.946857 
z
" clip-path="url(#ped35d23c7a)" style="fill: #b2182b; opacity: 0.6; stroke: #ffffff; stroke-linejoin: miter"/>
   </g>
   <g id="patch_59">
    <path d="M 406.418671 370.204 
L 419.301948 370.204 
L 419.301948 139.194476 
L 406.418671 139.194476 
z
" clip-path="url(#ped35d23c7a)" style="fill: #b2182b; opacity: 0.6; stroke: #ffffff; stroke-linejoin: miter"/>
   </g>
   <g id="patch_60">
    <path d="M 419.301948 370.204 
L 432.185224 370.204 
L 432.185224 81.442095 
L 419.301948 81.442095 
z
" clip-path="url(#ped35d23c7a)" style="fill: #b2182b; opacity: 0.6; stroke: #ffffff; stroke-linejoin: miter"/>
   </g>
   <g id="patch_61">
    <path d="M 432.185224 370.204 
L 445.068501 370.204 
L 445.068501 312.451619 
L 432.185224 312.451619 
z
" clip-path="url(#ped35d23c7a)" style="fill: #b2182b; opacity: 0.6; stroke: #ffffff; stroke-linejoin: miter"/>
   </g>
   <g id="patch_62">
    <path d="M 445.068501 370.204 
L 457.951777 370.204 
L 457.951777 312.451619 
L 445.068501 312.451619 
z
" clip-path="url(#ped35d23c7a)" style="fill: #b2182b; opacity: 0.6; stroke: #ffffff; stroke-linejoin: miter"/>
   </g>
   <g id="matplotlib.axis_1">
    <g id="xtick_1">
     <g id="line2d_1">
      <path d="M 71.45348 370.204 
L 71.45348 36.684 
" clip-path="url(#ped35d23c7a)" style="fill: none; stroke: #eeeeee; stroke-opacity: 0.75; stroke-width: 0.6; stroke-linecap: square"/>
     </g>
     <g id="line2d_2">
      <defs>
       <path id="mc20127a58a" d="M 0 0 
L 0 3.5 
" style="stroke: #333333; stroke-width: 0.8"/>
      </defs>
      <g>
       <use xlink:href="#mc20127a58a" x="71.45348" y="370.204" style="fill: #333333; stroke: #333333; stroke-width: 0.8"/>
      </g>
     </g>
     <g id="text_1">
      <!-- 0 -->
      <g style="fill: #333333" transform="translate(68.590355 384.042594) scale(0.09 -0.09)">
       <defs>
        <path id="DejaVuSerif-30" d="M 2034 219 
Q 2513 219 2750 744 
Q 2988 1269 2988 2328 
Q 2988 3391 2750 3916 
Q 2513 4441 2034 4441 
Q 1556 4441 1318 3916 
Q 1081 3391 1081 2328 
Q 1081 1269 1318 744 
Q 1556 219 2034 219 
z
M 2034 -91 
Q 1275 -91 848 546 
Q 422 1184 422 2328 
Q 422 3475 848 4112 
Q 1275 4750 2034 4750 
Q 2797 4750 3222 4112 
Q 3647 3475 3647 2328 
Q 3647 1184 3222 546 
Q 2797 -91 2034 -91 
z
" transform="scale(0.015625)"/>
       </defs>
       <use xlink:href="#DejaVuSerif-30"/>
      </g>
     </g>
    </g>
    <g id="xtick_2">
     <g id="line2d_3">
      <path d="M 168.808215 370.204 
L 168.808215 36.684 
" clip-path="url(#ped35d23c7a)" style="fill: none; stroke: #eeeeee; stroke-opacity: 0.75; stroke-width: 0.6; stroke-linecap: square"/>
     </g>
     <g id="line2d_4">
      <g>
       <use xlink:href="#mc20127a58a" x="168.808215" y="370.204" style="fill: #333333; stroke: #333333; stroke-width: 0.8"/>
      </g>
     </g>
     <g id="text_2">
      <!-- 1 -->
      <g style="fill: #333333" transform="translate(165.94509 384.042594) scale(0.09 -0.09)">
       <defs>
        <path id="DejaVuSerif-31" d="M 909 0 
L 909 331 
L 1722 331 
L 1722 4213 
L 781 3603 
L 781 4013 
L 1919 4750 
L 2350 4750 
L 2350 331 
L 3163 331 
L 3163 0 
L 909 0 
z
" transform="scale(0.015625)"/>
       </defs>
       <use xlink:href="#DejaVuSerif-31"/>
      </g>
     </g>
    </g>
    <g id="xtick_3">
     <g id="line2d_5">
      <path d="M 266.16295 370.204 
L 266.16295 36.684 
" clip-path="url(#ped35d23c7a)" style="fill: none; stroke: #eeeeee; stroke-opacity: 0.75; stroke-width: 0.6; stroke-linecap: square"/>
     </g>
     <g id="line2d_6">
      <g>
       <use xlink:href="#mc20127a58a" x="266.16295" y="370.204" style="fill: #333333; stroke: #333333; stroke-width: 0.8"/>
      </g>
     </g>
     <g id="text_3">
      <!-- 2 -->
      <g style="fill: #333333" transform="translate(263.299825 384.042594) scale(0.09 -0.09)">
       <defs>
        <path id="DejaVuSerif-32" d="M 819 3553 
L 469 3553 
L 469 4384 
Q 803 4563 1142 4656 
Q 1481 4750 1806 4750 
Q 2534 4750 2956 4397 
Q 3378 4044 3378 3438 
Q 3378 2753 2422 1800 
Q 2347 1728 2309 1691 
L 1131 513 
L 3078 513 
L 3078 1088 
L 3444 1088 
L 3444 0 
L 434 0 
L 434 341 
L 1850 1753 
Q 2319 2222 2519 2614 
Q 2719 3006 2719 3438 
Q 2719 3909 2473 4175 
Q 2228 4441 1797 4441 
Q 1350 4441 1106 4219 
Q 863 3997 819 3553 
z
" transform="scale(0.015625)"/>
       </defs>
       <use xlink:href="#DejaVuSerif-32"/>
      </g>
     </g>
    </g>
    <g id="xtick_4">
     <g id="line2d_7">
      <path d="M 363.517685 370.204 
L 363.517685 36.684 
" clip-path="url(#ped35d23c7a)" style="fill: none; stroke: #eeeeee; stroke-opacity: 0.75; stroke-width: 0.6; stroke-linecap: square"/>
     </g>
     <g id="line2d_8">
      <g>
       <use xlink:href="#mc20127a58a" x="363.517685" y="370.204" style="fill: #333333; stroke: #333333; stroke-width: 0.8"/>
      </g>
     </g>
     <g id="text_4">
      <!-- 3 -->
      <g style="fill: #333333" transform="translate(360.65456 384.042594) scale(0.09 -0.09)">
       <defs>
        <path id="DejaVuSerif-33" d="M 622 4469 
Q 988 4606 1323 4678 
Q 1659 4750 1953 4750 
Q 2638 4750 3022 4454 
Q 3406 4159 3406 3634 
Q 3406 3213 3140 2930 
Q 2875 2647 2388 2547 
Q 2963 2466 3280 2130 
Q 3597 1794 3597 1259 
Q 3597 606 3158 257 
Q 2719 -91 1894 -91 
Q 1528 -91 1179 -12 
Q 831 66 488 225 
L 488 1131 
L 838 1131 
Q 869 681 1141 450 
Q 1413 219 1906 219 
Q 2384 219 2661 495 
Q 2938 772 2938 1253 
Q 2938 1803 2653 2086 
Q 2369 2369 1819 2369 
L 1522 2369 
L 1522 2688 
L 1678 2688 
Q 2225 2688 2498 2914 
Q 2772 3141 2772 3597 
Q 2772 4006 2547 4223 
Q 2322 4441 1900 4441 
Q 1478 4441 1245 4241 
Q 1013 4041 972 3647 
L 622 3647 
L 622 4469 
z
" transform="scale(0.015625)"/>
       </defs>
       <use xlink:href="#DejaVuSerif-33"/>
      </g>
     </g>
    </g>
    <g id="xtick_5">
     <g id="line2d_9">
      <path d="M 460.872419 370.204 
L 460.872419 36.684 
" clip-path="url(#ped35d23c7a)" style="fill: none; stroke: #eeeeee; stroke-opacity: 0.75; stroke-width: 0.6; stroke-linecap: square"/>
     </g>
     <g id="line2d_10">
      <g>
       <use xlink:href="#mc20127a58a" x="460.872419" y="370.204" style="fill: #333333; stroke: #333333; stroke-width: 0.8"/>
      </g>
     </g>
     <g id="text_5">
      <!-- 4 -->
      <g style="fill: #333333" transform="translate(458.009294 384.042594) scale(0.09 -0.09)">
       <defs>
        <path id="DejaVuSerif-34" d="M 2234 1581 
L 2234 4063 
L 641 1581 
L 2234 1581 
z
M 3609 0 
L 1484 0 
L 1484 331 
L 2234 331 
L 2234 1247 
L 197 1247 
L 197 1588 
L 2241 4750 
L 2859 4750 
L 2859 1581 
L 3750 1581 
L 3750 1247 
L 2859 1247 
L 2859 331 
L 3609 331 
L 3609 0 
z
" transform="scale(0.015625)"/>
       </defs>
       <use xlink:href="#DejaVuSerif-34"/>
      </g>
     </g>
    </g>
    <g id="xtick_6">
     <g id="line2d_11">
      <path d="M 558.227154 370.204 
L 558.227154 36.684 
" clip-path="url(#ped35d23c7a)" style="fill: none; stroke: #eeeeee; stroke-opacity: 0.75; stroke-width: 0.6; stroke-linecap: square"/>
     </g>
     <g id="line2d_12">
      <g>
       <use xlink:href="#mc20127a58a" x="558.227154" y="370.204" style="fill: #333333; stroke: #333333; stroke-width: 0.8"/>
      </g>
     </g>
     <g id="text_6">
      <!-- 5 -->
      <g style="fill: #333333" transform="translate(555.364029 384.042594) scale(0.09 -0.09)">
       <defs>
        <path id="DejaVuSerif-35" d="M 3219 4666 
L 3219 4153 
L 1081 4153 
L 1081 2816 
Q 1244 2928 1461 2984 
Q 1678 3041 1947 3041 
Q 2703 3041 3140 2622 
Q 3578 2203 3578 1478 
Q 3578 738 3136 323 
Q 2694 -91 1894 -91 
Q 1572 -91 1234 -12 
Q 897 66 544 225 
L 544 1131 
L 897 1131 
Q 925 688 1179 453 
Q 1434 219 1894 219 
Q 2388 219 2653 544 
Q 2919 869 2919 1478 
Q 2919 2084 2655 2407 
Q 2391 2731 1894 2731 
Q 1613 2731 1398 2631 
Q 1184 2531 1019 2322 
L 750 2322 
L 750 4666 
L 3219 4666 
z
" transform="scale(0.015625)"/>
       </defs>
       <use xlink:href="#DejaVuSerif-35"/>
      </g>
     </g>
    </g>
    <g id="xtick_7">
     <g id="line2d_13">
      <path d="M 655.581889 370.204 
L 655.581889 36.684 
" clip-path="url(#ped35d23c7a)" style="fill: none; stroke: #eeeeee; stroke-opacity: 0.75; stroke-width: 0.6; stroke-linecap: square"/>
     </g>
     <g id="line2d_14">
      <g>
       <use xlink:href="#mc20127a58a" x="655.581889" y="370.204" style="fill: #333333; stroke: #333333; stroke-width: 0.8"/>
      </g>
     </g>
     <g id="text_7">
      <!-- 6 -->
      <g style="fill: #333333" transform="translate(652.718764 384.042594) scale(0.09 -0.09)">
       <defs>
        <path id="DejaVuSerif-36" d="M 2094 219 
Q 2534 219 2771 542 
Q 3009 866 3009 1472 
Q 3009 2078 2771 2401 
Q 2534 2725 2094 2725 
Q 1647 2725 1412 2412 
Q 1178 2100 1178 1509 
Q 1178 888 1415 553 
Q 1653 219 2094 219 
z
M 1075 2569 
Q 1288 2803 1556 2918 
Q 1825 3034 2163 3034 
Q 2859 3034 3264 2615 
Q 3669 2197 3669 1472 
Q 3669 763 3233 336 
Q 2797 -91 2069 -91 
Q 1278 -91 853 498 
Q 428 1088 428 2181 
Q 428 3406 931 4078 
Q 1434 4750 2350 4750 
Q 2597 4750 2869 4703 
Q 3141 4656 3425 4563 
L 3425 3794 
L 3072 3794 
Q 3034 4109 2831 4275 
Q 2628 4441 2284 4441 
Q 1678 4441 1381 3981 
Q 1084 3522 1075 2569 
z
" transform="scale(0.015625)"/>
       </defs>
       <use xlink:href="#DejaVuSerif-36"/>
      </g>
     </g>
    </g>
    <g id="text_8">
     <!-- Available Time (hours) -->
     <g style="fill: #2e2e2e" transform="translate(299.098633 397.892672) scale(0.105 -0.105)">
      <defs>
       <path id="DejaVuSerif-41" d="M 1281 1691 
L 2994 1691 
L 2138 3909 
L 1281 1691 
z
M -38 0 
L -38 331 
L 372 331 
L 2034 4666 
L 2559 4666 
L 4225 331 
L 4684 331 
L 4684 0 
L 2988 0 
L 2988 331 
L 3506 331 
L 3116 1356 
L 1153 1356 
L 763 331 
L 1275 331 
L 1275 0 
L -38 0 
z
" transform="scale(0.015625)"/>
       <path id="DejaVuSerif-76" d="M 1581 0 
L 359 2988 
L -19 2988 
L -19 3322 
L 1509 3322 
L 1509 2988 
L 978 2988 
L 1913 703 
L 2847 2988 
L 2350 2988 
L 2350 3322 
L 3597 3322 
L 3597 2988 
L 3225 2988 
L 2003 0 
L 1581 0 
z
" transform="scale(0.015625)"/>
       <path id="DejaVuSerif-61" d="M 2547 1044 
L 2547 1747 
L 1806 1747 
Q 1378 1747 1168 1562 
Q 959 1378 959 997 
Q 959 650 1171 447 
Q 1384 244 1747 244 
Q 2106 244 2326 466 
Q 2547 688 2547 1044 
z
M 3122 2075 
L 3122 331 
L 3634 331 
L 3634 0 
L 2547 0 
L 2547 359 
Q 2356 128 2106 18 
Q 1856 -91 1522 -91 
Q 969 -91 644 203 
Q 319 497 319 997 
Q 319 1513 691 1797 
Q 1063 2081 1741 2081 
L 2547 2081 
L 2547 2309 
Q 2547 2688 2317 2895 
Q 2088 3103 1672 3103 
Q 1328 3103 1125 2947 
Q 922 2791 872 2484 
L 575 2484 
L 575 3156 
Q 875 3284 1158 3348 
Q 1441 3413 1709 3413 
Q 2400 3413 2761 3070 
Q 3122 2728 3122 2075 
z
" transform="scale(0.015625)"/>
       <path id="DejaVuSerif-69" d="M 622 4353 
Q 622 4497 726 4603 
Q 831 4709 978 4709 
Q 1122 4709 1226 4603 
Q 1331 4497 1331 4353 
Q 1331 4206 1228 4103 
Q 1125 4000 978 4000 
Q 831 4000 726 4103 
Q 622 4206 622 4353 
z
M 1356 331 
L 1900 331 
L 1900 0 
L 231 0 
L 231 331 
L 781 331 
L 781 2988 
L 231 2988 
L 231 3322 
L 1356 3322 
L 1356 331 
z
" transform="scale(0.015625)"/>
       <path id="DejaVuSerif-6c" d="M 1313 331 
L 1856 331 
L 1856 0 
L 184 0 
L 184 331 
L 738 331 
L 738 4531 
L 184 4531 
L 184 4863 
L 1313 4863 
L 1313 331 
z
" transform="scale(0.015625)"/>
       <path id="DejaVuSerif-62" d="M 738 331 
L 738 4531 
L 184 4531 
L 184 4863 
L 1313 4863 
L 1313 2803 
Q 1481 3116 1742 3264 
Q 2003 3413 2388 3413 
Q 3000 3413 3387 2928 
Q 3775 2444 3775 1663 
Q 3775 881 3387 395 
Q 3000 -91 2388 -91 
Q 2003 -91 1742 57 
Q 1481 206 1313 519 
L 1313 0 
L 184 0 
L 184 331 
L 738 331 
z
M 1313 1497 
Q 1313 897 1542 583 
Q 1772 269 2209 269 
Q 2650 269 2876 622 
Q 3103 975 3103 1663 
Q 3103 2353 2876 2703 
Q 2650 3053 2209 3053 
Q 1772 3053 1542 2737 
Q 1313 2422 1313 1825 
L 1313 1497 
z
" transform="scale(0.015625)"/>
       <path id="DejaVuSerif-65" d="M 3469 1600 
L 991 1600 
L 991 1575 
Q 991 903 1244 561 
Q 1497 219 1991 219 
Q 2369 219 2611 417 
Q 2853 616 2950 1006 
L 3413 1006 
Q 3275 459 2904 184 
Q 2534 -91 1931 -91 
Q 1203 -91 761 389 
Q 319 869 319 1663 
Q 319 2450 753 2931 
Q 1188 3413 1894 3413 
Q 2647 3413 3050 2948 
Q 3453 2484 3469 1600 
z
M 2791 1931 
Q 2772 2513 2545 2808 
Q 2319 3103 1894 3103 
Q 1497 3103 1269 2806 
Q 1041 2509 991 1931 
L 2791 1931 
z
" transform="scale(0.015625)"/>
       <path id="DejaVuSerif-20" transform="scale(0.015625)"/>
       <path id="DejaVuSerif-54" d="M 1222 0 
L 1222 331 
L 1819 331 
L 1819 4294 
L 447 4294 
L 447 3566 
L 63 3566 
L 63 4666 
L 4206 4666 
L 4206 3566 
L 3822 3566 
L 3822 4294 
L 2450 4294 
L 2450 331 
L 3047 331 
L 3047 0 
L 1222 0 
z
" transform="scale(0.015625)"/>
       <path id="DejaVuSerif-6d" d="M 3316 2675 
Q 3481 3041 3739 3227 
Q 3997 3413 4341 3413 
Q 4863 3413 5119 3089 
Q 5375 2766 5375 2113 
L 5375 331 
L 5894 331 
L 5894 0 
L 4300 0 
L 4300 331 
L 4800 331 
L 4800 2047 
Q 4800 2556 4650 2772 
Q 4500 2988 4153 2988 
Q 3769 2988 3567 2697 
Q 3366 2406 3366 1850 
L 3366 331 
L 3866 331 
L 3866 0 
L 2291 0 
L 2291 331 
L 2791 331 
L 2791 2069 
Q 2791 2566 2641 2777 
Q 2491 2988 2144 2988 
Q 1759 2988 1557 2697 
Q 1356 2406 1356 1850 
L 1356 331 
L 1856 331 
L 1856 0 
L 263 0 
L 263 331 
L 781 331 
L 781 2994 
L 231 2994 
L 231 3322 
L 1356 3322 
L 1356 2731 
Q 1516 3063 1762 3238 
Q 2009 3413 2322 3413 
Q 2709 3413 2968 3220 
Q 3228 3028 3316 2675 
z
" transform="scale(0.015625)"/>
       <path id="DejaVuSerif-28" d="M 2041 -997 
Q 1281 -656 893 83 
Q 506 822 506 1931 
Q 506 3044 893 3783 
Q 1281 4522 2041 4863 
L 2041 4556 
Q 1559 4225 1350 3623 
Q 1141 3022 1141 1931 
Q 1141 844 1350 242 
Q 1559 -359 2041 -691 
L 2041 -997 
z
" transform="scale(0.015625)"/>
       <path id="DejaVuSerif-68" d="M 263 0 
L 263 331 
L 781 331 
L 781 4531 
L 231 4531 
L 231 4863 
L 1356 4863 
L 1356 2731 
Q 1516 3069 1770 3241 
Q 2025 3413 2363 3413 
Q 2913 3413 3172 3097 
Q 3431 2781 3431 2113 
L 3431 331 
L 3944 331 
L 3944 0 
L 2356 0 
L 2356 331 
L 2853 331 
L 2853 1931 
Q 2853 2541 2704 2764 
Q 2556 2988 2175 2988 
Q 1775 2988 1565 2697 
Q 1356 2406 1356 1850 
L 1356 331 
L 1856 331 
L 1856 0 
L 263 0 
z
" transform="scale(0.015625)"/>
       <path id="DejaVuSerif-6f" d="M 1925 219 
Q 2388 219 2623 584 
Q 2859 950 2859 1663 
Q 2859 2375 2623 2739 
Q 2388 3103 1925 3103 
Q 1463 3103 1227 2739 
Q 991 2375 991 1663 
Q 991 950 1228 584 
Q 1466 219 1925 219 
z
M 1925 -91 
Q 1200 -91 759 389 
Q 319 869 319 1663 
Q 319 2456 758 2934 
Q 1197 3413 1925 3413 
Q 2653 3413 3092 2934 
Q 3531 2456 3531 1663 
Q 3531 869 3092 389 
Q 2653 -91 1925 -91 
z
" transform="scale(0.015625)"/>
       <path id="DejaVuSerif-75" d="M 2266 3322 
L 3341 3322 
L 3341 331 
L 3884 331 
L 3884 0 
L 2766 0 
L 2766 588 
Q 2606 256 2353 82 
Q 2100 -91 1766 -91 
Q 1213 -91 952 223 
Q 691 538 691 1209 
L 691 2988 
L 172 2988 
L 172 3322 
L 1269 3322 
L 1269 1388 
Q 1269 781 1417 556 
Q 1566 331 1947 331 
Q 2347 331 2556 625 
Q 2766 919 2766 1478 
L 2766 2988 
L 2266 2988 
L 2266 3322 
z
" transform="scale(0.015625)"/>
       <path id="DejaVuSerif-72" d="M 3059 3328 
L 3059 2497 
L 2728 2497 
Q 2713 2744 2591 2866 
Q 2469 2988 2234 2988 
Q 1809 2988 1582 2694 
Q 1356 2400 1356 1850 
L 1356 331 
L 2022 331 
L 2022 0 
L 263 0 
L 263 331 
L 781 331 
L 781 2994 
L 231 2994 
L 231 3322 
L 1356 3322 
L 1356 2731 
Q 1525 3078 1790 3245 
Q 2056 3413 2438 3413 
Q 2578 3413 2733 3391 
Q 2888 3369 3059 3328 
z
" transform="scale(0.015625)"/>
       <path id="DejaVuSerif-73" d="M 359 184 
L 359 959 
L 691 959 
Q 703 588 923 403 
Q 1144 219 1575 219 
Q 1963 219 2166 364 
Q 2369 509 2369 788 
Q 2369 1006 2220 1140 
Q 2072 1275 1594 1428 
L 1178 1569 
Q 750 1706 558 1912 
Q 366 2119 366 2438 
Q 366 2894 700 3153 
Q 1034 3413 1625 3413 
Q 1888 3413 2178 3344 
Q 2469 3275 2778 3144 
L 2778 2419 
L 2447 2419 
Q 2434 2741 2221 2922 
Q 2009 3103 1644 3103 
Q 1281 3103 1095 2975 
Q 909 2847 909 2591 
Q 909 2381 1050 2254 
Q 1191 2128 1613 1997 
L 2069 1856 
Q 2541 1709 2748 1489 
Q 2956 1269 2956 922 
Q 2956 450 2595 179 
Q 2234 -91 1600 -91 
Q 1278 -91 972 -22 
Q 666 47 359 184 
z
" transform="scale(0.015625)"/>
       <path id="DejaVuSerif-29" d="M 453 -997 
L 453 -691 
Q 934 -359 1145 242 
Q 1356 844 1356 1931 
Q 1356 3022 1145 3623 
Q 934 4225 453 4556 
L 453 4863 
Q 1216 4522 1603 3783 
Q 1991 3044 1991 1931 
Q 1991 822 1603 83 
Q 1216 -656 453 -997 
z
" transform="scale(0.015625)"/>
      </defs>
      <use xlink:href="#DejaVuSerif-41"/>
      <use xlink:href="#DejaVuSerif-76" transform="translate(68.216797 0)"/>
      <use xlink:href="#DejaVuSerif-61" transform="translate(124.710938 0)"/>
      <use xlink:href="#DejaVuSerif-69" transform="translate(184.330078 0)"/>
      <use xlink:href="#DejaVuSerif-6c" transform="translate(216.3125 0)"/>
      <use xlink:href="#DejaVuSerif-61" transform="translate(248.294922 0)"/>
      <use xlink:href="#DejaVuSerif-62" transform="translate(307.914062 0)"/>
      <use xlink:href="#DejaVuSerif-6c" transform="translate(371.927734 0)"/>
      <use xlink:href="#DejaVuSerif-65" transform="translate(403.910156 0)"/>
      <use xlink:href="#DejaVuSerif-20" transform="translate(463.089844 0)"/>
      <use xlink:href="#DejaVuSerif-54" transform="translate(494.876953 0)"/>
      <use xlink:href="#DejaVuSerif-69" transform="translate(561.576172 0)"/>
      <use xlink:href="#DejaVuSerif-6d" transform="translate(593.558594 0)"/>
      <use xlink:href="#DejaVuSerif-65" transform="translate(688.382812 0)"/>
      <use xlink:href="#DejaVuSerif-20" transform="translate(747.5625 0)"/>
      <use xlink:href="#DejaVuSerif-28" transform="translate(779.349609 0)"/>
      <use xlink:href="#DejaVuSerif-68" transform="translate(818.363281 0)"/>
      <use xlink:href="#DejaVuSerif-6f" transform="translate(882.767578 0)"/>
      <use xlink:href="#DejaVuSerif-75" transform="translate(942.972656 0)"/>
      <use xlink:href="#DejaVuSerif-72" transform="translate(1007.376953 0)"/>
      <use xlink:href="#DejaVuSerif-73" transform="translate(1055.179688 0)"/>
      <use xlink:href="#DejaVuSerif-29" transform="translate(1106.498047 0)"/>
     </g>
    </g>
   </g>
   <g id="matplotlib.axis_2">
    <g id="ytick_1">
     <g id="line2d_15">
      <path d="M 42.674844 370.204 
L 675.804844 370.204 
" clip-path="url(#ped35d23c7a)" style="fill: none; stroke: #eeeeee; stroke-opacity: 0.75; stroke-width: 0.6; stroke-linecap: square"/>
     </g>
     <g id="line2d_16">
      <defs>
       <path id="m06279f86a9" d="M 0 0 
L -3.5 0 
" style="stroke: #333333; stroke-width: 0.8"/>
      </defs>
      <g>
       <use xlink:href="#m06279f86a9" x="42.674844" y="370.204" style="fill: #333333; stroke: #333333; stroke-width: 0.8"/>
      </g>
     </g>
     <g id="text_9">
      <!-- 0.0 -->
      <g style="fill: #333333" transform="translate(21.362031 373.623297) scale(0.09 -0.09)">
       <defs>
        <path id="DejaVuSerif-2e" d="M 603 325 
Q 603 500 722 622 
Q 841 744 1019 744 
Q 1191 744 1312 622 
Q 1434 500 1434 325 
Q 1434 153 1312 31 
Q 1191 -91 1019 -91 
Q 841 -91 722 29 
Q 603 150 603 325 
z
" transform="scale(0.015625)"/>
       </defs>
       <use xlink:href="#DejaVuSerif-30"/>
       <use xlink:href="#DejaVuSerif-2e" transform="translate(63.623047 0)"/>
       <use xlink:href="#DejaVuSerif-30" transform="translate(95.410156 0)"/>
      </g>
     </g>
    </g>
    <g id="ytick_2">
     <g id="line2d_17">
      <path d="M 42.674844 331.991175 
L 675.804844 331.991175 
" clip-path="url(#ped35d23c7a)" style="fill: none; stroke: #eeeeee; stroke-opacity: 0.75; stroke-width: 0.6; stroke-linecap: square"/>
     </g>
     <g id="line2d_18">
      <g>
       <use xlink:href="#m06279f86a9" x="42.674844" y="331.991175" style="fill: #333333; stroke: #333333; stroke-width: 0.8"/>
      </g>
     </g>
     <g id="text_10">
      <!-- 0.1 -->
      <g style="fill: #333333" transform="translate(21.362031 335.410471) scale(0.09 -0.09)">
       <use xlink:href="#DejaVuSerif-30"/>
       <use xlink:href="#DejaVuSerif-2e" transform="translate(63.623047 0)"/>
       <use xlink:href="#DejaVuSerif-31" transform="translate(95.410156 0)"/>
      </g>
     </g>
    </g>
    <g id="ytick_3">
     <g id="line2d_19">
      <path d="M 42.674844 293.778349 
L 675.804844 293.778349 
" clip-path="url(#ped35d23c7a)" style="fill: none; stroke: #eeeeee; stroke-opacity: 0.75; stroke-width: 0.6; stroke-linecap: square"/>
     </g>
     <g id="line2d_20">
      <g>
       <use xlink:href="#m06279f86a9" x="42.674844" y="293.778349" style="fill: #333333; stroke: #333333; stroke-width: 0.8"/>
      </g>
     </g>
     <g id="text_11">
      <!-- 0.2 -->
      <g style="fill: #333333" transform="translate(21.362031 297.197646) scale(0.09 -0.09)">
       <use xlink:href="#DejaVuSerif-30"/>
       <use xlink:href="#DejaVuSerif-2e" transform="translate(63.623047 0)"/>
       <use xlink:href="#DejaVuSerif-32" transform="translate(95.410156 0)"/>
      </g>
     </g>
    </g>
    <g id="ytick_4">
     <g id="line2d_21">
      <path d="M 42.674844 255.565524 
L 675.804844 255.565524 
" clip-path="url(#ped35d23c7a)" style="fill: none; stroke: #eeeeee; stroke-opacity: 0.75; stroke-width: 0.6; stroke-linecap: square"/>
     </g>
     <g id="line2d_22">
      <g>
       <use xlink:href="#m06279f86a9" x="42.674844" y="255.565524" style="fill: #333333; stroke: #333333; stroke-width: 0.8"/>
      </g>
     </g>
     <g id="text_12">
      <!-- 0.3 -->
      <g style="fill: #333333" transform="translate(21.362031 258.984821) scale(0.09 -0.09)">
       <use xlink:href="#DejaVuSerif-30"/>
       <use xlink:href="#DejaVuSerif-2e" transform="translate(63.623047 0)"/>
       <use xlink:href="#DejaVuSerif-33" transform="translate(95.410156 0)"/>
      </g>
     </g>
    </g>
    <g id="ytick_5">
     <g id="line2d_23">
      <path d="M 42.674844 217.352698 
L 675.804844 217.352698 
" clip-path="url(#ped35d23c7a)" style="fill: none; stroke: #eeeeee; stroke-opacity: 0.75; stroke-width: 0.6; stroke-linecap: square"/>
     </g>
     <g id="line2d_24">
      <g>
       <use xlink:href="#m06279f86a9" x="42.674844" y="217.352698" style="fill: #333333; stroke: #333333; stroke-width: 0.8"/>
      </g>
     </g>
     <g id="text_13">
      <!-- 0.4 -->
      <g style="fill: #333333" transform="translate(21.362031 220.771995) scale(0.09 -0.09)">
       <use xlink:href="#DejaVuSerif-30"/>
       <use xlink:href="#DejaVuSerif-2e" transform="translate(63.623047 0)"/>
       <use xlink:href="#DejaVuSerif-34" transform="translate(95.410156 0)"/>
      </g>
     </g>
    </g>
    <g id="ytick_6">
     <g id="line2d_25">
      <path d="M 42.674844 179.139873 
L 675.804844 179.139873 
" clip-path="url(#ped35d23c7a)" style="fill: none; stroke: #eeeeee; stroke-opacity: 0.75; stroke-width: 0.6; stroke-linecap: square"/>
     </g>
     <g id="line2d_26">
      <g>
       <use xlink:href="#m06279f86a9" x="42.674844" y="179.139873" style="fill: #333333; stroke: #333333; stroke-width: 0.8"/>
      </g>
     </g>
     <g id="text_14">
      <!-- 0.5 -->
      <g style="fill: #333333" transform="translate(21.362031 182.55917) scale(0.09 -0.09)">
       <use xlink:href="#DejaVuSerif-30"/>
       <use xlink:href="#DejaVuSerif-2e" transform="translate(63.623047 0)"/>
       <use xlink:href="#DejaVuSerif-35" transform="translate(95.410156 0)"/>
      </g>
     </g>
    </g>
    <g id="ytick_7">
     <g id="line2d_27">
      <path d="M 42.674844 140.927048 
L 675.804844 140.927048 
" clip-path="url(#ped35d23c7a)" style="fill: none; stroke: #eeeeee; stroke-opacity: 0.75; stroke-width: 0.6; stroke-linecap: square"/>
     </g>
     <g id="line2d_28">
      <g>
       <use xlink:href="#m06279f86a9" x="42.674844" y="140.927048" style="fill: #333333; stroke: #333333; stroke-width: 0.8"/>
      </g>
     </g>
     <g id="text_15">
      <!-- 0.6 -->
      <g style="fill: #333333" transform="translate(21.362031 144.346344) scale(0.09 -0.09)">
       <use xlink:href="#DejaVuSerif-30"/>
       <use xlink:href="#DejaVuSerif-2e" transform="translate(63.623047 0)"/>
       <use xlink:href="#DejaVuSerif-36" transform="translate(95.410156 0)"/>
      </g>
     </g>
    </g>
    <g id="ytick_8">
     <g id="line2d_29">
      <path d="M 42.674844 102.714222 
L 675.804844 102.714222 
" clip-path="url(#ped35d23c7a)" style="fill: none; stroke: #eeeeee; stroke-opacity: 0.75; stroke-width: 0.6; stroke-linecap: square"/>
     </g>
     <g id="line2d_30">
      <g>
       <use xlink:href="#m06279f86a9" x="42.674844" y="102.714222" style="fill: #333333; stroke: #333333; stroke-width: 0.8"/>
      </g>
     </g>
     <g id="text_16">
      <!-- 0.7 -->
      <g style="fill: #333333" transform="translate(21.362031 106.133519) scale(0.09 -0.09)">
       <defs>
        <path id="DejaVuSerif-37" d="M 3609 4347 
L 1784 0 
L 1319 0 
L 3059 4153 
L 903 4153 
L 903 3578 
L 538 3578 
L 538 4666 
L 3609 4666 
L 3609 4347 
z
" transform="scale(0.015625)"/>
       </defs>
       <use xlink:href="#DejaVuSerif-30"/>
       <use xlink:href="#DejaVuSerif-2e" transform="translate(63.623047 0)"/>
       <use xlink:href="#DejaVuSerif-37" transform="translate(95.410156 0)"/>
      </g>
     </g>
    </g>
    <g id="ytick_9">
     <g id="line2d_31">
      <path d="M 42.674844 64.501397 
L 675.804844 64.501397 
" clip-path="url(#ped35d23c7a)" style="fill: none; stroke: #eeeeee; stroke-opacity: 0.75; stroke-width: 0.6; stroke-linecap: square"/>
     </g>
     <g id="line2d_32">
      <g>
       <use xlink:href="#m06279f86a9" x="42.674844" y="64.501397" style="fill: #333333; stroke: #333333; stroke-width: 0.8"/>
      </g>
     </g>
     <g id="text_17">
      <!-- 0.8 -->
      <g style="fill: #333333" transform="translate(21.362031 67.920694) scale(0.09 -0.09)">
       <defs>
        <path id="DejaVuSerif-38" d="M 2981 1275 
Q 2981 1775 2732 2051 
Q 2484 2328 2034 2328 
Q 1584 2328 1336 2051 
Q 1088 1775 1088 1275 
Q 1088 772 1336 495 
Q 1584 219 2034 219 
Q 2484 219 2732 495 
Q 2981 772 2981 1275 
z
M 2853 3541 
Q 2853 3966 2637 4203 
Q 2422 4441 2034 4441 
Q 1650 4441 1433 4203 
Q 1216 3966 1216 3541 
Q 1216 3113 1433 2875 
Q 1650 2638 2034 2638 
Q 2422 2638 2637 2875 
Q 2853 3113 2853 3541 
z
M 2516 2484 
Q 3047 2413 3344 2092 
Q 3641 1772 3641 1275 
Q 3641 619 3225 264 
Q 2809 -91 2034 -91 
Q 1263 -91 845 264 
Q 428 619 428 1275 
Q 428 1772 725 2092 
Q 1022 2413 1556 2484 
Q 1084 2569 832 2842 
Q 581 3116 581 3541 
Q 581 4103 968 4426 
Q 1356 4750 2034 4750 
Q 2713 4750 3100 4426 
Q 3488 4103 3488 3541 
Q 3488 3116 3236 2842 
Q 2984 2569 2516 2484 
z
" transform="scale(0.015625)"/>
       </defs>
       <use xlink:href="#DejaVuSerif-30"/>
       <use xlink:href="#DejaVuSerif-2e" transform="translate(63.623047 0)"/>
       <use xlink:href="#DejaVuSerif-38" transform="translate(95.410156 0)"/>
      </g>
     </g>
    </g>
    <g id="text_18">
     <!-- Density -->
     <g style="fill: #2e2e2e" transform="translate(15.029063 223.590875) rotate(-90) scale(0.105 -0.105)">
      <defs>
       <path id="DejaVuSerif-44" d="M 1581 331 
L 2163 331 
Q 3072 331 3558 850 
Q 4044 1369 4044 2338 
Q 4044 3306 3559 3818 
Q 3075 4331 2163 4331 
L 1581 4331 
L 1581 331 
z
M 353 0 
L 353 331 
L 947 331 
L 947 4331 
L 353 4331 
L 353 4666 
L 2209 4666 
Q 3416 4666 4089 4050 
Q 4763 3434 4763 2338 
Q 4763 1238 4088 619 
Q 3413 0 2209 0 
L 353 0 
z
" transform="scale(0.015625)"/>
       <path id="DejaVuSerif-6e" d="M 263 0 
L 263 331 
L 781 331 
L 781 2988 
L 231 2988 
L 231 3322 
L 1356 3322 
L 1356 2731 
Q 1516 3069 1770 3241 
Q 2025 3413 2363 3413 
Q 2913 3413 3172 3097 
Q 3431 2781 3431 2113 
L 3431 331 
L 3944 331 
L 3944 0 
L 2356 0 
L 2356 331 
L 2853 331 
L 2853 1931 
Q 2853 2541 2703 2767 
Q 2553 2994 2175 2994 
Q 1775 2994 1565 2701 
Q 1356 2409 1356 1850 
L 1356 331 
L 1856 331 
L 1856 0 
L 263 0 
z
" transform="scale(0.015625)"/>
       <path id="DejaVuSerif-74" d="M 691 2988 
L 184 2988 
L 184 3322 
L 691 3322 
L 691 4353 
L 1269 4353 
L 1269 3322 
L 2350 3322 
L 2350 2988 
L 1269 2988 
L 1269 878 
Q 1269 456 1350 337 
Q 1431 219 1650 219 
Q 1875 219 1978 351 
Q 2081 484 2088 781 
L 2522 781 
Q 2497 328 2275 118 
Q 2053 -91 1600 -91 
Q 1103 -91 897 129 
Q 691 350 691 878 
L 691 2988 
z
" transform="scale(0.015625)"/>
       <path id="DejaVuSerif-79" d="M 1381 -609 
L 1600 -56 
L 359 2988 
L -19 2988 
L -19 3322 
L 1509 3322 
L 1509 2988 
L 978 2988 
L 1913 703 
L 2847 2988 
L 2350 2988 
L 2350 3322 
L 3597 3322 
L 3597 2988 
L 3225 2988 
L 1703 -750 
Q 1547 -1138 1356 -1280 
Q 1166 -1422 819 -1422 
Q 672 -1422 517 -1397 
Q 363 -1372 206 -1325 
L 206 -691 
L 500 -691 
Q 519 -903 608 -995 
Q 697 -1088 884 -1088 
Q 1056 -1088 1161 -992 
Q 1266 -897 1381 -609 
z
" transform="scale(0.015625)"/>
      </defs>
      <use xlink:href="#DejaVuSerif-44"/>
      <use xlink:href="#DejaVuSerif-65" transform="translate(80.175781 0)"/>
      <use xlink:href="#DejaVuSerif-6e" transform="translate(139.355469 0)"/>
      <use xlink:href="#DejaVuSerif-73" transform="translate(203.759766 0)"/>
      <use xlink:href="#DejaVuSerif-69" transform="translate(255.078125 0)"/>
      <use xlink:href="#DejaVuSerif-74" transform="translate(287.060547 0)"/>
      <use xlink:href="#DejaVuSerif-79" transform="translate(327.246094 0)"/>
     </g>
    </g>
   </g>
   <g id="patch_63">
    <path d="M 42.674844 370.204 
L 42.674844 36.684 
" style="fill: none; stroke: #444444; stroke-width: 0.9; stroke-linejoin: miter; stroke-linecap: square"/>
   </g>
   <g id="patch_64">
    <path d="M 42.674844 370.204 
L 675.804844 370.204 
" style="fill: none; stroke: #444444; stroke-width: 0.9; stroke-linejoin: miter; stroke-linecap: square"/>
   </g>
   <g id="legend_1">
    <g id="patch_65">
     <path d="M 540.492656 70.560563 
L 669.504844 70.560563 
Q 671.304844 70.560563 671.304844 68.760562 
L 671.304844 42.984 
Q 671.304844 41.184 669.504844 41.184 
L 540.492656 41.184 
Q 538.692656 41.184 538.692656 42.984 
L 538.692656 68.760562 
Q 538.692656 70.560563 540.492656 70.560563 
z
" style="fill: #ffffff; opacity: 0.95; stroke: #d9d9d9; stroke-width: 0.8; stroke-linejoin: miter"/>
    </g>
    <g id="patch_66">
     <path d="M 542.292656 51.622594 
L 560.292656 51.622594 
L 560.292656 45.322594 
L 542.292656 45.322594 
z
" style="fill: #2166ac; opacity: 0.6; stroke: #ffffff; stroke-linejoin: miter"/>
    </g>
    <g id="text_19">
     <!-- Type A (Autonomy) -->
     <g transform="translate(567.492656 51.622594) scale(0.09 -0.09)">
      <defs>
       <path id="DejaVuSerif-70" d="M 1313 1825 
L 1313 1497 
Q 1313 897 1542 583 
Q 1772 269 2209 269 
Q 2650 269 2876 622 
Q 3103 975 3103 1663 
Q 3103 2353 2876 2703 
Q 2650 3053 2209 3053 
Q 1772 3053 1542 2737 
Q 1313 2422 1313 1825 
z
M 738 2988 
L 184 2988 
L 184 3322 
L 1313 3322 
L 1313 2803 
Q 1481 3116 1742 3264 
Q 2003 3413 2388 3413 
Q 3000 3413 3387 2928 
Q 3775 2444 3775 1663 
Q 3775 881 3387 395 
Q 3000 -91 2388 -91 
Q 2003 -91 1742 57 
Q 1481 206 1313 519 
L 1313 -997 
L 1856 -997 
L 1856 -1331 
L 184 -1331 
L 184 -997 
L 738 -997 
L 738 2988 
z
" transform="scale(0.015625)"/>
      </defs>
      <use xlink:href="#DejaVuSerif-54"/>
      <use xlink:href="#DejaVuSerif-79" transform="translate(66.699219 0)"/>
      <use xlink:href="#DejaVuSerif-70" transform="translate(123.193359 0)"/>
      <use xlink:href="#DejaVuSerif-65" transform="translate(187.207031 0)"/>
      <use xlink:href="#DejaVuSerif-20" transform="translate(246.386719 0)"/>
      <use xlink:href="#DejaVuSerif-41" transform="translate(278.173828 0)"/>
      <use xlink:href="#DejaVuSerif-20" transform="translate(350.390625 0)"/>
      <use xlink:href="#DejaVuSerif-28" transform="translate(382.177734 0)"/>
      <use xlink:href="#DejaVuSerif-41" transform="translate(421.191406 0)"/>
      <use xlink:href="#DejaVuSerif-75" transform="translate(493.408203 0)"/>
      <use xlink:href="#DejaVuSerif-74" transform="translate(557.8125 0)"/>
      <use xlink:href="#DejaVuSerif-6f" transform="translate(597.998047 0)"/>
      <use xlink:href="#DejaVuSerif-6e" transform="translate(658.203125 0)"/>
      <use xlink:href="#DejaVuSerif-6f" transform="translate(722.607422 0)"/>
      <use xlink:href="#DejaVuSerif-6d" transform="translate(782.8125 0)"/>
      <use xlink:href="#DejaVuSerif-79" transform="translate(877.636719 0)"/>
      <use xlink:href="#DejaVuSerif-29" transform="translate(934.130859 0)"/>
     </g>
    </g>
    <g id="patch_67">
     <path d="M 542.292656 64.960875 
L 560.292656 64.960875 
L 560.292656 58.660875 
L 542.292656 58.660875 
z
" style="fill: #b2182b; opacity: 0.6; stroke: #ffffff; stroke-linejoin: miter"/>
    </g>
    <g id="text_20">
     <!-- Type B (Convenience) -->
     <g transform="translate(567.492656 64.960875) scale(0.09 -0.09)">
      <defs>
       <path id="DejaVuSerif-42" d="M 1581 331 
L 2516 331 
Q 3078 331 3337 575 
Q 3597 819 3597 1350 
Q 3597 1878 3339 2120 
Q 3081 2363 2516 2363 
L 1581 2363 
L 1581 331 
z
M 1581 2694 
L 2375 2694 
Q 2888 2694 3123 2891 
Q 3359 3088 3359 3513 
Q 3359 3941 3123 4136 
Q 2888 4331 2375 4331 
L 1581 4331 
L 1581 2694 
z
M 353 0 
L 353 331 
L 947 331 
L 947 4331 
L 353 4331 
L 353 4666 
L 2656 4666 
Q 3363 4666 3720 4377 
Q 4078 4088 4078 3513 
Q 4078 3097 3829 2850 
Q 3581 2603 3103 2547 
Q 3697 2472 4005 2167 
Q 4313 1863 4313 1350 
Q 4313 656 3875 328 
Q 3438 0 2509 0 
L 353 0 
z
" transform="scale(0.015625)"/>
       <path id="DejaVuSerif-43" d="M 4513 1234 
Q 4306 581 3820 245 
Q 3334 -91 2591 -91 
Q 2134 -91 1743 65 
Q 1353 222 1050 525 
Q 700 875 529 1320 
Q 359 1766 359 2328 
Q 359 3416 987 4083 
Q 1616 4750 2644 4750 
Q 3025 4750 3456 4650 
Q 3888 4550 4384 4347 
L 4384 3272 
L 4031 3272 
Q 3916 3859 3567 4137 
Q 3219 4416 2591 4416 
Q 1844 4416 1459 3886 
Q 1075 3356 1075 2328 
Q 1075 1303 1459 773 
Q 1844 244 2591 244 
Q 3113 244 3450 492 
Q 3788 741 3938 1234 
L 4513 1234 
z
" transform="scale(0.015625)"/>
       <path id="DejaVuSerif-63" d="M 3291 997 
Q 3169 466 2822 187 
Q 2475 -91 1925 -91 
Q 1200 -91 759 389 
Q 319 869 319 1663 
Q 319 2459 759 2936 
Q 1200 3413 1925 3413 
Q 2241 3413 2553 3339 
Q 2866 3266 3181 3116 
L 3181 2266 
L 2847 2266 
Q 2781 2703 2561 2903 
Q 2341 3103 1931 3103 
Q 1466 3103 1228 2742 
Q 991 2381 991 1663 
Q 991 944 1227 581 
Q 1463 219 1931 219 
Q 2303 219 2525 412 
Q 2747 606 2828 997 
L 3291 997 
z
" transform="scale(0.015625)"/>
      </defs>
      <use xlink:href="#DejaVuSerif-54"/>
      <use xlink:href="#DejaVuSerif-79" transform="translate(66.699219 0)"/>
      <use xlink:href="#DejaVuSerif-70" transform="translate(123.193359 0)"/>
      <use xlink:href="#DejaVuSerif-65" transform="translate(187.207031 0)"/>
      <use xlink:href="#DejaVuSerif-20" transform="translate(246.386719 0)"/>
      <use xlink:href="#DejaVuSerif-42" transform="translate(278.173828 0)"/>
      <use xlink:href="#DejaVuSerif-20" transform="translate(351.660156 0)"/>
      <use xlink:href="#DejaVuSerif-28" transform="translate(383.447266 0)"/>
      <use xlink:href="#DejaVuSerif-43" transform="translate(422.460938 0)"/>
      <use xlink:href="#DejaVuSerif-6f" transform="translate(498.974609 0)"/>
      <use xlink:href="#DejaVuSerif-6e" transform="translate(559.179688 0)"/>
      <use xlink:href="#DejaVuSerif-76" transform="translate(623.583984 0)"/>
      <use xlink:href="#DejaVuSerif-65" transform="translate(680.078125 0)"/>
      <use xlink:href="#DejaVuSerif-6e" transform="translate(739.257812 0)"/>
      <use xlink:href="#DejaVuSerif-69" transform="translate(803.662109 0)"/>
      <use xlink:href="#DejaVuSerif-65" transform="translate(835.644531 0)"/>
      <use xlink:href="#DejaVuSerif-6e" transform="translate(894.824219 0)"/>
      <use xlink:href="#DejaVuSerif-63" transform="translate(959.228516 0)"/>
      <use xlink:href="#DejaVuSerif-65" transform="translate(1015.234375 0)"/>
      <use xlink:href="#DejaVuSerif-29" transform="translate(1074.414062 0)"/>
     </g>
    </g>
   </g>
  </g>
  <g id="text_21">
   <!-- Figure 10. Available Time Distribution at Final Step -->
   <g transform="translate(148.945156 17.077969) scale(0.13 -0.13)">
    <defs>
     <path id="DejaVuSerif-Bold-46" d="M 300 0 
L 300 378 
L 897 378 
L 897 4288 
L 300 4288 
L 300 4666 
L 4459 4666 
L 4459 3566 
L 4031 3566 
L 4031 4238 
L 2106 4238 
L 2106 2741 
L 3291 2741 
L 3291 3334 
L 3719 3334 
L 3719 1722 
L 3291 1722 
L 3291 2316 
L 2106 2316 
L 2106 378 
L 2841 378 
L 2841 0 
L 300 0 
z
" transform="scale(0.015625)"/>
     <path id="DejaVuSerif-Bold-69" d="M 588 4263 
Q 588 4516 763 4689 
Q 938 4863 1191 4863 
Q 1438 4863 1611 4689 
Q 1784 4516 1784 4263 
Q 1784 4016 1611 3842 
Q 1438 3669 1191 3669 
Q 938 3669 763 3841 
Q 588 4013 588 4263 
z
M 1797 378 
L 2272 378 
L 2272 0 
L 219 0 
L 219 378 
L 691 378 
L 691 2944 
L 219 2944 
L 219 3322 
L 1797 3322 
L 1797 378 
z
" transform="scale(0.015625)"/>
     <path id="DejaVuSerif-Bold-67" d="M 3853 2944 
L 3853 44 
Q 3853 -656 3354 -1039 
Q 2856 -1422 1947 -1422 
Q 1616 -1422 1275 -1370 
Q 934 -1319 575 -1216 
L 575 -422 
L 928 -422 
Q 975 -750 1192 -909 
Q 1409 -1069 1813 -1069 
Q 2325 -1069 2536 -823 
Q 2747 -578 2747 44 
L 2747 422 
Q 2606 163 2367 36 
Q 2128 -91 1778 -91 
Q 1072 -91 667 378 
Q 263 847 263 1663 
Q 263 2481 667 2947 
Q 1072 3413 1778 3413 
Q 2128 3413 2367 3286 
Q 2606 3159 2747 2900 
L 2747 3322 
L 4325 3322 
L 4325 2944 
L 3853 2944 
z
M 2747 1825 
Q 2747 2406 2597 2665 
Q 2447 2925 2119 2925 
Q 1775 2925 1636 2651 
Q 1497 2378 1497 1663 
Q 1497 947 1637 672 
Q 1778 397 2119 397 
Q 2447 397 2597 656 
Q 2747 916 2747 1497 
L 2747 1825 
z
" transform="scale(0.015625)"/>
     <path id="DejaVuSerif-Bold-75" d="M 3963 3322 
L 3963 378 
L 4434 378 
L 4434 0 
L 2853 0 
L 2853 469 
Q 2656 172 2400 40 
Q 2144 -91 1753 -91 
Q 1194 -91 908 239 
Q 622 569 622 1209 
L 622 2944 
L 147 2944 
L 147 3322 
L 1728 3322 
L 1728 1381 
Q 1728 763 1831 595 
Q 1934 428 2209 428 
Q 2544 428 2698 675 
Q 2853 922 2853 1459 
L 2853 2944 
L 2450 2944 
L 2450 3322 
L 3963 3322 
z
" transform="scale(0.015625)"/>
     <path id="DejaVuSerif-Bold-72" d="M 3438 3359 
L 3438 2369 
L 3084 2369 
Q 3066 2634 2941 2764 
Q 2816 2894 2578 2894 
Q 2216 2894 2006 2575 
Q 1797 2256 1797 1691 
L 1797 378 
L 2400 378 
L 2400 0 
L 219 0 
L 219 378 
L 691 378 
L 691 2944 
L 184 2944 
L 184 3322 
L 1797 3322 
L 1797 2731 
Q 1959 3078 2226 3245 
Q 2494 3413 2881 3413 
Q 2978 3413 3117 3398 
Q 3256 3384 3438 3359 
z
" transform="scale(0.015625)"/>
     <path id="DejaVuSerif-Bold-65" d="M 2566 1875 
Q 2566 2531 2444 2795 
Q 2322 3059 2028 3059 
Q 1744 3059 1620 2800 
Q 1497 2541 1497 1931 
L 1497 1875 
L 2566 1875 
z
M 3781 1503 
L 1497 1503 
L 1497 1478 
Q 1497 834 1690 548 
Q 1884 263 2316 263 
Q 2675 263 2897 453 
Q 3119 644 3181 1006 
L 3700 1006 
Q 3566 441 3166 175 
Q 2766 -91 2047 -91 
Q 1184 -91 723 364 
Q 263 819 263 1663 
Q 263 2488 734 2950 
Q 1206 3413 2047 3413 
Q 2872 3413 3312 2927 
Q 3753 2441 3781 1503 
z
" transform="scale(0.015625)"/>
     <path id="DejaVuSerif-Bold-20" transform="scale(0.015625)"/>
     <path id="DejaVuSerif-Bold-31" d="M 878 0 
L 878 378 
L 1753 378 
L 1753 4153 
L 781 3578 
L 781 4044 
L 1953 4750 
L 2938 4750 
L 2938 378 
L 3816 378 
L 3816 0 
L 878 0 
z
" transform="scale(0.015625)"/>
     <path id="DejaVuSerif-Bold-30" d="M 2228 275 
Q 2603 275 2742 615 
Q 2881 956 2881 2328 
Q 2881 3691 2742 4037 
Q 2603 4384 2228 4384 
Q 1853 4384 1714 4043 
Q 1575 3703 1575 2328 
Q 1575 956 1714 615 
Q 1853 275 2228 275 
z
M 2228 -91 
Q 1294 -91 797 532 
Q 300 1156 300 2328 
Q 300 3500 797 4125 
Q 1294 4750 2228 4750 
Q 3159 4750 3656 4125 
Q 4153 3500 4153 2328 
Q 4153 1156 3656 532 
Q 3159 -91 2228 -91 
z
" transform="scale(0.015625)"/>
     <path id="DejaVuSerif-Bold-2e" d="M 519 506 
Q 519 750 694 925 
Q 869 1100 1113 1100 
Q 1359 1100 1534 925 
Q 1709 750 1709 506 
Q 1709 259 1534 84 
Q 1359 -91 1113 -91 
Q 869 -91 694 84 
Q 519 259 519 506 
z
" transform="scale(0.015625)"/>
     <path id="DejaVuSerif-Bold-41" d="M -50 0 
L -50 378 
L 331 378 
L 2088 4666 
L 2834 4666 
L 4594 378 
L 5038 378 
L 5038 0 
L 2853 0 
L 2853 378 
L 3309 378 
L 2925 1331 
L 1172 1331 
L 781 378 
L 1338 378 
L 1338 0 
L -50 0 
z
M 1325 1709 
L 2772 1709 
L 2053 3494 
L 1325 1709 
z
" transform="scale(0.015625)"/>
     <path id="DejaVuSerif-Bold-76" d="M 1428 0 
L 250 2944 
L -116 2944 
L -116 3322 
L 1791 3322 
L 1791 2944 
L 1388 2944 
L 2228 844 
L 3066 2944 
L 2631 2944 
L 2631 3322 
L 3878 3322 
L 3878 2944 
L 3494 2944 
L 2316 0 
L 1428 0 
z
" transform="scale(0.015625)"/>
     <path id="DejaVuSerif-Bold-61" d="M 3525 2041 
L 3525 378 
L 4000 378 
L 4000 0 
L 2419 0 
L 2419 422 
Q 2200 159 1931 34 
Q 1663 -91 1319 -91 
Q 809 -91 536 182 
Q 263 456 263 966 
Q 263 1525 655 1803 
Q 1047 2081 1838 2081 
L 2419 2081 
L 2419 2278 
Q 2419 2681 2228 2873 
Q 2038 3066 1638 3066 
Q 1306 3066 1126 2930 
Q 947 2794 872 2484 
L 519 2484 
L 519 3200 
Q 816 3306 1134 3359 
Q 1453 3413 1806 3413 
Q 2697 3413 3111 3081 
Q 3525 2750 3525 2041 
z
M 2419 1044 
L 2419 1709 
L 2003 1709 
Q 1694 1709 1528 1540 
Q 1363 1372 1363 1056 
Q 1363 741 1483 584 
Q 1603 428 1850 428 
Q 2106 428 2262 597 
Q 2419 766 2419 1044 
z
" transform="scale(0.015625)"/>
     <path id="DejaVuSerif-Bold-6c" d="M 1797 378 
L 2272 378 
L 2272 0 
L 219 0 
L 219 378 
L 691 378 
L 691 4488 
L 219 4488 
L 219 4863 
L 1797 4863 
L 1797 378 
z
" transform="scale(0.015625)"/>
     <path id="DejaVuSerif-Bold-62" d="M 622 378 
L 622 4488 
L 147 4488 
L 147 4863 
L 1728 4863 
L 1728 2900 
Q 1869 3159 2106 3286 
Q 2344 3413 2694 3413 
Q 3403 3413 3811 2945 
Q 4219 2478 4219 1663 
Q 4219 847 3811 378 
Q 3403 -91 2694 -91 
Q 2344 -91 2106 36 
Q 1869 163 1728 422 
L 1728 0 
L 147 0 
L 147 378 
L 622 378 
z
M 1728 1497 
Q 1728 916 1876 656 
Q 2025 397 2356 397 
Q 2697 397 2836 672 
Q 2975 947 2975 1663 
Q 2975 2378 2836 2651 
Q 2697 2925 2356 2925 
Q 2025 2925 1876 2665 
Q 1728 2406 1728 1825 
L 1728 1497 
z
" transform="scale(0.015625)"/>
     <path id="DejaVuSerif-Bold-54" d="M 1159 0 
L 1159 378 
L 1778 378 
L 1778 4238 
L 500 4238 
L 500 3500 
L 72 3500 
L 72 4666 
L 4697 4666 
L 4697 3500 
L 4275 3500 
L 4275 4238 
L 2988 4238 
L 2988 378 
L 3609 378 
L 3609 0 
L 1159 0 
z
" transform="scale(0.015625)"/>
     <path id="DejaVuSerif-Bold-6d" d="M 3884 2778 
Q 4116 3109 4384 3261 
Q 4653 3413 5013 3413 
Q 5584 3413 5867 3089 
Q 6150 2766 6150 2113 
L 6150 378 
L 6625 378 
L 6625 0 
L 4647 0 
L 4647 378 
L 5044 378 
L 5044 1947 
Q 5044 2569 4948 2731 
Q 4853 2894 4594 2894 
Q 4300 2894 4137 2667 
Q 3975 2441 3975 2022 
L 3975 378 
L 4372 378 
L 4372 0 
L 2472 0 
L 2472 378 
L 2869 378 
L 2869 1947 
Q 2869 2569 2772 2731 
Q 2675 2894 2419 2894 
Q 2122 2894 1959 2667 
Q 1797 2441 1797 2022 
L 1797 378 
L 2194 378 
L 2194 0 
L 219 0 
L 219 378 
L 691 378 
L 691 2944 
L 219 2944 
L 219 3322 
L 1797 3322 
L 1797 2853 
Q 1991 3144 2241 3278 
Q 2491 3413 2834 3413 
Q 3241 3413 3494 3258 
Q 3747 3103 3884 2778 
z
" transform="scale(0.015625)"/>
     <path id="DejaVuSerif-Bold-44" d="M 2100 378 
L 2534 378 
Q 3266 378 3605 847 
Q 3944 1316 3944 2338 
Q 3944 3353 3606 3820 
Q 3269 4288 2534 4288 
L 2100 4288 
L 2100 378 
z
M 300 0 
L 300 378 
L 897 378 
L 897 4288 
L 300 4288 
L 300 4666 
L 2694 4666 
Q 3950 4666 4615 4066 
Q 5281 3466 5281 2338 
Q 5281 1203 4614 601 
Q 3947 0 2694 0 
L 300 0 
z
" transform="scale(0.015625)"/>
     <path id="DejaVuSerif-Bold-73" d="M 300 97 
L 300 1025 
L 653 1025 
Q 697 653 931 458 
Q 1166 263 1569 263 
Q 1906 263 2086 380 
Q 2266 497 2266 716 
Q 2266 916 2152 1025 
Q 2038 1134 1709 1216 
L 1253 1331 
Q 738 1459 506 1698 
Q 275 1938 275 2344 
Q 275 2884 650 3148 
Q 1025 3413 1806 3413 
Q 2100 3413 2433 3364 
Q 2766 3316 3169 3213 
L 3169 2375 
L 2816 2375 
Q 2788 2716 2573 2887 
Q 2359 3059 1959 3059 
Q 1622 3059 1448 2951 
Q 1275 2844 1275 2638 
Q 1275 2469 1375 2372 
Q 1475 2275 1734 2209 
L 2188 2094 
Q 2841 1928 3091 1684 
Q 3341 1441 3341 1006 
Q 3341 444 2939 176 
Q 2538 -91 1691 -91 
Q 1381 -91 1034 -44 
Q 688 3 300 97 
z
" transform="scale(0.015625)"/>
     <path id="DejaVuSerif-Bold-74" d="M 634 2944 
L 153 2944 
L 153 3322 
L 634 3322 
L 634 4353 
L 1741 4353 
L 1741 3322 
L 2663 3322 
L 2663 2944 
L 1741 2944 
L 1741 909 
Q 1741 475 1809 369 
Q 1878 263 2059 263 
Q 2259 263 2356 397 
Q 2453 531 2459 813 
L 2925 813 
Q 2897 313 2651 111 
Q 2406 -91 1806 -91 
Q 1122 -91 878 123 
Q 634 338 634 909 
L 634 2944 
z
" transform="scale(0.015625)"/>
     <path id="DejaVuSerif-Bold-6f" d="M 2138 263 
Q 2488 263 2630 563 
Q 2772 863 2772 1663 
Q 2772 2463 2631 2761 
Q 2491 3059 2138 3059 
Q 1784 3059 1640 2757 
Q 1497 2456 1497 1663 
Q 1497 869 1640 566 
Q 1784 263 2138 263 
z
M 2138 -91 
Q 1259 -91 761 376 
Q 263 844 263 1663 
Q 263 2484 761 2948 
Q 1259 3413 2138 3413 
Q 3019 3413 3516 2948 
Q 4013 2484 4013 1663 
Q 4013 844 3514 376 
Q 3016 -91 2138 -91 
z
" transform="scale(0.015625)"/>
     <path id="DejaVuSerif-Bold-6e" d="M 219 0 
L 219 378 
L 691 378 
L 691 2944 
L 219 2944 
L 219 3322 
L 1797 3322 
L 1797 2853 
Q 1997 3150 2253 3281 
Q 2509 3413 2900 3413 
Q 3459 3413 3745 3083 
Q 4031 2753 4031 2113 
L 4031 378 
L 4506 378 
L 4506 0 
L 2522 0 
L 2522 378 
L 2925 378 
L 2925 2144 
Q 2925 2566 2817 2730 
Q 2709 2894 2444 2894 
Q 2109 2894 1953 2648 
Q 1797 2403 1797 1869 
L 1797 378 
L 2203 378 
L 2203 0 
L 219 0 
z
" transform="scale(0.015625)"/>
     <path id="DejaVuSerif-Bold-53" d="M 494 225 
L 494 1331 
L 891 1331 
Q 981 806 1318 547 
Q 1656 288 2253 288 
Q 2738 288 2991 472 
Q 3244 656 3244 1013 
Q 3244 1294 3072 1450 
Q 2900 1606 2363 1741 
L 1663 1913 
Q 978 2088 700 2398 
Q 422 2709 422 3284 
Q 422 3978 883 4364 
Q 1344 4750 2175 4750 
Q 2584 4750 3026 4681 
Q 3469 4613 3944 4475 
L 3944 3444 
L 3547 3444 
Q 3456 3925 3150 4148 
Q 2844 4372 2278 4372 
Q 1816 4372 1580 4211 
Q 1344 4050 1344 3731 
Q 1344 3441 1506 3289 
Q 1669 3138 2303 2975 
L 3003 2803 
Q 3653 2641 3945 2297 
Q 4238 1953 4238 1350 
Q 4238 644 3750 276 
Q 3263 -91 2316 -91 
Q 1859 -91 1409 -12 
Q 959 66 494 225 
z
" transform="scale(0.015625)"/>
     <path id="DejaVuSerif-Bold-70" d="M 1728 1825 
L 1728 1497 
Q 1728 916 1876 656 
Q 2025 397 2356 397 
Q 2697 397 2836 672 
Q 2975 947 2975 1663 
Q 2975 2378 2836 2651 
Q 2697 2925 2356 2925 
Q 2025 2925 1876 2665 
Q 1728 2406 1728 1825 
z
M 622 2944 
L 147 2944 
L 147 3322 
L 1728 3322 
L 1728 2900 
Q 1869 3159 2106 3286 
Q 2344 3413 2694 3413 
Q 3403 3413 3811 2945 
Q 4219 2478 4219 1663 
Q 4219 847 3811 378 
Q 3403 -91 2694 -91 
Q 2344 -91 2106 36 
Q 1869 163 1728 422 
L 1728 -953 
L 2241 -953 
L 2241 -1331 
L 147 -1331 
L 147 -953 
L 622 -953 
L 622 2944 
z
" transform="scale(0.015625)"/>
    </defs>
    <use xlink:href="#DejaVuSerif-Bold-46"/>
    <use xlink:href="#DejaVuSerif-Bold-69" transform="translate(70.996094 0)"/>
    <use xlink:href="#DejaVuSerif-Bold-67" transform="translate(108.984375 0)"/>
    <use xlink:href="#DejaVuSerif-Bold-75" transform="translate(178.90625 0)"/>
    <use xlink:href="#DejaVuSerif-Bold-72" transform="translate(251.611328 0)"/>
    <use xlink:href="#DejaVuSerif-Bold-65" transform="translate(304.296875 0)"/>
    <use xlink:href="#DejaVuSerif-Bold-20" transform="translate(367.919922 0)"/>
    <use xlink:href="#DejaVuSerif-Bold-31" transform="translate(402.734375 0)"/>
    <use xlink:href="#DejaVuSerif-Bold-30" transform="translate(472.314453 0)"/>
    <use xlink:href="#DejaVuSerif-Bold-2e" transform="translate(541.894531 0)"/>
    <use xlink:href="#DejaVuSerif-Bold-20" transform="translate(576.708984 0)"/>
    <use xlink:href="#DejaVuSerif-Bold-41" transform="translate(611.523438 0)"/>
    <use xlink:href="#DejaVuSerif-Bold-76" transform="translate(685.111328 0)"/>
    <use xlink:href="#DejaVuSerif-Bold-61" transform="translate(743.216797 0)"/>
    <use xlink:href="#DejaVuSerif-Bold-69" transform="translate(808.011719 0)"/>
    <use xlink:href="#DejaVuSerif-Bold-6c" transform="translate(846 0)"/>
    <use xlink:href="#DejaVuSerif-Bold-61" transform="translate(883.988281 0)"/>
    <use xlink:href="#DejaVuSerif-Bold-62" transform="translate(948.783203 0)"/>
    <use xlink:href="#DejaVuSerif-Bold-6c" transform="translate(1018.705078 0)"/>
    <use xlink:href="#DejaVuSerif-Bold-65" transform="translate(1056.693359 0)"/>
    <use xlink:href="#DejaVuSerif-Bold-20" transform="translate(1120.316406 0)"/>
    <use xlink:href="#DejaVuSerif-Bold-54" transform="translate(1155.130859 0)"/>
    <use xlink:href="#DejaVuSerif-Bold-69" transform="translate(1229.544922 0)"/>
    <use xlink:href="#DejaVuSerif-Bold-6d" transform="translate(1267.533203 0)"/>
    <use xlink:href="#DejaVuSerif-Bold-65" transform="translate(1373.34375 0)"/>
    <use xlink:href="#DejaVuSerif-Bold-20" transform="translate(1436.966797 0)"/>
    <use xlink:href="#DejaVuSerif-Bold-44" transform="translate(1471.78125 0)"/>
    <use xlink:href="#DejaVuSerif-Bold-69" transform="translate(1558.5 0)"/>
    <use xlink:href="#DejaVuSerif-Bold-73" transform="translate(1596.488281 0)"/>
    <use xlink:href="#DejaVuSerif-Bold-74" transform="translate(1652.787109 0)"/>
    <use xlink:href="#DejaVuSerif-Bold-72" transform="translate(1698.978516 0)"/>
    <use xlink:href="#DejaVuSerif-Bold-69" transform="translate(1751.664062 0)"/>
    <use xlink:href="#DejaVuSerif-Bold-62" transform="translate(1789.652344 0)"/>
    <use xlink:href="#DejaVuSerif-Bold-75" transform="translate(1859.574219 0)"/>
    <use xlink:href="#DejaVuSerif-Bold-74" transform="translate(1932.279297 0)"/>
    <use xlink:href="#DejaVuSerif-Bold-69" transform="translate(1978.470703 0)"/>
    <use xlink:href="#DejaVuSerif-Bold-6f" transform="translate(2016.458984 0)"/>
    <use xlink:href="#DejaVuSerif-Bold-6e" transform="translate(2083.158203 0)"/>
    <use xlink:href="#DejaVuSerif-Bold-20" transform="translate(2155.863281 0)"/>
    <use xlink:href="#DejaVuSerif-Bold-61" transform="translate(2190.677734 0)"/>
    <use xlink:href="#DejaVuSerif-Bold-74" transform="translate(2255.472656 0)"/>
    <use xlink:href="#DejaVuSerif-Bold-20" transform="translate(2301.664062 0)"/>
    <use xlink:href="#DejaVuSerif-Bold-46" transform="translate(2336.478516 0)"/>
    <use xlink:href="#DejaVuSerif-Bold-69" transform="translate(2407.474609 0)"/>
    <use xlink:href="#DejaVuSerif-Bold-6e" transform="translate(2445.462891 0)"/>
    <use xlink:href="#DejaVuSerif-Bold-61" transform="translate(2518.167969 0)"/>
    <use xlink:href="#DejaVuSerif-Bold-6c" transform="translate(2582.962891 0)"/>
    <use xlink:href="#DejaVuSerif-Bold-20" transform="translate(2620.951172 0)"/>
    <use xlink:href="#DejaVuSerif-Bold-53" transform="translate(2655.765625 0)"/>
    <use xlink:href="#DejaVuSerif-Bold-74" transform="translate(2727.982422 0)"/>
    <use xlink:href="#DejaVuSerif-Bold-65" transform="translate(2774.173828 0)"/>
    <use xlink:href="#DejaVuSerif-Bold-70" transform="translate(2837.796875 0)"/>
   </g>
  </g>
 </g>
 <defs>
  <clipPath id="ped35d23c7a">
   <rect x="42.674844" y="36.684" width="633.13" height="333.52"/>
  </clipPath>
 </defs>
</svg>
