<?xml version="1.0" encoding="utf-8" standalone="no"?>
<!DOCTYPE svg PUBLIC "-//W3C//DTD SVG 1.1//EN"
  "http://www.w3.org/Graphics/SVG/1.1/DTD/svg11.dtd">
<svg xmlns:xlink="http://www.w3.org/1999/xlink" width="625.420313pt" height="521.782087pt" viewBox="0 0 625.420313 521.782087" xmlns="http://www.w3.org/2000/svg" version="1.1">
 <metadata>
  <rdf:RDF xmlns:dc="http://purl.org/dc/elements/1.1/" xmlns:cc="http://creativecommons.org/ns#" xmlns:rdf="http://www.w3.org/1999/02/22-rdf-syntax-ns#">
   <cc:Work>
    <dc:type rdf:resource="http://purl.org/dc/dcmitype/StillImage"/>
    <dc:date>2026-04-02T18:38:11.235474</dc:date>
    <dc:format>image/svg+xml</dc:format>
    <dc:creator>
     <cc:Agent>
      <dc:title>Matplotlib v3.10.8, https://matplotlib.org/</dc:title>
     </cc:Agent>
    </dc:creator>
   </cc:Work>
  </rdf:RDF>
 </metadata>
 <defs>
  <style type="text/css">*{stroke-linejoin: round; stroke-linecap: butt}</style>
 </defs>
 <g id="figure_1">
  <g id="patch_1">
   <path d="M 0 521.782087 
L 625.420313 521.782087 
L 625.420313 0 
L 0 0 
z
" style="fill: #ffffff"/>
  </g>
  <g id="axes_1">
   <g id="patch_2">
    <path d="M 323.221792 113.920709 
Q 398.623114 179.041174 495.059625 192.660885 
" style="fill: none; stroke: #b2182b; stroke-width: 2; stroke-linecap: round"/>
    <path d="M 491.194563 189.994183 
L 495.059625 192.660885 
L 490.607226 194.152913 
z
" style="fill: #b2182b; stroke: #b2182b; stroke-width: 2; stroke-linecap: round"/>
   </g>
   <g id="text_1">
    <g id="patch_3">
     <path d="M 405.036087 161.168781 
L 415.92968 161.168781 
Q 417.87968 161.168781 417.87968 159.218781 
L 417.87968 146.637219 
Q 417.87968 144.687219 415.92968 144.687219 
L 405.036087 144.687219 
Q 403.086087 144.687219 403.086087 146.637219 
L 403.086087 159.218781 
Q 403.086087 161.168781 405.036087 161.168781 
z
" style="fill: #ffffff; stroke: #b2182b; stroke-width: 0.8; stroke-linejoin: miter"/>
    </g>
    <!-- + -->
    <g style="fill: #b2182b" transform="translate(405.036087 156.515188) scale(0.13 -0.13)">
     <defs>
      <path id="DejaVuSerif-Bold-2b" d="M 3041 4013 
L 3041 2369 
L 4684 2369 
L 4684 1650 
L 3041 1650 
L 3041 6 
L 2322 6 
L 2322 1650 
L 678 1650 
L 678 2369 
L 2322 2369 
L 2322 4013 
L 3041 4013 
z
" transform="scale(0.015625)"/>
     </defs>
     <use xlink:href="#DejaVuSerif-Bold-2b"/>
    </g>
   </g>
   <g id="patch_4">
    <path d="M 498.687326 195.16507 
Q 475.63212 273.887235 498.058415 350.463466 
" style="fill: none; stroke: #2166ac; stroke-width: 2; stroke-linecap: round"/>
    <path d="M 498.893325 345.842543 
L 498.058415 350.463466 
L 494.862623 347.022984 
z
" style="fill: #2166ac; stroke: #2166ac; stroke-width: 2; stroke-linecap: round"/>
   </g>
   <g id="text_2">
    <g id="patch_5">
     <path d="M 493.808814 282.128781 
L 504.702408 282.128781 
Q 506.652408 282.128781 506.652408 280.178781 
L 506.652408 267.597219 
Q 506.652408 265.647219 504.702408 265.647219 
L 493.808814 265.647219 
Q 491.858814 265.647219 491.858814 267.597219 
L 491.858814 280.178781 
Q 491.858814 282.128781 493.808814 282.128781 
z
" style="fill: #ffffff; stroke: #2166ac; stroke-width: 0.8; stroke-linejoin: miter"/>
    </g>
    <!-- − -->
    <g style="fill: #2166ac" transform="translate(493.808814 277.475188) scale(0.13 -0.13)">
     <defs>
      <path id="DejaVuSerif-Bold-2212" d="M 678 2363 
L 4684 2363 
L 4684 1644 
L 678 1644 
L 678 2363 
z
" transform="scale(0.015625)"/>
     </defs>
     <use xlink:href="#DejaVuSerif-Bold-2212"/>
    </g>
   </g>
   <g id="patch_6">
    <path d="M 497.27247 354.802595 
Q 398.622011 368.735327 324.913126 432.394557 
" style="fill: none; stroke: #2166ac; stroke-width: 2; stroke-linecap: round"/>
    <path d="M 329.464371 431.238627 
L 324.913126 432.394557 
L 326.719129 428.060003 
z
" style="fill: #2166ac; stroke: #2166ac; stroke-width: 2; stroke-linecap: round"/>
   </g>
   <g id="text_3">
    <g id="patch_7">
     <path d="M 405.036087 403.088781 
L 415.92968 403.088781 
Q 417.87968 403.088781 417.87968 401.138781 
L 417.87968 388.557219 
Q 417.87968 386.607219 415.92968 386.607219 
L 405.036087 386.607219 
Q 403.086087 386.607219 403.086087 388.557219 
L 403.086087 401.138781 
Q 403.086087 403.088781 405.036087 403.088781 
z
" style="fill: #ffffff; stroke: #2166ac; stroke-width: 0.8; stroke-linejoin: miter"/>
    </g>
    <!-- − -->
    <g style="fill: #2166ac" transform="translate(405.036087 398.435187) scale(0.13 -0.13)">
     <use xlink:href="#DejaVuSerif-Bold-2212"/>
    </g>
   </g>
   <g id="patch_8">
    <path d="M 320.198521 433.855291 
Q 244.797199 368.734826 148.360688 355.115115 
" style="fill: none; stroke: #b2182b; stroke-width: 2; stroke-linecap: round"/>
    <path d="M 152.22575 357.781817 
L 148.360688 355.115115 
L 152.813086 353.623087 
z
" style="fill: #b2182b; stroke: #b2182b; stroke-width: 2; stroke-linecap: round"/>
   </g>
   <g id="text_4">
    <g id="patch_9">
     <path d="M 227.490632 403.088781 
L 238.384226 403.088781 
Q 240.334226 403.088781 240.334226 401.138781 
L 240.334226 388.557219 
Q 240.334226 386.607219 238.384226 386.607219 
L 227.490632 386.607219 
Q 225.540632 386.607219 225.540632 388.557219 
L 225.540632 401.138781 
Q 225.540632 403.088781 227.490632 403.088781 
z
" style="fill: #ffffff; stroke: #b2182b; stroke-width: 0.8; stroke-linejoin: miter"/>
    </g>
    <!-- + -->
    <g style="fill: #b2182b" transform="translate(227.490632 398.435187) scale(0.13 -0.13)">
     <use xlink:href="#DejaVuSerif-Bold-2b"/>
    </g>
   </g>
   <g id="patch_10">
    <path d="M 145.76087 353.319661 
Q 268.765701 259.860459 320.280585 116.594125 
" style="fill: none; stroke: #b2182b; stroke-width: 2; stroke-linecap: round"/>
    <path d="M 316.883322 119.835822 
L 320.280585 116.594125 
L 320.835585 121.256954 
z
" style="fill: #b2182b; stroke: #b2182b; stroke-width: 2; stroke-linecap: round"/>
   </g>
   <g id="text_5">
    <g id="patch_11">
     <path d="M 227.490632 241.808781 
L 238.384226 241.808781 
Q 240.334226 241.808781 240.334226 239.858781 
L 240.334226 227.277219 
Q 240.334226 225.327219 238.384226 225.327219 
L 227.490632 225.327219 
Q 225.540632 225.327219 225.540632 227.277219 
L 225.540632 239.858781 
Q 225.540632 241.808781 227.490632 241.808781 
z
" style="fill: #ffffff; stroke: #b2182b; stroke-width: 0.8; stroke-linejoin: miter"/>
    </g>
    <!-- + -->
    <g style="fill: #b2182b" transform="translate(227.490632 237.155188) scale(0.13 -0.13)">
     <use xlink:href="#DejaVuSerif-Bold-2b"/>
    </g>
   </g>
   <g id="patch_12">
    <path d="M 321.141871 114.52507 
Q 298.086665 193.247235 320.51296 269.823466 
" style="fill: none; stroke: #b2182b; stroke-width: 2; stroke-linecap: round"/>
    <path d="M 321.34787 265.202543 
L 320.51296 269.823466 
L 317.317168 266.382984 
z
" style="fill: #b2182b; stroke: #b2182b; stroke-width: 2; stroke-linecap: round"/>
   </g>
   <g id="text_6">
    <g id="patch_13">
     <path d="M 316.263359 201.488781 
L 327.156953 201.488781 
Q 329.106953 201.488781 329.106953 199.538781 
L 329.106953 186.957219 
Q 329.106953 185.007219 327.156953 185.007219 
L 316.263359 185.007219 
Q 314.313359 185.007219 314.313359 186.957219 
L 314.313359 199.538781 
Q 314.313359 201.488781 316.263359 201.488781 
z
" style="fill: #ffffff; stroke: #b2182b; stroke-width: 0.8; stroke-linejoin: miter"/>
    </g>
    <!-- + -->
    <g style="fill: #b2182b" transform="translate(316.263359 196.835188) scale(0.13 -0.13)">
     <use xlink:href="#DejaVuSerif-Bold-2b"/>
    </g>
   </g>
   <g id="patch_14">
    <path d="M 320.198521 272.575291 
Q 244.797199 207.454826 148.360688 193.835115 
" style="fill: none; stroke: #b2182b; stroke-width: 2; stroke-linecap: round"/>
    <path d="M 152.22575 196.501817 
L 148.360688 193.835115 
L 152.813086 192.343087 
z
" style="fill: #b2182b; stroke: #b2182b; stroke-width: 2; stroke-linecap: round"/>
   </g>
   <g id="text_7">
    <g id="patch_15">
     <path d="M 227.490632 241.808781 
L 238.384226 241.808781 
Q 240.334226 241.808781 240.334226 239.858781 
L 240.334226 227.277219 
Q 240.334226 225.327219 238.384226 225.327219 
L 227.490632 225.327219 
Q 225.540632 225.327219 225.540632 227.277219 
L 225.540632 239.858781 
Q 225.540632 241.808781 227.490632 241.808781 
z
" style="fill: #ffffff; stroke: #b2182b; stroke-width: 0.8; stroke-linejoin: miter"/>
    </g>
    <!-- + -->
    <g style="fill: #b2182b" transform="translate(227.490632 237.155188) scale(0.13 -0.13)">
     <use xlink:href="#DejaVuSerif-Bold-2b"/>
    </g>
   </g>
   <g id="patch_16">
    <path d="M 146.147842 192.973405 
Q 244.798302 179.040673 318.507186 115.381443 
" style="fill: none; stroke: #b2182b; stroke-width: 2; stroke-linecap: round"/>
    <path d="M 313.955942 116.537373 
L 318.507186 115.381443 
L 316.701184 119.715997 
z
" style="fill: #b2182b; stroke: #b2182b; stroke-width: 2; stroke-linecap: round"/>
   </g>
   <g id="text_8">
    <g id="patch_17">
     <path d="M 227.490632 161.168781 
L 238.384226 161.168781 
Q 240.334226 161.168781 240.334226 159.218781 
L 240.334226 146.637219 
Q 240.334226 144.687219 238.384226 144.687219 
L 227.490632 144.687219 
Q 225.540632 144.687219 225.540632 146.637219 
L 225.540632 159.218781 
Q 225.540632 161.168781 227.490632 161.168781 
z
" style="fill: #ffffff; stroke: #b2182b; stroke-width: 0.8; stroke-linejoin: miter"/>
    </g>
    <!-- + -->
    <g style="fill: #b2182b" transform="translate(227.490632 156.515188) scale(0.13 -0.13)">
     <use xlink:href="#DejaVuSerif-Bold-2b"/>
    </g>
   </g>
   <g id="patch_18">
    <path d="M 319.727016 274.162595 
Q 221.076556 288.095327 147.367672 351.754557 
" style="fill: none; stroke: #b2182b; stroke-width: 2; stroke-linecap: round"/>
    <path d="M 151.918916 350.598627 
L 147.367672 351.754557 
L 149.173674 347.420003 
z
" style="fill: #b2182b; stroke: #b2182b; stroke-width: 2; stroke-linecap: round"/>
   </g>
   <g id="text_9">
    <g id="patch_19">
     <path d="M 227.490632 322.448781 
L 238.384226 322.448781 
Q 240.334226 322.448781 240.334226 320.498781 
L 240.334226 307.917219 
Q 240.334226 305.967219 238.384226 305.967219 
L 227.490632 305.967219 
Q 225.540632 305.967219 225.540632 307.917219 
L 225.540632 320.498781 
Q 225.540632 322.448781 227.490632 322.448781 
z
" style="fill: #ffffff; stroke: #b2182b; stroke-width: 0.8; stroke-linejoin: miter"/>
    </g>
    <!-- + -->
    <g style="fill: #b2182b" transform="translate(227.490632 317.795187) scale(0.13 -0.13)">
     <use xlink:href="#DejaVuSerif-Bold-2b"/>
    </g>
   </g>
   <g id="text_10">
    <g id="patch_20">
     <path d="M 292.785117 128.967164 
L 350.635195 128.967164 
Q 355.885195 128.967164 355.885195 123.717164 
L 355.885195 101.498836 
Q 355.885195 96.248836 350.635195 96.248836 
L 292.785117 96.248836 
Q 287.535117 96.248836 287.535117 101.498836 
L 287.535117 123.717164 
Q 287.535117 128.967164 292.785117 128.967164 
z
" style="fill: #ffffff; stroke: #333333; stroke-width: 1.3; stroke-linejoin: miter"/>
    </g>
    <!-- Delegation -->
    <g transform="translate(292.785117 109.477195) scale(0.105 -0.105)">
     <defs>
      <path id="DejaVuSerif-44" d="M 1581 331 
L 2163 331 
Q 3072 331 3558 850 
Q 4044 1369 4044 2338 
Q 4044 3306 3559 3818 
Q 3075 4331 2163 4331 
L 1581 4331 
L 1581 331 
z
M 353 0 
L 353 331 
L 947 331 
L 947 4331 
L 353 4331 
L 353 4666 
L 2209 4666 
Q 3416 4666 4089 4050 
Q 4763 3434 4763 2338 
Q 4763 1238 4088 619 
Q 3413 0 2209 0 
L 353 0 
z
" transform="scale(0.015625)"/>
      <path id="DejaVuSerif-65" d="M 3469 1600 
L 991 1600 
L 991 1575 
Q 991 903 1244 561 
Q 1497 219 1991 219 
Q 2369 219 2611 417 
Q 2853 616 2950 1006 
L 3413 1006 
Q 3275 459 2904 184 
Q 2534 -91 1931 -91 
Q 1203 -91 761 389 
Q 319 869 319 1663 
Q 319 2450 753 2931 
Q 1188 3413 1894 3413 
Q 2647 3413 3050 2948 
Q 3453 2484 3469 1600 
z
M 2791 1931 
Q 2772 2513 2545 2808 
Q 2319 3103 1894 3103 
Q 1497 3103 1269 2806 
Q 1041 2509 991 1931 
L 2791 1931 
z
" transform="scale(0.015625)"/>
      <path id="DejaVuSerif-6c" d="M 1313 331 
L 1856 331 
L 1856 0 
L 184 0 
L 184 331 
L 738 331 
L 738 4531 
L 184 4531 
L 184 4863 
L 1313 4863 
L 1313 331 
z
" transform="scale(0.015625)"/>
      <path id="DejaVuSerif-67" d="M 3359 2988 
L 3359 72 
Q 3359 -644 2965 -1033 
Q 2572 -1422 1844 -1422 
Q 1516 -1422 1216 -1362 
Q 916 -1303 641 -1184 
L 641 -488 
L 941 -488 
Q 997 -813 1206 -963 
Q 1416 -1113 1806 -1113 
Q 2313 -1113 2548 -827 
Q 2784 -541 2784 72 
L 2784 519 
Q 2616 206 2355 57 
Q 2094 -91 1709 -91 
Q 1097 -91 708 395 
Q 319 881 319 1663 
Q 319 2444 706 2928 
Q 1094 3413 1709 3413 
Q 2094 3413 2355 3264 
Q 2616 3116 2784 2803 
L 2784 3322 
L 3909 3322 
L 3909 2988 
L 3359 2988 
z
M 2784 1825 
Q 2784 2422 2554 2737 
Q 2325 3053 1888 3053 
Q 1444 3053 1217 2703 
Q 991 2353 991 1663 
Q 991 975 1217 622 
Q 1444 269 1888 269 
Q 2325 269 2554 583 
Q 2784 897 2784 1497 
L 2784 1825 
z
" transform="scale(0.015625)"/>
      <path id="DejaVuSerif-61" d="M 2547 1044 
L 2547 1747 
L 1806 1747 
Q 1378 1747 1168 1562 
Q 959 1378 959 997 
Q 959 650 1171 447 
Q 1384 244 1747 244 
Q 2106 244 2326 466 
Q 2547 688 2547 1044 
z
M 3122 2075 
L 3122 331 
L 3634 331 
L 3634 0 
L 2547 0 
L 2547 359 
Q 2356 128 2106 18 
Q 1856 -91 1522 -91 
Q 969 -91 644 203 
Q 319 497 319 997 
Q 319 1513 691 1797 
Q 1063 2081 1741 2081 
L 2547 2081 
L 2547 2309 
Q 2547 2688 2317 2895 
Q 2088 3103 1672 3103 
Q 1328 3103 1125 2947 
Q 922 2791 872 2484 
L 575 2484 
L 575 3156 
Q 875 3284 1158 3348 
Q 1441 3413 1709 3413 
Q 2400 3413 2761 3070 
Q 3122 2728 3122 2075 
z
" transform="scale(0.015625)"/>
      <path id="DejaVuSerif-74" d="M 691 2988 
L 184 2988 
L 184 3322 
L 691 3322 
L 691 4353 
L 1269 4353 
L 1269 3322 
L 2350 3322 
L 2350 2988 
L 1269 2988 
L 1269 878 
Q 1269 456 1350 337 
Q 1431 219 1650 219 
Q 1875 219 1978 351 
Q 2081 484 2088 781 
L 2522 781 
Q 2497 328 2275 118 
Q 2053 -91 1600 -91 
Q 1103 -91 897 129 
Q 691 350 691 878 
L 691 2988 
z
" transform="scale(0.015625)"/>
      <path id="DejaVuSerif-69" d="M 622 4353 
Q 622 4497 726 4603 
Q 831 4709 978 4709 
Q 1122 4709 1226 4603 
Q 1331 4497 1331 4353 
Q 1331 4206 1228 4103 
Q 1125 4000 978 4000 
Q 831 4000 726 4103 
Q 622 4206 622 4353 
z
M 1356 331 
L 1900 331 
L 1900 0 
L 231 0 
L 231 331 
L 781 331 
L 781 2988 
L 231 2988 
L 231 3322 
L 1356 3322 
L 1356 331 
z
" transform="scale(0.015625)"/>
      <path id="DejaVuSerif-6f" d="M 1925 219 
Q 2388 219 2623 584 
Q 2859 950 2859 1663 
Q 2859 2375 2623 2739 
Q 2388 3103 1925 3103 
Q 1463 3103 1227 2739 
Q 991 2375 991 1663 
Q 991 950 1228 584 
Q 1466 219 1925 219 
z
M 1925 -91 
Q 1200 -91 759 389 
Q 319 869 319 1663 
Q 319 2456 758 2934 
Q 1197 3413 1925 3413 
Q 2653 3413 3092 2934 
Q 3531 2456 3531 1663 
Q 3531 869 3092 389 
Q 2653 -91 1925 -91 
z
" transform="scale(0.015625)"/>
      <path id="DejaVuSerif-6e" d="M 263 0 
L 263 331 
L 781 331 
L 781 2988 
L 231 2988 
L 231 3322 
L 1356 3322 
L 1356 2731 
Q 1516 3069 1770 3241 
Q 2025 3413 2363 3413 
Q 2913 3413 3172 3097 
Q 3431 2781 3431 2113 
L 3431 331 
L 3944 331 
L 3944 0 
L 2356 0 
L 2356 331 
L 2853 331 
L 2853 1931 
Q 2853 2541 2703 2767 
Q 2553 2994 2175 2994 
Q 1775 2994 1565 2701 
Q 1356 2409 1356 1850 
L 1356 331 
L 1856 331 
L 1856 0 
L 263 0 
z
" transform="scale(0.015625)"/>
     </defs>
     <use xlink:href="#DejaVuSerif-44"/>
     <use xlink:href="#DejaVuSerif-65" transform="translate(80.175781 0)"/>
     <use xlink:href="#DejaVuSerif-6c" transform="translate(139.355469 0)"/>
     <use xlink:href="#DejaVuSerif-65" transform="translate(171.337891 0)"/>
     <use xlink:href="#DejaVuSerif-67" transform="translate(230.517578 0)"/>
     <use xlink:href="#DejaVuSerif-61" transform="translate(294.53125 0)"/>
     <use xlink:href="#DejaVuSerif-74" transform="translate(354.150391 0)"/>
     <use xlink:href="#DejaVuSerif-69" transform="translate(394.335938 0)"/>
     <use xlink:href="#DejaVuSerif-6f" transform="translate(426.318359 0)"/>
     <use xlink:href="#DejaVuSerif-6e" transform="translate(486.523438 0)"/>
    </g>
    <!-- Intensity -->
    <g transform="translate(298.207383 121.384195) scale(0.105 -0.105)">
     <defs>
      <path id="DejaVuSerif-49" d="M 1581 331 
L 2175 331 
L 2175 0 
L 353 0 
L 353 331 
L 947 331 
L 947 4331 
L 353 4331 
L 353 4666 
L 2175 4666 
L 2175 4331 
L 1581 4331 
L 1581 331 
z
" transform="scale(0.015625)"/>
      <path id="DejaVuSerif-73" d="M 359 184 
L 359 959 
L 691 959 
Q 703 588 923 403 
Q 1144 219 1575 219 
Q 1963 219 2166 364 
Q 2369 509 2369 788 
Q 2369 1006 2220 1140 
Q 2072 1275 1594 1428 
L 1178 1569 
Q 750 1706 558 1912 
Q 366 2119 366 2438 
Q 366 2894 700 3153 
Q 1034 3413 1625 3413 
Q 1888 3413 2178 3344 
Q 2469 3275 2778 3144 
L 2778 2419 
L 2447 2419 
Q 2434 2741 2221 2922 
Q 2009 3103 1644 3103 
Q 1281 3103 1095 2975 
Q 909 2847 909 2591 
Q 909 2381 1050 2254 
Q 1191 2128 1613 1997 
L 2069 1856 
Q 2541 1709 2748 1489 
Q 2956 1269 2956 922 
Q 2956 450 2595 179 
Q 2234 -91 1600 -91 
Q 1278 -91 972 -22 
Q 666 47 359 184 
z
" transform="scale(0.015625)"/>
      <path id="DejaVuSerif-79" d="M 1381 -609 
L 1600 -56 
L 359 2988 
L -19 2988 
L -19 3322 
L 1509 3322 
L 1509 2988 
L 978 2988 
L 1913 703 
L 2847 2988 
L 2350 2988 
L 2350 3322 
L 3597 3322 
L 3597 2988 
L 3225 2988 
L 1703 -750 
Q 1547 -1138 1356 -1280 
Q 1166 -1422 819 -1422 
Q 672 -1422 517 -1397 
Q 363 -1372 206 -1325 
L 206 -691 
L 500 -691 
Q 519 -903 608 -995 
Q 697 -1088 884 -1088 
Q 1056 -1088 1161 -992 
Q 1266 -897 1381 -609 
z
" transform="scale(0.015625)"/>
     </defs>
     <use xlink:href="#DejaVuSerif-49"/>
     <use xlink:href="#DejaVuSerif-6e" transform="translate(39.501953 0)"/>
     <use xlink:href="#DejaVuSerif-74" transform="translate(103.90625 0)"/>
     <use xlink:href="#DejaVuSerif-65" transform="translate(144.091797 0)"/>
     <use xlink:href="#DejaVuSerif-6e" transform="translate(203.271484 0)"/>
     <use xlink:href="#DejaVuSerif-73" transform="translate(267.675781 0)"/>
     <use xlink:href="#DejaVuSerif-69" transform="translate(318.994141 0)"/>
     <use xlink:href="#DejaVuSerif-74" transform="translate(350.976562 0)"/>
     <use xlink:href="#DejaVuSerif-79" transform="translate(391.162109 0)"/>
    </g>
   </g>
   <g id="text_11">
    <g id="patch_21">
     <path d="M 476.430415 209.457867 
L 522.080806 209.457867 
Q 527.330806 209.457867 527.330806 204.207867 
L 527.330806 182.288133 
Q 527.330806 177.038133 522.080806 177.038133 
L 476.430415 177.038133 
Q 471.180415 177.038133 471.180415 182.288133 
L 471.180415 204.207867 
Q 471.180415 209.457867 476.430415 209.457867 
z
" style="fill: #ffffff; stroke: #333333; stroke-width: 1.3; stroke-linejoin: miter"/>
    </g>
    <!-- Provider -->
    <g transform="translate(476.430415 190.266492) scale(0.105 -0.105)">
     <defs>
      <path id="DejaVuSerif-50" d="M 1581 2375 
L 2406 2375 
Q 2872 2375 3115 2626 
Q 3359 2878 3359 3353 
Q 3359 3831 3115 4081 
Q 2872 4331 2406 4331 
L 1581 4331 
L 1581 2375 
z
M 353 0 
L 353 331 
L 947 331 
L 947 4331 
L 353 4331 
L 353 4666 
L 2559 4666 
Q 3259 4666 3668 4311 
Q 4078 3956 4078 3353 
Q 4078 2753 3668 2397 
Q 3259 2041 2559 2041 
L 1581 2041 
L 1581 331 
L 2303 331 
L 2303 0 
L 353 0 
z
" transform="scale(0.015625)"/>
      <path id="DejaVuSerif-72" d="M 3059 3328 
L 3059 2497 
L 2728 2497 
Q 2713 2744 2591 2866 
Q 2469 2988 2234 2988 
Q 1809 2988 1582 2694 
Q 1356 2400 1356 1850 
L 1356 331 
L 2022 331 
L 2022 0 
L 263 0 
L 263 331 
L 781 331 
L 781 2994 
L 231 2994 
L 231 3322 
L 1356 3322 
L 1356 2731 
Q 1525 3078 1790 3245 
Q 2056 3413 2438 3413 
Q 2578 3413 2733 3391 
Q 2888 3369 3059 3328 
z
" transform="scale(0.015625)"/>
      <path id="DejaVuSerif-76" d="M 1581 0 
L 359 2988 
L -19 2988 
L -19 3322 
L 1509 3322 
L 1509 2988 
L 978 2988 
L 1913 703 
L 2847 2988 
L 2350 2988 
L 2350 3322 
L 3597 3322 
L 3597 2988 
L 3225 2988 
L 2003 0 
L 1581 0 
z
" transform="scale(0.015625)"/>
      <path id="DejaVuSerif-64" d="M 3359 331 
L 3909 331 
L 3909 0 
L 2784 0 
L 2784 519 
Q 2616 206 2355 57 
Q 2094 -91 1709 -91 
Q 1097 -91 708 395 
Q 319 881 319 1663 
Q 319 2444 706 2928 
Q 1094 3413 1709 3413 
Q 2094 3413 2355 3264 
Q 2616 3116 2784 2803 
L 2784 4531 
L 2241 4531 
L 2241 4863 
L 3359 4863 
L 3359 331 
z
M 2784 1497 
L 2784 1825 
Q 2784 2422 2554 2737 
Q 2325 3053 1888 3053 
Q 1444 3053 1217 2703 
Q 991 2353 991 1663 
Q 991 975 1217 622 
Q 1444 269 1888 269 
Q 2325 269 2554 583 
Q 2784 897 2784 1497 
z
" transform="scale(0.015625)"/>
     </defs>
     <use xlink:href="#DejaVuSerif-50"/>
     <use xlink:href="#DejaVuSerif-72" transform="translate(67.285156 0)"/>
     <use xlink:href="#DejaVuSerif-6f" transform="translate(115.087891 0)"/>
     <use xlink:href="#DejaVuSerif-76" transform="translate(175.292969 0)"/>
     <use xlink:href="#DejaVuSerif-69" transform="translate(231.787109 0)"/>
     <use xlink:href="#DejaVuSerif-64" transform="translate(263.769531 0)"/>
     <use xlink:href="#DejaVuSerif-65" transform="translate(327.783203 0)"/>
     <use xlink:href="#DejaVuSerif-72" transform="translate(386.962891 0)"/>
    </g>
    <!-- Burden -->
    <g transform="translate(479.657525 202.024195) scale(0.105 -0.105)">
     <defs>
      <path id="DejaVuSerif-42" d="M 1581 331 
L 2516 331 
Q 3078 331 3337 575 
Q 3597 819 3597 1350 
Q 3597 1878 3339 2120 
Q 3081 2363 2516 2363 
L 1581 2363 
L 1581 331 
z
M 1581 2694 
L 2375 2694 
Q 2888 2694 3123 2891 
Q 3359 3088 3359 3513 
Q 3359 3941 3123 4136 
Q 2888 4331 2375 4331 
L 1581 4331 
L 1581 2694 
z
M 353 0 
L 353 331 
L 947 331 
L 947 4331 
L 353 4331 
L 353 4666 
L 2656 4666 
Q 3363 4666 3720 4377 
Q 4078 4088 4078 3513 
Q 4078 3097 3829 2850 
Q 3581 2603 3103 2547 
Q 3697 2472 4005 2167 
Q 4313 1863 4313 1350 
Q 4313 656 3875 328 
Q 3438 0 2509 0 
L 353 0 
z
" transform="scale(0.015625)"/>
      <path id="DejaVuSerif-75" d="M 2266 3322 
L 3341 3322 
L 3341 331 
L 3884 331 
L 3884 0 
L 2766 0 
L 2766 588 
Q 2606 256 2353 82 
Q 2100 -91 1766 -91 
Q 1213 -91 952 223 
Q 691 538 691 1209 
L 691 2988 
L 172 2988 
L 172 3322 
L 1269 3322 
L 1269 1388 
Q 1269 781 1417 556 
Q 1566 331 1947 331 
Q 2347 331 2556 625 
Q 2766 919 2766 1478 
L 2766 2988 
L 2266 2988 
L 2266 3322 
z
" transform="scale(0.015625)"/>
     </defs>
     <use xlink:href="#DejaVuSerif-42"/>
     <use xlink:href="#DejaVuSerif-75" transform="translate(73.486328 0)"/>
     <use xlink:href="#DejaVuSerif-72" transform="translate(137.890625 0)"/>
     <use xlink:href="#DejaVuSerif-64" transform="translate(185.693359 0)"/>
     <use xlink:href="#DejaVuSerif-65" transform="translate(249.707031 0)"/>
     <use xlink:href="#DejaVuSerif-6e" transform="translate(308.886719 0)"/>
    </g>
   </g>
   <g id="text_12">
    <g id="patch_22">
     <path d="M 461.362095 370.737867 
L 537.149126 370.737867 
Q 542.399126 370.737867 542.399126 365.487867 
L 542.399126 343.568133 
Q 542.399126 338.318133 537.149126 338.318133 
L 461.362095 338.318133 
Q 456.112095 338.318133 456.112095 343.568133 
L 456.112095 365.487867 
Q 456.112095 370.737867 461.362095 370.737867 
z
" style="fill: #ffffff; stroke: #333333; stroke-width: 1.3; stroke-linejoin: miter"/>
    </g>
    <!-- Available -->
    <g transform="translate(474.941548 351.546492) scale(0.105 -0.105)">
     <defs>
      <path id="DejaVuSerif-41" d="M 1281 1691 
L 2994 1691 
L 2138 3909 
L 1281 1691 
z
M -38 0 
L -38 331 
L 372 331 
L 2034 4666 
L 2559 4666 
L 4225 331 
L 4684 331 
L 4684 0 
L 2988 0 
L 2988 331 
L 3506 331 
L 3116 1356 
L 1153 1356 
L 763 331 
L 1275 331 
L 1275 0 
L -38 0 
z
" transform="scale(0.015625)"/>
      <path id="DejaVuSerif-62" d="M 738 331 
L 738 4531 
L 184 4531 
L 184 4863 
L 1313 4863 
L 1313 2803 
Q 1481 3116 1742 3264 
Q 2003 3413 2388 3413 
Q 3000 3413 3387 2928 
Q 3775 2444 3775 1663 
Q 3775 881 3387 395 
Q 3000 -91 2388 -91 
Q 2003 -91 1742 57 
Q 1481 206 1313 519 
L 1313 0 
L 184 0 
L 184 331 
L 738 331 
z
M 1313 1497 
Q 1313 897 1542 583 
Q 1772 269 2209 269 
Q 2650 269 2876 622 
Q 3103 975 3103 1663 
Q 3103 2353 2876 2703 
Q 2650 3053 2209 3053 
Q 1772 3053 1542 2737 
Q 1313 2422 1313 1825 
L 1313 1497 
z
" transform="scale(0.015625)"/>
     </defs>
     <use xlink:href="#DejaVuSerif-41"/>
     <use xlink:href="#DejaVuSerif-76" transform="translate(68.216797 0)"/>
     <use xlink:href="#DejaVuSerif-61" transform="translate(124.710938 0)"/>
     <use xlink:href="#DejaVuSerif-69" transform="translate(184.330078 0)"/>
     <use xlink:href="#DejaVuSerif-6c" transform="translate(216.3125 0)"/>
     <use xlink:href="#DejaVuSerif-61" transform="translate(248.294922 0)"/>
     <use xlink:href="#DejaVuSerif-62" transform="translate(307.914062 0)"/>
     <use xlink:href="#DejaVuSerif-6c" transform="translate(371.927734 0)"/>
     <use xlink:href="#DejaVuSerif-65" transform="translate(403.910156 0)"/>
    </g>
    <!-- Personal Time -->
    <g transform="translate(461.362095 363.304195) scale(0.105 -0.105)">
     <defs>
      <path id="DejaVuSerif-20" transform="scale(0.015625)"/>
      <path id="DejaVuSerif-54" d="M 1222 0 
L 1222 331 
L 1819 331 
L 1819 4294 
L 447 4294 
L 447 3566 
L 63 3566 
L 63 4666 
L 4206 4666 
L 4206 3566 
L 3822 3566 
L 3822 4294 
L 2450 4294 
L 2450 331 
L 3047 331 
L 3047 0 
L 1222 0 
z
" transform="scale(0.015625)"/>
      <path id="DejaVuSerif-6d" d="M 3316 2675 
Q 3481 3041 3739 3227 
Q 3997 3413 4341 3413 
Q 4863 3413 5119 3089 
Q 5375 2766 5375 2113 
L 5375 331 
L 5894 331 
L 5894 0 
L 4300 0 
L 4300 331 
L 4800 331 
L 4800 2047 
Q 4800 2556 4650 2772 
Q 4500 2988 4153 2988 
Q 3769 2988 3567 2697 
Q 3366 2406 3366 1850 
L 3366 331 
L 3866 331 
L 3866 0 
L 2291 0 
L 2291 331 
L 2791 331 
L 2791 2069 
Q 2791 2566 2641 2777 
Q 2491 2988 2144 2988 
Q 1759 2988 1557 2697 
Q 1356 2406 1356 1850 
L 1356 331 
L 1856 331 
L 1856 0 
L 263 0 
L 263 331 
L 781 331 
L 781 2994 
L 231 2994 
L 231 3322 
L 1356 3322 
L 1356 2731 
Q 1516 3063 1762 3238 
Q 2009 3413 2322 3413 
Q 2709 3413 2968 3220 
Q 3228 3028 3316 2675 
z
" transform="scale(0.015625)"/>
     </defs>
     <use xlink:href="#DejaVuSerif-50"/>
     <use xlink:href="#DejaVuSerif-65" transform="translate(62.785156 0)"/>
     <use xlink:href="#DejaVuSerif-72" transform="translate(121.964844 0)"/>
     <use xlink:href="#DejaVuSerif-73" transform="translate(169.767578 0)"/>
     <use xlink:href="#DejaVuSerif-6f" transform="translate(221.085938 0)"/>
     <use xlink:href="#DejaVuSerif-6e" transform="translate(281.291016 0)"/>
     <use xlink:href="#DejaVuSerif-61" transform="translate(345.695312 0)"/>
     <use xlink:href="#DejaVuSerif-6c" transform="translate(405.314453 0)"/>
     <use xlink:href="#DejaVuSerif-20" transform="translate(437.296875 0)"/>
     <use xlink:href="#DejaVuSerif-54" transform="translate(469.083984 0)"/>
     <use xlink:href="#DejaVuSerif-69" transform="translate(535.783203 0)"/>
     <use xlink:href="#DejaVuSerif-6d" transform="translate(567.765625 0)"/>
     <use xlink:href="#DejaVuSerif-65" transform="translate(662.589844 0)"/>
    </g>
   </g>
   <g id="text_13">
    <g id="patch_23">
     <path d="M 114.950092 370.737867 
L 173.379311 370.737867 
Q 178.629311 370.737867 178.629311 365.487867 
L 178.629311 343.568133 
Q 178.629311 338.318133 173.379311 338.318133 
L 114.950092 338.318133 
Q 109.700092 338.318133 109.700092 343.568133 
L 109.700092 365.487867 
Q 109.700092 370.737867 114.950092 370.737867 
z
" style="fill: #ffffff; stroke: #333333; stroke-width: 1.3; stroke-linejoin: miter"/>
    </g>
    <!-- Stress &amp; -->
    <g transform="translate(121.11228 351.546492) scale(0.105 -0.105)">
     <defs>
      <path id="DejaVuSerif-53" d="M 594 225 
L 594 1288 
L 953 1284 
Q 969 753 1261 498 
Q 1553 244 2150 244 
Q 2706 244 2998 464 
Q 3291 684 3291 1106 
Q 3291 1444 3114 1625 
Q 2938 1806 2369 1978 
L 1753 2163 
Q 1084 2366 811 2669 
Q 538 2972 538 3500 
Q 538 4094 959 4422 
Q 1381 4750 2144 4750 
Q 2469 4750 2856 4679 
Q 3244 4609 3681 4475 
L 3681 3481 
L 3328 3481 
Q 3275 3975 2998 4195 
Q 2722 4416 2156 4416 
Q 1663 4416 1405 4214 
Q 1147 4013 1147 3628 
Q 1147 3294 1340 3103 
Q 1534 2913 2163 2725 
L 2741 2553 
Q 3375 2363 3645 2067 
Q 3916 1772 3916 1275 
Q 3916 597 3481 253 
Q 3047 -91 2188 -91 
Q 1803 -91 1404 -12 
Q 1006 66 594 225 
z
" transform="scale(0.015625)"/>
      <path id="DejaVuSerif-26" d="M 3456 722 
L 1638 2638 
Q 1366 2394 1230 2111 
Q 1094 1828 1094 1509 
Q 1094 991 1453 639 
Q 1813 288 2350 288 
Q 2669 288 2951 398 
Q 3234 509 3456 722 
z
M 5394 0 
L 4141 0 
L 3713 453 
Q 3384 178 3012 43 
Q 2641 -91 2209 -91 
Q 1403 -91 931 321 
Q 459 734 459 1441 
Q 459 1856 698 2217 
Q 938 2578 1422 2894 
Q 1263 3084 1188 3273 
Q 1113 3463 1113 3669 
Q 1113 4166 1470 4458 
Q 1828 4750 2444 4750 
Q 2653 4750 2933 4697 
Q 3213 4644 3572 4538 
L 3572 3731 
L 3219 3731 
Q 3175 4066 2975 4241 
Q 2775 4416 2431 4416 
Q 2109 4416 1909 4239 
Q 1709 4063 1709 3781 
Q 1709 3591 1815 3402 
Q 1922 3213 2259 2859 
L 3872 1159 
Q 4088 1409 4211 1698 
Q 4334 1988 4366 2316 
L 3803 2316 
L 3803 2650 
L 5281 2650 
L 5281 2316 
L 4744 2316 
Q 4691 1909 4536 1556 
Q 4381 1203 4122 903 
L 4659 331 
L 5394 331 
L 5394 0 
z
" transform="scale(0.015625)"/>
     </defs>
     <use xlink:href="#DejaVuSerif-53"/>
     <use xlink:href="#DejaVuSerif-74" transform="translate(68.505859 0)"/>
     <use xlink:href="#DejaVuSerif-72" transform="translate(108.691406 0)"/>
     <use xlink:href="#DejaVuSerif-65" transform="translate(156.494141 0)"/>
     <use xlink:href="#DejaVuSerif-73" transform="translate(215.673828 0)"/>
     <use xlink:href="#DejaVuSerif-73" transform="translate(266.992188 0)"/>
     <use xlink:href="#DejaVuSerif-20" transform="translate(318.310547 0)"/>
     <use xlink:href="#DejaVuSerif-26" transform="translate(350.097656 0)"/>
    </g>
    <!-- Adaptation -->
    <g transform="translate(114.950092 363.304195) scale(0.105 -0.105)">
     <defs>
      <path id="DejaVuSerif-70" d="M 1313 1825 
L 1313 1497 
Q 1313 897 1542 583 
Q 1772 269 2209 269 
Q 2650 269 2876 622 
Q 3103 975 3103 1663 
Q 3103 2353 2876 2703 
Q 2650 3053 2209 3053 
Q 1772 3053 1542 2737 
Q 1313 2422 1313 1825 
z
M 738 2988 
L 184 2988 
L 184 3322 
L 1313 3322 
L 1313 2803 
Q 1481 3116 1742 3264 
Q 2003 3413 2388 3413 
Q 3000 3413 3387 2928 
Q 3775 2444 3775 1663 
Q 3775 881 3387 395 
Q 3000 -91 2388 -91 
Q 2003 -91 1742 57 
Q 1481 206 1313 519 
L 1313 -997 
L 1856 -997 
L 1856 -1331 
L 184 -1331 
L 184 -997 
L 738 -997 
L 738 2988 
z
" transform="scale(0.015625)"/>
     </defs>
     <use xlink:href="#DejaVuSerif-41"/>
     <use xlink:href="#DejaVuSerif-64" transform="translate(72.216797 0)"/>
     <use xlink:href="#DejaVuSerif-61" transform="translate(136.230469 0)"/>
     <use xlink:href="#DejaVuSerif-70" transform="translate(195.849609 0)"/>
     <use xlink:href="#DejaVuSerif-74" transform="translate(259.863281 0)"/>
     <use xlink:href="#DejaVuSerif-61" transform="translate(300.048828 0)"/>
     <use xlink:href="#DejaVuSerif-74" transform="translate(359.667969 0)"/>
     <use xlink:href="#DejaVuSerif-69" transform="translate(399.853516 0)"/>
     <use xlink:href="#DejaVuSerif-6f" transform="translate(431.835938 0)"/>
     <use xlink:href="#DejaVuSerif-6e" transform="translate(492.041016 0)"/>
    </g>
   </g>
   <g id="text_14">
    <g id="patch_24">
     <path d="M 109.935522 209.532516 
L 178.393881 209.532516 
Q 183.643881 209.532516 183.643881 204.282516 
L 183.643881 182.064188 
Q 183.643881 176.814188 178.393881 176.814188 
L 109.935522 176.814188 
Q 104.685522 176.814188 104.685522 182.064188 
L 104.685522 204.282516 
Q 104.685522 209.532516 109.935522 209.532516 
z
" style="fill: #ffffff; stroke: #333333; stroke-width: 1.3; stroke-linejoin: miter"/>
    </g>
    <!-- Delegation -->
    <g transform="translate(115.239663 190.191844) scale(0.105 -0.105)">
     <use xlink:href="#DejaVuSerif-44"/>
     <use xlink:href="#DejaVuSerif-65" transform="translate(80.175781 0)"/>
     <use xlink:href="#DejaVuSerif-6c" transform="translate(139.355469 0)"/>
     <use xlink:href="#DejaVuSerif-65" transform="translate(171.337891 0)"/>
     <use xlink:href="#DejaVuSerif-67" transform="translate(230.517578 0)"/>
     <use xlink:href="#DejaVuSerif-61" transform="translate(294.53125 0)"/>
     <use xlink:href="#DejaVuSerif-74" transform="translate(354.150391 0)"/>
     <use xlink:href="#DejaVuSerif-69" transform="translate(394.335938 0)"/>
     <use xlink:href="#DejaVuSerif-6f" transform="translate(426.318359 0)"/>
     <use xlink:href="#DejaVuSerif-6e" transform="translate(486.523438 0)"/>
    </g>
    <!-- Convenience -->
    <g transform="translate(109.935522 202.098844) scale(0.105 -0.105)">
     <defs>
      <path id="DejaVuSerif-43" d="M 4513 1234 
Q 4306 581 3820 245 
Q 3334 -91 2591 -91 
Q 2134 -91 1743 65 
Q 1353 222 1050 525 
Q 700 875 529 1320 
Q 359 1766 359 2328 
Q 359 3416 987 4083 
Q 1616 4750 2644 4750 
Q 3025 4750 3456 4650 
Q 3888 4550 4384 4347 
L 4384 3272 
L 4031 3272 
Q 3916 3859 3567 4137 
Q 3219 4416 2591 4416 
Q 1844 4416 1459 3886 
Q 1075 3356 1075 2328 
Q 1075 1303 1459 773 
Q 1844 244 2591 244 
Q 3113 244 3450 492 
Q 3788 741 3938 1234 
L 4513 1234 
z
" transform="scale(0.015625)"/>
      <path id="DejaVuSerif-63" d="M 3291 997 
Q 3169 466 2822 187 
Q 2475 -91 1925 -91 
Q 1200 -91 759 389 
Q 319 869 319 1663 
Q 319 2459 759 2936 
Q 1200 3413 1925 3413 
Q 2241 3413 2553 3339 
Q 2866 3266 3181 3116 
L 3181 2266 
L 2847 2266 
Q 2781 2703 2561 2903 
Q 2341 3103 1931 3103 
Q 1466 3103 1228 2742 
Q 991 2381 991 1663 
Q 991 944 1227 581 
Q 1463 219 1931 219 
Q 2303 219 2525 412 
Q 2747 606 2828 997 
L 3291 997 
z
" transform="scale(0.015625)"/>
     </defs>
     <use xlink:href="#DejaVuSerif-43"/>
     <use xlink:href="#DejaVuSerif-6f" transform="translate(76.513672 0)"/>
     <use xlink:href="#DejaVuSerif-6e" transform="translate(136.71875 0)"/>
     <use xlink:href="#DejaVuSerif-76" transform="translate(201.123047 0)"/>
     <use xlink:href="#DejaVuSerif-65" transform="translate(257.617188 0)"/>
     <use xlink:href="#DejaVuSerif-6e" transform="translate(316.796875 0)"/>
     <use xlink:href="#DejaVuSerif-69" transform="translate(381.201172 0)"/>
     <use xlink:href="#DejaVuSerif-65" transform="translate(413.183594 0)"/>
     <use xlink:href="#DejaVuSerif-6e" transform="translate(472.363281 0)"/>
     <use xlink:href="#DejaVuSerif-63" transform="translate(536.767578 0)"/>
     <use xlink:href="#DejaVuSerif-65" transform="translate(592.773438 0)"/>
    </g>
   </g>
   <g id="text_15">
    <g id="patch_25">
     <path d="M 282.351562 290.097867 
L 361.06875 290.097867 
Q 366.31875 290.097867 366.31875 284.847867 
L 366.31875 262.928133 
Q 366.31875 257.678133 361.06875 257.678133 
L 282.351562 257.678133 
Q 277.101562 257.678133 277.101562 262.928133 
L 277.101562 284.847867 
Q 277.101562 290.097867 282.351562 290.097867 
z
" style="fill: #ffffff; stroke: #333333; stroke-width: 1.3; stroke-linejoin: miter"/>
    </g>
    <!-- Norm -->
    <g transform="translate(306.46793 270.906492) scale(0.105 -0.105)">
     <defs>
      <path id="DejaVuSerif-4e" d="M 313 0 
L 313 331 
L 941 331 
L 941 4331 
L 313 4331 
L 313 4666 
L 1509 4666 
L 4306 984 
L 4306 4331 
L 3681 4331 
L 3681 4666 
L 5319 4666 
L 5319 4331 
L 4691 4331 
L 4691 -91 
L 4313 -91 
L 1325 3841 
L 1325 331 
L 1953 331 
L 1953 0 
L 313 0 
z
" transform="scale(0.015625)"/>
     </defs>
     <use xlink:href="#DejaVuSerif-4e"/>
     <use xlink:href="#DejaVuSerif-6f" transform="translate(87.5 0)"/>
     <use xlink:href="#DejaVuSerif-72" transform="translate(147.705078 0)"/>
     <use xlink:href="#DejaVuSerif-6d" transform="translate(195.507812 0)"/>
    </g>
    <!-- Reinforcement -->
    <g transform="translate(282.351562 282.664195) scale(0.105 -0.105)">
     <defs>
      <path id="DejaVuSerif-52" d="M 3066 2316 
Q 3284 2256 3442 2114 
Q 3600 1972 3725 1716 
L 4403 331 
L 4972 331 
L 4972 0 
L 3872 0 
L 3144 1484 
Q 2934 1916 2759 2042 
Q 2584 2169 2278 2169 
L 1581 2169 
L 1581 331 
L 2241 331 
L 2241 0 
L 353 0 
L 353 331 
L 947 331 
L 947 4331 
L 353 4331 
L 353 4666 
L 2719 4666 
Q 3400 4666 3770 4341 
Q 4141 4016 4141 3419 
Q 4141 2938 3870 2661 
Q 3600 2384 3066 2316 
z
M 1581 2503 
L 2503 2503 
Q 2975 2503 3200 2726 
Q 3425 2950 3425 3419 
Q 3425 3888 3200 4109 
Q 2975 4331 2503 4331 
L 1581 4331 
L 1581 2503 
z
" transform="scale(0.015625)"/>
      <path id="DejaVuSerif-66" d="M 2753 4078 
L 2450 4078 
Q 2447 4313 2317 4434 
Q 2188 4556 1941 4556 
Q 1619 4556 1487 4379 
Q 1356 4203 1356 3750 
L 1356 3322 
L 2284 3322 
L 2284 2988 
L 1356 2988 
L 1356 331 
L 2094 331 
L 2094 0 
L 231 0 
L 231 331 
L 781 331 
L 781 2988 
L 231 2988 
L 231 3322 
L 781 3322 
L 781 3738 
Q 781 4294 1070 4578 
Q 1359 4863 1919 4863 
Q 2128 4863 2337 4825 
Q 2547 4788 2753 4709 
L 2753 4078 
z
" transform="scale(0.015625)"/>
     </defs>
     <use xlink:href="#DejaVuSerif-52"/>
     <use xlink:href="#DejaVuSerif-65" transform="translate(75.292969 0)"/>
     <use xlink:href="#DejaVuSerif-69" transform="translate(134.472656 0)"/>
     <use xlink:href="#DejaVuSerif-6e" transform="translate(166.455078 0)"/>
     <use xlink:href="#DejaVuSerif-66" transform="translate(230.859375 0)"/>
     <use xlink:href="#DejaVuSerif-6f" transform="translate(267.871094 0)"/>
     <use xlink:href="#DejaVuSerif-72" transform="translate(328.076172 0)"/>
     <use xlink:href="#DejaVuSerif-63" transform="translate(375.878906 0)"/>
     <use xlink:href="#DejaVuSerif-65" transform="translate(431.884766 0)"/>
     <use xlink:href="#DejaVuSerif-6d" transform="translate(491.064453 0)"/>
     <use xlink:href="#DejaVuSerif-65" transform="translate(585.888672 0)"/>
     <use xlink:href="#DejaVuSerif-6e" transform="translate(645.068359 0)"/>
     <use xlink:href="#DejaVuSerif-74" transform="translate(709.472656 0)"/>
    </g>
   </g>
   <g id="text_16">
    <g id="patch_26">
     <path d="M 294.834258 451.527164 
L 348.586055 451.527164 
Q 353.836055 451.527164 353.836055 446.277164 
L 353.836055 424.058836 
Q 353.836055 418.808836 348.586055 418.808836 
L 294.834258 418.808836 
Q 289.584258 418.808836 289.584258 424.058836 
L 289.584258 446.277164 
Q 289.584258 451.527164 294.834258 451.527164 
z
" style="fill: #ffffff; stroke: #333333; stroke-width: 1.3; stroke-linejoin: miter"/>
    </g>
    <!-- Backlog -->
    <g transform="translate(300.400078 432.037195) scale(0.105 -0.105)">
     <defs>
      <path id="DejaVuSerif-6b" d="M 1831 0 
L 219 0 
L 219 331 
L 738 331 
L 738 4531 
L 184 4531 
L 184 4863 
L 1313 4863 
L 1313 1697 
L 2713 2988 
L 2234 2988 
L 2234 3322 
L 3738 3322 
L 3738 2988 
L 3169 2988 
L 2181 2075 
L 3444 331 
L 3922 331 
L 3922 0 
L 2284 0 
L 2284 331 
L 2759 331 
L 1766 1697 
L 1313 1275 
L 1313 331 
L 1831 331 
L 1831 0 
z
" transform="scale(0.015625)"/>
     </defs>
     <use xlink:href="#DejaVuSerif-42"/>
     <use xlink:href="#DejaVuSerif-61" transform="translate(73.486328 0)"/>
     <use xlink:href="#DejaVuSerif-63" transform="translate(133.105469 0)"/>
     <use xlink:href="#DejaVuSerif-6b" transform="translate(189.111328 0)"/>
     <use xlink:href="#DejaVuSerif-6c" transform="translate(249.707031 0)"/>
     <use xlink:href="#DejaVuSerif-6f" transform="translate(281.689453 0)"/>
     <use xlink:href="#DejaVuSerif-67" transform="translate(341.894531 0)"/>
    </g>
    <!-- Carryover -->
    <g transform="translate(294.834258 443.944195) scale(0.105 -0.105)">
     <use xlink:href="#DejaVuSerif-43"/>
     <use xlink:href="#DejaVuSerif-61" transform="translate(76.513672 0)"/>
     <use xlink:href="#DejaVuSerif-72" transform="translate(136.132812 0)"/>
     <use xlink:href="#DejaVuSerif-72" transform="translate(183.935547 0)"/>
     <use xlink:href="#DejaVuSerif-79" transform="translate(231.738281 0)"/>
     <use xlink:href="#DejaVuSerif-6f" transform="translate(288.232422 0)"/>
     <use xlink:href="#DejaVuSerif-76" transform="translate(348.4375 0)"/>
     <use xlink:href="#DejaVuSerif-65" transform="translate(404.931641 0)"/>
     <use xlink:href="#DejaVuSerif-72" transform="translate(464.111328 0)"/>
    </g>
   </g>
   <g id="text_17">
    <g id="patch_27">
     <path d="M 328.776577 208.030688 
L 350.152827 208.030688 
Q 352.112827 208.030688 352.112827 206.070688 
L 352.112827 192.521313 
Q 352.112827 190.561313 350.152827 190.561313 
L 328.776577 190.561313 
Q 326.816577 190.561313 326.816577 192.521313 
L 326.816577 206.070688 
Q 326.816577 208.030688 328.776577 208.030688 
z
" style="fill: #ffffff; fill-opacity: 0.78"/>
    </g>
    <!-- R1 -->
    <g style="fill: #b2182b; opacity: 0.55" transform="translate(328.776577 203.159125) scale(0.14 -0.14)">
     <defs>
      <path id="DejaVuSerif-Bold-52" d="M 3397 2278 
Q 3675 2238 3865 2094 
Q 4056 1950 4197 1678 
L 4878 378 
L 5356 378 
L 5356 0 
L 3822 0 
L 3078 1409 
Q 2863 1847 2711 1967 
Q 2559 2088 2291 2088 
L 2100 2088 
L 2100 378 
L 2700 378 
L 2700 0 
L 300 0 
L 300 378 
L 897 378 
L 897 4288 
L 300 4288 
L 300 4666 
L 2963 4666 
Q 3775 4666 4217 4339 
Q 4659 4013 4659 3413 
Q 4659 2925 4345 2642 
Q 4031 2359 3397 2278 
z
M 2100 2463 
L 2509 2463 
Q 2947 2463 3183 2700 
Q 3419 2938 3419 3378 
Q 3419 3819 3183 4053 
Q 2947 4288 2509 4288 
L 2100 4288 
L 2100 2463 
z
" transform="scale(0.015625)"/>
      <path id="DejaVuSerif-Bold-31" d="M 878 0 
L 878 378 
L 1753 378 
L 1753 4153 
L 781 3578 
L 781 4044 
L 1953 4750 
L 2938 4750 
L 2938 378 
L 3816 378 
L 3816 0 
L 878 0 
z
" transform="scale(0.015625)"/>
     </defs>
     <use xlink:href="#DejaVuSerif-Bold-52"/>
     <use xlink:href="#DejaVuSerif-Bold-31" transform="translate(83.105469 0)"/>
    </g>
   </g>
   <g id="text_18">
    <g id="patch_28">
     <path d="M 207.031122 300.766687 
L 228.407372 300.766687 
Q 230.367372 300.766687 230.367372 298.806688 
L 230.367372 285.257313 
Q 230.367372 283.297313 228.407372 283.297313 
L 207.031122 283.297313 
Q 205.071122 283.297313 205.071122 285.257313 
L 205.071122 298.806688 
Q 205.071122 300.766687 207.031122 300.766687 
z
" style="fill: #ffffff; fill-opacity: 0.78"/>
    </g>
    <!-- R2 -->
    <g style="fill: #b2182b; opacity: 0.55" transform="translate(207.031122 295.895125) scale(0.14 -0.14)">
     <defs>
      <path id="DejaVuSerif-Bold-32" d="M 844 3513 
L 469 3513 
L 469 4519 
Q 850 4634 1223 4692 
Q 1597 4750 1978 4750 
Q 2869 4750 3367 4386 
Q 3866 4022 3866 3372 
Q 3866 2909 3591 2542 
Q 3316 2175 2541 1672 
L 1241 819 
L 3450 819 
L 3450 1369 
L 3878 1369 
L 3878 0 
L 428 0 
L 428 763 
L 1119 1241 
Q 2003 1850 2297 2278 
Q 2591 2706 2591 3278 
Q 2591 3819 2367 4101 
Q 2144 4384 1716 4384 
Q 1347 4384 1125 4161 
Q 903 3938 844 3513 
z
" transform="scale(0.015625)"/>
     </defs>
     <use xlink:href="#DejaVuSerif-Bold-52"/>
     <use xlink:href="#DejaVuSerif-Bold-32" transform="translate(83.105469 0)"/>
    </g>
   </g>
   <g id="text_19">
    <!-- All links are conceptual and remain within the model’s abstract Type A / Type B framing. -->
    <g style="fill: #636363" transform="translate(118.321406 492.1704) scale(0.09 -0.09)">
     <defs>
      <path id="DejaVuSerif-Italic-41" d="M 1159 1691 
L 2872 1691 
L 2447 3909 
L 1159 1691 
z
M -488 0 
L -425 331 
L -16 331 
L 2491 4666 
L 3016 4666 
L 3841 331 
L 4297 331 
L 4234 0 
L 2538 0 
L 2600 331 
L 3119 331 
L 2928 1356 
L 966 1356 
L 375 331 
L 888 331 
L 825 0 
L -488 0 
z
" transform="scale(0.015625)"/>
      <path id="DejaVuSerif-Italic-6c" d="M 903 331 
L 1447 331 
L 1384 0 
L 266 0 
L 1147 4531 
L 594 4531 
L 656 4863 
L 1784 4863 
L 903 331 
z
" transform="scale(0.015625)"/>
      <path id="DejaVuSerif-Italic-20" transform="scale(0.015625)"/>
      <path id="DejaVuSerif-Italic-69" d="M 1009 4353 
Q 1038 4497 1163 4603 
Q 1288 4709 1434 4709 
Q 1578 4709 1663 4603 
Q 1728 4522 1728 4422 
Q 1728 4388 1719 4353 
Q 1691 4206 1567 4103 
Q 1444 4000 1297 4000 
Q 1150 4000 1066 4103 
Q 1003 4181 1003 4281 
Q 1003 4316 1009 4353 
z
M 963 331 
L 1506 331 
L 1444 0 
L 325 0 
L 903 2988 
L 353 2988 
L 419 3322 
L 1544 3322 
L 963 331 
z
" transform="scale(0.015625)"/>
      <path id="DejaVuSerif-Italic-6e" d="M 450 0 
L 1031 2988 
L 481 2988 
L 544 3322 
L 1669 3322 
L 1556 2731 
Q 1781 3069 2068 3241 
Q 2356 3413 2694 3413 
Q 3244 3413 3444 3097 
Q 3563 2906 3563 2588 
Q 3563 2378 3509 2113 
L 3163 331 
L 3675 331 
L 3613 0 
L 2522 0 
L 2897 1931 
Q 2959 2253 2959 2469 
Q 2959 2659 2909 2769 
Q 2803 2994 2425 2994 
Q 2025 2994 1759 2701 
Q 1494 2409 1384 1850 
L 1025 0 
L 450 0 
z
" transform="scale(0.015625)"/>
      <path id="DejaVuSerif-Italic-6b" d="M 2113 2075 
L 3034 331 
L 3513 331 
L 3450 0 
L 2528 0 
L 1622 1697 
L 1088 1275 
L 841 0 
L 266 0 
L 1147 4531 
L 594 4531 
L 656 4863 
L 1784 4863 
L 1169 1697 
L 2822 2988 
L 2344 2988 
L 2406 3322 
L 3341 3322 
L 3278 2988 
L 2113 2075 
z
" transform="scale(0.015625)"/>
      <path id="DejaVuSerif-Italic-73" d="M 222 959 
L 553 959 
Q 541 869 541 788 
Q 541 219 1313 219 
Q 2088 219 2200 788 
Q 2209 844 2209 944 
Q 2209 1041 2103 1158 
Q 1997 1275 1550 1428 
L 1159 1569 
Q 759 1706 629 1882 
Q 500 2059 500 2263 
Q 500 2344 516 2438 
Q 606 2894 990 3153 
Q 1375 3413 1931 3413 
Q 2484 3413 3066 3144 
L 2925 2419 
L 2594 2419 
Q 2606 2491 2606 2553 
Q 2606 2781 2448 2942 
Q 2291 3103 1925 3103 
Q 1191 3103 1091 2591 
Q 1078 2538 1078 2444 
Q 1078 2347 1179 2237 
Q 1281 2128 1678 1997 
L 2106 1856 
Q 2550 1709 2716 1488 
Q 2831 1331 2831 1178 
Q 2831 522 2306 181 
Q 1894 -91 1262 -91 
Q 631 -91 72 184 
L 222 959 
z
" transform="scale(0.015625)"/>
      <path id="DejaVuSerif-Italic-61" d="M 2325 519 
Q 1909 -91 1238 -91 
Q 688 -91 409 281 
Q 216 544 216 919 
Q 216 1078 250 1256 
Q 463 2359 1231 2928 
Q 1884 3413 2675 3413 
Q 3206 3413 3388 3322 
L 2806 331 
L 3300 331 
L 3238 0 
L 2225 0 
L 2325 519 
z
M 822 938 
Q 822 269 1469 269 
Q 1863 269 2130 583 
Q 2397 897 2516 1497 
L 2806 3003 
L 2806 3003 
Q 2806 3094 2556 3094 
Q 1956 3094 1491 2625 
Q 1028 2153 863 1297 
Q 822 1097 822 938 
z
" transform="scale(0.015625)"/>
      <path id="DejaVuSerif-Italic-72" d="M 3375 3328 
L 3213 2497 
L 2881 2497 
Q 2891 2559 2891 2613 
Q 2891 2775 2816 2866 
Q 2719 2988 2484 2988 
Q 2059 2988 1775 2694 
Q 1491 2400 1384 1850 
L 1025 0 
L 450 0 
L 1031 2994 
L 481 2994 
L 544 3322 
L 1669 3322 
L 1556 2731 
Q 1791 3078 2089 3245 
Q 2388 3413 2769 3413 
Q 2909 3413 3059 3391 
Q 3209 3369 3375 3328 
z
" transform="scale(0.015625)"/>
      <path id="DejaVuSerif-Italic-65" d="M 938 1275 
Q 925 1156 925 1050 
Q 925 756 1031 563 
Q 1216 219 1709 219 
Q 2072 219 2250 328 
Q 2569 525 2644 778 
L 3066 778 
Q 2941 381 2475 103 
Q 2150 -91 1506 -91 
Q 863 -91 516 388 
Q 272 722 272 1206 
Q 272 1419 319 1659 
Q 472 2450 1000 2931 
Q 1528 3413 2278 3413 
Q 3500 3413 3500 2547 
Q 3500 1913 2859 1603 
Q 2206 1288 938 1275 
z
M 2541 1975 
Q 2891 2181 2891 2569 
Q 2891 3103 2181 3103 
Q 1763 3103 1472 2784 
Q 1181 2466 1003 1606 
Q 2006 1653 2541 1975 
z
" transform="scale(0.015625)"/>
      <path id="DejaVuSerif-Italic-63" d="M 3163 997 
Q 2938 466 2536 187 
Q 2134 -91 1584 -91 
Q 859 -91 513 388 
Q 272 722 272 1203 
Q 272 1419 319 1663 
Q 475 2459 1008 2936 
Q 1541 3413 2266 3413 
Q 2581 3413 2879 3339 
Q 3178 3266 3463 3116 
L 3300 2266 
L 2966 2266 
Q 2966 2309 2966 2347 
Q 2966 2722 2803 2903 
Q 2622 3103 2213 3103 
Q 1747 3103 1439 2742 
Q 1131 2381 991 1663 
Q 928 1334 928 1078 
Q 928 778 1016 581 
Q 1181 219 1650 219 
Q 2022 219 2281 412 
Q 2541 606 2700 997 
L 3163 997 
z
" transform="scale(0.015625)"/>
      <path id="DejaVuSerif-Italic-6f" d="M 1644 219 
Q 2106 219 2414 584 
Q 2722 950 2859 1663 
Q 2922 1988 2922 2241 
Q 2922 2541 2834 2738 
Q 2669 3103 2206 3103 
Q 1744 3103 1436 2739 
Q 1128 2375 991 1663 
Q 928 1338 928 1088 
Q 928 784 1019 584 
Q 1184 219 1644 219 
z
M 1584 -91 
Q 859 -91 513 388 
Q 272 722 272 1203 
Q 272 1419 319 1663 
Q 472 2456 1005 2934 
Q 1538 3413 2266 3413 
Q 2994 3413 3341 2934 
Q 3578 2603 3578 2122 
Q 3578 1906 3531 1663 
Q 3378 869 2845 389 
Q 2313 -91 1584 -91 
z
" transform="scale(0.015625)"/>
      <path id="DejaVuSerif-Italic-70" d="M 1466 1825 
L 1400 1497 
Q 1353 1250 1353 1053 
Q 1353 769 1453 581 
Q 1622 269 2059 269 
Q 2500 269 2795 622 
Q 3091 975 3225 1663 
Q 3284 1978 3284 2225 
Q 3284 2513 3200 2703 
Q 3041 3053 2600 3053 
Q 2163 3053 1872 2737 
Q 1581 2422 1466 1825 
z
M 1116 2988 
L 563 2988 
L 628 3322 
L 1756 3322 
L 1656 2803 
Q 1884 3116 2175 3264 
Q 2466 3413 2850 3413 
Q 3463 3413 3753 2928 
Q 3947 2609 3947 2163 
Q 3947 1928 3897 1663 
Q 3744 881 3262 395 
Q 2781 -91 2169 -91 
Q 1784 -91 1551 57 
Q 1319 206 1213 519 
L 850 -1331 
L 275 -1331 
L 1116 2988 
z
" transform="scale(0.015625)"/>
      <path id="DejaVuSerif-Italic-74" d="M 856 2988 
L 350 2988 
L 416 3322 
L 922 3322 
L 1122 4353 
L 1700 4353 
L 1500 3322 
L 2581 3322 
L 2516 2988 
L 1434 2988 
L 1025 878 
Q 978 631 978 488 
Q 978 388 1000 338 
Q 1059 219 1278 219 
Q 1503 219 1633 351 
Q 1763 484 1825 781 
L 2259 781 
Q 2147 328 1884 118 
Q 1622 -91 1169 -91 
Q 672 -91 506 131 
Q 406 266 406 516 
Q 406 675 447 878 
L 856 2988 
z
" transform="scale(0.015625)"/>
      <path id="DejaVuSerif-Italic-75" d="M 3097 3322 
L 3672 3322 
L 3091 331 
L 3634 331 
L 3572 0 
L 2453 0 
L 2566 588 
Q 2341 256 2055 82 
Q 1769 -91 1434 -91 
Q 881 -91 681 225 
Q 559 413 559 734 
Q 559 944 613 1209 
L 956 2988 
L 438 2988 
L 503 3322 
L 1600 3322 
L 1225 1388 
Q 1163 1066 1163 853 
Q 1163 663 1213 556 
Q 1316 331 1697 331 
Q 2097 331 2364 625 
Q 2631 919 2738 1478 
L 3097 3322 
z
" transform="scale(0.015625)"/>
      <path id="DejaVuSerif-Italic-64" d="M 3841 4863 
L 2897 0 
L 2322 0 
L 2422 519 
Q 2191 206 1902 57 
Q 1613 -91 1228 -91 
Q 616 -91 322 394 
Q 125 716 125 1166 
Q 125 1397 178 1663 
Q 331 2444 812 2928 
Q 1294 3413 1909 3413 
Q 2294 3413 2525 3264 
Q 2756 3116 2866 2803 
L 3200 4531 
L 2656 4531 
L 2722 4863 
L 3841 4863 
z
M 2613 1497 
L 2675 1825 
Q 2722 2069 2722 2266 
Q 2722 2550 2622 2738 
Q 2456 3053 2019 3053 
Q 1575 3053 1279 2703 
Q 984 2353 850 1663 
Q 788 1347 788 1103 
Q 788 813 875 622 
Q 1031 269 1475 269 
Q 1913 269 2203 583 
Q 2494 897 2613 1497 
z
" transform="scale(0.015625)"/>
      <path id="DejaVuSerif-Italic-6d" d="M 3503 2675 
Q 3741 3041 4034 3227 
Q 4328 3413 4672 3413 
Q 5194 3413 5388 3088 
Q 5503 2894 5503 2578 
Q 5503 2372 5453 2113 
L 5106 331 
L 5625 331 
L 5563 0 
L 4469 0 
L 4866 2047 
Q 4913 2291 4913 2466 
Q 4913 2659 4856 2772 
Q 4750 2988 4403 2988 
Q 4019 2988 3761 2697 
Q 3503 2406 3394 1850 
L 3034 0 
L 2459 0 
L 2863 2069 
Q 2906 2303 2906 2472 
Q 2906 2666 2850 2775 
Q 2741 2988 2394 2988 
Q 2009 2988 1751 2697 
Q 1494 2406 1384 1850 
L 1025 0 
L 450 0 
L 1031 2994 
L 481 2994 
L 544 3322 
L 1669 3322 
L 1556 2731 
Q 1778 3063 2059 3238 
Q 2341 3413 2653 3413 
Q 3041 3413 3262 3220 
Q 3484 3028 3503 2675 
z
" transform="scale(0.015625)"/>
      <path id="DejaVuSerif-Italic-77" d="M 3741 728 
Q 4156 1178 4250 1344 
Q 4594 1969 4931 2988 
L 4447 2984 
L 4513 3322 
L 5347 3322 
L 5281 2984 
L 5278 2984 
Q 4959 1825 4656 1266 
Q 4209 469 3719 0 
L 3241 0 
L 2900 2484 
L 1597 0 
L 1138 0 
L 734 2988 
L 359 2981 
L 425 3322 
L 1281 3322 
L 1631 728 
L 2991 3322 
L 3394 3322 
L 3741 728 
z
" transform="scale(0.015625)"/>
      <path id="DejaVuSerif-Italic-68" d="M 309 0 
L 1191 4531 
L 641 4531 
L 703 4863 
L 1828 4863 
L 1416 2731 
Q 1641 3069 1928 3241 
Q 2216 3413 2553 3413 
Q 3103 3413 3300 3097 
Q 3422 2906 3422 2588 
Q 3422 2378 3369 2113 
L 3022 331 
L 3534 331 
L 3472 0 
L 2381 0 
L 2756 1931 
Q 2819 2253 2819 2469 
Q 2819 2659 2769 2763 
Q 2666 2988 2284 2988 
Q 1884 2988 1617 2697 
Q 1350 2406 1244 1850 
L 884 0 
L 309 0 
z
" transform="scale(0.015625)"/>
      <path id="DejaVuSerif-Italic-2019" d="M 347 3334 
Q 631 3531 792 3800 
Q 953 4069 1031 4475 
L 1069 4666 
L 1675 4666 
Q 1569 4125 1298 3747 
Q 1028 3369 544 3084 
L 347 3334 
z
" transform="scale(0.015625)"/>
      <path id="DejaVuSerif-Italic-62" d="M 1153 4531 
L 600 4531 
L 666 4863 
L 1794 4863 
L 1394 2803 
Q 1622 3116 1912 3264 
Q 2203 3413 2588 3413 
Q 3200 3413 3494 2928 
Q 3688 2609 3688 2163 
Q 3688 1928 3634 1663 
Q 3481 881 3000 395 
Q 2519 -91 1906 -91 
Q 1522 -91 1289 57 
Q 1056 206 950 519 
L 850 0 
L 275 0 
L 1153 4531 
z
M 1141 1497 
Q 1091 1250 1091 1053 
Q 1091 769 1191 581 
Q 1359 269 1797 269 
Q 2238 269 2533 622 
Q 2828 975 2963 1663 
Q 3025 1978 3025 2225 
Q 3025 2513 2938 2703 
Q 2781 3053 2338 3053 
Q 1900 3053 1609 2737 
Q 1319 2422 1203 1825 
L 1141 1497 
z
" transform="scale(0.015625)"/>
      <path id="DejaVuSerif-Italic-54" d="M 769 0 
L 831 331 
L 1428 331 
L 2200 4294 
L 828 4294 
L 688 3566 
L 303 3566 
L 516 4666 
L 4659 4666 
L 4447 3566 
L 4063 3566 
L 4203 4294 
L 2831 4294 
L 2059 331 
L 2656 331 
L 2594 0 
L 769 0 
z
" transform="scale(0.015625)"/>
      <path id="DejaVuSerif-Italic-79" d="M 3681 3294 
Q 3372 1506 2828 563 
Q 2031 -822 1391 -1238 
Q 1106 -1422 356 -1422 
Q 209 -1422 60 -1397 
Q -88 -1372 -238 -1325 
L -113 -691 
L 181 -691 
Q 175 -741 175 -788 
Q 175 -919 231 -994 
Q 309 -1100 513 -1100 
Q 1063 -1100 1541 -622 
L 756 2988 
L 378 2988 
L 444 3322 
L 1303 3322 
L 2041 25 
Q 2544 778 2666 1088 
Q 3059 2059 3138 2959 
L 2759 2959 
L 2825 3294 
L 3681 3294 
z
" transform="scale(0.015625)"/>
      <path id="DejaVuSerif-Italic-2f" d="M 2172 4666 
L 2672 4666 
L -9 -594 
L -509 -594 
L 2172 4666 
z
" transform="scale(0.015625)"/>
      <path id="DejaVuSerif-Italic-42" d="M 1194 331 
L 2128 331 
Q 2691 331 2998 575 
Q 3306 819 3409 1350 
Q 3513 1878 3302 2120 
Q 3091 2363 2525 2363 
L 1591 2363 
L 1194 331 
z
M 1653 2694 
L 2447 2694 
Q 2959 2694 3234 2891 
Q 3509 3088 3591 3513 
Q 3675 3941 3476 4136 
Q 3278 4331 2766 4331 
L 1972 4331 
L 1653 2694 
z
M -97 0 
L -34 331 
L 559 331 
L 1338 4331 
L 744 4331 
L 809 4666 
L 3113 4666 
Q 3819 4666 4120 4377 
Q 4422 4088 4309 3513 
Q 4231 3097 3934 2850 
Q 3638 2603 3147 2547 
Q 3728 2472 3976 2167 
Q 4225 1863 4125 1350 
Q 3991 656 3489 328 
Q 2988 0 2059 0 
L -97 0 
z
" transform="scale(0.015625)"/>
      <path id="DejaVuSerif-Italic-66" d="M 3191 4078 
L 2888 4078 
Q 2900 4144 2900 4203 
Q 2900 4347 2825 4434 
Q 2719 4556 2472 4556 
Q 2150 4556 1984 4379 
Q 1819 4203 1731 3750 
L 1647 3322 
L 2575 3322 
L 2509 2988 
L 1581 2988 
L 963 -206 
Q 853 -763 509 -1047 
Q 166 -1331 -394 -1331 
L -356 -1025 
Q -28 -1025 131 -850 
Q 297 -663 388 -206 
L 1006 2988 
L 456 2988 
L 522 3322 
L 1072 3322 
L 1153 3738 
Q 1263 4297 1606 4578 
Q 1950 4863 2509 4863 
Q 2719 4863 2920 4825 
Q 3122 4788 3316 4709 
L 3191 4078 
z
" transform="scale(0.015625)"/>
      <path id="DejaVuSerif-Italic-67" d="M 3822 3322 
L 3188 72 
Q 3044 -672 2581 -1031 
Q 2078 -1422 1381 -1422 
Q 1053 -1422 765 -1362 
Q 478 -1303 225 -1184 
L 363 -488 
L 663 -488 
Q 653 -813 834 -963 
Q 1016 -1113 1406 -1113 
Q 1913 -1113 2203 -825 
Q 2494 -544 2613 72 
L 2700 519 
Q 2472 206 2181 57 
Q 1891 -91 1525 -91 
Q 975 -91 697 281 
Q 522 516 503 841 
Q 491 1031 534 1256 
Q 750 2359 1516 2928 
Q 2169 3409 2931 3413 
Q 3631 3416 3822 3322 
z
M 3184 2988 
Q 3181 3094 2844 3094 
Q 2234 3094 1775 2625 
Q 1316 2153 1147 1297 
Q 1100 1044 1113 853 
Q 1125 659 1203 528 
Q 1356 269 1756 269 
Q 2194 269 2484 583 
Q 2775 897 2891 1497 
L 2953 1825 
L 3184 2988 
z
" transform="scale(0.015625)"/>
      <path id="DejaVuSerif-Italic-2e" d="M 664 29 
Q 569 150 603 325 
Q 638 500 780 622 
Q 922 744 1100 744 
Q 1272 744 1370 622 
Q 1469 500 1434 325 
Q 1400 153 1254 31 
Q 1109 -91 938 -91 
Q 759 -91 664 29 
z
" transform="scale(0.015625)"/>
     </defs>
     <use xlink:href="#DejaVuSerif-Italic-41"/>
     <use xlink:href="#DejaVuSerif-Italic-6c" transform="translate(72.216797 0)"/>
     <use xlink:href="#DejaVuSerif-Italic-6c" transform="translate(104.199219 0)"/>
     <use xlink:href="#DejaVuSerif-Italic-20" transform="translate(136.181641 0)"/>
     <use xlink:href="#DejaVuSerif-Italic-6c" transform="translate(167.96875 0)"/>
     <use xlink:href="#DejaVuSerif-Italic-69" transform="translate(199.951172 0)"/>
     <use xlink:href="#DejaVuSerif-Italic-6e" transform="translate(231.933594 0)"/>
     <use xlink:href="#DejaVuSerif-Italic-6b" transform="translate(296.337891 0)"/>
     <use xlink:href="#DejaVuSerif-Italic-73" transform="translate(356.933594 0)"/>
     <use xlink:href="#DejaVuSerif-Italic-20" transform="translate(408.251953 0)"/>
     <use xlink:href="#DejaVuSerif-Italic-61" transform="translate(440.039062 0)"/>
     <use xlink:href="#DejaVuSerif-Italic-72" transform="translate(499.658203 0)"/>
     <use xlink:href="#DejaVuSerif-Italic-65" transform="translate(547.460938 0)"/>
     <use xlink:href="#DejaVuSerif-Italic-20" transform="translate(606.640625 0)"/>
     <use xlink:href="#DejaVuSerif-Italic-63" transform="translate(638.427734 0)"/>
     <use xlink:href="#DejaVuSerif-Italic-6f" transform="translate(694.433594 0)"/>
     <use xlink:href="#DejaVuSerif-Italic-6e" transform="translate(754.638672 0)"/>
     <use xlink:href="#DejaVuSerif-Italic-63" transform="translate(819.042969 0)"/>
     <use xlink:href="#DejaVuSerif-Italic-65" transform="translate(875.048828 0)"/>
     <use xlink:href="#DejaVuSerif-Italic-70" transform="translate(934.228516 0)"/>
     <use xlink:href="#DejaVuSerif-Italic-74" transform="translate(998.242188 0)"/>
     <use xlink:href="#DejaVuSerif-Italic-75" transform="translate(1038.427734 0)"/>
     <use xlink:href="#DejaVuSerif-Italic-61" transform="translate(1102.832031 0)"/>
     <use xlink:href="#DejaVuSerif-Italic-6c" transform="translate(1162.451172 0)"/>
     <use xlink:href="#DejaVuSerif-Italic-20" transform="translate(1194.433594 0)"/>
     <use xlink:href="#DejaVuSerif-Italic-61" transform="translate(1226.220703 0)"/>
     <use xlink:href="#DejaVuSerif-Italic-6e" transform="translate(1285.839844 0)"/>
     <use xlink:href="#DejaVuSerif-Italic-64" transform="translate(1350.244141 0)"/>
     <use xlink:href="#DejaVuSerif-Italic-20" transform="translate(1414.257812 0)"/>
     <use xlink:href="#DejaVuSerif-Italic-72" transform="translate(1446.044922 0)"/>
     <use xlink:href="#DejaVuSerif-Italic-65" transform="translate(1493.847656 0)"/>
     <use xlink:href="#DejaVuSerif-Italic-6d" transform="translate(1553.027344 0)"/>
     <use xlink:href="#DejaVuSerif-Italic-61" transform="translate(1647.851562 0)"/>
     <use xlink:href="#DejaVuSerif-Italic-69" transform="translate(1707.470703 0)"/>
     <use xlink:href="#DejaVuSerif-Italic-6e" transform="translate(1739.453125 0)"/>
     <use xlink:href="#DejaVuSerif-Italic-20" transform="translate(1803.857422 0)"/>
     <use xlink:href="#DejaVuSerif-Italic-77" transform="translate(1835.644531 0)"/>
     <use xlink:href="#DejaVuSerif-Italic-69" transform="translate(1921.240234 0)"/>
     <use xlink:href="#DejaVuSerif-Italic-74" transform="translate(1953.222656 0)"/>
     <use xlink:href="#DejaVuSerif-Italic-68" transform="translate(1993.408203 0)"/>
     <use xlink:href="#DejaVuSerif-Italic-69" transform="translate(2057.8125 0)"/>
     <use xlink:href="#DejaVuSerif-Italic-6e" transform="translate(2089.794922 0)"/>
     <use xlink:href="#DejaVuSerif-Italic-20" transform="translate(2154.199219 0)"/>
     <use xlink:href="#DejaVuSerif-Italic-74" transform="translate(2185.986328 0)"/>
     <use xlink:href="#DejaVuSerif-Italic-68" transform="translate(2226.171875 0)"/>
     <use xlink:href="#DejaVuSerif-Italic-65" transform="translate(2290.576172 0)"/>
     <use xlink:href="#DejaVuSerif-Italic-20" transform="translate(2349.755859 0)"/>
     <use xlink:href="#DejaVuSerif-Italic-6d" transform="translate(2381.542969 0)"/>
     <use xlink:href="#DejaVuSerif-Italic-6f" transform="translate(2476.367188 0)"/>
     <use xlink:href="#DejaVuSerif-Italic-64" transform="translate(2536.572266 0)"/>
     <use xlink:href="#DejaVuSerif-Italic-65" transform="translate(2600.585938 0)"/>
     <use xlink:href="#DejaVuSerif-Italic-6c" transform="translate(2659.765625 0)"/>
     <use xlink:href="#DejaVuSerif-Italic-2019" transform="translate(2691.748047 0)"/>
     <use xlink:href="#DejaVuSerif-Italic-73" transform="translate(2723.535156 0)"/>
     <use xlink:href="#DejaVuSerif-Italic-20" transform="translate(2774.853516 0)"/>
     <use xlink:href="#DejaVuSerif-Italic-61" transform="translate(2806.640625 0)"/>
     <use xlink:href="#DejaVuSerif-Italic-62" transform="translate(2866.259766 0)"/>
     <use xlink:href="#DejaVuSerif-Italic-73" transform="translate(2930.273438 0)"/>
     <use xlink:href="#DejaVuSerif-Italic-74" transform="translate(2981.591797 0)"/>
     <use xlink:href="#DejaVuSerif-Italic-72" transform="translate(3021.777344 0)"/>
     <use xlink:href="#DejaVuSerif-Italic-61" transform="translate(3069.580078 0)"/>
     <use xlink:href="#DejaVuSerif-Italic-63" transform="translate(3129.199219 0)"/>
     <use xlink:href="#DejaVuSerif-Italic-74" transform="translate(3185.205078 0)"/>
     <use xlink:href="#DejaVuSerif-Italic-20" transform="translate(3225.390625 0)"/>
     <use xlink:href="#DejaVuSerif-Italic-54" transform="translate(3257.177734 0)"/>
     <use xlink:href="#DejaVuSerif-Italic-79" transform="translate(3323.876953 0)"/>
     <use xlink:href="#DejaVuSerif-Italic-70" transform="translate(3380.371094 0)"/>
     <use xlink:href="#DejaVuSerif-Italic-65" transform="translate(3444.384766 0)"/>
     <use xlink:href="#DejaVuSerif-Italic-20" transform="translate(3503.564453 0)"/>
     <use xlink:href="#DejaVuSerif-Italic-41" transform="translate(3535.351562 0)"/>
     <use xlink:href="#DejaVuSerif-Italic-20" transform="translate(3607.568359 0)"/>
     <use xlink:href="#DejaVuSerif-Italic-2f" transform="translate(3639.355469 0)"/>
     <use xlink:href="#DejaVuSerif-Italic-20" transform="translate(3673.046875 0)"/>
     <use xlink:href="#DejaVuSerif-Italic-54" transform="translate(3704.833984 0)"/>
     <use xlink:href="#DejaVuSerif-Italic-79" transform="translate(3771.533203 0)"/>
     <use xlink:href="#DejaVuSerif-Italic-70" transform="translate(3828.027344 0)"/>
     <use xlink:href="#DejaVuSerif-Italic-65" transform="translate(3892.041016 0)"/>
     <use xlink:href="#DejaVuSerif-Italic-20" transform="translate(3951.220703 0)"/>
     <use xlink:href="#DejaVuSerif-Italic-42" transform="translate(3983.007812 0)"/>
     <use xlink:href="#DejaVuSerif-Italic-20" transform="translate(4056.494141 0)"/>
     <use xlink:href="#DejaVuSerif-Italic-66" transform="translate(4088.28125 0)"/>
     <use xlink:href="#DejaVuSerif-Italic-72" transform="translate(4125.292969 0)"/>
     <use xlink:href="#DejaVuSerif-Italic-61" transform="translate(4173.095703 0)"/>
     <use xlink:href="#DejaVuSerif-Italic-6d" transform="translate(4232.714844 0)"/>
     <use xlink:href="#DejaVuSerif-Italic-69" transform="translate(4327.539062 0)"/>
     <use xlink:href="#DejaVuSerif-Italic-6e" transform="translate(4359.521484 0)"/>
     <use xlink:href="#DejaVuSerif-Italic-67" transform="translate(4423.925781 0)"/>
     <use xlink:href="#DejaVuSerif-Italic-2e" transform="translate(4487.939453 0)"/>
    </g>
    <!-- R1: Stress→Delegation→Provider Burden→Time Loss→Backlog→Stress (reinforcing) -->
    <g style="fill: #636363" transform="translate(130.685156 502.3764) scale(0.09 -0.09)">
     <defs>
      <path id="DejaVuSerif-Italic-52" d="M 3066 2316 
Q 3272 2256 3403 2114 
Q 3534 1972 3609 1716 
L 4016 331 
L 4584 331 
L 4522 0 
L 3422 0 
L 2981 1484 
Q 2856 1916 2706 2042 
Q 2556 2169 2250 2169 
L 1553 2169 
L 1194 331 
L 1853 331 
L 1791 0 
L -97 0 
L -34 331 
L 559 331 
L 1338 4331 
L 744 4331 
L 809 4666 
L 3175 4666 
Q 3856 4666 4164 4341 
Q 4472 4016 4356 3419 
Q 4263 2938 3938 2661 
Q 3613 2384 3066 2316 
z
M 1619 2503 
L 2541 2503 
Q 3013 2503 3280 2726 
Q 3547 2950 3639 3419 
Q 3731 3888 3548 4109 
Q 3366 4331 2894 4331 
L 1972 4331 
L 1619 2503 
z
" transform="scale(0.015625)"/>
      <path id="DejaVuSerif-Italic-31" d="M 447 0 
L 513 331 
L 1325 331 
L 2078 4213 
L 1019 3603 
L 1100 4013 
L 2381 4750 
L 2813 4750 
L 1953 331 
L 2766 331 
L 2700 0 
L 447 0 
z
" transform="scale(0.015625)"/>
      <path id="DejaVuSerif-Italic-3a" d="M 529 29 
Q 434 150 468 325 
Q 503 500 647 622 
Q 791 744 966 744 
Q 1141 744 1237 622 
Q 1334 500 1300 325 
Q 1266 150 1123 29 
Q 981 -91 803 -91 
Q 625 -91 529 29 
z
M 926 2067 
Q 828 2188 862 2363 
Q 897 2538 1040 2658 
Q 1184 2778 1359 2778 
Q 1538 2778 1633 2659 
Q 1728 2541 1693 2362 
Q 1659 2184 1518 2065 
Q 1378 1947 1200 1947 
Q 1025 1947 926 2067 
z
" transform="scale(0.015625)"/>
      <path id="DejaVuSerif-Italic-53" d="M 184 225 
L 391 1288 
L 750 1284 
Q 663 753 905 498 
Q 1147 244 1744 244 
Q 2300 244 2636 464 
Q 2972 684 3053 1106 
Q 3119 1444 2976 1625 
Q 2834 1806 2300 1978 
L 1722 2163 
Q 1091 2366 877 2669 
Q 663 2972 766 3500 
Q 881 4094 1367 4422 
Q 1853 4750 2616 4750 
Q 2941 4750 3314 4679 
Q 3688 4609 4097 4475 
L 3906 3481 
L 3553 3481 
Q 3594 3975 3361 4195 
Q 3128 4416 2563 4416 
Q 2069 4416 1772 4214 
Q 1475 4013 1400 3628 
Q 1334 3294 1490 3103 
Q 1647 2913 2241 2725 
L 2784 2553 
Q 3381 2363 3593 2067 
Q 3806 1772 3709 1275 
Q 3578 597 3076 253 
Q 2575 -91 1716 -91 
Q 1331 -91 948 -12 
Q 566 66 184 225 
z
" transform="scale(0.015625)"/>
      <path id="DejaVuSerif-Italic-2192" d="M 366 2322 
L 4391 2322 
L 3788 3375 
L 3822 3375 
L 5125 2084 
L 5125 2053 
L 3822 763 
L 3788 763 
L 4391 1816 
L 366 1816 
L 366 2322 
z
" transform="scale(0.015625)"/>
      <path id="DejaVuSerif-Italic-44" d="M 1194 331 
L 1775 331 
Q 2684 331 3271 850 
Q 3859 1369 4048 2337 
Q 4238 3306 3852 3818 
Q 3466 4331 2553 4331 
L 1972 4331 
L 1194 331 
z
M -97 0 
L -34 331 
L 559 331 
L 1338 4331 
L 744 4331 
L 809 4666 
L 2666 4666 
Q 3872 4666 4426 4050 
Q 4981 3434 4766 2338 
Q 4553 1238 3758 619 
Q 2963 0 1759 0 
L -97 0 
z
" transform="scale(0.015625)"/>
      <path id="DejaVuSerif-Italic-50" d="M 1594 2375 
L 2419 2375 
Q 2884 2375 3176 2626 
Q 3469 2878 3559 3353 
Q 3653 3831 3458 4081 
Q 3263 4331 2797 4331 
L 1972 4331 
L 1594 2375 
z
M -97 0 
L -34 331 
L 559 331 
L 1338 4331 
L 744 4331 
L 809 4666 
L 3016 4666 
Q 3716 4666 4056 4311 
Q 4397 3956 4278 3353 
Q 4163 2753 3684 2397 
Q 3206 2041 2506 2041 
L 1528 2041 
L 1194 331 
L 1916 331 
L 1853 0 
L -97 0 
z
" transform="scale(0.015625)"/>
      <path id="DejaVuSerif-Italic-76" d="M 1681 0 
L 1259 0 
L 619 2988 
L 241 2988 
L 303 3322 
L 1163 3322 
L 1725 703 
Q 2084 1016 2325 1413 
Q 2825 2238 3003 2988 
L 2622 2988 
L 2688 3322 
L 3547 3322 
Q 3206 2034 2775 1313 
Q 2400 688 1681 0 
z
" transform="scale(0.015625)"/>
      <path id="DejaVuSerif-Italic-4c" d="M -97 0 
L -34 331 
L 559 331 
L 1338 4331 
L 744 4331 
L 809 4666 
L 2631 4666 
L 2566 4331 
L 1972 4331 
L 1206 384 
L 3338 384 
L 3488 1166 
L 3872 1166 
L 3647 0 
L -97 0 
z
" transform="scale(0.015625)"/>
      <path id="DejaVuSerif-Italic-28" d="M 1472 -997 
Q 778 -656 534 83 
Q 291 822 506 1931 
Q 722 3044 1253 3783 
Q 1784 4522 2609 4863 
L 2550 4556 
Q 2006 4225 1679 3623 
Q 1353 3022 1141 1931 
Q 928 844 1020 242 
Q 1113 -359 1531 -691 
L 1472 -997 
z
" transform="scale(0.015625)"/>
      <path id="DejaVuSerif-Italic-29" d="M -113 -997 
L -53 -691 
Q 491 -359 819 242 
Q 1147 844 1359 1931 
Q 1572 3022 1478 3623 
Q 1384 4225 966 4556 
L 1025 4863 
Q 1722 4522 1965 3783 
Q 2209 3044 1994 1931 
Q 1778 822 1247 83 
Q 716 -656 -113 -997 
z
" transform="scale(0.015625)"/>
     </defs>
     <use xlink:href="#DejaVuSerif-Italic-52"/>
     <use xlink:href="#DejaVuSerif-Italic-31" transform="translate(75.292969 0)"/>
     <use xlink:href="#DejaVuSerif-Italic-3a" transform="translate(138.916016 0)"/>
     <use xlink:href="#DejaVuSerif-Italic-20" transform="translate(172.607422 0)"/>
     <use xlink:href="#DejaVuSerif-Italic-53" transform="translate(204.394531 0)"/>
     <use xlink:href="#DejaVuSerif-Italic-74" transform="translate(272.900391 0)"/>
     <use xlink:href="#DejaVuSerif-Italic-72" transform="translate(313.085938 0)"/>
     <use xlink:href="#DejaVuSerif-Italic-65" transform="translate(360.888672 0)"/>
     <use xlink:href="#DejaVuSerif-Italic-73" transform="translate(420.068359 0)"/>
     <use xlink:href="#DejaVuSerif-Italic-73" transform="translate(471.386719 0)"/>
     <use xlink:href="#DejaVuSerif-Italic-2192" transform="translate(522.705078 0)"/>
     <use xlink:href="#DejaVuSerif-Italic-44" transform="translate(606.494141 0)"/>
     <use xlink:href="#DejaVuSerif-Italic-65" transform="translate(686.669922 0)"/>
     <use xlink:href="#DejaVuSerif-Italic-6c" transform="translate(745.849609 0)"/>
     <use xlink:href="#DejaVuSerif-Italic-65" transform="translate(777.832031 0)"/>
     <use xlink:href="#DejaVuSerif-Italic-67" transform="translate(837.011719 0)"/>
     <use xlink:href="#DejaVuSerif-Italic-61" transform="translate(901.025391 0)"/>
     <use xlink:href="#DejaVuSerif-Italic-74" transform="translate(960.644531 0)"/>
     <use xlink:href="#DejaVuSerif-Italic-69" transform="translate(1000.830078 0)"/>
     <use xlink:href="#DejaVuSerif-Italic-6f" transform="translate(1032.8125 0)"/>
     <use xlink:href="#DejaVuSerif-Italic-6e" transform="translate(1093.017578 0)"/>
     <use xlink:href="#DejaVuSerif-Italic-2192" transform="translate(1157.421875 0)"/>
     <use xlink:href="#DejaVuSerif-Italic-50" transform="translate(1241.210938 0)"/>
     <use xlink:href="#DejaVuSerif-Italic-72" transform="translate(1308.496094 0)"/>
     <use xlink:href="#DejaVuSerif-Italic-6f" transform="translate(1356.298828 0)"/>
     <use xlink:href="#DejaVuSerif-Italic-76" transform="translate(1416.503906 0)"/>
     <use xlink:href="#DejaVuSerif-Italic-69" transform="translate(1472.998047 0)"/>
     <use xlink:href="#DejaVuSerif-Italic-64" transform="translate(1504.980469 0)"/>
     <use xlink:href="#DejaVuSerif-Italic-65" transform="translate(1568.994141 0)"/>
     <use xlink:href="#DejaVuSerif-Italic-72" transform="translate(1628.173828 0)"/>
     <use xlink:href="#DejaVuSerif-Italic-20" transform="translate(1675.976562 0)"/>
     <use xlink:href="#DejaVuSerif-Italic-42" transform="translate(1707.763672 0)"/>
     <use xlink:href="#DejaVuSerif-Italic-75" transform="translate(1781.25 0)"/>
     <use xlink:href="#DejaVuSerif-Italic-72" transform="translate(1845.654297 0)"/>
     <use xlink:href="#DejaVuSerif-Italic-64" transform="translate(1893.457031 0)"/>
     <use xlink:href="#DejaVuSerif-Italic-65" transform="translate(1957.470703 0)"/>
     <use xlink:href="#DejaVuSerif-Italic-6e" transform="translate(2016.650391 0)"/>
     <use xlink:href="#DejaVuSerif-Italic-2192" transform="translate(2081.054688 0)"/>
     <use xlink:href="#DejaVuSerif-Italic-54" transform="translate(2164.84375 0)"/>
     <use xlink:href="#DejaVuSerif-Italic-69" transform="translate(2231.542969 0)"/>
     <use xlink:href="#DejaVuSerif-Italic-6d" transform="translate(2263.525391 0)"/>
     <use xlink:href="#DejaVuSerif-Italic-65" transform="translate(2358.349609 0)"/>
     <use xlink:href="#DejaVuSerif-Italic-20" transform="translate(2417.529297 0)"/>
     <use xlink:href="#DejaVuSerif-Italic-4c" transform="translate(2449.316406 0)"/>
     <use xlink:href="#DejaVuSerif-Italic-6f" transform="translate(2515.722656 0)"/>
     <use xlink:href="#DejaVuSerif-Italic-73" transform="translate(2575.927734 0)"/>
     <use xlink:href="#DejaVuSerif-Italic-73" transform="translate(2627.246094 0)"/>
     <use xlink:href="#DejaVuSerif-Italic-2192" transform="translate(2678.564453 0)"/>
     <use xlink:href="#DejaVuSerif-Italic-42" transform="translate(2762.353516 0)"/>
     <use xlink:href="#DejaVuSerif-Italic-61" transform="translate(2835.839844 0)"/>
     <use xlink:href="#DejaVuSerif-Italic-63" transform="translate(2895.458984 0)"/>
     <use xlink:href="#DejaVuSerif-Italic-6b" transform="translate(2951.464844 0)"/>
     <use xlink:href="#DejaVuSerif-Italic-6c" transform="translate(3012.060547 0)"/>
     <use xlink:href="#DejaVuSerif-Italic-6f" transform="translate(3044.042969 0)"/>
     <use xlink:href="#DejaVuSerif-Italic-67" transform="translate(3104.248047 0)"/>
     <use xlink:href="#DejaVuSerif-Italic-2192" transform="translate(3168.261719 0)"/>
     <use xlink:href="#DejaVuSerif-Italic-53" transform="translate(3252.050781 0)"/>
     <use xlink:href="#DejaVuSerif-Italic-74" transform="translate(3320.556641 0)"/>
     <use xlink:href="#DejaVuSerif-Italic-72" transform="translate(3360.742188 0)"/>
     <use xlink:href="#DejaVuSerif-Italic-65" transform="translate(3408.544922 0)"/>
     <use xlink:href="#DejaVuSerif-Italic-73" transform="translate(3467.724609 0)"/>
     <use xlink:href="#DejaVuSerif-Italic-73" transform="translate(3519.042969 0)"/>
     <use xlink:href="#DejaVuSerif-Italic-20" transform="translate(3570.361328 0)"/>
     <use xlink:href="#DejaVuSerif-Italic-28" transform="translate(3602.148438 0)"/>
     <use xlink:href="#DejaVuSerif-Italic-72" transform="translate(3641.162109 0)"/>
     <use xlink:href="#DejaVuSerif-Italic-65" transform="translate(3688.964844 0)"/>
     <use xlink:href="#DejaVuSerif-Italic-69" transform="translate(3748.144531 0)"/>
     <use xlink:href="#DejaVuSerif-Italic-6e" transform="translate(3780.126953 0)"/>
     <use xlink:href="#DejaVuSerif-Italic-66" transform="translate(3844.53125 0)"/>
     <use xlink:href="#DejaVuSerif-Italic-6f" transform="translate(3881.542969 0)"/>
     <use xlink:href="#DejaVuSerif-Italic-72" transform="translate(3941.748047 0)"/>
     <use xlink:href="#DejaVuSerif-Italic-63" transform="translate(3989.550781 0)"/>
     <use xlink:href="#DejaVuSerif-Italic-69" transform="translate(4045.556641 0)"/>
     <use xlink:href="#DejaVuSerif-Italic-6e" transform="translate(4077.539062 0)"/>
     <use xlink:href="#DejaVuSerif-Italic-67" transform="translate(4141.943359 0)"/>
     <use xlink:href="#DejaVuSerif-Italic-29" transform="translate(4205.957031 0)"/>
    </g>
    <!-- R2: Delegation→Norm→Convenience→Delegation (reinforcing) -->
    <g style="fill: #636363" transform="translate(178.852734 512.5824) scale(0.09 -0.09)">
     <defs>
      <path id="DejaVuSerif-Italic-32" d="M 1050 3553 
L 700 3553 
L 863 4384 
Q 1231 4563 1589 4656 
Q 1947 4750 2272 4750 
Q 3000 4750 3353 4397 
Q 3706 4044 3588 3438 
Q 3456 2753 2313 1800 
Q 2225 1728 2178 1691 
L 772 513 
L 2719 513 
L 2831 1088 
L 3197 1088 
L 2984 0 
L -25 0 
L 41 341 
L 1731 1753 
Q 2291 2222 2567 2614 
Q 2844 3006 2928 3438 
Q 3019 3909 2825 4175 
Q 2631 4441 2200 4441 
Q 1753 4441 1467 4219 
Q 1181 3997 1050 3553 
z
" transform="scale(0.015625)"/>
      <path id="DejaVuSerif-Italic-4e" d="M -128 0 
L -66 331 
L 563 331 
L 1341 4331 
L 713 4331 
L 778 4666 
L 1975 4666 
L 4056 984 
L 4706 4331 
L 4081 4331 
L 4147 4666 
L 5784 4666 
L 5719 4331 
L 5091 4331 
L 4231 -91 
L 3853 -91 
L 1631 3841 
L 947 331 
L 1575 331 
L 1513 0 
L -128 0 
z
" transform="scale(0.015625)"/>
      <path id="DejaVuSerif-Italic-43" d="M 4300 1234 
Q 3966 581 3414 245 
Q 2863 -91 2119 -91 
Q 1663 -91 1303 65 
Q 944 222 700 525 
Q 419 875 334 1320 
Q 250 1766 359 2328 
Q 572 3416 1330 4083 
Q 2088 4750 3116 4750 
Q 3497 4750 3908 4650 
Q 4319 4550 4775 4347 
L 4569 3272 
L 4216 3272 
Q 4213 3859 3919 4137 
Q 3625 4416 2997 4416 
Q 2250 4416 1762 3886 
Q 1275 3356 1075 2328 
Q 875 1303 1156 773 
Q 1438 244 2184 244 
Q 2706 244 3092 492 
Q 3478 741 3725 1234 
L 4300 1234 
z
" transform="scale(0.015625)"/>
     </defs>
     <use xlink:href="#DejaVuSerif-Italic-52"/>
     <use xlink:href="#DejaVuSerif-Italic-32" transform="translate(75.292969 0)"/>
     <use xlink:href="#DejaVuSerif-Italic-3a" transform="translate(138.916016 0)"/>
     <use xlink:href="#DejaVuSerif-Italic-20" transform="translate(172.607422 0)"/>
     <use xlink:href="#DejaVuSerif-Italic-44" transform="translate(204.394531 0)"/>
     <use xlink:href="#DejaVuSerif-Italic-65" transform="translate(284.570312 0)"/>
     <use xlink:href="#DejaVuSerif-Italic-6c" transform="translate(343.75 0)"/>
     <use xlink:href="#DejaVuSerif-Italic-65" transform="translate(375.732422 0)"/>
     <use xlink:href="#DejaVuSerif-Italic-67" transform="translate(434.912109 0)"/>
     <use xlink:href="#DejaVuSerif-Italic-61" transform="translate(498.925781 0)"/>
     <use xlink:href="#DejaVuSerif-Italic-74" transform="translate(558.544922 0)"/>
     <use xlink:href="#DejaVuSerif-Italic-69" transform="translate(598.730469 0)"/>
     <use xlink:href="#DejaVuSerif-Italic-6f" transform="translate(630.712891 0)"/>
     <use xlink:href="#DejaVuSerif-Italic-6e" transform="translate(690.917969 0)"/>
     <use xlink:href="#DejaVuSerif-Italic-2192" transform="translate(755.322266 0)"/>
     <use xlink:href="#DejaVuSerif-Italic-4e" transform="translate(839.111328 0)"/>
     <use xlink:href="#DejaVuSerif-Italic-6f" transform="translate(926.611328 0)"/>
     <use xlink:href="#DejaVuSerif-Italic-72" transform="translate(986.816406 0)"/>
     <use xlink:href="#DejaVuSerif-Italic-6d" transform="translate(1034.619141 0)"/>
     <use xlink:href="#DejaVuSerif-Italic-2192" transform="translate(1129.443359 0)"/>
     <use xlink:href="#DejaVuSerif-Italic-43" transform="translate(1213.232422 0)"/>
     <use xlink:href="#DejaVuSerif-Italic-6f" transform="translate(1289.746094 0)"/>
     <use xlink:href="#DejaVuSerif-Italic-6e" transform="translate(1349.951172 0)"/>
     <use xlink:href="#DejaVuSerif-Italic-76" transform="translate(1414.355469 0)"/>
     <use xlink:href="#DejaVuSerif-Italic-65" transform="translate(1470.849609 0)"/>
     <use xlink:href="#DejaVuSerif-Italic-6e" transform="translate(1530.029297 0)"/>
     <use xlink:href="#DejaVuSerif-Italic-69" transform="translate(1594.433594 0)"/>
     <use xlink:href="#DejaVuSerif-Italic-65" transform="translate(1626.416016 0)"/>
     <use xlink:href="#DejaVuSerif-Italic-6e" transform="translate(1685.595703 0)"/>
     <use xlink:href="#DejaVuSerif-Italic-63" transform="translate(1750 0)"/>
     <use xlink:href="#DejaVuSerif-Italic-65" transform="translate(1806.005859 0)"/>
     <use xlink:href="#DejaVuSerif-Italic-2192" transform="translate(1865.185547 0)"/>
     <use xlink:href="#DejaVuSerif-Italic-44" transform="translate(1948.974609 0)"/>
     <use xlink:href="#DejaVuSerif-Italic-65" transform="translate(2029.150391 0)"/>
     <use xlink:href="#DejaVuSerif-Italic-6c" transform="translate(2088.330078 0)"/>
     <use xlink:href="#DejaVuSerif-Italic-65" transform="translate(2120.3125 0)"/>
     <use xlink:href="#DejaVuSerif-Italic-67" transform="translate(2179.492188 0)"/>
     <use xlink:href="#DejaVuSerif-Italic-61" transform="translate(2243.505859 0)"/>
     <use xlink:href="#DejaVuSerif-Italic-74" transform="translate(2303.125 0)"/>
     <use xlink:href="#DejaVuSerif-Italic-69" transform="translate(2343.310547 0)"/>
     <use xlink:href="#DejaVuSerif-Italic-6f" transform="translate(2375.292969 0)"/>
     <use xlink:href="#DejaVuSerif-Italic-6e" transform="translate(2435.498047 0)"/>
     <use xlink:href="#DejaVuSerif-Italic-20" transform="translate(2499.902344 0)"/>
     <use xlink:href="#DejaVuSerif-Italic-28" transform="translate(2531.689453 0)"/>
     <use xlink:href="#DejaVuSerif-Italic-72" transform="translate(2570.703125 0)"/>
     <use xlink:href="#DejaVuSerif-Italic-65" transform="translate(2618.505859 0)"/>
     <use xlink:href="#DejaVuSerif-Italic-69" transform="translate(2677.685547 0)"/>
     <use xlink:href="#DejaVuSerif-Italic-6e" transform="translate(2709.667969 0)"/>
     <use xlink:href="#DejaVuSerif-Italic-66" transform="translate(2774.072266 0)"/>
     <use xlink:href="#DejaVuSerif-Italic-6f" transform="translate(2811.083984 0)"/>
     <use xlink:href="#DejaVuSerif-Italic-72" transform="translate(2871.289062 0)"/>
     <use xlink:href="#DejaVuSerif-Italic-63" transform="translate(2919.091797 0)"/>
     <use xlink:href="#DejaVuSerif-Italic-69" transform="translate(2975.097656 0)"/>
     <use xlink:href="#DejaVuSerif-Italic-6e" transform="translate(3007.080078 0)"/>
     <use xlink:href="#DejaVuSerif-Italic-67" transform="translate(3071.484375 0)"/>
     <use xlink:href="#DejaVuSerif-Italic-29" transform="translate(3135.498047 0)"/>
    </g>
   </g>
  </g>
  <g id="text_20">
   <!-- Figure 1. Conceptual Causal Loop: Convenience, Backlog, and Norm Reinforcement -->
   <g transform="translate(7.2 17.077969) scale(0.13 -0.13)">
    <defs>
     <path id="DejaVuSerif-Bold-46" d="M 300 0 
L 300 378 
L 897 378 
L 897 4288 
L 300 4288 
L 300 4666 
L 4459 4666 
L 4459 3566 
L 4031 3566 
L 4031 4238 
L 2106 4238 
L 2106 2741 
L 3291 2741 
L 3291 3334 
L 3719 3334 
L 3719 1722 
L 3291 1722 
L 3291 2316 
L 2106 2316 
L 2106 378 
L 2841 378 
L 2841 0 
L 300 0 
z
" transform="scale(0.015625)"/>
     <path id="DejaVuSerif-Bold-69" d="M 588 4263 
Q 588 4516 763 4689 
Q 938 4863 1191 4863 
Q 1438 4863 1611 4689 
Q 1784 4516 1784 4263 
Q 1784 4016 1611 3842 
Q 1438 3669 1191 3669 
Q 938 3669 763 3841 
Q 588 4013 588 4263 
z
M 1797 378 
L 2272 378 
L 2272 0 
L 219 0 
L 219 378 
L 691 378 
L 691 2944 
L 219 2944 
L 219 3322 
L 1797 3322 
L 1797 378 
z
" transform="scale(0.015625)"/>
     <path id="DejaVuSerif-Bold-67" d="M 3853 2944 
L 3853 44 
Q 3853 -656 3354 -1039 
Q 2856 -1422 1947 -1422 
Q 1616 -1422 1275 -1370 
Q 934 -1319 575 -1216 
L 575 -422 
L 928 -422 
Q 975 -750 1192 -909 
Q 1409 -1069 1813 -1069 
Q 2325 -1069 2536 -823 
Q 2747 -578 2747 44 
L 2747 422 
Q 2606 163 2367 36 
Q 2128 -91 1778 -91 
Q 1072 -91 667 378 
Q 263 847 263 1663 
Q 263 2481 667 2947 
Q 1072 3413 1778 3413 
Q 2128 3413 2367 3286 
Q 2606 3159 2747 2900 
L 2747 3322 
L 4325 3322 
L 4325 2944 
L 3853 2944 
z
M 2747 1825 
Q 2747 2406 2597 2665 
Q 2447 2925 2119 2925 
Q 1775 2925 1636 2651 
Q 1497 2378 1497 1663 
Q 1497 947 1637 672 
Q 1778 397 2119 397 
Q 2447 397 2597 656 
Q 2747 916 2747 1497 
L 2747 1825 
z
" transform="scale(0.015625)"/>
     <path id="DejaVuSerif-Bold-75" d="M 3963 3322 
L 3963 378 
L 4434 378 
L 4434 0 
L 2853 0 
L 2853 469 
Q 2656 172 2400 40 
Q 2144 -91 1753 -91 
Q 1194 -91 908 239 
Q 622 569 622 1209 
L 622 2944 
L 147 2944 
L 147 3322 
L 1728 3322 
L 1728 1381 
Q 1728 763 1831 595 
Q 1934 428 2209 428 
Q 2544 428 2698 675 
Q 2853 922 2853 1459 
L 2853 2944 
L 2450 2944 
L 2450 3322 
L 3963 3322 
z
" transform="scale(0.015625)"/>
     <path id="DejaVuSerif-Bold-72" d="M 3438 3359 
L 3438 2369 
L 3084 2369 
Q 3066 2634 2941 2764 
Q 2816 2894 2578 2894 
Q 2216 2894 2006 2575 
Q 1797 2256 1797 1691 
L 1797 378 
L 2400 378 
L 2400 0 
L 219 0 
L 219 378 
L 691 378 
L 691 2944 
L 184 2944 
L 184 3322 
L 1797 3322 
L 1797 2731 
Q 1959 3078 2226 3245 
Q 2494 3413 2881 3413 
Q 2978 3413 3117 3398 
Q 3256 3384 3438 3359 
z
" transform="scale(0.015625)"/>
     <path id="DejaVuSerif-Bold-65" d="M 2566 1875 
Q 2566 2531 2444 2795 
Q 2322 3059 2028 3059 
Q 1744 3059 1620 2800 
Q 1497 2541 1497 1931 
L 1497 1875 
L 2566 1875 
z
M 3781 1503 
L 1497 1503 
L 1497 1478 
Q 1497 834 1690 548 
Q 1884 263 2316 263 
Q 2675 263 2897 453 
Q 3119 644 3181 1006 
L 3700 1006 
Q 3566 441 3166 175 
Q 2766 -91 2047 -91 
Q 1184 -91 723 364 
Q 263 819 263 1663 
Q 263 2488 734 2950 
Q 1206 3413 2047 3413 
Q 2872 3413 3312 2927 
Q 3753 2441 3781 1503 
z
" transform="scale(0.015625)"/>
     <path id="DejaVuSerif-Bold-20" transform="scale(0.015625)"/>
     <path id="DejaVuSerif-Bold-2e" d="M 519 506 
Q 519 750 694 925 
Q 869 1100 1113 1100 
Q 1359 1100 1534 925 
Q 1709 750 1709 506 
Q 1709 259 1534 84 
Q 1359 -91 1113 -91 
Q 869 -91 694 84 
Q 519 259 519 506 
z
" transform="scale(0.015625)"/>
     <path id="DejaVuSerif-Bold-43" d="M 4769 1331 
Q 4584 609 4106 259 
Q 3628 -91 2822 -91 
Q 1641 -91 955 561 
Q 269 1213 269 2328 
Q 269 3447 955 4098 
Q 1641 4750 2822 4750 
Q 3238 4750 3688 4650 
Q 4138 4550 4641 4347 
L 4641 3200 
L 4244 3200 
Q 4122 3788 3800 4080 
Q 3478 4372 2950 4372 
Q 2269 4372 1937 3870 
Q 1606 3369 1606 2328 
Q 1606 1288 1937 788 
Q 2269 288 2956 288 
Q 3422 288 3717 547 
Q 4013 806 4147 1331 
L 4769 1331 
z
" transform="scale(0.015625)"/>
     <path id="DejaVuSerif-Bold-6f" d="M 2138 263 
Q 2488 263 2630 563 
Q 2772 863 2772 1663 
Q 2772 2463 2631 2761 
Q 2491 3059 2138 3059 
Q 1784 3059 1640 2757 
Q 1497 2456 1497 1663 
Q 1497 869 1640 566 
Q 1784 263 2138 263 
z
M 2138 -91 
Q 1259 -91 761 376 
Q 263 844 263 1663 
Q 263 2484 761 2948 
Q 1259 3413 2138 3413 
Q 3019 3413 3516 2948 
Q 4013 2484 4013 1663 
Q 4013 844 3514 376 
Q 3016 -91 2138 -91 
z
" transform="scale(0.015625)"/>
     <path id="DejaVuSerif-Bold-6e" d="M 219 0 
L 219 378 
L 691 378 
L 691 2944 
L 219 2944 
L 219 3322 
L 1797 3322 
L 1797 2853 
Q 1997 3150 2253 3281 
Q 2509 3413 2900 3413 
Q 3459 3413 3745 3083 
Q 4031 2753 4031 2113 
L 4031 378 
L 4506 378 
L 4506 0 
L 2522 0 
L 2522 378 
L 2925 378 
L 2925 2144 
Q 2925 2566 2817 2730 
Q 2709 2894 2444 2894 
Q 2109 2894 1953 2648 
Q 1797 2403 1797 1869 
L 1797 378 
L 2203 378 
L 2203 0 
L 219 0 
z
" transform="scale(0.015625)"/>
     <path id="DejaVuSerif-Bold-63" d="M 3609 1038 
Q 3491 469 3123 189 
Q 2756 -91 2125 -91 
Q 1238 -91 750 368 
Q 263 828 263 1663 
Q 263 2488 744 2950 
Q 1225 3413 2081 3413 
Q 2428 3413 2781 3347 
Q 3134 3281 3500 3150 
L 3500 2228 
L 3150 2228 
Q 3100 2650 2903 2854 
Q 2706 3059 2350 3059 
Q 1888 3059 1692 2746 
Q 1497 2434 1497 1663 
Q 1497 909 1687 586 
Q 1878 263 2309 263 
Q 2644 263 2845 463 
Q 3047 663 3091 1038 
L 3609 1038 
z
" transform="scale(0.015625)"/>
     <path id="DejaVuSerif-Bold-70" d="M 1728 1825 
L 1728 1497 
Q 1728 916 1876 656 
Q 2025 397 2356 397 
Q 2697 397 2836 672 
Q 2975 947 2975 1663 
Q 2975 2378 2836 2651 
Q 2697 2925 2356 2925 
Q 2025 2925 1876 2665 
Q 1728 2406 1728 1825 
z
M 622 2944 
L 147 2944 
L 147 3322 
L 1728 3322 
L 1728 2900 
Q 1869 3159 2106 3286 
Q 2344 3413 2694 3413 
Q 3403 3413 3811 2945 
Q 4219 2478 4219 1663 
Q 4219 847 3811 378 
Q 3403 -91 2694 -91 
Q 2344 -91 2106 36 
Q 1869 163 1728 422 
L 1728 -953 
L 2241 -953 
L 2241 -1331 
L 147 -1331 
L 147 -953 
L 622 -953 
L 622 2944 
z
" transform="scale(0.015625)"/>
     <path id="DejaVuSerif-Bold-74" d="M 634 2944 
L 153 2944 
L 153 3322 
L 634 3322 
L 634 4353 
L 1741 4353 
L 1741 3322 
L 2663 3322 
L 2663 2944 
L 1741 2944 
L 1741 909 
Q 1741 475 1809 369 
Q 1878 263 2059 263 
Q 2259 263 2356 397 
Q 2453 531 2459 813 
L 2925 813 
Q 2897 313 2651 111 
Q 2406 -91 1806 -91 
Q 1122 -91 878 123 
Q 634 338 634 909 
L 634 2944 
z
" transform="scale(0.015625)"/>
     <path id="DejaVuSerif-Bold-61" d="M 3525 2041 
L 3525 378 
L 4000 378 
L 4000 0 
L 2419 0 
L 2419 422 
Q 2200 159 1931 34 
Q 1663 -91 1319 -91 
Q 809 -91 536 182 
Q 263 456 263 966 
Q 263 1525 655 1803 
Q 1047 2081 1838 2081 
L 2419 2081 
L 2419 2278 
Q 2419 2681 2228 2873 
Q 2038 3066 1638 3066 
Q 1306 3066 1126 2930 
Q 947 2794 872 2484 
L 519 2484 
L 519 3200 
Q 816 3306 1134 3359 
Q 1453 3413 1806 3413 
Q 2697 3413 3111 3081 
Q 3525 2750 3525 2041 
z
M 2419 1044 
L 2419 1709 
L 2003 1709 
Q 1694 1709 1528 1540 
Q 1363 1372 1363 1056 
Q 1363 741 1483 584 
Q 1603 428 1850 428 
Q 2106 428 2262 597 
Q 2419 766 2419 1044 
z
" transform="scale(0.015625)"/>
     <path id="DejaVuSerif-Bold-6c" d="M 1797 378 
L 2272 378 
L 2272 0 
L 219 0 
L 219 378 
L 691 378 
L 691 4488 
L 219 4488 
L 219 4863 
L 1797 4863 
L 1797 378 
z
" transform="scale(0.015625)"/>
     <path id="DejaVuSerif-Bold-73" d="M 300 97 
L 300 1025 
L 653 1025 
Q 697 653 931 458 
Q 1166 263 1569 263 
Q 1906 263 2086 380 
Q 2266 497 2266 716 
Q 2266 916 2152 1025 
Q 2038 1134 1709 1216 
L 1253 1331 
Q 738 1459 506 1698 
Q 275 1938 275 2344 
Q 275 2884 650 3148 
Q 1025 3413 1806 3413 
Q 2100 3413 2433 3364 
Q 2766 3316 3169 3213 
L 3169 2375 
L 2816 2375 
Q 2788 2716 2573 2887 
Q 2359 3059 1959 3059 
Q 1622 3059 1448 2951 
Q 1275 2844 1275 2638 
Q 1275 2469 1375 2372 
Q 1475 2275 1734 2209 
L 2188 2094 
Q 2841 1928 3091 1684 
Q 3341 1441 3341 1006 
Q 3341 444 2939 176 
Q 2538 -91 1691 -91 
Q 1381 -91 1034 -44 
Q 688 3 300 97 
z
" transform="scale(0.015625)"/>
     <path id="DejaVuSerif-Bold-4c" d="M 300 0 
L 300 378 
L 897 378 
L 897 4288 
L 300 4288 
L 300 4666 
L 2700 4666 
L 2700 4288 
L 2100 4288 
L 2100 428 
L 3938 428 
L 3938 1166 
L 4359 1166 
L 4359 0 
L 300 0 
z
" transform="scale(0.015625)"/>
     <path id="DejaVuSerif-Bold-3a" d="M 588 2541 
Q 588 2788 761 2963 
Q 934 3138 1178 3138 
Q 1422 3138 1597 2961 
Q 1772 2784 1772 2541 
Q 1772 2297 1598 2125 
Q 1425 1953 1178 1953 
Q 931 1953 759 2125 
Q 588 2297 588 2541 
z
M 588 506 
Q 588 750 761 925 
Q 934 1100 1178 1100 
Q 1422 1100 1597 925 
Q 1772 750 1772 506 
Q 1772 259 1597 84 
Q 1422 -91 1178 -91 
Q 934 -91 761 84 
Q 588 259 588 506 
z
" transform="scale(0.015625)"/>
     <path id="DejaVuSerif-Bold-76" d="M 1428 0 
L 250 2944 
L -116 2944 
L -116 3322 
L 1791 3322 
L 1791 2944 
L 1388 2944 
L 2228 844 
L 3066 2944 
L 2631 2944 
L 2631 3322 
L 3878 3322 
L 3878 2944 
L 3494 2944 
L 2316 0 
L 1428 0 
z
" transform="scale(0.015625)"/>
     <path id="DejaVuSerif-Bold-2c" d="M 84 -616 
Q 409 -353 562 -28 
Q 716 297 716 728 
L 716 997 
L 1606 997 
L 1606 972 
Q 1606 281 1317 -217 
Q 1028 -716 428 -1056 
L 84 -616 
z
" transform="scale(0.015625)"/>
     <path id="DejaVuSerif-Bold-42" d="M 300 0 
L 300 378 
L 897 378 
L 897 4288 
L 300 4288 
L 300 4666 
L 3066 4666 
Q 3919 4666 4347 4378 
Q 4775 4091 4775 3513 
Q 4775 3097 4479 2853 
Q 4184 2609 3603 2547 
Q 4306 2481 4681 2172 
Q 5056 1863 5056 1350 
Q 5056 656 4532 328 
Q 4009 0 2894 0 
L 300 0 
z
M 2100 2719 
L 2509 2719 
Q 3047 2719 3306 2914 
Q 3566 3109 3566 3513 
Q 3566 3919 3314 4103 
Q 3063 4288 2509 4288 
L 2100 4288 
L 2100 2719 
z
M 2100 378 
L 2547 378 
Q 3144 378 3431 615 
Q 3719 853 3719 1350 
Q 3719 1850 3428 2097 
Q 3138 2344 2547 2344 
L 2100 2344 
L 2100 378 
z
" transform="scale(0.015625)"/>
     <path id="DejaVuSerif-Bold-6b" d="M 2216 0 
L 219 0 
L 219 378 
L 691 378 
L 691 4488 
L 219 4488 
L 219 4863 
L 1797 4863 
L 1797 1741 
L 3138 2944 
L 2741 2944 
L 2741 3322 
L 4256 3322 
L 4256 2944 
L 3641 2944 
L 2784 2175 
L 4184 378 
L 4544 378 
L 4544 0 
L 2638 0 
L 2638 378 
L 3028 378 
L 2106 1563 
L 1797 1288 
L 1797 378 
L 2216 378 
L 2216 0 
z
" transform="scale(0.015625)"/>
     <path id="DejaVuSerif-Bold-64" d="M 2747 1497 
L 2747 1825 
Q 2747 2406 2597 2665 
Q 2447 2925 2119 2925 
Q 1775 2925 1636 2651 
Q 1497 2378 1497 1663 
Q 1497 947 1637 672 
Q 1778 397 2119 397 
Q 2447 397 2597 656 
Q 2747 916 2747 1497 
z
M 3853 378 
L 4325 378 
L 4325 0 
L 2747 0 
L 2747 422 
Q 2606 163 2367 36 
Q 2128 -91 1778 -91 
Q 1072 -91 667 378 
Q 263 847 263 1663 
Q 263 2481 667 2947 
Q 1072 3413 1778 3413 
Q 2128 3413 2367 3286 
Q 2606 3159 2747 2900 
L 2747 4488 
L 2272 4488 
L 2272 4863 
L 3853 4863 
L 3853 378 
z
" transform="scale(0.015625)"/>
     <path id="DejaVuSerif-Bold-4e" d="M 281 0 
L 281 378 
L 878 378 
L 878 4288 
L 281 4288 
L 281 4666 
L 1741 4666 
L 4556 1363 
L 4556 4288 
L 3963 4288 
L 3963 4666 
L 5594 4666 
L 5594 4288 
L 4997 4288 
L 4997 0 
L 4178 0 
L 1319 3372 
L 1319 378 
L 1913 378 
L 1913 0 
L 281 0 
z
" transform="scale(0.015625)"/>
     <path id="DejaVuSerif-Bold-6d" d="M 3884 2778 
Q 4116 3109 4384 3261 
Q 4653 3413 5013 3413 
Q 5584 3413 5867 3089 
Q 6150 2766 6150 2113 
L 6150 378 
L 6625 378 
L 6625 0 
L 4647 0 
L 4647 378 
L 5044 378 
L 5044 1947 
Q 5044 2569 4948 2731 
Q 4853 2894 4594 2894 
Q 4300 2894 4137 2667 
Q 3975 2441 3975 2022 
L 3975 378 
L 4372 378 
L 4372 0 
L 2472 0 
L 2472 378 
L 2869 378 
L 2869 1947 
Q 2869 2569 2772 2731 
Q 2675 2894 2419 2894 
Q 2122 2894 1959 2667 
Q 1797 2441 1797 2022 
L 1797 378 
L 2194 378 
L 2194 0 
L 219 0 
L 219 378 
L 691 378 
L 691 2944 
L 219 2944 
L 219 3322 
L 1797 3322 
L 1797 2853 
Q 1991 3144 2241 3278 
Q 2491 3413 2834 3413 
Q 3241 3413 3494 3258 
Q 3747 3103 3884 2778 
z
" transform="scale(0.015625)"/>
     <path id="DejaVuSerif-Bold-66" d="M 3097 4031 
L 2747 4031 
Q 2722 4275 2605 4394 
Q 2488 4513 2272 4513 
Q 2022 4513 1909 4333 
Q 1797 4153 1797 3750 
L 1797 3322 
L 2631 3322 
L 2631 2944 
L 1797 2944 
L 1797 378 
L 2438 378 
L 2438 0 
L 219 0 
L 219 378 
L 691 378 
L 691 2944 
L 197 2944 
L 197 3322 
L 691 3322 
L 691 3738 
Q 691 4291 1044 4577 
Q 1397 4863 2081 4863 
Q 2347 4863 2600 4833 
Q 2853 4803 3097 4744 
L 3097 4031 
z
" transform="scale(0.015625)"/>
    </defs>
    <use xlink:href="#DejaVuSerif-Bold-46"/>
    <use xlink:href="#DejaVuSerif-Bold-69" transform="translate(70.996094 0)"/>
    <use xlink:href="#DejaVuSerif-Bold-67" transform="translate(108.984375 0)"/>
    <use xlink:href="#DejaVuSerif-Bold-75" transform="translate(178.90625 0)"/>
    <use xlink:href="#DejaVuSerif-Bold-72" transform="translate(251.611328 0)"/>
    <use xlink:href="#DejaVuSerif-Bold-65" transform="translate(304.296875 0)"/>
    <use xlink:href="#DejaVuSerif-Bold-20" transform="translate(367.919922 0)"/>
    <use xlink:href="#DejaVuSerif-Bold-31" transform="translate(402.734375 0)"/>
    <use xlink:href="#DejaVuSerif-Bold-2e" transform="translate(472.314453 0)"/>
    <use xlink:href="#DejaVuSerif-Bold-20" transform="translate(507.128906 0)"/>
    <use xlink:href="#DejaVuSerif-Bold-43" transform="translate(541.943359 0)"/>
    <use xlink:href="#DejaVuSerif-Bold-6f" transform="translate(621.533203 0)"/>
    <use xlink:href="#DejaVuSerif-Bold-6e" transform="translate(688.232422 0)"/>
    <use xlink:href="#DejaVuSerif-Bold-63" transform="translate(760.9375 0)"/>
    <use xlink:href="#DejaVuSerif-Bold-65" transform="translate(821.826172 0)"/>
    <use xlink:href="#DejaVuSerif-Bold-70" transform="translate(885.449219 0)"/>
    <use xlink:href="#DejaVuSerif-Bold-74" transform="translate(955.371094 0)"/>
    <use xlink:href="#DejaVuSerif-Bold-75" transform="translate(1001.5625 0)"/>
    <use xlink:href="#DejaVuSerif-Bold-61" transform="translate(1074.267578 0)"/>
    <use xlink:href="#DejaVuSerif-Bold-6c" transform="translate(1139.0625 0)"/>
    <use xlink:href="#DejaVuSerif-Bold-20" transform="translate(1177.050781 0)"/>
    <use xlink:href="#DejaVuSerif-Bold-43" transform="translate(1211.865234 0)"/>
    <use xlink:href="#DejaVuSerif-Bold-61" transform="translate(1291.455078 0)"/>
    <use xlink:href="#DejaVuSerif-Bold-75" transform="translate(1356.25 0)"/>
    <use xlink:href="#DejaVuSerif-Bold-73" transform="translate(1428.955078 0)"/>
    <use xlink:href="#DejaVuSerif-Bold-61" transform="translate(1485.253906 0)"/>
    <use xlink:href="#DejaVuSerif-Bold-6c" transform="translate(1550.048828 0)"/>
    <use xlink:href="#DejaVuSerif-Bold-20" transform="translate(1588.037109 0)"/>
    <use xlink:href="#DejaVuSerif-Bold-4c" transform="translate(1622.851562 0)"/>
    <use xlink:href="#DejaVuSerif-Bold-6f" transform="translate(1693.164062 0)"/>
    <use xlink:href="#DejaVuSerif-Bold-6f" transform="translate(1759.863281 0)"/>
    <use xlink:href="#DejaVuSerif-Bold-70" transform="translate(1826.5625 0)"/>
    <use xlink:href="#DejaVuSerif-Bold-3a" transform="translate(1896.484375 0)"/>
    <use xlink:href="#DejaVuSerif-Bold-20" transform="translate(1933.398438 0)"/>
    <use xlink:href="#DejaVuSerif-Bold-43" transform="translate(1968.212891 0)"/>
    <use xlink:href="#DejaVuSerif-Bold-6f" transform="translate(2047.802734 0)"/>
    <use xlink:href="#DejaVuSerif-Bold-6e" transform="translate(2114.501953 0)"/>
    <use xlink:href="#DejaVuSerif-Bold-76" transform="translate(2187.207031 0)"/>
    <use xlink:href="#DejaVuSerif-Bold-65" transform="translate(2245.3125 0)"/>
    <use xlink:href="#DejaVuSerif-Bold-6e" transform="translate(2308.935547 0)"/>
    <use xlink:href="#DejaVuSerif-Bold-69" transform="translate(2381.640625 0)"/>
    <use xlink:href="#DejaVuSerif-Bold-65" transform="translate(2419.628906 0)"/>
    <use xlink:href="#DejaVuSerif-Bold-6e" transform="translate(2483.251953 0)"/>
    <use xlink:href="#DejaVuSerif-Bold-63" transform="translate(2555.957031 0)"/>
    <use xlink:href="#DejaVuSerif-Bold-65" transform="translate(2616.845703 0)"/>
    <use xlink:href="#DejaVuSerif-Bold-2c" transform="translate(2680.46875 0)"/>
    <use xlink:href="#DejaVuSerif-Bold-20" transform="translate(2715.283203 0)"/>
    <use xlink:href="#DejaVuSerif-Bold-42" transform="translate(2750.097656 0)"/>
    <use xlink:href="#DejaVuSerif-Bold-61" transform="translate(2834.619141 0)"/>
    <use xlink:href="#DejaVuSerif-Bold-63" transform="translate(2899.414062 0)"/>
    <use xlink:href="#DejaVuSerif-Bold-6b" transform="translate(2960.302734 0)"/>
    <use xlink:href="#DejaVuSerif-Bold-6c" transform="translate(3029.589844 0)"/>
    <use xlink:href="#DejaVuSerif-Bold-6f" transform="translate(3067.578125 0)"/>
    <use xlink:href="#DejaVuSerif-Bold-67" transform="translate(3134.277344 0)"/>
    <use xlink:href="#DejaVuSerif-Bold-2c" transform="translate(3204.199219 0)"/>
    <use xlink:href="#DejaVuSerif-Bold-20" transform="translate(3239.013672 0)"/>
    <use xlink:href="#DejaVuSerif-Bold-61" transform="translate(3273.828125 0)"/>
    <use xlink:href="#DejaVuSerif-Bold-6e" transform="translate(3338.623047 0)"/>
    <use xlink:href="#DejaVuSerif-Bold-64" transform="translate(3411.328125 0)"/>
    <use xlink:href="#DejaVuSerif-Bold-20" transform="translate(3481.25 0)"/>
    <use xlink:href="#DejaVuSerif-Bold-4e" transform="translate(3516.064453 0)"/>
    <use xlink:href="#DejaVuSerif-Bold-6f" transform="translate(3607.470703 0)"/>
    <use xlink:href="#DejaVuSerif-Bold-72" transform="translate(3674.169922 0)"/>
    <use xlink:href="#DejaVuSerif-Bold-6d" transform="translate(3726.855469 0)"/>
    <use xlink:href="#DejaVuSerif-Bold-20" transform="translate(3832.666016 0)"/>
    <use xlink:href="#DejaVuSerif-Bold-52" transform="translate(3867.480469 0)"/>
    <use xlink:href="#DejaVuSerif-Bold-65" transform="translate(3950.585938 0)"/>
    <use xlink:href="#DejaVuSerif-Bold-69" transform="translate(4014.208984 0)"/>
    <use xlink:href="#DejaVuSerif-Bold-6e" transform="translate(4052.197266 0)"/>
    <use xlink:href="#DejaVuSerif-Bold-66" transform="translate(4124.902344 0)"/>
    <use xlink:href="#DejaVuSerif-Bold-6f" transform="translate(4167.919922 0)"/>
    <use xlink:href="#DejaVuSerif-Bold-72" transform="translate(4234.619141 0)"/>
    <use xlink:href="#DejaVuSerif-Bold-63" transform="translate(4287.304688 0)"/>
    <use xlink:href="#DejaVuSerif-Bold-65" transform="translate(4348.193359 0)"/>
    <use xlink:href="#DejaVuSerif-Bold-6d" transform="translate(4411.816406 0)"/>
    <use xlink:href="#DejaVuSerif-Bold-65" transform="translate(4517.626953 0)"/>
    <use xlink:href="#DejaVuSerif-Bold-6e" transform="translate(4581.25 0)"/>
    <use xlink:href="#DejaVuSerif-Bold-74" transform="translate(4653.955078 0)"/>
   </g>
  </g>
 </g>
</svg>
