<?xml version="1.0" encoding="utf-8" standalone="no"?>
<!DOCTYPE svg PUBLIC "-//W3C//DTD SVG 1.1//EN"
  "http://www.w3.org/Graphics/SVG/1.1/DTD/svg11.dtd">
<svg xmlns:xlink="http://www.w3.org/1999/xlink" width="795.6pt" height="248.256pt" viewBox="0 0 795.6 248.256" xmlns="http://www.w3.org/2000/svg" version="1.1">
 <metadata>
  <rdf:RDF xmlns:dc="http://purl.org/dc/elements/1.1/" xmlns:cc="http://creativecommons.org/ns#" xmlns:rdf="http://www.w3.org/1999/02/22-rdf-syntax-ns#">
   <cc:Work>
    <dc:type rdf:resource="http://purl.org/dc/dcmitype/StillImage"/>
    <dc:date>2026-04-02T18:38:11.298274</dc:date>
    <dc:format>image/svg+xml</dc:format>
    <dc:creator>
     <cc:Agent>
      <dc:title>Matplotlib v3.10.8, https://matplotlib.org/</dc:title>
     </cc:Agent>
    </dc:creator>
   </cc:Work>
  </rdf:RDF>
 </metadata>
 <defs>
  <style type="text/css">*{stroke-linejoin: round; stroke-linecap: butt}</style>
 </defs>
 <g id="figure_1">
  <g id="patch_1">
   <path d="M 0 248.256 
L 795.6 248.256 
L 795.6 0 
L 0 0 
z
" style="fill: #ffffff"/>
  </g>
  <g id="axes_1">
   <g id="text_1">
    <g id="patch_2">
     <path d="M 38.539219 147.510516 
L 132.100781 147.510516 
Q 138.400781 147.510516 138.400781 141.210516 
L 138.400781 119.290781 
Q 138.400781 112.990781 132.100781 112.990781 
L 38.539219 112.990781 
Q 32.239219 112.990781 32.239219 119.290781 
L 32.239219 141.210516 
Q 32.239219 147.510516 38.539219 147.510516 
z
" style="fill: #d1e5f0; stroke: #333333; stroke-width: 1.2; stroke-linejoin: miter"/>
    </g>
    <!-- Generate Tasks -->
    <g transform="translate(44.210039 127.119844) scale(0.105 -0.105)">
     <defs>
      <path id="DejaVuSerif-47" d="M 4097 3272 
Q 3988 3856 3641 4136 
Q 3294 4416 2675 4416 
Q 1869 4416 1472 3897 
Q 1075 3378 1075 2328 
Q 1075 1300 1484 772 
Q 1894 244 2688 244 
Q 3041 244 3362 331 
Q 3684 419 3975 594 
L 3975 1797 
L 3097 1797 
L 3097 2131 
L 4609 2131 
L 4609 391 
Q 4194 150 3714 29 
Q 3234 -91 2688 -91 
Q 1631 -91 995 570 
Q 359 1231 359 2328 
Q 359 3434 996 4092 
Q 1634 4750 2713 4750 
Q 3113 4750 3539 4658 
Q 3966 4566 4447 4378 
L 4447 3272 
L 4097 3272 
z
" transform="scale(0.015625)"/>
      <path id="DejaVuSerif-65" d="M 3469 1600 
L 991 1600 
L 991 1575 
Q 991 903 1244 561 
Q 1497 219 1991 219 
Q 2369 219 2611 417 
Q 2853 616 2950 1006 
L 3413 1006 
Q 3275 459 2904 184 
Q 2534 -91 1931 -91 
Q 1203 -91 761 389 
Q 319 869 319 1663 
Q 319 2450 753 2931 
Q 1188 3413 1894 3413 
Q 2647 3413 3050 2948 
Q 3453 2484 3469 1600 
z
M 2791 1931 
Q 2772 2513 2545 2808 
Q 2319 3103 1894 3103 
Q 1497 3103 1269 2806 
Q 1041 2509 991 1931 
L 2791 1931 
z
" transform="scale(0.015625)"/>
      <path id="DejaVuSerif-6e" d="M 263 0 
L 263 331 
L 781 331 
L 781 2988 
L 231 2988 
L 231 3322 
L 1356 3322 
L 1356 2731 
Q 1516 3069 1770 3241 
Q 2025 3413 2363 3413 
Q 2913 3413 3172 3097 
Q 3431 2781 3431 2113 
L 3431 331 
L 3944 331 
L 3944 0 
L 2356 0 
L 2356 331 
L 2853 331 
L 2853 1931 
Q 2853 2541 2703 2767 
Q 2553 2994 2175 2994 
Q 1775 2994 1565 2701 
Q 1356 2409 1356 1850 
L 1356 331 
L 1856 331 
L 1856 0 
L 263 0 
z
" transform="scale(0.015625)"/>
      <path id="DejaVuSerif-72" d="M 3059 3328 
L 3059 2497 
L 2728 2497 
Q 2713 2744 2591 2866 
Q 2469 2988 2234 2988 
Q 1809 2988 1582 2694 
Q 1356 2400 1356 1850 
L 1356 331 
L 2022 331 
L 2022 0 
L 263 0 
L 263 331 
L 781 331 
L 781 2994 
L 231 2994 
L 231 3322 
L 1356 3322 
L 1356 2731 
Q 1525 3078 1790 3245 
Q 2056 3413 2438 3413 
Q 2578 3413 2733 3391 
Q 2888 3369 3059 3328 
z
" transform="scale(0.015625)"/>
      <path id="DejaVuSerif-61" d="M 2547 1044 
L 2547 1747 
L 1806 1747 
Q 1378 1747 1168 1562 
Q 959 1378 959 997 
Q 959 650 1171 447 
Q 1384 244 1747 244 
Q 2106 244 2326 466 
Q 2547 688 2547 1044 
z
M 3122 2075 
L 3122 331 
L 3634 331 
L 3634 0 
L 2547 0 
L 2547 359 
Q 2356 128 2106 18 
Q 1856 -91 1522 -91 
Q 969 -91 644 203 
Q 319 497 319 997 
Q 319 1513 691 1797 
Q 1063 2081 1741 2081 
L 2547 2081 
L 2547 2309 
Q 2547 2688 2317 2895 
Q 2088 3103 1672 3103 
Q 1328 3103 1125 2947 
Q 922 2791 872 2484 
L 575 2484 
L 575 3156 
Q 875 3284 1158 3348 
Q 1441 3413 1709 3413 
Q 2400 3413 2761 3070 
Q 3122 2728 3122 2075 
z
" transform="scale(0.015625)"/>
      <path id="DejaVuSerif-74" d="M 691 2988 
L 184 2988 
L 184 3322 
L 691 3322 
L 691 4353 
L 1269 4353 
L 1269 3322 
L 2350 3322 
L 2350 2988 
L 1269 2988 
L 1269 878 
Q 1269 456 1350 337 
Q 1431 219 1650 219 
Q 1875 219 1978 351 
Q 2081 484 2088 781 
L 2522 781 
Q 2497 328 2275 118 
Q 2053 -91 1600 -91 
Q 1103 -91 897 129 
Q 691 350 691 878 
L 691 2988 
z
" transform="scale(0.015625)"/>
      <path id="DejaVuSerif-20" transform="scale(0.015625)"/>
      <path id="DejaVuSerif-54" d="M 1222 0 
L 1222 331 
L 1819 331 
L 1819 4294 
L 447 4294 
L 447 3566 
L 63 3566 
L 63 4666 
L 4206 4666 
L 4206 3566 
L 3822 3566 
L 3822 4294 
L 2450 4294 
L 2450 331 
L 3047 331 
L 3047 0 
L 1222 0 
z
" transform="scale(0.015625)"/>
      <path id="DejaVuSerif-73" d="M 359 184 
L 359 959 
L 691 959 
Q 703 588 923 403 
Q 1144 219 1575 219 
Q 1963 219 2166 364 
Q 2369 509 2369 788 
Q 2369 1006 2220 1140 
Q 2072 1275 1594 1428 
L 1178 1569 
Q 750 1706 558 1912 
Q 366 2119 366 2438 
Q 366 2894 700 3153 
Q 1034 3413 1625 3413 
Q 1888 3413 2178 3344 
Q 2469 3275 2778 3144 
L 2778 2419 
L 2447 2419 
Q 2434 2741 2221 2922 
Q 2009 3103 1644 3103 
Q 1281 3103 1095 2975 
Q 909 2847 909 2591 
Q 909 2381 1050 2254 
Q 1191 2128 1613 1997 
L 2069 1856 
Q 2541 1709 2748 1489 
Q 2956 1269 2956 922 
Q 2956 450 2595 179 
Q 2234 -91 1600 -91 
Q 1278 -91 972 -22 
Q 666 47 359 184 
z
" transform="scale(0.015625)"/>
      <path id="DejaVuSerif-6b" d="M 1831 0 
L 219 0 
L 219 331 
L 738 331 
L 738 4531 
L 184 4531 
L 184 4863 
L 1313 4863 
L 1313 1697 
L 2713 2988 
L 2234 2988 
L 2234 3322 
L 3738 3322 
L 3738 2988 
L 3169 2988 
L 2181 2075 
L 3444 331 
L 3922 331 
L 3922 0 
L 2284 0 
L 2284 331 
L 2759 331 
L 1766 1697 
L 1313 1275 
L 1313 331 
L 1831 331 
L 1831 0 
z
" transform="scale(0.015625)"/>
     </defs>
     <use xlink:href="#DejaVuSerif-47"/>
     <use xlink:href="#DejaVuSerif-65" transform="translate(79.882812 0)"/>
     <use xlink:href="#DejaVuSerif-6e" transform="translate(139.0625 0)"/>
     <use xlink:href="#DejaVuSerif-65" transform="translate(203.466797 0)"/>
     <use xlink:href="#DejaVuSerif-72" transform="translate(262.646484 0)"/>
     <use xlink:href="#DejaVuSerif-61" transform="translate(310.449219 0)"/>
     <use xlink:href="#DejaVuSerif-74" transform="translate(370.068359 0)"/>
     <use xlink:href="#DejaVuSerif-65" transform="translate(410.253906 0)"/>
     <use xlink:href="#DejaVuSerif-20" transform="translate(469.433594 0)"/>
     <use xlink:href="#DejaVuSerif-54" transform="translate(501.220703 0)"/>
     <use xlink:href="#DejaVuSerif-61" transform="translate(560.169922 0)"/>
     <use xlink:href="#DejaVuSerif-73" transform="translate(619.789062 0)"/>
     <use xlink:href="#DejaVuSerif-6b" transform="translate(671.107422 0)"/>
     <use xlink:href="#DejaVuSerif-73" transform="translate(731.703125 0)"/>
    </g>
    <!-- &amp; Merge Backlog -->
    <g transform="translate(38.539219 138.877547) scale(0.105 -0.105)">
     <defs>
      <path id="DejaVuSerif-26" d="M 3456 722 
L 1638 2638 
Q 1366 2394 1230 2111 
Q 1094 1828 1094 1509 
Q 1094 991 1453 639 
Q 1813 288 2350 288 
Q 2669 288 2951 398 
Q 3234 509 3456 722 
z
M 5394 0 
L 4141 0 
L 3713 453 
Q 3384 178 3012 43 
Q 2641 -91 2209 -91 
Q 1403 -91 931 321 
Q 459 734 459 1441 
Q 459 1856 698 2217 
Q 938 2578 1422 2894 
Q 1263 3084 1188 3273 
Q 1113 3463 1113 3669 
Q 1113 4166 1470 4458 
Q 1828 4750 2444 4750 
Q 2653 4750 2933 4697 
Q 3213 4644 3572 4538 
L 3572 3731 
L 3219 3731 
Q 3175 4066 2975 4241 
Q 2775 4416 2431 4416 
Q 2109 4416 1909 4239 
Q 1709 4063 1709 3781 
Q 1709 3591 1815 3402 
Q 1922 3213 2259 2859 
L 3872 1159 
Q 4088 1409 4211 1698 
Q 4334 1988 4366 2316 
L 3803 2316 
L 3803 2650 
L 5281 2650 
L 5281 2316 
L 4744 2316 
Q 4691 1909 4536 1556 
Q 4381 1203 4122 903 
L 4659 331 
L 5394 331 
L 5394 0 
z
" transform="scale(0.015625)"/>
      <path id="DejaVuSerif-4d" d="M 353 0 
L 353 331 
L 947 331 
L 947 4331 
L 319 4331 
L 319 4666 
L 1678 4666 
L 3316 1344 
L 4953 4666 
L 6228 4666 
L 6228 4331 
L 5606 4331 
L 5606 331 
L 6203 331 
L 6203 0 
L 4378 0 
L 4378 331 
L 4972 331 
L 4972 3938 
L 3372 684 
L 2931 684 
L 1331 3938 
L 1331 331 
L 1925 331 
L 1925 0 
L 353 0 
z
" transform="scale(0.015625)"/>
      <path id="DejaVuSerif-67" d="M 3359 2988 
L 3359 72 
Q 3359 -644 2965 -1033 
Q 2572 -1422 1844 -1422 
Q 1516 -1422 1216 -1362 
Q 916 -1303 641 -1184 
L 641 -488 
L 941 -488 
Q 997 -813 1206 -963 
Q 1416 -1113 1806 -1113 
Q 2313 -1113 2548 -827 
Q 2784 -541 2784 72 
L 2784 519 
Q 2616 206 2355 57 
Q 2094 -91 1709 -91 
Q 1097 -91 708 395 
Q 319 881 319 1663 
Q 319 2444 706 2928 
Q 1094 3413 1709 3413 
Q 2094 3413 2355 3264 
Q 2616 3116 2784 2803 
L 2784 3322 
L 3909 3322 
L 3909 2988 
L 3359 2988 
z
M 2784 1825 
Q 2784 2422 2554 2737 
Q 2325 3053 1888 3053 
Q 1444 3053 1217 2703 
Q 991 2353 991 1663 
Q 991 975 1217 622 
Q 1444 269 1888 269 
Q 2325 269 2554 583 
Q 2784 897 2784 1497 
L 2784 1825 
z
" transform="scale(0.015625)"/>
      <path id="DejaVuSerif-42" d="M 1581 331 
L 2516 331 
Q 3078 331 3337 575 
Q 3597 819 3597 1350 
Q 3597 1878 3339 2120 
Q 3081 2363 2516 2363 
L 1581 2363 
L 1581 331 
z
M 1581 2694 
L 2375 2694 
Q 2888 2694 3123 2891 
Q 3359 3088 3359 3513 
Q 3359 3941 3123 4136 
Q 2888 4331 2375 4331 
L 1581 4331 
L 1581 2694 
z
M 353 0 
L 353 331 
L 947 331 
L 947 4331 
L 353 4331 
L 353 4666 
L 2656 4666 
Q 3363 4666 3720 4377 
Q 4078 4088 4078 3513 
Q 4078 3097 3829 2850 
Q 3581 2603 3103 2547 
Q 3697 2472 4005 2167 
Q 4313 1863 4313 1350 
Q 4313 656 3875 328 
Q 3438 0 2509 0 
L 353 0 
z
" transform="scale(0.015625)"/>
      <path id="DejaVuSerif-63" d="M 3291 997 
Q 3169 466 2822 187 
Q 2475 -91 1925 -91 
Q 1200 -91 759 389 
Q 319 869 319 1663 
Q 319 2459 759 2936 
Q 1200 3413 1925 3413 
Q 2241 3413 2553 3339 
Q 2866 3266 3181 3116 
L 3181 2266 
L 2847 2266 
Q 2781 2703 2561 2903 
Q 2341 3103 1931 3103 
Q 1466 3103 1228 2742 
Q 991 2381 991 1663 
Q 991 944 1227 581 
Q 1463 219 1931 219 
Q 2303 219 2525 412 
Q 2747 606 2828 997 
L 3291 997 
z
" transform="scale(0.015625)"/>
      <path id="DejaVuSerif-6c" d="M 1313 331 
L 1856 331 
L 1856 0 
L 184 0 
L 184 331 
L 738 331 
L 738 4531 
L 184 4531 
L 184 4863 
L 1313 4863 
L 1313 331 
z
" transform="scale(0.015625)"/>
      <path id="DejaVuSerif-6f" d="M 1925 219 
Q 2388 219 2623 584 
Q 2859 950 2859 1663 
Q 2859 2375 2623 2739 
Q 2388 3103 1925 3103 
Q 1463 3103 1227 2739 
Q 991 2375 991 1663 
Q 991 950 1228 584 
Q 1466 219 1925 219 
z
M 1925 -91 
Q 1200 -91 759 389 
Q 319 869 319 1663 
Q 319 2456 758 2934 
Q 1197 3413 1925 3413 
Q 2653 3413 3092 2934 
Q 3531 2456 3531 1663 
Q 3531 869 3092 389 
Q 2653 -91 1925 -91 
z
" transform="scale(0.015625)"/>
     </defs>
     <use xlink:href="#DejaVuSerif-26"/>
     <use xlink:href="#DejaVuSerif-20" transform="translate(89.013672 0)"/>
     <use xlink:href="#DejaVuSerif-4d" transform="translate(120.800781 0)"/>
     <use xlink:href="#DejaVuSerif-65" transform="translate(223.193359 0)"/>
     <use xlink:href="#DejaVuSerif-72" transform="translate(282.373047 0)"/>
     <use xlink:href="#DejaVuSerif-67" transform="translate(330.175781 0)"/>
     <use xlink:href="#DejaVuSerif-65" transform="translate(394.189453 0)"/>
     <use xlink:href="#DejaVuSerif-20" transform="translate(453.369141 0)"/>
     <use xlink:href="#DejaVuSerif-42" transform="translate(485.15625 0)"/>
     <use xlink:href="#DejaVuSerif-61" transform="translate(558.642578 0)"/>
     <use xlink:href="#DejaVuSerif-63" transform="translate(618.261719 0)"/>
     <use xlink:href="#DejaVuSerif-6b" transform="translate(674.267578 0)"/>
     <use xlink:href="#DejaVuSerif-6c" transform="translate(734.863281 0)"/>
     <use xlink:href="#DejaVuSerif-6f" transform="translate(766.845703 0)"/>
     <use xlink:href="#DejaVuSerif-67" transform="translate(827.050781 0)"/>
    </g>
   </g>
   <g id="text_2">
    <!-- Phase 1 -->
    <g style="fill: #636363" transform="translate(63.469219 55.319375) scale(0.1 -0.1)">
     <defs>
      <path id="DejaVuSerif-Bold-50" d="M 300 0 
L 300 378 
L 897 378 
L 897 4288 
L 300 4288 
L 300 4666 
L 2956 4666 
Q 3734 4666 4193 4295 
Q 4653 3925 4653 3303 
Q 4653 2678 4192 2304 
Q 3731 1931 2956 1931 
L 2100 1931 
L 2100 378 
L 2853 378 
L 2853 0 
L 300 0 
z
M 2100 2309 
L 2450 2309 
Q 2856 2309 3098 2579 
Q 3341 2850 3341 3303 
Q 3341 3753 3100 4020 
Q 2859 4288 2450 4288 
L 2100 4288 
L 2100 2309 
z
" transform="scale(0.015625)"/>
      <path id="DejaVuSerif-Bold-68" d="M 219 0 
L 219 378 
L 691 378 
L 691 4488 
L 197 4488 
L 197 4863 
L 1797 4863 
L 1797 2853 
Q 1997 3150 2253 3281 
Q 2509 3413 2900 3413 
Q 3459 3413 3745 3083 
Q 4031 2753 4031 2113 
L 4031 378 
L 4506 378 
L 4506 0 
L 2522 0 
L 2522 378 
L 2925 378 
L 2925 2144 
Q 2925 2566 2817 2730 
Q 2709 2894 2444 2894 
Q 2109 2894 1953 2648 
Q 1797 2403 1797 1869 
L 1797 378 
L 2203 378 
L 2203 0 
L 219 0 
z
" transform="scale(0.015625)"/>
      <path id="DejaVuSerif-Bold-61" d="M 3525 2041 
L 3525 378 
L 4000 378 
L 4000 0 
L 2419 0 
L 2419 422 
Q 2200 159 1931 34 
Q 1663 -91 1319 -91 
Q 809 -91 536 182 
Q 263 456 263 966 
Q 263 1525 655 1803 
Q 1047 2081 1838 2081 
L 2419 2081 
L 2419 2278 
Q 2419 2681 2228 2873 
Q 2038 3066 1638 3066 
Q 1306 3066 1126 2930 
Q 947 2794 872 2484 
L 519 2484 
L 519 3200 
Q 816 3306 1134 3359 
Q 1453 3413 1806 3413 
Q 2697 3413 3111 3081 
Q 3525 2750 3525 2041 
z
M 2419 1044 
L 2419 1709 
L 2003 1709 
Q 1694 1709 1528 1540 
Q 1363 1372 1363 1056 
Q 1363 741 1483 584 
Q 1603 428 1850 428 
Q 2106 428 2262 597 
Q 2419 766 2419 1044 
z
" transform="scale(0.015625)"/>
      <path id="DejaVuSerif-Bold-73" d="M 300 97 
L 300 1025 
L 653 1025 
Q 697 653 931 458 
Q 1166 263 1569 263 
Q 1906 263 2086 380 
Q 2266 497 2266 716 
Q 2266 916 2152 1025 
Q 2038 1134 1709 1216 
L 1253 1331 
Q 738 1459 506 1698 
Q 275 1938 275 2344 
Q 275 2884 650 3148 
Q 1025 3413 1806 3413 
Q 2100 3413 2433 3364 
Q 2766 3316 3169 3213 
L 3169 2375 
L 2816 2375 
Q 2788 2716 2573 2887 
Q 2359 3059 1959 3059 
Q 1622 3059 1448 2951 
Q 1275 2844 1275 2638 
Q 1275 2469 1375 2372 
Q 1475 2275 1734 2209 
L 2188 2094 
Q 2841 1928 3091 1684 
Q 3341 1441 3341 1006 
Q 3341 444 2939 176 
Q 2538 -91 1691 -91 
Q 1381 -91 1034 -44 
Q 688 3 300 97 
z
" transform="scale(0.015625)"/>
      <path id="DejaVuSerif-Bold-65" d="M 2566 1875 
Q 2566 2531 2444 2795 
Q 2322 3059 2028 3059 
Q 1744 3059 1620 2800 
Q 1497 2541 1497 1931 
L 1497 1875 
L 2566 1875 
z
M 3781 1503 
L 1497 1503 
L 1497 1478 
Q 1497 834 1690 548 
Q 1884 263 2316 263 
Q 2675 263 2897 453 
Q 3119 644 3181 1006 
L 3700 1006 
Q 3566 441 3166 175 
Q 2766 -91 2047 -91 
Q 1184 -91 723 364 
Q 263 819 263 1663 
Q 263 2488 734 2950 
Q 1206 3413 2047 3413 
Q 2872 3413 3312 2927 
Q 3753 2441 3781 1503 
z
" transform="scale(0.015625)"/>
      <path id="DejaVuSerif-Bold-20" transform="scale(0.015625)"/>
      <path id="DejaVuSerif-Bold-31" d="M 878 0 
L 878 378 
L 1753 378 
L 1753 4153 
L 781 3578 
L 781 4044 
L 1953 4750 
L 2938 4750 
L 2938 378 
L 3816 378 
L 3816 0 
L 878 0 
z
" transform="scale(0.015625)"/>
     </defs>
     <use xlink:href="#DejaVuSerif-Bold-50"/>
     <use xlink:href="#DejaVuSerif-Bold-68" transform="translate(75.195312 0)"/>
     <use xlink:href="#DejaVuSerif-Bold-61" transform="translate(147.900391 0)"/>
     <use xlink:href="#DejaVuSerif-Bold-73" transform="translate(212.695312 0)"/>
     <use xlink:href="#DejaVuSerif-Bold-65" transform="translate(268.994141 0)"/>
     <use xlink:href="#DejaVuSerif-Bold-20" transform="translate(332.617188 0)"/>
     <use xlink:href="#DejaVuSerif-Bold-31" transform="translate(367.431641 0)"/>
    </g>
   </g>
   <g id="patch_3">
    <path d="M 142.006588 130.176 
Q 155.62791 130.176 166.454147 130.176 
" style="fill: none; stroke: #333333; stroke-width: 2.5; stroke-linecap: round"/>
    <path d="M 162.254147 128.076 
L 166.454147 130.176 
L 162.254147 132.276 
z
" style="fill: #333333; stroke: #333333; stroke-width: 2.5; stroke-linecap: round"/>
   </g>
   <g id="text_3">
    <g id="patch_4">
     <path d="M 177.605648 147.510516 
L 274.266352 147.510516 
Q 280.566352 147.510516 280.566352 141.210516 
L 280.566352 119.290781 
Q 280.566352 112.990781 274.266352 112.990781 
L 177.605648 112.990781 
Q 171.305648 112.990781 171.305648 119.290781 
L 171.305648 141.210516 
Q 171.305648 147.510516 177.605648 147.510516 
z
" style="fill: #fee08b; stroke: #333333; stroke-width: 1.2; stroke-linejoin: miter"/>
    </g>
    <!-- Self-Serve or -->
    <g transform="translate(191.400844 127.119844) scale(0.105 -0.105)">
     <defs>
      <path id="DejaVuSerif-53" d="M 594 225 
L 594 1288 
L 953 1284 
Q 969 753 1261 498 
Q 1553 244 2150 244 
Q 2706 244 2998 464 
Q 3291 684 3291 1106 
Q 3291 1444 3114 1625 
Q 2938 1806 2369 1978 
L 1753 2163 
Q 1084 2366 811 2669 
Q 538 2972 538 3500 
Q 538 4094 959 4422 
Q 1381 4750 2144 4750 
Q 2469 4750 2856 4679 
Q 3244 4609 3681 4475 
L 3681 3481 
L 3328 3481 
Q 3275 3975 2998 4195 
Q 2722 4416 2156 4416 
Q 1663 4416 1405 4214 
Q 1147 4013 1147 3628 
Q 1147 3294 1340 3103 
Q 1534 2913 2163 2725 
L 2741 2553 
Q 3375 2363 3645 2067 
Q 3916 1772 3916 1275 
Q 3916 597 3481 253 
Q 3047 -91 2188 -91 
Q 1803 -91 1404 -12 
Q 1006 66 594 225 
z
" transform="scale(0.015625)"/>
      <path id="DejaVuSerif-66" d="M 2753 4078 
L 2450 4078 
Q 2447 4313 2317 4434 
Q 2188 4556 1941 4556 
Q 1619 4556 1487 4379 
Q 1356 4203 1356 3750 
L 1356 3322 
L 2284 3322 
L 2284 2988 
L 1356 2988 
L 1356 331 
L 2094 331 
L 2094 0 
L 231 0 
L 231 331 
L 781 331 
L 781 2988 
L 231 2988 
L 231 3322 
L 781 3322 
L 781 3738 
Q 781 4294 1070 4578 
Q 1359 4863 1919 4863 
Q 2128 4863 2337 4825 
Q 2547 4788 2753 4709 
L 2753 4078 
z
" transform="scale(0.015625)"/>
      <path id="DejaVuSerif-2d" d="M 281 1959 
L 1881 1959 
L 1881 1472 
L 281 1472 
L 281 1959 
z
" transform="scale(0.015625)"/>
      <path id="DejaVuSerif-76" d="M 1581 0 
L 359 2988 
L -19 2988 
L -19 3322 
L 1509 3322 
L 1509 2988 
L 978 2988 
L 1913 703 
L 2847 2988 
L 2350 2988 
L 2350 3322 
L 3597 3322 
L 3597 2988 
L 3225 2988 
L 2003 0 
L 1581 0 
z
" transform="scale(0.015625)"/>
     </defs>
     <use xlink:href="#DejaVuSerif-53"/>
     <use xlink:href="#DejaVuSerif-65" transform="translate(68.505859 0)"/>
     <use xlink:href="#DejaVuSerif-6c" transform="translate(127.685547 0)"/>
     <use xlink:href="#DejaVuSerif-66" transform="translate(159.667969 0)"/>
     <use xlink:href="#DejaVuSerif-2d" transform="translate(193.054688 0)"/>
     <use xlink:href="#DejaVuSerif-53" transform="translate(226.84375 0)"/>
     <use xlink:href="#DejaVuSerif-65" transform="translate(295.349609 0)"/>
     <use xlink:href="#DejaVuSerif-72" transform="translate(354.529297 0)"/>
     <use xlink:href="#DejaVuSerif-76" transform="translate(402.332031 0)"/>
     <use xlink:href="#DejaVuSerif-65" transform="translate(458.826172 0)"/>
     <use xlink:href="#DejaVuSerif-20" transform="translate(518.005859 0)"/>
     <use xlink:href="#DejaVuSerif-6f" transform="translate(549.792969 0)"/>
     <use xlink:href="#DejaVuSerif-72" transform="translate(609.998047 0)"/>
    </g>
    <!-- Delegate Decision -->
    <g transform="translate(177.605648 138.877547) scale(0.105 -0.105)">
     <defs>
      <path id="DejaVuSerif-44" d="M 1581 331 
L 2163 331 
Q 3072 331 3558 850 
Q 4044 1369 4044 2338 
Q 4044 3306 3559 3818 
Q 3075 4331 2163 4331 
L 1581 4331 
L 1581 331 
z
M 353 0 
L 353 331 
L 947 331 
L 947 4331 
L 353 4331 
L 353 4666 
L 2209 4666 
Q 3416 4666 4089 4050 
Q 4763 3434 4763 2338 
Q 4763 1238 4088 619 
Q 3413 0 2209 0 
L 353 0 
z
" transform="scale(0.015625)"/>
      <path id="DejaVuSerif-69" d="M 622 4353 
Q 622 4497 726 4603 
Q 831 4709 978 4709 
Q 1122 4709 1226 4603 
Q 1331 4497 1331 4353 
Q 1331 4206 1228 4103 
Q 1125 4000 978 4000 
Q 831 4000 726 4103 
Q 622 4206 622 4353 
z
M 1356 331 
L 1900 331 
L 1900 0 
L 231 0 
L 231 331 
L 781 331 
L 781 2988 
L 231 2988 
L 231 3322 
L 1356 3322 
L 1356 331 
z
" transform="scale(0.015625)"/>
     </defs>
     <use xlink:href="#DejaVuSerif-44"/>
     <use xlink:href="#DejaVuSerif-65" transform="translate(80.175781 0)"/>
     <use xlink:href="#DejaVuSerif-6c" transform="translate(139.355469 0)"/>
     <use xlink:href="#DejaVuSerif-65" transform="translate(171.337891 0)"/>
     <use xlink:href="#DejaVuSerif-67" transform="translate(230.517578 0)"/>
     <use xlink:href="#DejaVuSerif-61" transform="translate(294.53125 0)"/>
     <use xlink:href="#DejaVuSerif-74" transform="translate(354.150391 0)"/>
     <use xlink:href="#DejaVuSerif-65" transform="translate(394.335938 0)"/>
     <use xlink:href="#DejaVuSerif-20" transform="translate(453.515625 0)"/>
     <use xlink:href="#DejaVuSerif-44" transform="translate(485.302734 0)"/>
     <use xlink:href="#DejaVuSerif-65" transform="translate(565.478516 0)"/>
     <use xlink:href="#DejaVuSerif-63" transform="translate(624.658203 0)"/>
     <use xlink:href="#DejaVuSerif-69" transform="translate(680.664062 0)"/>
     <use xlink:href="#DejaVuSerif-73" transform="translate(712.646484 0)"/>
     <use xlink:href="#DejaVuSerif-69" transform="translate(763.964844 0)"/>
     <use xlink:href="#DejaVuSerif-6f" transform="translate(795.947266 0)"/>
     <use xlink:href="#DejaVuSerif-6e" transform="translate(856.152344 0)"/>
    </g>
   </g>
   <g id="text_4">
    <!-- Phase 2 -->
    <g style="fill: #636363" transform="translate(204.085219 55.319375) scale(0.1 -0.1)">
     <defs>
      <path id="DejaVuSerif-Bold-32" d="M 844 3513 
L 469 3513 
L 469 4519 
Q 850 4634 1223 4692 
Q 1597 4750 1978 4750 
Q 2869 4750 3367 4386 
Q 3866 4022 3866 3372 
Q 3866 2909 3591 2542 
Q 3316 2175 2541 1672 
L 1241 819 
L 3450 819 
L 3450 1369 
L 3878 1369 
L 3878 0 
L 428 0 
L 428 763 
L 1119 1241 
Q 2003 1850 2297 2278 
Q 2591 2706 2591 3278 
Q 2591 3819 2367 4101 
Q 2144 4384 1716 4384 
Q 1347 4384 1125 4161 
Q 903 3938 844 3513 
z
" transform="scale(0.015625)"/>
     </defs>
     <use xlink:href="#DejaVuSerif-Bold-50"/>
     <use xlink:href="#DejaVuSerif-Bold-68" transform="translate(75.195312 0)"/>
     <use xlink:href="#DejaVuSerif-Bold-61" transform="translate(147.900391 0)"/>
     <use xlink:href="#DejaVuSerif-Bold-73" transform="translate(212.695312 0)"/>
     <use xlink:href="#DejaVuSerif-Bold-65" transform="translate(268.994141 0)"/>
     <use xlink:href="#DejaVuSerif-Bold-20" transform="translate(332.617188 0)"/>
     <use xlink:href="#DejaVuSerif-Bold-32" transform="translate(367.431641 0)"/>
    </g>
   </g>
   <g id="patch_5">
    <path d="M 282.622588 130.176 
Q 296.24391 130.176 307.070147 130.176 
" style="fill: none; stroke: #333333; stroke-width: 2.5; stroke-linecap: round"/>
    <path d="M 302.870147 128.076 
L 307.070147 130.176 
L 302.870147 132.276 
z
" style="fill: #333333; stroke: #333333; stroke-width: 2.5; stroke-linecap: round"/>
   </g>
   <g id="text_5">
    <g id="patch_6">
     <path d="M 333.549188 147.510516 
L 399.554813 147.510516 
Q 405.854812 147.510516 405.854812 141.210516 
L 405.854812 119.290781 
Q 405.854812 112.990781 399.554813 112.990781 
L 333.549188 112.990781 
Q 327.249188 112.990781 327.249188 119.290781 
L 327.249188 141.210516 
Q 327.249188 147.510516 333.549188 147.510516 
z
" style="fill: #fdae61; stroke: #333333; stroke-width: 1.2; stroke-linejoin: miter"/>
    </g>
    <!-- Service-Pool -->
    <g transform="translate(333.549188 127.119844) scale(0.105 -0.105)">
     <defs>
      <path id="DejaVuSerif-50" d="M 1581 2375 
L 2406 2375 
Q 2872 2375 3115 2626 
Q 3359 2878 3359 3353 
Q 3359 3831 3115 4081 
Q 2872 4331 2406 4331 
L 1581 4331 
L 1581 2375 
z
M 353 0 
L 353 331 
L 947 331 
L 947 4331 
L 353 4331 
L 353 4666 
L 2559 4666 
Q 3259 4666 3668 4311 
Q 4078 3956 4078 3353 
Q 4078 2753 3668 2397 
Q 3259 2041 2559 2041 
L 1581 2041 
L 1581 331 
L 2303 331 
L 2303 0 
L 353 0 
z
" transform="scale(0.015625)"/>
     </defs>
     <use xlink:href="#DejaVuSerif-53"/>
     <use xlink:href="#DejaVuSerif-65" transform="translate(68.505859 0)"/>
     <use xlink:href="#DejaVuSerif-72" transform="translate(127.685547 0)"/>
     <use xlink:href="#DejaVuSerif-76" transform="translate(175.488281 0)"/>
     <use xlink:href="#DejaVuSerif-69" transform="translate(231.982422 0)"/>
     <use xlink:href="#DejaVuSerif-63" transform="translate(263.964844 0)"/>
     <use xlink:href="#DejaVuSerif-65" transform="translate(319.970703 0)"/>
     <use xlink:href="#DejaVuSerif-2d" transform="translate(379.150391 0)"/>
     <use xlink:href="#DejaVuSerif-50" transform="translate(412.939453 0)"/>
     <use xlink:href="#DejaVuSerif-6f" transform="translate(476.224609 0)"/>
     <use xlink:href="#DejaVuSerif-6f" transform="translate(536.429688 0)"/>
     <use xlink:href="#DejaVuSerif-6c" transform="translate(596.634766 0)"/>
    </g>
    <!-- Matching -->
    <g transform="translate(341.19368 138.877547) scale(0.105 -0.105)">
     <defs>
      <path id="DejaVuSerif-68" d="M 263 0 
L 263 331 
L 781 331 
L 781 4531 
L 231 4531 
L 231 4863 
L 1356 4863 
L 1356 2731 
Q 1516 3069 1770 3241 
Q 2025 3413 2363 3413 
Q 2913 3413 3172 3097 
Q 3431 2781 3431 2113 
L 3431 331 
L 3944 331 
L 3944 0 
L 2356 0 
L 2356 331 
L 2853 331 
L 2853 1931 
Q 2853 2541 2704 2764 
Q 2556 2988 2175 2988 
Q 1775 2988 1565 2697 
Q 1356 2406 1356 1850 
L 1356 331 
L 1856 331 
L 1856 0 
L 263 0 
z
" transform="scale(0.015625)"/>
     </defs>
     <use xlink:href="#DejaVuSerif-4d"/>
     <use xlink:href="#DejaVuSerif-61" transform="translate(102.392578 0)"/>
     <use xlink:href="#DejaVuSerif-74" transform="translate(162.011719 0)"/>
     <use xlink:href="#DejaVuSerif-63" transform="translate(202.197266 0)"/>
     <use xlink:href="#DejaVuSerif-68" transform="translate(258.203125 0)"/>
     <use xlink:href="#DejaVuSerif-69" transform="translate(322.607422 0)"/>
     <use xlink:href="#DejaVuSerif-6e" transform="translate(354.589844 0)"/>
     <use xlink:href="#DejaVuSerif-67" transform="translate(418.994141 0)"/>
    </g>
   </g>
   <g id="text_6">
    <!-- Phase 3 -->
    <g style="fill: #636363" transform="translate(344.701219 55.319375) scale(0.1 -0.1)">
     <defs>
      <path id="DejaVuSerif-Bold-33" d="M 550 4531 
Q 963 4641 1350 4695 
Q 1738 4750 2106 4750 
Q 2950 4750 3401 4448 
Q 3853 4147 3853 3584 
Q 3853 3163 3593 2900 
Q 3334 2638 2834 2547 
Q 3444 2450 3744 2131 
Q 4044 1813 4044 1259 
Q 4044 606 3526 257 
Q 3009 -91 2028 -91 
Q 1659 -91 1267 -28 
Q 875 34 447 159 
L 447 1184 
L 825 1184 
Q 859 741 1103 508 
Q 1347 275 1778 275 
Q 2253 275 2512 539 
Q 2772 803 2772 1288 
Q 2772 1794 2501 2069 
Q 2231 2344 1734 2344 
L 1528 2344 
L 1528 2719 
L 1691 2719 
Q 2150 2719 2381 2931 
Q 2613 3144 2613 3566 
Q 2613 3963 2395 4173 
Q 2178 4384 1772 4384 
Q 1403 4384 1187 4182 
Q 972 3981 928 3597 
L 550 3597 
L 550 4531 
z
" transform="scale(0.015625)"/>
     </defs>
     <use xlink:href="#DejaVuSerif-Bold-50"/>
     <use xlink:href="#DejaVuSerif-Bold-68" transform="translate(75.195312 0)"/>
     <use xlink:href="#DejaVuSerif-Bold-61" transform="translate(147.900391 0)"/>
     <use xlink:href="#DejaVuSerif-Bold-73" transform="translate(212.695312 0)"/>
     <use xlink:href="#DejaVuSerif-Bold-65" transform="translate(268.994141 0)"/>
     <use xlink:href="#DejaVuSerif-Bold-20" transform="translate(332.617188 0)"/>
     <use xlink:href="#DejaVuSerif-Bold-33" transform="translate(367.431641 0)"/>
    </g>
   </g>
   <g id="patch_7">
    <path d="M 423.238588 130.176 
Q 436.85991 130.176 447.686147 130.176 
" style="fill: none; stroke: #333333; stroke-width: 2.5; stroke-linecap: round"/>
    <path d="M 443.486147 128.076 
L 447.686147 130.176 
L 443.486147 132.276 
z
" style="fill: #333333; stroke: #333333; stroke-width: 2.5; stroke-linecap: round"/>
   </g>
   <g id="text_7">
    <g id="patch_8">
     <path d="M 470.28593 147.510516 
L 544.05007 147.510516 
Q 550.35007 147.510516 550.35007 141.210516 
L 550.35007 119.290781 
Q 550.35007 112.990781 544.05007 112.990781 
L 470.28593 112.990781 
Q 463.98593 112.990781 463.98593 119.290781 
L 463.98593 141.210516 
Q 463.98593 147.510516 470.28593 147.510516 
z
" style="fill: #f46d43; stroke: #333333; stroke-width: 1.2; stroke-linejoin: miter"/>
    </g>
    <!-- Unmatched → -->
    <g transform="translate(470.28593 127.119844) scale(0.105 -0.105)">
     <defs>
      <path id="DejaVuSerif-55" d="M 897 4331 
L 300 4331 
L 300 4666 
L 2125 4666 
L 2125 4331 
L 1528 4331 
L 1528 1919 
Q 1528 1025 1820 672 
Q 2113 319 2828 319 
Q 3544 319 3836 672 
Q 4128 1025 4128 1919 
L 4128 4331 
L 3531 4331 
L 3531 4666 
L 5106 4666 
L 5106 4331 
L 4513 4331 
L 4513 1856 
Q 4513 791 4103 350 
Q 3694 -91 2713 -91 
Q 1731 -91 1314 353 
Q 897 797 897 1856 
L 897 4331 
z
" transform="scale(0.015625)"/>
      <path id="DejaVuSerif-6d" d="M 3316 2675 
Q 3481 3041 3739 3227 
Q 3997 3413 4341 3413 
Q 4863 3413 5119 3089 
Q 5375 2766 5375 2113 
L 5375 331 
L 5894 331 
L 5894 0 
L 4300 0 
L 4300 331 
L 4800 331 
L 4800 2047 
Q 4800 2556 4650 2772 
Q 4500 2988 4153 2988 
Q 3769 2988 3567 2697 
Q 3366 2406 3366 1850 
L 3366 331 
L 3866 331 
L 3866 0 
L 2291 0 
L 2291 331 
L 2791 331 
L 2791 2069 
Q 2791 2566 2641 2777 
Q 2491 2988 2144 2988 
Q 1759 2988 1557 2697 
Q 1356 2406 1356 1850 
L 1356 331 
L 1856 331 
L 1856 0 
L 263 0 
L 263 331 
L 781 331 
L 781 2994 
L 231 2994 
L 231 3322 
L 1356 3322 
L 1356 2731 
Q 1516 3063 1762 3238 
Q 2009 3413 2322 3413 
Q 2709 3413 2968 3220 
Q 3228 3028 3316 2675 
z
" transform="scale(0.015625)"/>
      <path id="DejaVuSerif-64" d="M 3359 331 
L 3909 331 
L 3909 0 
L 2784 0 
L 2784 519 
Q 2616 206 2355 57 
Q 2094 -91 1709 -91 
Q 1097 -91 708 395 
Q 319 881 319 1663 
Q 319 2444 706 2928 
Q 1094 3413 1709 3413 
Q 2094 3413 2355 3264 
Q 2616 3116 2784 2803 
L 2784 4531 
L 2241 4531 
L 2241 4863 
L 3359 4863 
L 3359 331 
z
M 2784 1497 
L 2784 1825 
Q 2784 2422 2554 2737 
Q 2325 3053 1888 3053 
Q 1444 3053 1217 2703 
Q 991 2353 991 1663 
Q 991 975 1217 622 
Q 1444 269 1888 269 
Q 2325 269 2554 583 
Q 2784 897 2784 1497 
z
" transform="scale(0.015625)"/>
      <path id="DejaVuSerif-2192" d="M 366 2322 
L 4391 2322 
L 3788 3375 
L 3822 3375 
L 5125 2084 
L 5125 2053 
L 3822 763 
L 3788 763 
L 4391 1816 
L 366 1816 
L 366 2322 
z
" transform="scale(0.015625)"/>
     </defs>
     <use xlink:href="#DejaVuSerif-55"/>
     <use xlink:href="#DejaVuSerif-6e" transform="translate(84.277344 0)"/>
     <use xlink:href="#DejaVuSerif-6d" transform="translate(148.681641 0)"/>
     <use xlink:href="#DejaVuSerif-61" transform="translate(243.505859 0)"/>
     <use xlink:href="#DejaVuSerif-74" transform="translate(303.125 0)"/>
     <use xlink:href="#DejaVuSerif-63" transform="translate(343.310547 0)"/>
     <use xlink:href="#DejaVuSerif-68" transform="translate(399.316406 0)"/>
     <use xlink:href="#DejaVuSerif-65" transform="translate(463.720703 0)"/>
     <use xlink:href="#DejaVuSerif-64" transform="translate(522.900391 0)"/>
     <use xlink:href="#DejaVuSerif-20" transform="translate(586.914062 0)"/>
     <use xlink:href="#DejaVuSerif-2192" transform="translate(618.701172 0)"/>
    </g>
    <!-- Backlog -->
    <g transform="translate(485.857922 138.877547) scale(0.105 -0.105)">
     <use xlink:href="#DejaVuSerif-42"/>
     <use xlink:href="#DejaVuSerif-61" transform="translate(73.486328 0)"/>
     <use xlink:href="#DejaVuSerif-63" transform="translate(133.105469 0)"/>
     <use xlink:href="#DejaVuSerif-6b" transform="translate(189.111328 0)"/>
     <use xlink:href="#DejaVuSerif-6c" transform="translate(249.707031 0)"/>
     <use xlink:href="#DejaVuSerif-6f" transform="translate(281.689453 0)"/>
     <use xlink:href="#DejaVuSerif-67" transform="translate(341.894531 0)"/>
    </g>
   </g>
   <g id="text_8">
    <!-- Phase 4 -->
    <g style="fill: #636363" transform="translate(485.317219 55.319375) scale(0.1 -0.1)">
     <defs>
      <path id="DejaVuSerif-Bold-34" d="M 4084 0 
L 1516 0 
L 1516 378 
L 2209 378 
L 2209 1228 
L 263 1228 
L 263 1588 
L 2216 4750 
L 3391 4750 
L 3391 1631 
L 4191 1631 
L 4191 1228 
L 3391 1228 
L 3391 378 
L 4084 378 
L 4084 0 
z
M 2209 1631 
L 2209 3897 
L 819 1631 
L 2209 1631 
z
" transform="scale(0.015625)"/>
     </defs>
     <use xlink:href="#DejaVuSerif-Bold-50"/>
     <use xlink:href="#DejaVuSerif-Bold-68" transform="translate(75.195312 0)"/>
     <use xlink:href="#DejaVuSerif-Bold-61" transform="translate(147.900391 0)"/>
     <use xlink:href="#DejaVuSerif-Bold-73" transform="translate(212.695312 0)"/>
     <use xlink:href="#DejaVuSerif-Bold-65" transform="translate(268.994141 0)"/>
     <use xlink:href="#DejaVuSerif-Bold-20" transform="translate(332.617188 0)"/>
     <use xlink:href="#DejaVuSerif-Bold-34" transform="translate(367.431641 0)"/>
    </g>
   </g>
   <g id="patch_9">
    <path d="M 563.854588 130.176 
Q 577.47591 130.176 588.302147 130.176 
" style="fill: none; stroke: #333333; stroke-width: 2.5; stroke-linecap: round"/>
    <path d="M 584.102147 128.076 
L 588.302147 130.176 
L 584.102147 132.276 
z
" style="fill: #333333; stroke: #333333; stroke-width: 2.5; stroke-linecap: round"/>
   </g>
   <g id="text_9">
    <g id="patch_10">
     <path d="M 601.117242 147.435867 
L 694.450758 147.435867 
Q 700.750758 147.435867 700.750758 141.135867 
L 700.750758 119.216133 
Q 700.750758 112.916133 694.450758 112.916133 
L 601.117242 112.916133 
Q 594.817242 112.916133 594.817242 119.216133 
L 594.817242 141.135867 
Q 594.817242 147.435867 601.117242 147.435867 
z
" style="fill: #d73027; stroke: #333333; stroke-width: 1.2; stroke-linejoin: miter"/>
    </g>
    <!-- Stress Update &amp; -->
    <g transform="translate(603.569156 127.194492) scale(0.105 -0.105)">
     <defs>
      <path id="DejaVuSerif-70" d="M 1313 1825 
L 1313 1497 
Q 1313 897 1542 583 
Q 1772 269 2209 269 
Q 2650 269 2876 622 
Q 3103 975 3103 1663 
Q 3103 2353 2876 2703 
Q 2650 3053 2209 3053 
Q 1772 3053 1542 2737 
Q 1313 2422 1313 1825 
z
M 738 2988 
L 184 2988 
L 184 3322 
L 1313 3322 
L 1313 2803 
Q 1481 3116 1742 3264 
Q 2003 3413 2388 3413 
Q 3000 3413 3387 2928 
Q 3775 2444 3775 1663 
Q 3775 881 3387 395 
Q 3000 -91 2388 -91 
Q 2003 -91 1742 57 
Q 1481 206 1313 519 
L 1313 -997 
L 1856 -997 
L 1856 -1331 
L 184 -1331 
L 184 -997 
L 738 -997 
L 738 2988 
z
" transform="scale(0.015625)"/>
     </defs>
     <use xlink:href="#DejaVuSerif-53"/>
     <use xlink:href="#DejaVuSerif-74" transform="translate(68.505859 0)"/>
     <use xlink:href="#DejaVuSerif-72" transform="translate(108.691406 0)"/>
     <use xlink:href="#DejaVuSerif-65" transform="translate(156.494141 0)"/>
     <use xlink:href="#DejaVuSerif-73" transform="translate(215.673828 0)"/>
     <use xlink:href="#DejaVuSerif-73" transform="translate(266.992188 0)"/>
     <use xlink:href="#DejaVuSerif-20" transform="translate(318.310547 0)"/>
     <use xlink:href="#DejaVuSerif-55" transform="translate(350.097656 0)"/>
     <use xlink:href="#DejaVuSerif-70" transform="translate(434.375 0)"/>
     <use xlink:href="#DejaVuSerif-64" transform="translate(498.388672 0)"/>
     <use xlink:href="#DejaVuSerif-61" transform="translate(562.402344 0)"/>
     <use xlink:href="#DejaVuSerif-74" transform="translate(622.021484 0)"/>
     <use xlink:href="#DejaVuSerif-65" transform="translate(662.207031 0)"/>
     <use xlink:href="#DejaVuSerif-20" transform="translate(721.386719 0)"/>
     <use xlink:href="#DejaVuSerif-26" transform="translate(753.173828 0)"/>
    </g>
    <!-- Preference Adapt -->
    <g transform="translate(601.117242 138.952195) scale(0.105 -0.105)">
     <defs>
      <path id="DejaVuSerif-41" d="M 1281 1691 
L 2994 1691 
L 2138 3909 
L 1281 1691 
z
M -38 0 
L -38 331 
L 372 331 
L 2034 4666 
L 2559 4666 
L 4225 331 
L 4684 331 
L 4684 0 
L 2988 0 
L 2988 331 
L 3506 331 
L 3116 1356 
L 1153 1356 
L 763 331 
L 1275 331 
L 1275 0 
L -38 0 
z
" transform="scale(0.015625)"/>
     </defs>
     <use xlink:href="#DejaVuSerif-50"/>
     <use xlink:href="#DejaVuSerif-72" transform="translate(67.285156 0)"/>
     <use xlink:href="#DejaVuSerif-65" transform="translate(115.087891 0)"/>
     <use xlink:href="#DejaVuSerif-66" transform="translate(174.267578 0)"/>
     <use xlink:href="#DejaVuSerif-65" transform="translate(211.279297 0)"/>
     <use xlink:href="#DejaVuSerif-72" transform="translate(270.458984 0)"/>
     <use xlink:href="#DejaVuSerif-65" transform="translate(318.261719 0)"/>
     <use xlink:href="#DejaVuSerif-6e" transform="translate(377.441406 0)"/>
     <use xlink:href="#DejaVuSerif-63" transform="translate(441.845703 0)"/>
     <use xlink:href="#DejaVuSerif-65" transform="translate(497.851562 0)"/>
     <use xlink:href="#DejaVuSerif-20" transform="translate(557.03125 0)"/>
     <use xlink:href="#DejaVuSerif-41" transform="translate(588.818359 0)"/>
     <use xlink:href="#DejaVuSerif-64" transform="translate(661.035156 0)"/>
     <use xlink:href="#DejaVuSerif-61" transform="translate(725.048828 0)"/>
     <use xlink:href="#DejaVuSerif-70" transform="translate(784.667969 0)"/>
     <use xlink:href="#DejaVuSerif-74" transform="translate(848.681641 0)"/>
    </g>
   </g>
   <g id="text_10">
    <!-- Phase 5 -->
    <g style="fill: #636363" transform="translate(625.933219 55.319375) scale(0.1 -0.1)">
     <defs>
      <path id="DejaVuSerif-Bold-35" d="M 3609 4666 
L 3609 3847 
L 1113 3847 
L 1113 2822 
Q 1319 2981 1572 3062 
Q 1825 3144 2106 3144 
Q 2969 3144 3469 2708 
Q 3969 2272 3969 1522 
Q 3969 759 3469 334 
Q 2969 -91 2069 -91 
Q 1688 -91 1311 -28 
Q 934 34 525 166 
L 525 1184 
L 900 1184 
Q 919 725 1139 500 
Q 1359 275 1791 275 
Q 2250 275 2472 583 
Q 2694 891 2694 1522 
Q 2694 2144 2476 2451 
Q 2259 2759 1819 2759 
Q 1581 2759 1395 2661 
Q 1209 2563 1050 2356 
L 738 2356 
L 738 4666 
L 3609 4666 
z
" transform="scale(0.015625)"/>
     </defs>
     <use xlink:href="#DejaVuSerif-Bold-50"/>
     <use xlink:href="#DejaVuSerif-Bold-68" transform="translate(75.195312 0)"/>
     <use xlink:href="#DejaVuSerif-Bold-61" transform="translate(147.900391 0)"/>
     <use xlink:href="#DejaVuSerif-Bold-73" transform="translate(212.695312 0)"/>
     <use xlink:href="#DejaVuSerif-Bold-65" transform="translate(268.994141 0)"/>
     <use xlink:href="#DejaVuSerif-Bold-20" transform="translate(332.617188 0)"/>
     <use xlink:href="#DejaVuSerif-Bold-35" transform="translate(367.431641 0)"/>
    </g>
   </g>
   <g id="text_11">
    <!-- All mechanisms are explicit, parameterized rules. No latent LLM behavior in the simulation loop. -->
    <g style="fill: #636363" transform="translate(163.366719 218.88) scale(0.095 -0.095)">
     <defs>
      <path id="DejaVuSerif-Italic-41" d="M 1159 1691 
L 2872 1691 
L 2447 3909 
L 1159 1691 
z
M -488 0 
L -425 331 
L -16 331 
L 2491 4666 
L 3016 4666 
L 3841 331 
L 4297 331 
L 4234 0 
L 2538 0 
L 2600 331 
L 3119 331 
L 2928 1356 
L 966 1356 
L 375 331 
L 888 331 
L 825 0 
L -488 0 
z
" transform="scale(0.015625)"/>
      <path id="DejaVuSerif-Italic-6c" d="M 903 331 
L 1447 331 
L 1384 0 
L 266 0 
L 1147 4531 
L 594 4531 
L 656 4863 
L 1784 4863 
L 903 331 
z
" transform="scale(0.015625)"/>
      <path id="DejaVuSerif-Italic-20" transform="scale(0.015625)"/>
      <path id="DejaVuSerif-Italic-6d" d="M 3503 2675 
Q 3741 3041 4034 3227 
Q 4328 3413 4672 3413 
Q 5194 3413 5388 3088 
Q 5503 2894 5503 2578 
Q 5503 2372 5453 2113 
L 5106 331 
L 5625 331 
L 5563 0 
L 4469 0 
L 4866 2047 
Q 4913 2291 4913 2466 
Q 4913 2659 4856 2772 
Q 4750 2988 4403 2988 
Q 4019 2988 3761 2697 
Q 3503 2406 3394 1850 
L 3034 0 
L 2459 0 
L 2863 2069 
Q 2906 2303 2906 2472 
Q 2906 2666 2850 2775 
Q 2741 2988 2394 2988 
Q 2009 2988 1751 2697 
Q 1494 2406 1384 1850 
L 1025 0 
L 450 0 
L 1031 2994 
L 481 2994 
L 544 3322 
L 1669 3322 
L 1556 2731 
Q 1778 3063 2059 3238 
Q 2341 3413 2653 3413 
Q 3041 3413 3262 3220 
Q 3484 3028 3503 2675 
z
" transform="scale(0.015625)"/>
      <path id="DejaVuSerif-Italic-65" d="M 938 1275 
Q 925 1156 925 1050 
Q 925 756 1031 563 
Q 1216 219 1709 219 
Q 2072 219 2250 328 
Q 2569 525 2644 778 
L 3066 778 
Q 2941 381 2475 103 
Q 2150 -91 1506 -91 
Q 863 -91 516 388 
Q 272 722 272 1206 
Q 272 1419 319 1659 
Q 472 2450 1000 2931 
Q 1528 3413 2278 3413 
Q 3500 3413 3500 2547 
Q 3500 1913 2859 1603 
Q 2206 1288 938 1275 
z
M 2541 1975 
Q 2891 2181 2891 2569 
Q 2891 3103 2181 3103 
Q 1763 3103 1472 2784 
Q 1181 2466 1003 1606 
Q 2006 1653 2541 1975 
z
" transform="scale(0.015625)"/>
      <path id="DejaVuSerif-Italic-63" d="M 3163 997 
Q 2938 466 2536 187 
Q 2134 -91 1584 -91 
Q 859 -91 513 388 
Q 272 722 272 1203 
Q 272 1419 319 1663 
Q 475 2459 1008 2936 
Q 1541 3413 2266 3413 
Q 2581 3413 2879 3339 
Q 3178 3266 3463 3116 
L 3300 2266 
L 2966 2266 
Q 2966 2309 2966 2347 
Q 2966 2722 2803 2903 
Q 2622 3103 2213 3103 
Q 1747 3103 1439 2742 
Q 1131 2381 991 1663 
Q 928 1334 928 1078 
Q 928 778 1016 581 
Q 1181 219 1650 219 
Q 2022 219 2281 412 
Q 2541 606 2700 997 
L 3163 997 
z
" transform="scale(0.015625)"/>
      <path id="DejaVuSerif-Italic-68" d="M 309 0 
L 1191 4531 
L 641 4531 
L 703 4863 
L 1828 4863 
L 1416 2731 
Q 1641 3069 1928 3241 
Q 2216 3413 2553 3413 
Q 3103 3413 3300 3097 
Q 3422 2906 3422 2588 
Q 3422 2378 3369 2113 
L 3022 331 
L 3534 331 
L 3472 0 
L 2381 0 
L 2756 1931 
Q 2819 2253 2819 2469 
Q 2819 2659 2769 2763 
Q 2666 2988 2284 2988 
Q 1884 2988 1617 2697 
Q 1350 2406 1244 1850 
L 884 0 
L 309 0 
z
" transform="scale(0.015625)"/>
      <path id="DejaVuSerif-Italic-61" d="M 2325 519 
Q 1909 -91 1238 -91 
Q 688 -91 409 281 
Q 216 544 216 919 
Q 216 1078 250 1256 
Q 463 2359 1231 2928 
Q 1884 3413 2675 3413 
Q 3206 3413 3388 3322 
L 2806 331 
L 3300 331 
L 3238 0 
L 2225 0 
L 2325 519 
z
M 822 938 
Q 822 269 1469 269 
Q 1863 269 2130 583 
Q 2397 897 2516 1497 
L 2806 3003 
L 2806 3003 
Q 2806 3094 2556 3094 
Q 1956 3094 1491 2625 
Q 1028 2153 863 1297 
Q 822 1097 822 938 
z
" transform="scale(0.015625)"/>
      <path id="DejaVuSerif-Italic-6e" d="M 450 0 
L 1031 2988 
L 481 2988 
L 544 3322 
L 1669 3322 
L 1556 2731 
Q 1781 3069 2068 3241 
Q 2356 3413 2694 3413 
Q 3244 3413 3444 3097 
Q 3563 2906 3563 2588 
Q 3563 2378 3509 2113 
L 3163 331 
L 3675 331 
L 3613 0 
L 2522 0 
L 2897 1931 
Q 2959 2253 2959 2469 
Q 2959 2659 2909 2769 
Q 2803 2994 2425 2994 
Q 2025 2994 1759 2701 
Q 1494 2409 1384 1850 
L 1025 0 
L 450 0 
z
" transform="scale(0.015625)"/>
      <path id="DejaVuSerif-Italic-69" d="M 1009 4353 
Q 1038 4497 1163 4603 
Q 1288 4709 1434 4709 
Q 1578 4709 1663 4603 
Q 1728 4522 1728 4422 
Q 1728 4388 1719 4353 
Q 1691 4206 1567 4103 
Q 1444 4000 1297 4000 
Q 1150 4000 1066 4103 
Q 1003 4181 1003 4281 
Q 1003 4316 1009 4353 
z
M 963 331 
L 1506 331 
L 1444 0 
L 325 0 
L 903 2988 
L 353 2988 
L 419 3322 
L 1544 3322 
L 963 331 
z
" transform="scale(0.015625)"/>
      <path id="DejaVuSerif-Italic-73" d="M 222 959 
L 553 959 
Q 541 869 541 788 
Q 541 219 1313 219 
Q 2088 219 2200 788 
Q 2209 844 2209 944 
Q 2209 1041 2103 1158 
Q 1997 1275 1550 1428 
L 1159 1569 
Q 759 1706 629 1882 
Q 500 2059 500 2263 
Q 500 2344 516 2438 
Q 606 2894 990 3153 
Q 1375 3413 1931 3413 
Q 2484 3413 3066 3144 
L 2925 2419 
L 2594 2419 
Q 2606 2491 2606 2553 
Q 2606 2781 2448 2942 
Q 2291 3103 1925 3103 
Q 1191 3103 1091 2591 
Q 1078 2538 1078 2444 
Q 1078 2347 1179 2237 
Q 1281 2128 1678 1997 
L 2106 1856 
Q 2550 1709 2716 1488 
Q 2831 1331 2831 1178 
Q 2831 522 2306 181 
Q 1894 -91 1262 -91 
Q 631 -91 72 184 
L 222 959 
z
" transform="scale(0.015625)"/>
      <path id="DejaVuSerif-Italic-72" d="M 3375 3328 
L 3213 2497 
L 2881 2497 
Q 2891 2559 2891 2613 
Q 2891 2775 2816 2866 
Q 2719 2988 2484 2988 
Q 2059 2988 1775 2694 
Q 1491 2400 1384 1850 
L 1025 0 
L 450 0 
L 1031 2994 
L 481 2994 
L 544 3322 
L 1669 3322 
L 1556 2731 
Q 1791 3078 2089 3245 
Q 2388 3413 2769 3413 
Q 2909 3413 3059 3391 
Q 3209 3369 3375 3328 
z
" transform="scale(0.015625)"/>
      <path id="DejaVuSerif-Italic-78" d="M 409 0 
L 19 0 
L 1484 1594 
L 747 2988 
L 338 2988 
L 400 3322 
L 1244 3322 
L 1934 2028 
L 3125 3322 
L 3516 3322 
L 2078 1759 
L 2838 331 
L 3272 331 
L 3209 0 
L 2338 0 
L 1631 1325 
L 409 0 
z
" transform="scale(0.015625)"/>
      <path id="DejaVuSerif-Italic-70" d="M 1466 1825 
L 1400 1497 
Q 1353 1250 1353 1053 
Q 1353 769 1453 581 
Q 1622 269 2059 269 
Q 2500 269 2795 622 
Q 3091 975 3225 1663 
Q 3284 1978 3284 2225 
Q 3284 2513 3200 2703 
Q 3041 3053 2600 3053 
Q 2163 3053 1872 2737 
Q 1581 2422 1466 1825 
z
M 1116 2988 
L 563 2988 
L 628 3322 
L 1756 3322 
L 1656 2803 
Q 1884 3116 2175 3264 
Q 2466 3413 2850 3413 
Q 3463 3413 3753 2928 
Q 3947 2609 3947 2163 
Q 3947 1928 3897 1663 
Q 3744 881 3262 395 
Q 2781 -91 2169 -91 
Q 1784 -91 1551 57 
Q 1319 206 1213 519 
L 850 -1331 
L 275 -1331 
L 1116 2988 
z
" transform="scale(0.015625)"/>
      <path id="DejaVuSerif-Italic-74" d="M 856 2988 
L 350 2988 
L 416 3322 
L 922 3322 
L 1122 4353 
L 1700 4353 
L 1500 3322 
L 2581 3322 
L 2516 2988 
L 1434 2988 
L 1025 878 
Q 978 631 978 488 
Q 978 388 1000 338 
Q 1059 219 1278 219 
Q 1503 219 1633 351 
Q 1763 484 1825 781 
L 2259 781 
Q 2147 328 1884 118 
Q 1622 -91 1169 -91 
Q 672 -91 506 131 
Q 406 266 406 516 
Q 406 675 447 878 
L 856 2988 
z
" transform="scale(0.015625)"/>
      <path id="DejaVuSerif-Italic-2c" d="M 125 -622 
Q 463 -406 656 -114 
Q 850 178 931 594 
L 953 709 
L 1569 709 
Q 1441 175 1139 -208 
Q 838 -591 328 -872 
L 125 -622 
z
" transform="scale(0.015625)"/>
      <path id="DejaVuSerif-Italic-7a" d="M 2550 3047 
Q 2888 3047 3216 3322 
L 3403 3322 
L 3353 3053 
L 1081 684 
Q 1113 675 1203 647 
Q 1309 613 1416 544 
L 1569 450 
Q 1863 272 2075 272 
Q 2484 272 2966 741 
L 2891 363 
Q 2356 -163 1950 -163 
Q 1703 -156 1356 59 
Q 1009 275 791 275 
Q 453 275 125 0 
L -63 0 
L -13 269 
L 2263 2634 
Q 2228 2647 2138 2675 
Q 2031 2709 1925 2778 
L 1772 2872 
Q 1478 3050 1266 3050 
Q 856 3050 375 2581 
L 450 2959 
Q 984 3484 1391 3484 
Q 1638 3478 1984 3262 
Q 2331 3047 2550 3047 
z
" transform="scale(0.015625)"/>
      <path id="DejaVuSerif-Italic-64" d="M 3841 4863 
L 2897 0 
L 2322 0 
L 2422 519 
Q 2191 206 1902 57 
Q 1613 -91 1228 -91 
Q 616 -91 322 394 
Q 125 716 125 1166 
Q 125 1397 178 1663 
Q 331 2444 812 2928 
Q 1294 3413 1909 3413 
Q 2294 3413 2525 3264 
Q 2756 3116 2866 2803 
L 3200 4531 
L 2656 4531 
L 2722 4863 
L 3841 4863 
z
M 2613 1497 
L 2675 1825 
Q 2722 2069 2722 2266 
Q 2722 2550 2622 2738 
Q 2456 3053 2019 3053 
Q 1575 3053 1279 2703 
Q 984 2353 850 1663 
Q 788 1347 788 1103 
Q 788 813 875 622 
Q 1031 269 1475 269 
Q 1913 269 2203 583 
Q 2494 897 2613 1497 
z
" transform="scale(0.015625)"/>
      <path id="DejaVuSerif-Italic-75" d="M 3097 3322 
L 3672 3322 
L 3091 331 
L 3634 331 
L 3572 0 
L 2453 0 
L 2566 588 
Q 2341 256 2055 82 
Q 1769 -91 1434 -91 
Q 881 -91 681 225 
Q 559 413 559 734 
Q 559 944 613 1209 
L 956 2988 
L 438 2988 
L 503 3322 
L 1600 3322 
L 1225 1388 
Q 1163 1066 1163 853 
Q 1163 663 1213 556 
Q 1316 331 1697 331 
Q 2097 331 2364 625 
Q 2631 919 2738 1478 
L 3097 3322 
z
" transform="scale(0.015625)"/>
      <path id="DejaVuSerif-Italic-2e" d="M 664 29 
Q 569 150 603 325 
Q 638 500 780 622 
Q 922 744 1100 744 
Q 1272 744 1370 622 
Q 1469 500 1434 325 
Q 1400 153 1254 31 
Q 1109 -91 938 -91 
Q 759 -91 664 29 
z
" transform="scale(0.015625)"/>
      <path id="DejaVuSerif-Italic-4e" d="M -128 0 
L -66 331 
L 563 331 
L 1341 4331 
L 713 4331 
L 778 4666 
L 1975 4666 
L 4056 984 
L 4706 4331 
L 4081 4331 
L 4147 4666 
L 5784 4666 
L 5719 4331 
L 5091 4331 
L 4231 -91 
L 3853 -91 
L 1631 3841 
L 947 331 
L 1575 331 
L 1513 0 
L -128 0 
z
" transform="scale(0.015625)"/>
      <path id="DejaVuSerif-Italic-6f" d="M 1644 219 
Q 2106 219 2414 584 
Q 2722 950 2859 1663 
Q 2922 1988 2922 2241 
Q 2922 2541 2834 2738 
Q 2669 3103 2206 3103 
Q 1744 3103 1436 2739 
Q 1128 2375 991 1663 
Q 928 1338 928 1088 
Q 928 784 1019 584 
Q 1184 219 1644 219 
z
M 1584 -91 
Q 859 -91 513 388 
Q 272 722 272 1203 
Q 272 1419 319 1663 
Q 472 2456 1005 2934 
Q 1538 3413 2266 3413 
Q 2994 3413 3341 2934 
Q 3578 2603 3578 2122 
Q 3578 1906 3531 1663 
Q 3378 869 2845 389 
Q 2313 -91 1584 -91 
z
" transform="scale(0.015625)"/>
      <path id="DejaVuSerif-Italic-4c" d="M -97 0 
L -34 331 
L 559 331 
L 1338 4331 
L 744 4331 
L 809 4666 
L 2631 4666 
L 2566 4331 
L 1972 4331 
L 1206 384 
L 3338 384 
L 3488 1166 
L 3872 1166 
L 3647 0 
L -97 0 
z
" transform="scale(0.015625)"/>
      <path id="DejaVuSerif-Italic-4d" d="M -97 0 
L -34 331 
L 559 331 
L 1338 4331 
L 709 4331 
L 775 4666 
L 2134 4666 
L 3125 1344 
L 5409 4666 
L 6684 4666 
L 6619 4331 
L 5997 4331 
L 5222 331 
L 5816 331 
L 5753 0 
L 3928 0 
L 3991 331 
L 4584 331 
L 5288 3938 
L 3053 684 
L 2613 684 
L 1647 3938 
L 944 331 
L 1538 331 
L 1475 0 
L -97 0 
z
" transform="scale(0.015625)"/>
      <path id="DejaVuSerif-Italic-62" d="M 1153 4531 
L 600 4531 
L 666 4863 
L 1794 4863 
L 1394 2803 
Q 1622 3116 1912 3264 
Q 2203 3413 2588 3413 
Q 3200 3413 3494 2928 
Q 3688 2609 3688 2163 
Q 3688 1928 3634 1663 
Q 3481 881 3000 395 
Q 2519 -91 1906 -91 
Q 1522 -91 1289 57 
Q 1056 206 950 519 
L 850 0 
L 275 0 
L 1153 4531 
z
M 1141 1497 
Q 1091 1250 1091 1053 
Q 1091 769 1191 581 
Q 1359 269 1797 269 
Q 2238 269 2533 622 
Q 2828 975 2963 1663 
Q 3025 1978 3025 2225 
Q 3025 2513 2938 2703 
Q 2781 3053 2338 3053 
Q 1900 3053 1609 2737 
Q 1319 2422 1203 1825 
L 1141 1497 
z
" transform="scale(0.015625)"/>
      <path id="DejaVuSerif-Italic-76" d="M 1681 0 
L 1259 0 
L 619 2988 
L 241 2988 
L 303 3322 
L 1163 3322 
L 1725 703 
Q 2084 1016 2325 1413 
Q 2825 2238 3003 2988 
L 2622 2988 
L 2688 3322 
L 3547 3322 
Q 3206 2034 2775 1313 
Q 2400 688 1681 0 
z
" transform="scale(0.015625)"/>
     </defs>
     <use xlink:href="#DejaVuSerif-Italic-41"/>
     <use xlink:href="#DejaVuSerif-Italic-6c" transform="translate(72.216797 0)"/>
     <use xlink:href="#DejaVuSerif-Italic-6c" transform="translate(104.199219 0)"/>
     <use xlink:href="#DejaVuSerif-Italic-20" transform="translate(136.181641 0)"/>
     <use xlink:href="#DejaVuSerif-Italic-6d" transform="translate(167.96875 0)"/>
     <use xlink:href="#DejaVuSerif-Italic-65" transform="translate(262.792969 0)"/>
     <use xlink:href="#DejaVuSerif-Italic-63" transform="translate(321.972656 0)"/>
     <use xlink:href="#DejaVuSerif-Italic-68" transform="translate(377.978516 0)"/>
     <use xlink:href="#DejaVuSerif-Italic-61" transform="translate(442.382812 0)"/>
     <use xlink:href="#DejaVuSerif-Italic-6e" transform="translate(502.001953 0)"/>
     <use xlink:href="#DejaVuSerif-Italic-69" transform="translate(566.40625 0)"/>
     <use xlink:href="#DejaVuSerif-Italic-73" transform="translate(598.388672 0)"/>
     <use xlink:href="#DejaVuSerif-Italic-6d" transform="translate(649.707031 0)"/>
     <use xlink:href="#DejaVuSerif-Italic-73" transform="translate(744.53125 0)"/>
     <use xlink:href="#DejaVuSerif-Italic-20" transform="translate(795.849609 0)"/>
     <use xlink:href="#DejaVuSerif-Italic-61" transform="translate(827.636719 0)"/>
     <use xlink:href="#DejaVuSerif-Italic-72" transform="translate(887.255859 0)"/>
     <use xlink:href="#DejaVuSerif-Italic-65" transform="translate(935.058594 0)"/>
     <use xlink:href="#DejaVuSerif-Italic-20" transform="translate(994.238281 0)"/>
     <use xlink:href="#DejaVuSerif-Italic-65" transform="translate(1026.025391 0)"/>
     <use xlink:href="#DejaVuSerif-Italic-78" transform="translate(1085.205078 0)"/>
     <use xlink:href="#DejaVuSerif-Italic-70" transform="translate(1141.601562 0)"/>
     <use xlink:href="#DejaVuSerif-Italic-6c" transform="translate(1205.615234 0)"/>
     <use xlink:href="#DejaVuSerif-Italic-69" transform="translate(1237.597656 0)"/>
     <use xlink:href="#DejaVuSerif-Italic-63" transform="translate(1269.580078 0)"/>
     <use xlink:href="#DejaVuSerif-Italic-69" transform="translate(1325.585938 0)"/>
     <use xlink:href="#DejaVuSerif-Italic-74" transform="translate(1357.568359 0)"/>
     <use xlink:href="#DejaVuSerif-Italic-2c" transform="translate(1397.753906 0)"/>
     <use xlink:href="#DejaVuSerif-Italic-20" transform="translate(1429.541016 0)"/>
     <use xlink:href="#DejaVuSerif-Italic-70" transform="translate(1461.328125 0)"/>
     <use xlink:href="#DejaVuSerif-Italic-61" transform="translate(1525.341797 0)"/>
     <use xlink:href="#DejaVuSerif-Italic-72" transform="translate(1584.960938 0)"/>
     <use xlink:href="#DejaVuSerif-Italic-61" transform="translate(1632.763672 0)"/>
     <use xlink:href="#DejaVuSerif-Italic-6d" transform="translate(1692.382812 0)"/>
     <use xlink:href="#DejaVuSerif-Italic-65" transform="translate(1787.207031 0)"/>
     <use xlink:href="#DejaVuSerif-Italic-74" transform="translate(1846.386719 0)"/>
     <use xlink:href="#DejaVuSerif-Italic-65" transform="translate(1886.572266 0)"/>
     <use xlink:href="#DejaVuSerif-Italic-72" transform="translate(1945.751953 0)"/>
     <use xlink:href="#DejaVuSerif-Italic-69" transform="translate(1993.554688 0)"/>
     <use xlink:href="#DejaVuSerif-Italic-7a" transform="translate(2025.537109 0)"/>
     <use xlink:href="#DejaVuSerif-Italic-65" transform="translate(2078.222656 0)"/>
     <use xlink:href="#DejaVuSerif-Italic-64" transform="translate(2137.402344 0)"/>
     <use xlink:href="#DejaVuSerif-Italic-20" transform="translate(2201.416016 0)"/>
     <use xlink:href="#DejaVuSerif-Italic-72" transform="translate(2233.203125 0)"/>
     <use xlink:href="#DejaVuSerif-Italic-75" transform="translate(2281.005859 0)"/>
     <use xlink:href="#DejaVuSerif-Italic-6c" transform="translate(2345.410156 0)"/>
     <use xlink:href="#DejaVuSerif-Italic-65" transform="translate(2377.392578 0)"/>
     <use xlink:href="#DejaVuSerif-Italic-73" transform="translate(2436.572266 0)"/>
     <use xlink:href="#DejaVuSerif-Italic-2e" transform="translate(2487.890625 0)"/>
     <use xlink:href="#DejaVuSerif-Italic-20" transform="translate(2519.677734 0)"/>
     <use xlink:href="#DejaVuSerif-Italic-4e" transform="translate(2551.464844 0)"/>
     <use xlink:href="#DejaVuSerif-Italic-6f" transform="translate(2638.964844 0)"/>
     <use xlink:href="#DejaVuSerif-Italic-20" transform="translate(2699.169922 0)"/>
     <use xlink:href="#DejaVuSerif-Italic-6c" transform="translate(2730.957031 0)"/>
     <use xlink:href="#DejaVuSerif-Italic-61" transform="translate(2762.939453 0)"/>
     <use xlink:href="#DejaVuSerif-Italic-74" transform="translate(2822.558594 0)"/>
     <use xlink:href="#DejaVuSerif-Italic-65" transform="translate(2862.744141 0)"/>
     <use xlink:href="#DejaVuSerif-Italic-6e" transform="translate(2921.923828 0)"/>
     <use xlink:href="#DejaVuSerif-Italic-74" transform="translate(2986.328125 0)"/>
     <use xlink:href="#DejaVuSerif-Italic-20" transform="translate(3026.513672 0)"/>
     <use xlink:href="#DejaVuSerif-Italic-4c" transform="translate(3058.300781 0)"/>
     <use xlink:href="#DejaVuSerif-Italic-4c" transform="translate(3124.707031 0)"/>
     <use xlink:href="#DejaVuSerif-Italic-4d" transform="translate(3191.113281 0)"/>
     <use xlink:href="#DejaVuSerif-Italic-20" transform="translate(3293.505859 0)"/>
     <use xlink:href="#DejaVuSerif-Italic-62" transform="translate(3325.292969 0)"/>
     <use xlink:href="#DejaVuSerif-Italic-65" transform="translate(3389.306641 0)"/>
     <use xlink:href="#DejaVuSerif-Italic-68" transform="translate(3448.486328 0)"/>
     <use xlink:href="#DejaVuSerif-Italic-61" transform="translate(3512.890625 0)"/>
     <use xlink:href="#DejaVuSerif-Italic-76" transform="translate(3572.509766 0)"/>
     <use xlink:href="#DejaVuSerif-Italic-69" transform="translate(3629.003906 0)"/>
     <use xlink:href="#DejaVuSerif-Italic-6f" transform="translate(3660.986328 0)"/>
     <use xlink:href="#DejaVuSerif-Italic-72" transform="translate(3721.191406 0)"/>
     <use xlink:href="#DejaVuSerif-Italic-20" transform="translate(3768.994141 0)"/>
     <use xlink:href="#DejaVuSerif-Italic-69" transform="translate(3800.78125 0)"/>
     <use xlink:href="#DejaVuSerif-Italic-6e" transform="translate(3832.763672 0)"/>
     <use xlink:href="#DejaVuSerif-Italic-20" transform="translate(3897.167969 0)"/>
     <use xlink:href="#DejaVuSerif-Italic-74" transform="translate(3928.955078 0)"/>
     <use xlink:href="#DejaVuSerif-Italic-68" transform="translate(3969.140625 0)"/>
     <use xlink:href="#DejaVuSerif-Italic-65" transform="translate(4033.544922 0)"/>
     <use xlink:href="#DejaVuSerif-Italic-20" transform="translate(4092.724609 0)"/>
     <use xlink:href="#DejaVuSerif-Italic-73" transform="translate(4124.511719 0)"/>
     <use xlink:href="#DejaVuSerif-Italic-69" transform="translate(4175.830078 0)"/>
     <use xlink:href="#DejaVuSerif-Italic-6d" transform="translate(4207.8125 0)"/>
     <use xlink:href="#DejaVuSerif-Italic-75" transform="translate(4302.636719 0)"/>
     <use xlink:href="#DejaVuSerif-Italic-6c" transform="translate(4367.041016 0)"/>
     <use xlink:href="#DejaVuSerif-Italic-61" transform="translate(4399.023438 0)"/>
     <use xlink:href="#DejaVuSerif-Italic-74" transform="translate(4458.642578 0)"/>
     <use xlink:href="#DejaVuSerif-Italic-69" transform="translate(4498.828125 0)"/>
     <use xlink:href="#DejaVuSerif-Italic-6f" transform="translate(4530.810547 0)"/>
     <use xlink:href="#DejaVuSerif-Italic-6e" transform="translate(4591.015625 0)"/>
     <use xlink:href="#DejaVuSerif-Italic-20" transform="translate(4655.419922 0)"/>
     <use xlink:href="#DejaVuSerif-Italic-6c" transform="translate(4687.207031 0)"/>
     <use xlink:href="#DejaVuSerif-Italic-6f" transform="translate(4719.189453 0)"/>
     <use xlink:href="#DejaVuSerif-Italic-6f" transform="translate(4779.394531 0)"/>
     <use xlink:href="#DejaVuSerif-Italic-70" transform="translate(4839.599609 0)"/>
     <use xlink:href="#DejaVuSerif-Italic-2e" transform="translate(4903.613281 0)"/>
    </g>
   </g>
  </g>
  <g id="text_12">
   <!-- Figure 2. White-Box Research Model Lifecycle (One Simulation Step) -->
   <g transform="translate(132.729844 17.077969) scale(0.13 -0.13)">
    <defs>
     <path id="DejaVuSerif-Bold-46" d="M 300 0 
L 300 378 
L 897 378 
L 897 4288 
L 300 4288 
L 300 4666 
L 4459 4666 
L 4459 3566 
L 4031 3566 
L 4031 4238 
L 2106 4238 
L 2106 2741 
L 3291 2741 
L 3291 3334 
L 3719 3334 
L 3719 1722 
L 3291 1722 
L 3291 2316 
L 2106 2316 
L 2106 378 
L 2841 378 
L 2841 0 
L 300 0 
z
" transform="scale(0.015625)"/>
     <path id="DejaVuSerif-Bold-69" d="M 588 4263 
Q 588 4516 763 4689 
Q 938 4863 1191 4863 
Q 1438 4863 1611 4689 
Q 1784 4516 1784 4263 
Q 1784 4016 1611 3842 
Q 1438 3669 1191 3669 
Q 938 3669 763 3841 
Q 588 4013 588 4263 
z
M 1797 378 
L 2272 378 
L 2272 0 
L 219 0 
L 219 378 
L 691 378 
L 691 2944 
L 219 2944 
L 219 3322 
L 1797 3322 
L 1797 378 
z
" transform="scale(0.015625)"/>
     <path id="DejaVuSerif-Bold-67" d="M 3853 2944 
L 3853 44 
Q 3853 -656 3354 -1039 
Q 2856 -1422 1947 -1422 
Q 1616 -1422 1275 -1370 
Q 934 -1319 575 -1216 
L 575 -422 
L 928 -422 
Q 975 -750 1192 -909 
Q 1409 -1069 1813 -1069 
Q 2325 -1069 2536 -823 
Q 2747 -578 2747 44 
L 2747 422 
Q 2606 163 2367 36 
Q 2128 -91 1778 -91 
Q 1072 -91 667 378 
Q 263 847 263 1663 
Q 263 2481 667 2947 
Q 1072 3413 1778 3413 
Q 2128 3413 2367 3286 
Q 2606 3159 2747 2900 
L 2747 3322 
L 4325 3322 
L 4325 2944 
L 3853 2944 
z
M 2747 1825 
Q 2747 2406 2597 2665 
Q 2447 2925 2119 2925 
Q 1775 2925 1636 2651 
Q 1497 2378 1497 1663 
Q 1497 947 1637 672 
Q 1778 397 2119 397 
Q 2447 397 2597 656 
Q 2747 916 2747 1497 
L 2747 1825 
z
" transform="scale(0.015625)"/>
     <path id="DejaVuSerif-Bold-75" d="M 3963 3322 
L 3963 378 
L 4434 378 
L 4434 0 
L 2853 0 
L 2853 469 
Q 2656 172 2400 40 
Q 2144 -91 1753 -91 
Q 1194 -91 908 239 
Q 622 569 622 1209 
L 622 2944 
L 147 2944 
L 147 3322 
L 1728 3322 
L 1728 1381 
Q 1728 763 1831 595 
Q 1934 428 2209 428 
Q 2544 428 2698 675 
Q 2853 922 2853 1459 
L 2853 2944 
L 2450 2944 
L 2450 3322 
L 3963 3322 
z
" transform="scale(0.015625)"/>
     <path id="DejaVuSerif-Bold-72" d="M 3438 3359 
L 3438 2369 
L 3084 2369 
Q 3066 2634 2941 2764 
Q 2816 2894 2578 2894 
Q 2216 2894 2006 2575 
Q 1797 2256 1797 1691 
L 1797 378 
L 2400 378 
L 2400 0 
L 219 0 
L 219 378 
L 691 378 
L 691 2944 
L 184 2944 
L 184 3322 
L 1797 3322 
L 1797 2731 
Q 1959 3078 2226 3245 
Q 2494 3413 2881 3413 
Q 2978 3413 3117 3398 
Q 3256 3384 3438 3359 
z
" transform="scale(0.015625)"/>
     <path id="DejaVuSerif-Bold-2e" d="M 519 506 
Q 519 750 694 925 
Q 869 1100 1113 1100 
Q 1359 1100 1534 925 
Q 1709 750 1709 506 
Q 1709 259 1534 84 
Q 1359 -91 1113 -91 
Q 869 -91 694 84 
Q 519 259 519 506 
z
" transform="scale(0.015625)"/>
     <path id="DejaVuSerif-Bold-57" d="M 5453 0 
L 4647 0 
L 3591 3397 
L 2534 0 
L 1728 0 
L 397 4288 
L -56 4288 
L -56 4666 
L 2156 4666 
L 2156 4288 
L 1656 4288 
L 2547 1422 
L 3553 4666 
L 4441 4666 
L 5466 1369 
L 6375 4288 
L 5819 4288 
L 5819 4666 
L 7263 4666 
L 7263 4288 
L 6784 4288 
L 5453 0 
z
" transform="scale(0.015625)"/>
     <path id="DejaVuSerif-Bold-74" d="M 634 2944 
L 153 2944 
L 153 3322 
L 634 3322 
L 634 4353 
L 1741 4353 
L 1741 3322 
L 2663 3322 
L 2663 2944 
L 1741 2944 
L 1741 909 
Q 1741 475 1809 369 
Q 1878 263 2059 263 
Q 2259 263 2356 397 
Q 2453 531 2459 813 
L 2925 813 
Q 2897 313 2651 111 
Q 2406 -91 1806 -91 
Q 1122 -91 878 123 
Q 634 338 634 909 
L 634 2944 
z
" transform="scale(0.015625)"/>
     <path id="DejaVuSerif-Bold-2d" d="M 347 2138 
L 2309 2138 
L 2309 1294 
L 347 1294 
L 347 2138 
z
" transform="scale(0.015625)"/>
     <path id="DejaVuSerif-Bold-42" d="M 300 0 
L 300 378 
L 897 378 
L 897 4288 
L 300 4288 
L 300 4666 
L 3066 4666 
Q 3919 4666 4347 4378 
Q 4775 4091 4775 3513 
Q 4775 3097 4479 2853 
Q 4184 2609 3603 2547 
Q 4306 2481 4681 2172 
Q 5056 1863 5056 1350 
Q 5056 656 4532 328 
Q 4009 0 2894 0 
L 300 0 
z
M 2100 2719 
L 2509 2719 
Q 3047 2719 3306 2914 
Q 3566 3109 3566 3513 
Q 3566 3919 3314 4103 
Q 3063 4288 2509 4288 
L 2100 4288 
L 2100 2719 
z
M 2100 378 
L 2547 378 
Q 3144 378 3431 615 
Q 3719 853 3719 1350 
Q 3719 1850 3428 2097 
Q 3138 2344 2547 2344 
L 2100 2344 
L 2100 378 
z
" transform="scale(0.015625)"/>
     <path id="DejaVuSerif-Bold-6f" d="M 2138 263 
Q 2488 263 2630 563 
Q 2772 863 2772 1663 
Q 2772 2463 2631 2761 
Q 2491 3059 2138 3059 
Q 1784 3059 1640 2757 
Q 1497 2456 1497 1663 
Q 1497 869 1640 566 
Q 1784 263 2138 263 
z
M 2138 -91 
Q 1259 -91 761 376 
Q 263 844 263 1663 
Q 263 2484 761 2948 
Q 1259 3413 2138 3413 
Q 3019 3413 3516 2948 
Q 4013 2484 4013 1663 
Q 4013 844 3514 376 
Q 3016 -91 2138 -91 
z
" transform="scale(0.015625)"/>
     <path id="DejaVuSerif-Bold-78" d="M 2247 2119 
L 2834 2944 
L 2425 2944 
L 2425 3322 
L 3719 3322 
L 3719 2944 
L 3278 2944 
L 2431 1759 
L 3419 378 
L 3859 378 
L 3859 0 
L 1747 0 
L 1747 378 
L 2175 378 
L 1550 1253 
L 922 378 
L 1369 378 
L 1369 0 
L 0 0 
L 0 378 
L 475 378 
L 1356 1619 
L 403 2944 
L 31 2944 
L 31 3322 
L 2059 3322 
L 2059 2944 
L 1656 2944 
L 2247 2119 
z
" transform="scale(0.015625)"/>
     <path id="DejaVuSerif-Bold-52" d="M 3397 2278 
Q 3675 2238 3865 2094 
Q 4056 1950 4197 1678 
L 4878 378 
L 5356 378 
L 5356 0 
L 3822 0 
L 3078 1409 
Q 2863 1847 2711 1967 
Q 2559 2088 2291 2088 
L 2100 2088 
L 2100 378 
L 2700 378 
L 2700 0 
L 300 0 
L 300 378 
L 897 378 
L 897 4288 
L 300 4288 
L 300 4666 
L 2963 4666 
Q 3775 4666 4217 4339 
Q 4659 4013 4659 3413 
Q 4659 2925 4345 2642 
Q 4031 2359 3397 2278 
z
M 2100 2463 
L 2509 2463 
Q 2947 2463 3183 2700 
Q 3419 2938 3419 3378 
Q 3419 3819 3183 4053 
Q 2947 4288 2509 4288 
L 2100 4288 
L 2100 2463 
z
" transform="scale(0.015625)"/>
     <path id="DejaVuSerif-Bold-63" d="M 3609 1038 
Q 3491 469 3123 189 
Q 2756 -91 2125 -91 
Q 1238 -91 750 368 
Q 263 828 263 1663 
Q 263 2488 744 2950 
Q 1225 3413 2081 3413 
Q 2428 3413 2781 3347 
Q 3134 3281 3500 3150 
L 3500 2228 
L 3150 2228 
Q 3100 2650 2903 2854 
Q 2706 3059 2350 3059 
Q 1888 3059 1692 2746 
Q 1497 2434 1497 1663 
Q 1497 909 1687 586 
Q 1878 263 2309 263 
Q 2644 263 2845 463 
Q 3047 663 3091 1038 
L 3609 1038 
z
" transform="scale(0.015625)"/>
     <path id="DejaVuSerif-Bold-4d" d="M 269 0 
L 269 378 
L 863 378 
L 863 4288 
L 269 4288 
L 269 4666 
L 2194 4666 
L 3525 1672 
L 4863 4666 
L 6784 4666 
L 6784 4288 
L 6188 4288 
L 6188 378 
L 6784 378 
L 6784 0 
L 4384 0 
L 4384 378 
L 4978 378 
L 4978 3938 
L 3531 684 
L 2741 684 
L 1300 3938 
L 1300 378 
L 1894 378 
L 1894 0 
L 269 0 
z
" transform="scale(0.015625)"/>
     <path id="DejaVuSerif-Bold-64" d="M 2747 1497 
L 2747 1825 
Q 2747 2406 2597 2665 
Q 2447 2925 2119 2925 
Q 1775 2925 1636 2651 
Q 1497 2378 1497 1663 
Q 1497 947 1637 672 
Q 1778 397 2119 397 
Q 2447 397 2597 656 
Q 2747 916 2747 1497 
z
M 3853 378 
L 4325 378 
L 4325 0 
L 2747 0 
L 2747 422 
Q 2606 163 2367 36 
Q 2128 -91 1778 -91 
Q 1072 -91 667 378 
Q 263 847 263 1663 
Q 263 2481 667 2947 
Q 1072 3413 1778 3413 
Q 2128 3413 2367 3286 
Q 2606 3159 2747 2900 
L 2747 4488 
L 2272 4488 
L 2272 4863 
L 3853 4863 
L 3853 378 
z
" transform="scale(0.015625)"/>
     <path id="DejaVuSerif-Bold-6c" d="M 1797 378 
L 2272 378 
L 2272 0 
L 219 0 
L 219 378 
L 691 378 
L 691 4488 
L 219 4488 
L 219 4863 
L 1797 4863 
L 1797 378 
z
" transform="scale(0.015625)"/>
     <path id="DejaVuSerif-Bold-4c" d="M 300 0 
L 300 378 
L 897 378 
L 897 4288 
L 300 4288 
L 300 4666 
L 2700 4666 
L 2700 4288 
L 2100 4288 
L 2100 428 
L 3938 428 
L 3938 1166 
L 4359 1166 
L 4359 0 
L 300 0 
z
" transform="scale(0.015625)"/>
     <path id="DejaVuSerif-Bold-66" d="M 3097 4031 
L 2747 4031 
Q 2722 4275 2605 4394 
Q 2488 4513 2272 4513 
Q 2022 4513 1909 4333 
Q 1797 4153 1797 3750 
L 1797 3322 
L 2631 3322 
L 2631 2944 
L 1797 2944 
L 1797 378 
L 2438 378 
L 2438 0 
L 219 0 
L 219 378 
L 691 378 
L 691 2944 
L 197 2944 
L 197 3322 
L 691 3322 
L 691 3738 
Q 691 4291 1044 4577 
Q 1397 4863 2081 4863 
Q 2347 4863 2600 4833 
Q 2853 4803 3097 4744 
L 3097 4031 
z
" transform="scale(0.015625)"/>
     <path id="DejaVuSerif-Bold-79" d="M 1997 -750 
Q 1847 -1116 1634 -1269 
Q 1422 -1422 1063 -1422 
Q 909 -1422 721 -1387 
Q 534 -1353 313 -1288 
L 313 -594 
L 666 -597 
Q 675 -838 779 -953 
Q 884 -1069 1094 -1069 
Q 1297 -1069 1422 -958 
Q 1547 -847 1672 -538 
L 1722 -422 
L 275 2944 
L -84 2944 
L -84 3322 
L 1831 3322 
L 1831 2944 
L 1434 2944 
L 2278 978 
L 3066 2944 
L 2625 2944 
L 2625 3322 
L 3872 3322 
L 3872 2944 
L 3469 2944 
L 1997 -750 
z
" transform="scale(0.015625)"/>
     <path id="DejaVuSerif-Bold-28" d="M 2694 -997 
Q 1641 -606 1122 122 
Q 603 850 603 1931 
Q 603 3013 1115 3731 
Q 1628 4450 2694 4863 
L 2694 4488 
Q 2200 4188 1983 3598 
Q 1766 3009 1766 1931 
Q 1766 856 1983 267 
Q 2200 -322 2694 -622 
L 2694 -997 
z
" transform="scale(0.015625)"/>
     <path id="DejaVuSerif-Bold-4f" d="M 2784 288 
Q 3381 288 3672 791 
Q 3963 1294 3963 2328 
Q 3963 3366 3672 3869 
Q 3381 4372 2784 4372 
Q 2191 4372 1898 3864 
Q 1606 3356 1606 2328 
Q 1606 1303 1898 795 
Q 2191 288 2784 288 
z
M 2784 -91 
Q 1606 -91 937 553 
Q 269 1197 269 2328 
Q 269 3459 939 4104 
Q 1609 4750 2784 4750 
Q 3963 4750 4631 4106 
Q 5300 3463 5300 2328 
Q 5300 1197 4629 553 
Q 3959 -91 2784 -91 
z
" transform="scale(0.015625)"/>
     <path id="DejaVuSerif-Bold-6e" d="M 219 0 
L 219 378 
L 691 378 
L 691 2944 
L 219 2944 
L 219 3322 
L 1797 3322 
L 1797 2853 
Q 1997 3150 2253 3281 
Q 2509 3413 2900 3413 
Q 3459 3413 3745 3083 
Q 4031 2753 4031 2113 
L 4031 378 
L 4506 378 
L 4506 0 
L 2522 0 
L 2522 378 
L 2925 378 
L 2925 2144 
Q 2925 2566 2817 2730 
Q 2709 2894 2444 2894 
Q 2109 2894 1953 2648 
Q 1797 2403 1797 1869 
L 1797 378 
L 2203 378 
L 2203 0 
L 219 0 
z
" transform="scale(0.015625)"/>
     <path id="DejaVuSerif-Bold-53" d="M 494 225 
L 494 1331 
L 891 1331 
Q 981 806 1318 547 
Q 1656 288 2253 288 
Q 2738 288 2991 472 
Q 3244 656 3244 1013 
Q 3244 1294 3072 1450 
Q 2900 1606 2363 1741 
L 1663 1913 
Q 978 2088 700 2398 
Q 422 2709 422 3284 
Q 422 3978 883 4364 
Q 1344 4750 2175 4750 
Q 2584 4750 3026 4681 
Q 3469 4613 3944 4475 
L 3944 3444 
L 3547 3444 
Q 3456 3925 3150 4148 
Q 2844 4372 2278 4372 
Q 1816 4372 1580 4211 
Q 1344 4050 1344 3731 
Q 1344 3441 1506 3289 
Q 1669 3138 2303 2975 
L 3003 2803 
Q 3653 2641 3945 2297 
Q 4238 1953 4238 1350 
Q 4238 644 3750 276 
Q 3263 -91 2316 -91 
Q 1859 -91 1409 -12 
Q 959 66 494 225 
z
" transform="scale(0.015625)"/>
     <path id="DejaVuSerif-Bold-6d" d="M 3884 2778 
Q 4116 3109 4384 3261 
Q 4653 3413 5013 3413 
Q 5584 3413 5867 3089 
Q 6150 2766 6150 2113 
L 6150 378 
L 6625 378 
L 6625 0 
L 4647 0 
L 4647 378 
L 5044 378 
L 5044 1947 
Q 5044 2569 4948 2731 
Q 4853 2894 4594 2894 
Q 4300 2894 4137 2667 
Q 3975 2441 3975 2022 
L 3975 378 
L 4372 378 
L 4372 0 
L 2472 0 
L 2472 378 
L 2869 378 
L 2869 1947 
Q 2869 2569 2772 2731 
Q 2675 2894 2419 2894 
Q 2122 2894 1959 2667 
Q 1797 2441 1797 2022 
L 1797 378 
L 2194 378 
L 2194 0 
L 219 0 
L 219 378 
L 691 378 
L 691 2944 
L 219 2944 
L 219 3322 
L 1797 3322 
L 1797 2853 
Q 1991 3144 2241 3278 
Q 2491 3413 2834 3413 
Q 3241 3413 3494 3258 
Q 3747 3103 3884 2778 
z
" transform="scale(0.015625)"/>
     <path id="DejaVuSerif-Bold-70" d="M 1728 1825 
L 1728 1497 
Q 1728 916 1876 656 
Q 2025 397 2356 397 
Q 2697 397 2836 672 
Q 2975 947 2975 1663 
Q 2975 2378 2836 2651 
Q 2697 2925 2356 2925 
Q 2025 2925 1876 2665 
Q 1728 2406 1728 1825 
z
M 622 2944 
L 147 2944 
L 147 3322 
L 1728 3322 
L 1728 2900 
Q 1869 3159 2106 3286 
Q 2344 3413 2694 3413 
Q 3403 3413 3811 2945 
Q 4219 2478 4219 1663 
Q 4219 847 3811 378 
Q 3403 -91 2694 -91 
Q 2344 -91 2106 36 
Q 1869 163 1728 422 
L 1728 -953 
L 2241 -953 
L 2241 -1331 
L 147 -1331 
L 147 -953 
L 622 -953 
L 622 2944 
z
" transform="scale(0.015625)"/>
     <path id="DejaVuSerif-Bold-29" d="M 325 -997 
L 325 -622 
Q 819 -322 1036 267 
Q 1253 856 1253 1931 
Q 1253 3009 1036 3598 
Q 819 4188 325 4488 
L 325 4863 
Q 1391 4450 1905 3731 
Q 2419 3013 2419 1931 
Q 2419 850 1898 122 
Q 1378 -606 325 -997 
z
" transform="scale(0.015625)"/>
    </defs>
    <use xlink:href="#DejaVuSerif-Bold-46"/>
    <use xlink:href="#DejaVuSerif-Bold-69" transform="translate(70.996094 0)"/>
    <use xlink:href="#DejaVuSerif-Bold-67" transform="translate(108.984375 0)"/>
    <use xlink:href="#DejaVuSerif-Bold-75" transform="translate(178.90625 0)"/>
    <use xlink:href="#DejaVuSerif-Bold-72" transform="translate(251.611328 0)"/>
    <use xlink:href="#DejaVuSerif-Bold-65" transform="translate(304.296875 0)"/>
    <use xlink:href="#DejaVuSerif-Bold-20" transform="translate(367.919922 0)"/>
    <use xlink:href="#DejaVuSerif-Bold-32" transform="translate(402.734375 0)"/>
    <use xlink:href="#DejaVuSerif-Bold-2e" transform="translate(472.314453 0)"/>
    <use xlink:href="#DejaVuSerif-Bold-20" transform="translate(507.128906 0)"/>
    <use xlink:href="#DejaVuSerif-Bold-57" transform="translate(541.943359 0)"/>
    <use xlink:href="#DejaVuSerif-Bold-68" transform="translate(654.248047 0)"/>
    <use xlink:href="#DejaVuSerif-Bold-69" transform="translate(726.953125 0)"/>
    <use xlink:href="#DejaVuSerif-Bold-74" transform="translate(764.941406 0)"/>
    <use xlink:href="#DejaVuSerif-Bold-65" transform="translate(811.132812 0)"/>
    <use xlink:href="#DejaVuSerif-Bold-2d" transform="translate(874.755859 0)"/>
    <use xlink:href="#DejaVuSerif-Bold-42" transform="translate(916.259766 0)"/>
    <use xlink:href="#DejaVuSerif-Bold-6f" transform="translate(1000.78125 0)"/>
    <use xlink:href="#DejaVuSerif-Bold-78" transform="translate(1067.480469 0)"/>
    <use xlink:href="#DejaVuSerif-Bold-20" transform="translate(1127.099609 0)"/>
    <use xlink:href="#DejaVuSerif-Bold-52" transform="translate(1161.914062 0)"/>
    <use xlink:href="#DejaVuSerif-Bold-65" transform="translate(1245.019531 0)"/>
    <use xlink:href="#DejaVuSerif-Bold-73" transform="translate(1308.642578 0)"/>
    <use xlink:href="#DejaVuSerif-Bold-65" transform="translate(1364.941406 0)"/>
    <use xlink:href="#DejaVuSerif-Bold-61" transform="translate(1428.564453 0)"/>
    <use xlink:href="#DejaVuSerif-Bold-72" transform="translate(1493.359375 0)"/>
    <use xlink:href="#DejaVuSerif-Bold-63" transform="translate(1546.044922 0)"/>
    <use xlink:href="#DejaVuSerif-Bold-68" transform="translate(1606.933594 0)"/>
    <use xlink:href="#DejaVuSerif-Bold-20" transform="translate(1679.638672 0)"/>
    <use xlink:href="#DejaVuSerif-Bold-4d" transform="translate(1714.453125 0)"/>
    <use xlink:href="#DejaVuSerif-Bold-6f" transform="translate(1825.146484 0)"/>
    <use xlink:href="#DejaVuSerif-Bold-64" transform="translate(1891.845703 0)"/>
    <use xlink:href="#DejaVuSerif-Bold-65" transform="translate(1961.767578 0)"/>
    <use xlink:href="#DejaVuSerif-Bold-6c" transform="translate(2025.390625 0)"/>
    <use xlink:href="#DejaVuSerif-Bold-20" transform="translate(2063.378906 0)"/>
    <use xlink:href="#DejaVuSerif-Bold-4c" transform="translate(2098.193359 0)"/>
    <use xlink:href="#DejaVuSerif-Bold-69" transform="translate(2168.505859 0)"/>
    <use xlink:href="#DejaVuSerif-Bold-66" transform="translate(2206.494141 0)"/>
    <use xlink:href="#DejaVuSerif-Bold-65" transform="translate(2249.511719 0)"/>
    <use xlink:href="#DejaVuSerif-Bold-63" transform="translate(2313.134766 0)"/>
    <use xlink:href="#DejaVuSerif-Bold-79" transform="translate(2374.023438 0)"/>
    <use xlink:href="#DejaVuSerif-Bold-63" transform="translate(2432.128906 0)"/>
    <use xlink:href="#DejaVuSerif-Bold-6c" transform="translate(2493.017578 0)"/>
    <use xlink:href="#DejaVuSerif-Bold-65" transform="translate(2531.005859 0)"/>
    <use xlink:href="#DejaVuSerif-Bold-20" transform="translate(2594.628906 0)"/>
    <use xlink:href="#DejaVuSerif-Bold-28" transform="translate(2629.443359 0)"/>
    <use xlink:href="#DejaVuSerif-Bold-4f" transform="translate(2676.757812 0)"/>
    <use xlink:href="#DejaVuSerif-Bold-6e" transform="translate(2763.867188 0)"/>
    <use xlink:href="#DejaVuSerif-Bold-65" transform="translate(2836.572266 0)"/>
    <use xlink:href="#DejaVuSerif-Bold-20" transform="translate(2900.195312 0)"/>
    <use xlink:href="#DejaVuSerif-Bold-53" transform="translate(2935.009766 0)"/>
    <use xlink:href="#DejaVuSerif-Bold-69" transform="translate(3007.226562 0)"/>
    <use xlink:href="#DejaVuSerif-Bold-6d" transform="translate(3045.214844 0)"/>
    <use xlink:href="#DejaVuSerif-Bold-75" transform="translate(3151.025391 0)"/>
    <use xlink:href="#DejaVuSerif-Bold-6c" transform="translate(3223.730469 0)"/>
    <use xlink:href="#DejaVuSerif-Bold-61" transform="translate(3261.71875 0)"/>
    <use xlink:href="#DejaVuSerif-Bold-74" transform="translate(3326.513672 0)"/>
    <use xlink:href="#DejaVuSerif-Bold-69" transform="translate(3372.705078 0)"/>
    <use xlink:href="#DejaVuSerif-Bold-6f" transform="translate(3410.693359 0)"/>
    <use xlink:href="#DejaVuSerif-Bold-6e" transform="translate(3477.392578 0)"/>
    <use xlink:href="#DejaVuSerif-Bold-20" transform="translate(3550.097656 0)"/>
    <use xlink:href="#DejaVuSerif-Bold-53" transform="translate(3584.912109 0)"/>
    <use xlink:href="#DejaVuSerif-Bold-74" transform="translate(3657.128906 0)"/>
    <use xlink:href="#DejaVuSerif-Bold-65" transform="translate(3703.320312 0)"/>
    <use xlink:href="#DejaVuSerif-Bold-70" transform="translate(3766.943359 0)"/>
    <use xlink:href="#DejaVuSerif-Bold-29" transform="translate(3836.865234 0)"/>
   </g>
  </g>
 </g>
</svg>
