<?xml version="1.0" encoding="utf-8" standalone="no"?>
<!DOCTYPE svg PUBLIC "-//W3C//DTD SVG 1.1//EN"
  "http://www.w3.org/Graphics/SVG/1.1/DTD/svg11.dtd">
<svg xmlns:xlink="http://www.w3.org/1999/xlink" width="959.634141pt" height="398.485757pt" viewBox="0 0 959.634141 398.485757" xmlns="http://www.w3.org/2000/svg" version="1.1">
 <metadata>
  <rdf:RDF xmlns:dc="http://purl.org/dc/elements/1.1/" xmlns:cc="http://creativecommons.org/ns#" xmlns:rdf="http://www.w3.org/1999/02/22-rdf-syntax-ns#">
   <cc:Work>
    <dc:type rdf:resource="http://purl.org/dc/dcmitype/StillImage"/>
    <dc:date>2026-04-02T18:38:14.398696</dc:date>
    <dc:format>image/svg+xml</dc:format>
    <dc:creator>
     <cc:Agent>
      <dc:title>Matplotlib v3.10.8, https://matplotlib.org/</dc:title>
     </cc:Agent>
    </dc:creator>
   </cc:Work>
  </rdf:RDF>
 </metadata>
 <defs>
  <style type="text/css">*{stroke-linejoin: round; stroke-linecap: butt}</style>
 </defs>
 <g id="figure_1">
  <g id="patch_1">
   <path d="M 0 398.485757 
L 959.634141 398.485757 
L 959.634141 0 
L 0 0 
z
" style="fill: #ffffff"/>
  </g>
  <g id="axes_1">
   <g id="patch_2">
    <path d="M 42.824141 358.108771 
L 474.264141 358.108771 
L 474.264141 54.88525 
L 42.824141 54.88525 
z
" style="fill: #fafafa"/>
   </g>
   <g id="matplotlib.axis_1">
    <g id="xtick_1">
     <g id="line2d_1">
      <path d="M 71.773578 358.108771 
L 71.773578 54.88525 
" clip-path="url(#pbc7fc15a40)" style="fill: none; stroke: #eeeeee; stroke-opacity: 0.75; stroke-width: 0.6; stroke-linecap: square"/>
     </g>
     <g id="line2d_2">
      <defs>
       <path id="m19cde35f5c" d="M 0 0 
L 0 3.5 
" style="stroke: #333333; stroke-width: 0.8"/>
      </defs>
      <g>
       <use xlink:href="#m19cde35f5c" x="71.773578" y="358.108771" style="fill: #333333; stroke: #333333; stroke-width: 0.8"/>
      </g>
     </g>
     <g id="text_1">
      <!-- Default -->
      <g style="fill: #333333" transform="translate(39.62361 383.003577) rotate(-20) scale(0.09 -0.09)">
       <defs>
        <path id="DejaVuSerif-44" d="M 1581 331 
L 2163 331 
Q 3072 331 3558 850 
Q 4044 1369 4044 2338 
Q 4044 3306 3559 3818 
Q 3075 4331 2163 4331 
L 1581 4331 
L 1581 331 
z
M 353 0 
L 353 331 
L 947 331 
L 947 4331 
L 353 4331 
L 353 4666 
L 2209 4666 
Q 3416 4666 4089 4050 
Q 4763 3434 4763 2338 
Q 4763 1238 4088 619 
Q 3413 0 2209 0 
L 353 0 
z
" transform="scale(0.015625)"/>
        <path id="DejaVuSerif-65" d="M 3469 1600 
L 991 1600 
L 991 1575 
Q 991 903 1244 561 
Q 1497 219 1991 219 
Q 2369 219 2611 417 
Q 2853 616 2950 1006 
L 3413 1006 
Q 3275 459 2904 184 
Q 2534 -91 1931 -91 
Q 1203 -91 761 389 
Q 319 869 319 1663 
Q 319 2450 753 2931 
Q 1188 3413 1894 3413 
Q 2647 3413 3050 2948 
Q 3453 2484 3469 1600 
z
M 2791 1931 
Q 2772 2513 2545 2808 
Q 2319 3103 1894 3103 
Q 1497 3103 1269 2806 
Q 1041 2509 991 1931 
L 2791 1931 
z
" transform="scale(0.015625)"/>
        <path id="DejaVuSerif-66" d="M 2753 4078 
L 2450 4078 
Q 2447 4313 2317 4434 
Q 2188 4556 1941 4556 
Q 1619 4556 1487 4379 
Q 1356 4203 1356 3750 
L 1356 3322 
L 2284 3322 
L 2284 2988 
L 1356 2988 
L 1356 331 
L 2094 331 
L 2094 0 
L 231 0 
L 231 331 
L 781 331 
L 781 2988 
L 231 2988 
L 231 3322 
L 781 3322 
L 781 3738 
Q 781 4294 1070 4578 
Q 1359 4863 1919 4863 
Q 2128 4863 2337 4825 
Q 2547 4788 2753 4709 
L 2753 4078 
z
" transform="scale(0.015625)"/>
        <path id="DejaVuSerif-61" d="M 2547 1044 
L 2547 1747 
L 1806 1747 
Q 1378 1747 1168 1562 
Q 959 1378 959 997 
Q 959 650 1171 447 
Q 1384 244 1747 244 
Q 2106 244 2326 466 
Q 2547 688 2547 1044 
z
M 3122 2075 
L 3122 331 
L 3634 331 
L 3634 0 
L 2547 0 
L 2547 359 
Q 2356 128 2106 18 
Q 1856 -91 1522 -91 
Q 969 -91 644 203 
Q 319 497 319 997 
Q 319 1513 691 1797 
Q 1063 2081 1741 2081 
L 2547 2081 
L 2547 2309 
Q 2547 2688 2317 2895 
Q 2088 3103 1672 3103 
Q 1328 3103 1125 2947 
Q 922 2791 872 2484 
L 575 2484 
L 575 3156 
Q 875 3284 1158 3348 
Q 1441 3413 1709 3413 
Q 2400 3413 2761 3070 
Q 3122 2728 3122 2075 
z
" transform="scale(0.015625)"/>
        <path id="DejaVuSerif-75" d="M 2266 3322 
L 3341 3322 
L 3341 331 
L 3884 331 
L 3884 0 
L 2766 0 
L 2766 588 
Q 2606 256 2353 82 
Q 2100 -91 1766 -91 
Q 1213 -91 952 223 
Q 691 538 691 1209 
L 691 2988 
L 172 2988 
L 172 3322 
L 1269 3322 
L 1269 1388 
Q 1269 781 1417 556 
Q 1566 331 1947 331 
Q 2347 331 2556 625 
Q 2766 919 2766 1478 
L 2766 2988 
L 2266 2988 
L 2266 3322 
z
" transform="scale(0.015625)"/>
        <path id="DejaVuSerif-6c" d="M 1313 331 
L 1856 331 
L 1856 0 
L 184 0 
L 184 331 
L 738 331 
L 738 4531 
L 184 4531 
L 184 4863 
L 1313 4863 
L 1313 331 
z
" transform="scale(0.015625)"/>
        <path id="DejaVuSerif-74" d="M 691 2988 
L 184 2988 
L 184 3322 
L 691 3322 
L 691 4353 
L 1269 4353 
L 1269 3322 
L 2350 3322 
L 2350 2988 
L 1269 2988 
L 1269 878 
Q 1269 456 1350 337 
Q 1431 219 1650 219 
Q 1875 219 1978 351 
Q 2081 484 2088 781 
L 2522 781 
Q 2497 328 2275 118 
Q 2053 -91 1600 -91 
Q 1103 -91 897 129 
Q 691 350 691 878 
L 691 2988 
z
" transform="scale(0.015625)"/>
       </defs>
       <use xlink:href="#DejaVuSerif-44"/>
       <use xlink:href="#DejaVuSerif-65" transform="translate(80.175781 0)"/>
       <use xlink:href="#DejaVuSerif-66" transform="translate(139.355469 0)"/>
       <use xlink:href="#DejaVuSerif-61" transform="translate(176.367188 0)"/>
       <use xlink:href="#DejaVuSerif-75" transform="translate(235.986328 0)"/>
       <use xlink:href="#DejaVuSerif-6c" transform="translate(300.390625 0)"/>
       <use xlink:href="#DejaVuSerif-74" transform="translate(332.373047 0)"/>
      </g>
     </g>
    </g>
    <g id="xtick_2">
     <g id="line2d_3">
      <path d="M 165.158859 358.108771 
L 165.158859 54.88525 
" clip-path="url(#pbc7fc15a40)" style="fill: none; stroke: #eeeeee; stroke-opacity: 0.75; stroke-width: 0.6; stroke-linecap: square"/>
     </g>
     <g id="line2d_4">
      <g>
       <use xlink:href="#m19cde35f5c" x="165.158859" y="358.108771" style="fill: #333333; stroke: #333333; stroke-width: 0.8"/>
      </g>
     </g>
     <g id="text_2">
      <!-- Edge -->
      <g style="fill: #333333" transform="translate(142.467618 379.544952) rotate(-20) scale(0.09 -0.09)">
       <defs>
        <path id="DejaVuSerif-45" d="M 353 0 
L 353 331 
L 947 331 
L 947 4331 
L 353 4331 
L 353 4666 
L 4109 4666 
L 4109 3628 
L 3725 3628 
L 3725 4281 
L 1581 4281 
L 1581 2719 
L 3109 2719 
L 3109 3303 
L 3494 3303 
L 3494 1753 
L 3109 1753 
L 3109 2338 
L 1581 2338 
L 1581 384 
L 3775 384 
L 3775 1038 
L 4159 1038 
L 4159 0 
L 353 0 
z
" transform="scale(0.015625)"/>
        <path id="DejaVuSerif-64" d="M 3359 331 
L 3909 331 
L 3909 0 
L 2784 0 
L 2784 519 
Q 2616 206 2355 57 
Q 2094 -91 1709 -91 
Q 1097 -91 708 395 
Q 319 881 319 1663 
Q 319 2444 706 2928 
Q 1094 3413 1709 3413 
Q 2094 3413 2355 3264 
Q 2616 3116 2784 2803 
L 2784 4531 
L 2241 4531 
L 2241 4863 
L 3359 4863 
L 3359 331 
z
M 2784 1497 
L 2784 1825 
Q 2784 2422 2554 2737 
Q 2325 3053 1888 3053 
Q 1444 3053 1217 2703 
Q 991 2353 991 1663 
Q 991 975 1217 622 
Q 1444 269 1888 269 
Q 2325 269 2554 583 
Q 2784 897 2784 1497 
z
" transform="scale(0.015625)"/>
        <path id="DejaVuSerif-67" d="M 3359 2988 
L 3359 72 
Q 3359 -644 2965 -1033 
Q 2572 -1422 1844 -1422 
Q 1516 -1422 1216 -1362 
Q 916 -1303 641 -1184 
L 641 -488 
L 941 -488 
Q 997 -813 1206 -963 
Q 1416 -1113 1806 -1113 
Q 2313 -1113 2548 -827 
Q 2784 -541 2784 72 
L 2784 519 
Q 2616 206 2355 57 
Q 2094 -91 1709 -91 
Q 1097 -91 708 395 
Q 319 881 319 1663 
Q 319 2444 706 2928 
Q 1094 3413 1709 3413 
Q 2094 3413 2355 3264 
Q 2616 3116 2784 2803 
L 2784 3322 
L 3909 3322 
L 3909 2988 
L 3359 2988 
z
M 2784 1825 
Q 2784 2422 2554 2737 
Q 2325 3053 1888 3053 
Q 1444 3053 1217 2703 
Q 991 2353 991 1663 
Q 991 975 1217 622 
Q 1444 269 1888 269 
Q 2325 269 2554 583 
Q 2784 897 2784 1497 
L 2784 1825 
z
" transform="scale(0.015625)"/>
       </defs>
       <use xlink:href="#DejaVuSerif-45"/>
       <use xlink:href="#DejaVuSerif-64" transform="translate(72.998047 0)"/>
       <use xlink:href="#DejaVuSerif-67" transform="translate(137.011719 0)"/>
       <use xlink:href="#DejaVuSerif-65" transform="translate(201.025391 0)"/>
      </g>
     </g>
    </g>
    <g id="xtick_3">
     <g id="line2d_5">
      <path d="M 258.544141 358.108771 
L 258.544141 54.88525 
" clip-path="url(#pbc7fc15a40)" style="fill: none; stroke: #eeeeee; stroke-opacity: 0.75; stroke-width: 0.6; stroke-linecap: square"/>
     </g>
     <g id="line2d_6">
      <g>
       <use xlink:href="#m19cde35f5c" x="258.544141" y="358.108771" style="fill: #333333; stroke: #333333; stroke-width: 0.8"/>
      </g>
     </g>
     <g id="text_3">
      <!-- Overloaded -->
      <g style="fill: #333333" transform="translate(208.471445 389.526917) rotate(-20) scale(0.09 -0.09)">
       <defs>
        <path id="DejaVuSerif-4f" d="M 2625 244 
Q 3391 244 3781 770 
Q 4172 1297 4172 2328 
Q 4172 3363 3781 3889 
Q 3391 4416 2625 4416 
Q 1856 4416 1465 3889 
Q 1075 3363 1075 2328 
Q 1075 1297 1465 770 
Q 1856 244 2625 244 
z
M 2625 -91 
Q 2150 -91 1751 65 
Q 1353 222 1050 525 
Q 700 875 529 1319 
Q 359 1763 359 2328 
Q 359 2894 529 3339 
Q 700 3784 1050 4134 
Q 1356 4441 1750 4595 
Q 2144 4750 2625 4750 
Q 3641 4750 4266 4084 
Q 4891 3419 4891 2328 
Q 4891 1769 4719 1320 
Q 4547 872 4197 525 
Q 3891 219 3497 64 
Q 3103 -91 2625 -91 
z
" transform="scale(0.015625)"/>
        <path id="DejaVuSerif-76" d="M 1581 0 
L 359 2988 
L -19 2988 
L -19 3322 
L 1509 3322 
L 1509 2988 
L 978 2988 
L 1913 703 
L 2847 2988 
L 2350 2988 
L 2350 3322 
L 3597 3322 
L 3597 2988 
L 3225 2988 
L 2003 0 
L 1581 0 
z
" transform="scale(0.015625)"/>
        <path id="DejaVuSerif-72" d="M 3059 3328 
L 3059 2497 
L 2728 2497 
Q 2713 2744 2591 2866 
Q 2469 2988 2234 2988 
Q 1809 2988 1582 2694 
Q 1356 2400 1356 1850 
L 1356 331 
L 2022 331 
L 2022 0 
L 263 0 
L 263 331 
L 781 331 
L 781 2994 
L 231 2994 
L 231 3322 
L 1356 3322 
L 1356 2731 
Q 1525 3078 1790 3245 
Q 2056 3413 2438 3413 
Q 2578 3413 2733 3391 
Q 2888 3369 3059 3328 
z
" transform="scale(0.015625)"/>
        <path id="DejaVuSerif-6f" d="M 1925 219 
Q 2388 219 2623 584 
Q 2859 950 2859 1663 
Q 2859 2375 2623 2739 
Q 2388 3103 1925 3103 
Q 1463 3103 1227 2739 
Q 991 2375 991 1663 
Q 991 950 1228 584 
Q 1466 219 1925 219 
z
M 1925 -91 
Q 1200 -91 759 389 
Q 319 869 319 1663 
Q 319 2456 758 2934 
Q 1197 3413 1925 3413 
Q 2653 3413 3092 2934 
Q 3531 2456 3531 1663 
Q 3531 869 3092 389 
Q 2653 -91 1925 -91 
z
" transform="scale(0.015625)"/>
       </defs>
       <use xlink:href="#DejaVuSerif-4f"/>
       <use xlink:href="#DejaVuSerif-76" transform="translate(81.982422 0)"/>
       <use xlink:href="#DejaVuSerif-65" transform="translate(138.476562 0)"/>
       <use xlink:href="#DejaVuSerif-72" transform="translate(197.65625 0)"/>
       <use xlink:href="#DejaVuSerif-6c" transform="translate(245.458984 0)"/>
       <use xlink:href="#DejaVuSerif-6f" transform="translate(277.441406 0)"/>
       <use xlink:href="#DejaVuSerif-61" transform="translate(337.646484 0)"/>
       <use xlink:href="#DejaVuSerif-64" transform="translate(397.265625 0)"/>
       <use xlink:href="#DejaVuSerif-65" transform="translate(461.279297 0)"/>
       <use xlink:href="#DejaVuSerif-64" transform="translate(520.458984 0)"/>
      </g>
     </g>
    </g>
    <g id="xtick_4">
     <g id="line2d_7">
      <path d="M 351.929422 358.108771 
L 351.929422 54.88525 
" clip-path="url(#pbc7fc15a40)" style="fill: none; stroke: #eeeeee; stroke-opacity: 0.75; stroke-width: 0.6; stroke-linecap: square"/>
     </g>
     <g id="line2d_8">
      <g>
       <use xlink:href="#m19cde35f5c" x="351.929422" y="358.108771" style="fill: #333333; stroke: #333333; stroke-width: 0.8"/>
      </g>
     </g>
     <g id="text_4">
      <!-- Type A -->
      <g style="fill: #333333" transform="translate(321.610814 382.200836) rotate(-20) scale(0.09 -0.09)">
       <defs>
        <path id="DejaVuSerif-54" d="M 1222 0 
L 1222 331 
L 1819 331 
L 1819 4294 
L 447 4294 
L 447 3566 
L 63 3566 
L 63 4666 
L 4206 4666 
L 4206 3566 
L 3822 3566 
L 3822 4294 
L 2450 4294 
L 2450 331 
L 3047 331 
L 3047 0 
L 1222 0 
z
" transform="scale(0.015625)"/>
        <path id="DejaVuSerif-79" d="M 1381 -609 
L 1600 -56 
L 359 2988 
L -19 2988 
L -19 3322 
L 1509 3322 
L 1509 2988 
L 978 2988 
L 1913 703 
L 2847 2988 
L 2350 2988 
L 2350 3322 
L 3597 3322 
L 3597 2988 
L 3225 2988 
L 1703 -750 
Q 1547 -1138 1356 -1280 
Q 1166 -1422 819 -1422 
Q 672 -1422 517 -1397 
Q 363 -1372 206 -1325 
L 206 -691 
L 500 -691 
Q 519 -903 608 -995 
Q 697 -1088 884 -1088 
Q 1056 -1088 1161 -992 
Q 1266 -897 1381 -609 
z
" transform="scale(0.015625)"/>
        <path id="DejaVuSerif-70" d="M 1313 1825 
L 1313 1497 
Q 1313 897 1542 583 
Q 1772 269 2209 269 
Q 2650 269 2876 622 
Q 3103 975 3103 1663 
Q 3103 2353 2876 2703 
Q 2650 3053 2209 3053 
Q 1772 3053 1542 2737 
Q 1313 2422 1313 1825 
z
M 738 2988 
L 184 2988 
L 184 3322 
L 1313 3322 
L 1313 2803 
Q 1481 3116 1742 3264 
Q 2003 3413 2388 3413 
Q 3000 3413 3387 2928 
Q 3775 2444 3775 1663 
Q 3775 881 3387 395 
Q 3000 -91 2388 -91 
Q 2003 -91 1742 57 
Q 1481 206 1313 519 
L 1313 -997 
L 1856 -997 
L 1856 -1331 
L 184 -1331 
L 184 -997 
L 738 -997 
L 738 2988 
z
" transform="scale(0.015625)"/>
        <path id="DejaVuSerif-20" transform="scale(0.015625)"/>
        <path id="DejaVuSerif-41" d="M 1281 1691 
L 2994 1691 
L 2138 3909 
L 1281 1691 
z
M -38 0 
L -38 331 
L 372 331 
L 2034 4666 
L 2559 4666 
L 4225 331 
L 4684 331 
L 4684 0 
L 2988 0 
L 2988 331 
L 3506 331 
L 3116 1356 
L 1153 1356 
L 763 331 
L 1275 331 
L 1275 0 
L -38 0 
z
" transform="scale(0.015625)"/>
       </defs>
       <use xlink:href="#DejaVuSerif-54"/>
       <use xlink:href="#DejaVuSerif-79" transform="translate(66.699219 0)"/>
       <use xlink:href="#DejaVuSerif-70" transform="translate(123.193359 0)"/>
       <use xlink:href="#DejaVuSerif-65" transform="translate(187.207031 0)"/>
       <use xlink:href="#DejaVuSerif-20" transform="translate(246.386719 0)"/>
       <use xlink:href="#DejaVuSerif-41" transform="translate(278.173828 0)"/>
      </g>
     </g>
    </g>
    <g id="xtick_5">
     <g id="line2d_9">
      <path d="M 445.314703 358.108771 
L 445.314703 54.88525 
" clip-path="url(#pbc7fc15a40)" style="fill: none; stroke: #eeeeee; stroke-opacity: 0.75; stroke-width: 0.6; stroke-linecap: square"/>
     </g>
     <g id="line2d_10">
      <g>
       <use xlink:href="#m19cde35f5c" x="445.314703" y="358.108771" style="fill: #333333; stroke: #333333; stroke-width: 0.8"/>
      </g>
     </g>
     <g id="text_5">
      <!-- Type B -->
      <g style="fill: #333333" transform="translate(414.889058 382.239794) rotate(-20) scale(0.09 -0.09)">
       <defs>
        <path id="DejaVuSerif-42" d="M 1581 331 
L 2516 331 
Q 3078 331 3337 575 
Q 3597 819 3597 1350 
Q 3597 1878 3339 2120 
Q 3081 2363 2516 2363 
L 1581 2363 
L 1581 331 
z
M 1581 2694 
L 2375 2694 
Q 2888 2694 3123 2891 
Q 3359 3088 3359 3513 
Q 3359 3941 3123 4136 
Q 2888 4331 2375 4331 
L 1581 4331 
L 1581 2694 
z
M 353 0 
L 353 331 
L 947 331 
L 947 4331 
L 353 4331 
L 353 4666 
L 2656 4666 
Q 3363 4666 3720 4377 
Q 4078 4088 4078 3513 
Q 4078 3097 3829 2850 
Q 3581 2603 3103 2547 
Q 3697 2472 4005 2167 
Q 4313 1863 4313 1350 
Q 4313 656 3875 328 
Q 3438 0 2509 0 
L 353 0 
z
" transform="scale(0.015625)"/>
       </defs>
       <use xlink:href="#DejaVuSerif-54"/>
       <use xlink:href="#DejaVuSerif-79" transform="translate(66.699219 0)"/>
       <use xlink:href="#DejaVuSerif-70" transform="translate(123.193359 0)"/>
       <use xlink:href="#DejaVuSerif-65" transform="translate(187.207031 0)"/>
       <use xlink:href="#DejaVuSerif-20" transform="translate(246.386719 0)"/>
       <use xlink:href="#DejaVuSerif-42" transform="translate(278.173828 0)"/>
      </g>
     </g>
    </g>
   </g>
   <g id="matplotlib.axis_2">
    <g id="ytick_1">
     <g id="line2d_11">
      <path d="M 42.824141 349.686305 
L 474.264141 349.686305 
" clip-path="url(#pbc7fc15a40)" style="fill: none; stroke: #eeeeee; stroke-opacity: 0.75; stroke-width: 0.6; stroke-linecap: square"/>
     </g>
     <g id="line2d_12">
      <defs>
       <path id="mff904ef5c7" d="M 0 0 
L -3.5 0 
" style="stroke: #333333; stroke-width: 0.8"/>
      </defs>
      <g>
       <use xlink:href="#mff904ef5c7" x="42.824141" y="349.686305" style="fill: #333333; stroke: #333333; stroke-width: 0.8"/>
      </g>
     </g>
     <g id="text_6">
      <!-- 0.0 -->
      <g style="fill: #333333" transform="translate(21.511328 353.105602) scale(0.09 -0.09)">
       <defs>
        <path id="DejaVuSerif-30" d="M 2034 219 
Q 2513 219 2750 744 
Q 2988 1269 2988 2328 
Q 2988 3391 2750 3916 
Q 2513 4441 2034 4441 
Q 1556 4441 1318 3916 
Q 1081 3391 1081 2328 
Q 1081 1269 1318 744 
Q 1556 219 2034 219 
z
M 2034 -91 
Q 1275 -91 848 546 
Q 422 1184 422 2328 
Q 422 3475 848 4112 
Q 1275 4750 2034 4750 
Q 2797 4750 3222 4112 
Q 3647 3475 3647 2328 
Q 3647 1184 3222 546 
Q 2797 -91 2034 -91 
z
" transform="scale(0.015625)"/>
        <path id="DejaVuSerif-2e" d="M 603 325 
Q 603 500 722 622 
Q 841 744 1019 744 
Q 1191 744 1312 622 
Q 1434 500 1434 325 
Q 1434 153 1312 31 
Q 1191 -91 1019 -91 
Q 841 -91 722 29 
Q 603 150 603 325 
z
" transform="scale(0.015625)"/>
       </defs>
       <use xlink:href="#DejaVuSerif-30"/>
       <use xlink:href="#DejaVuSerif-2e" transform="translate(63.623047 0)"/>
       <use xlink:href="#DejaVuSerif-30" transform="translate(95.410156 0)"/>
      </g>
     </g>
    </g>
    <g id="ytick_2">
     <g id="line2d_13">
      <path d="M 42.824141 293.482672 
L 474.264141 293.482672 
" clip-path="url(#pbc7fc15a40)" style="fill: none; stroke: #eeeeee; stroke-opacity: 0.75; stroke-width: 0.6; stroke-linecap: square"/>
     </g>
     <g id="line2d_14">
      <g>
       <use xlink:href="#mff904ef5c7" x="42.824141" y="293.482672" style="fill: #333333; stroke: #333333; stroke-width: 0.8"/>
      </g>
     </g>
     <g id="text_7">
      <!-- 0.2 -->
      <g style="fill: #333333" transform="translate(21.511328 296.901969) scale(0.09 -0.09)">
       <defs>
        <path id="DejaVuSerif-32" d="M 819 3553 
L 469 3553 
L 469 4384 
Q 803 4563 1142 4656 
Q 1481 4750 1806 4750 
Q 2534 4750 2956 4397 
Q 3378 4044 3378 3438 
Q 3378 2753 2422 1800 
Q 2347 1728 2309 1691 
L 1131 513 
L 3078 513 
L 3078 1088 
L 3444 1088 
L 3444 0 
L 434 0 
L 434 341 
L 1850 1753 
Q 2319 2222 2519 2614 
Q 2719 3006 2719 3438 
Q 2719 3909 2473 4175 
Q 2228 4441 1797 4441 
Q 1350 4441 1106 4219 
Q 863 3997 819 3553 
z
" transform="scale(0.015625)"/>
       </defs>
       <use xlink:href="#DejaVuSerif-30"/>
       <use xlink:href="#DejaVuSerif-2e" transform="translate(63.623047 0)"/>
       <use xlink:href="#DejaVuSerif-32" transform="translate(95.410156 0)"/>
      </g>
     </g>
    </g>
    <g id="ytick_3">
     <g id="line2d_15">
      <path d="M 42.824141 237.279038 
L 474.264141 237.279038 
" clip-path="url(#pbc7fc15a40)" style="fill: none; stroke: #eeeeee; stroke-opacity: 0.75; stroke-width: 0.6; stroke-linecap: square"/>
     </g>
     <g id="line2d_16">
      <g>
       <use xlink:href="#mff904ef5c7" x="42.824141" y="237.279038" style="fill: #333333; stroke: #333333; stroke-width: 0.8"/>
      </g>
     </g>
     <g id="text_8">
      <!-- 0.4 -->
      <g style="fill: #333333" transform="translate(21.511328 240.698335) scale(0.09 -0.09)">
       <defs>
        <path id="DejaVuSerif-34" d="M 2234 1581 
L 2234 4063 
L 641 1581 
L 2234 1581 
z
M 3609 0 
L 1484 0 
L 1484 331 
L 2234 331 
L 2234 1247 
L 197 1247 
L 197 1588 
L 2241 4750 
L 2859 4750 
L 2859 1581 
L 3750 1581 
L 3750 1247 
L 2859 1247 
L 2859 331 
L 3609 331 
L 3609 0 
z
" transform="scale(0.015625)"/>
       </defs>
       <use xlink:href="#DejaVuSerif-30"/>
       <use xlink:href="#DejaVuSerif-2e" transform="translate(63.623047 0)"/>
       <use xlink:href="#DejaVuSerif-34" transform="translate(95.410156 0)"/>
      </g>
     </g>
    </g>
    <g id="ytick_4">
     <g id="line2d_17">
      <path d="M 42.824141 181.075405 
L 474.264141 181.075405 
" clip-path="url(#pbc7fc15a40)" style="fill: none; stroke: #eeeeee; stroke-opacity: 0.75; stroke-width: 0.6; stroke-linecap: square"/>
     </g>
     <g id="line2d_18">
      <g>
       <use xlink:href="#mff904ef5c7" x="42.824141" y="181.075405" style="fill: #333333; stroke: #333333; stroke-width: 0.8"/>
      </g>
     </g>
     <g id="text_9">
      <!-- 0.6 -->
      <g style="fill: #333333" transform="translate(21.511328 184.494701) scale(0.09 -0.09)">
       <defs>
        <path id="DejaVuSerif-36" d="M 2094 219 
Q 2534 219 2771 542 
Q 3009 866 3009 1472 
Q 3009 2078 2771 2401 
Q 2534 2725 2094 2725 
Q 1647 2725 1412 2412 
Q 1178 2100 1178 1509 
Q 1178 888 1415 553 
Q 1653 219 2094 219 
z
M 1075 2569 
Q 1288 2803 1556 2918 
Q 1825 3034 2163 3034 
Q 2859 3034 3264 2615 
Q 3669 2197 3669 1472 
Q 3669 763 3233 336 
Q 2797 -91 2069 -91 
Q 1278 -91 853 498 
Q 428 1088 428 2181 
Q 428 3406 931 4078 
Q 1434 4750 2350 4750 
Q 2597 4750 2869 4703 
Q 3141 4656 3425 4563 
L 3425 3794 
L 3072 3794 
Q 3034 4109 2831 4275 
Q 2628 4441 2284 4441 
Q 1678 4441 1381 3981 
Q 1084 3522 1075 2569 
z
" transform="scale(0.015625)"/>
       </defs>
       <use xlink:href="#DejaVuSerif-30"/>
       <use xlink:href="#DejaVuSerif-2e" transform="translate(63.623047 0)"/>
       <use xlink:href="#DejaVuSerif-36" transform="translate(95.410156 0)"/>
      </g>
     </g>
    </g>
    <g id="ytick_5">
     <g id="line2d_19">
      <path d="M 42.824141 124.871771 
L 474.264141 124.871771 
" clip-path="url(#pbc7fc15a40)" style="fill: none; stroke: #eeeeee; stroke-opacity: 0.75; stroke-width: 0.6; stroke-linecap: square"/>
     </g>
     <g id="line2d_20">
      <g>
       <use xlink:href="#mff904ef5c7" x="42.824141" y="124.871771" style="fill: #333333; stroke: #333333; stroke-width: 0.8"/>
      </g>
     </g>
     <g id="text_10">
      <!-- 0.8 -->
      <g style="fill: #333333" transform="translate(21.511328 128.291068) scale(0.09 -0.09)">
       <defs>
        <path id="DejaVuSerif-38" d="M 2981 1275 
Q 2981 1775 2732 2051 
Q 2484 2328 2034 2328 
Q 1584 2328 1336 2051 
Q 1088 1775 1088 1275 
Q 1088 772 1336 495 
Q 1584 219 2034 219 
Q 2484 219 2732 495 
Q 2981 772 2981 1275 
z
M 2853 3541 
Q 2853 3966 2637 4203 
Q 2422 4441 2034 4441 
Q 1650 4441 1433 4203 
Q 1216 3966 1216 3541 
Q 1216 3113 1433 2875 
Q 1650 2638 2034 2638 
Q 2422 2638 2637 2875 
Q 2853 3113 2853 3541 
z
M 2516 2484 
Q 3047 2413 3344 2092 
Q 3641 1772 3641 1275 
Q 3641 619 3225 264 
Q 2809 -91 2034 -91 
Q 1263 -91 845 264 
Q 428 619 428 1275 
Q 428 1772 725 2092 
Q 1022 2413 1556 2484 
Q 1084 2569 832 2842 
Q 581 3116 581 3541 
Q 581 4103 968 4426 
Q 1356 4750 2034 4750 
Q 2713 4750 3100 4426 
Q 3488 4103 3488 3541 
Q 3488 3116 3236 2842 
Q 2984 2569 2516 2484 
z
" transform="scale(0.015625)"/>
       </defs>
       <use xlink:href="#DejaVuSerif-30"/>
       <use xlink:href="#DejaVuSerif-2e" transform="translate(63.623047 0)"/>
       <use xlink:href="#DejaVuSerif-38" transform="translate(95.410156 0)"/>
      </g>
     </g>
    </g>
    <g id="ytick_6">
     <g id="line2d_21">
      <path d="M 42.824141 68.668137 
L 474.264141 68.668137 
" clip-path="url(#pbc7fc15a40)" style="fill: none; stroke: #eeeeee; stroke-opacity: 0.75; stroke-width: 0.6; stroke-linecap: square"/>
     </g>
     <g id="line2d_22">
      <g>
       <use xlink:href="#mff904ef5c7" x="42.824141" y="68.668137" style="fill: #333333; stroke: #333333; stroke-width: 0.8"/>
      </g>
     </g>
     <g id="text_11">
      <!-- 1.0 -->
      <g style="fill: #333333" transform="translate(21.511328 72.087434) scale(0.09 -0.09)">
       <defs>
        <path id="DejaVuSerif-31" d="M 909 0 
L 909 331 
L 1722 331 
L 1722 4213 
L 781 3603 
L 781 4013 
L 1919 4750 
L 2350 4750 
L 2350 331 
L 3163 331 
L 3163 0 
L 909 0 
z
" transform="scale(0.015625)"/>
       </defs>
       <use xlink:href="#DejaVuSerif-31"/>
       <use xlink:href="#DejaVuSerif-2e" transform="translate(63.623047 0)"/>
       <use xlink:href="#DejaVuSerif-30" transform="translate(95.410156 0)"/>
      </g>
     </g>
    </g>
    <g id="text_12">
     <!-- Tail Average Stress -->
     <g style="fill: #2e2e2e" transform="translate(15.178359 257.891229) rotate(-90) scale(0.105 -0.105)">
      <defs>
       <path id="DejaVuSerif-69" d="M 622 4353 
Q 622 4497 726 4603 
Q 831 4709 978 4709 
Q 1122 4709 1226 4603 
Q 1331 4497 1331 4353 
Q 1331 4206 1228 4103 
Q 1125 4000 978 4000 
Q 831 4000 726 4103 
Q 622 4206 622 4353 
z
M 1356 331 
L 1900 331 
L 1900 0 
L 231 0 
L 231 331 
L 781 331 
L 781 2988 
L 231 2988 
L 231 3322 
L 1356 3322 
L 1356 331 
z
" transform="scale(0.015625)"/>
       <path id="DejaVuSerif-53" d="M 594 225 
L 594 1288 
L 953 1284 
Q 969 753 1261 498 
Q 1553 244 2150 244 
Q 2706 244 2998 464 
Q 3291 684 3291 1106 
Q 3291 1444 3114 1625 
Q 2938 1806 2369 1978 
L 1753 2163 
Q 1084 2366 811 2669 
Q 538 2972 538 3500 
Q 538 4094 959 4422 
Q 1381 4750 2144 4750 
Q 2469 4750 2856 4679 
Q 3244 4609 3681 4475 
L 3681 3481 
L 3328 3481 
Q 3275 3975 2998 4195 
Q 2722 4416 2156 4416 
Q 1663 4416 1405 4214 
Q 1147 4013 1147 3628 
Q 1147 3294 1340 3103 
Q 1534 2913 2163 2725 
L 2741 2553 
Q 3375 2363 3645 2067 
Q 3916 1772 3916 1275 
Q 3916 597 3481 253 
Q 3047 -91 2188 -91 
Q 1803 -91 1404 -12 
Q 1006 66 594 225 
z
" transform="scale(0.015625)"/>
       <path id="DejaVuSerif-73" d="M 359 184 
L 359 959 
L 691 959 
Q 703 588 923 403 
Q 1144 219 1575 219 
Q 1963 219 2166 364 
Q 2369 509 2369 788 
Q 2369 1006 2220 1140 
Q 2072 1275 1594 1428 
L 1178 1569 
Q 750 1706 558 1912 
Q 366 2119 366 2438 
Q 366 2894 700 3153 
Q 1034 3413 1625 3413 
Q 1888 3413 2178 3344 
Q 2469 3275 2778 3144 
L 2778 2419 
L 2447 2419 
Q 2434 2741 2221 2922 
Q 2009 3103 1644 3103 
Q 1281 3103 1095 2975 
Q 909 2847 909 2591 
Q 909 2381 1050 2254 
Q 1191 2128 1613 1997 
L 2069 1856 
Q 2541 1709 2748 1489 
Q 2956 1269 2956 922 
Q 2956 450 2595 179 
Q 2234 -91 1600 -91 
Q 1278 -91 972 -22 
Q 666 47 359 184 
z
" transform="scale(0.015625)"/>
      </defs>
      <use xlink:href="#DejaVuSerif-54"/>
      <use xlink:href="#DejaVuSerif-61" transform="translate(58.949219 0)"/>
      <use xlink:href="#DejaVuSerif-69" transform="translate(118.568359 0)"/>
      <use xlink:href="#DejaVuSerif-6c" transform="translate(150.550781 0)"/>
      <use xlink:href="#DejaVuSerif-20" transform="translate(182.533203 0)"/>
      <use xlink:href="#DejaVuSerif-41" transform="translate(214.320312 0)"/>
      <use xlink:href="#DejaVuSerif-76" transform="translate(282.537109 0)"/>
      <use xlink:href="#DejaVuSerif-65" transform="translate(339.03125 0)"/>
      <use xlink:href="#DejaVuSerif-72" transform="translate(398.210938 0)"/>
      <use xlink:href="#DejaVuSerif-61" transform="translate(446.013672 0)"/>
      <use xlink:href="#DejaVuSerif-67" transform="translate(505.632812 0)"/>
      <use xlink:href="#DejaVuSerif-65" transform="translate(569.646484 0)"/>
      <use xlink:href="#DejaVuSerif-20" transform="translate(628.826172 0)"/>
      <use xlink:href="#DejaVuSerif-53" transform="translate(660.613281 0)"/>
      <use xlink:href="#DejaVuSerif-74" transform="translate(729.119141 0)"/>
      <use xlink:href="#DejaVuSerif-72" transform="translate(769.304688 0)"/>
      <use xlink:href="#DejaVuSerif-65" transform="translate(817.107422 0)"/>
      <use xlink:href="#DejaVuSerif-73" transform="translate(876.287109 0)"/>
      <use xlink:href="#DejaVuSerif-73" transform="translate(927.605469 0)"/>
     </g>
    </g>
   </g>
   <g id="line2d_23">
    <path d="M 62.43505 344.325884 
L 81.112106 337.190832 
" clip-path="url(#pbc7fc15a40)" style="fill: none; stroke: #636363; stroke-opacity: 0.5; stroke-linecap: square"/>
   </g>
   <g id="line2d_24">
    <path d="M 155.820331 225.748863 
L 174.497387 288.656185 
" clip-path="url(#pbc7fc15a40)" style="fill: none; stroke: #636363; stroke-opacity: 0.5; stroke-linecap: square"/>
   </g>
   <g id="line2d_25">
    <path d="M 249.205612 68.668137 
L 267.882669 68.668137 
" clip-path="url(#pbc7fc15a40)" style="fill: none; stroke: #636363; stroke-opacity: 0.5; stroke-linecap: square"/>
   </g>
   <g id="line2d_26">
    <path d="M 342.590894 343.664086 
L 361.26795 330.974711 
" clip-path="url(#pbc7fc15a40)" style="fill: none; stroke: #636363; stroke-opacity: 0.5; stroke-linecap: square"/>
   </g>
   <g id="line2d_27">
    <path d="M 435.976175 335.362809 
L 454.653232 330.745681 
" clip-path="url(#pbc7fc15a40)" style="fill: none; stroke: #636363; stroke-opacity: 0.5; stroke-linecap: square"/>
   </g>
   <g id="patch_3">
    <path d="M 42.824141 358.108771 
L 42.824141 54.88525 
" style="fill: none; stroke: #444444; stroke-width: 0.9; stroke-linejoin: miter; stroke-linecap: square"/>
   </g>
   <g id="patch_4">
    <path d="M 42.824141 358.108771 
L 474.264141 358.108771 
" style="fill: none; stroke: #444444; stroke-width: 0.9; stroke-linejoin: miter; stroke-linecap: square"/>
   </g>
   <g id="text_13">
    <!-- (a) Stress: Low vs High Service Cost -->
    <g transform="translate(147.276563 44.88525) scale(0.11 -0.11)">
     <defs>
      <path id="DejaVuSerif-Bold-28" d="M 2694 -997 
Q 1641 -606 1122 122 
Q 603 850 603 1931 
Q 603 3013 1115 3731 
Q 1628 4450 2694 4863 
L 2694 4488 
Q 2200 4188 1983 3598 
Q 1766 3009 1766 1931 
Q 1766 856 1983 267 
Q 2200 -322 2694 -622 
L 2694 -997 
z
" transform="scale(0.015625)"/>
      <path id="DejaVuSerif-Bold-61" d="M 3525 2041 
L 3525 378 
L 4000 378 
L 4000 0 
L 2419 0 
L 2419 422 
Q 2200 159 1931 34 
Q 1663 -91 1319 -91 
Q 809 -91 536 182 
Q 263 456 263 966 
Q 263 1525 655 1803 
Q 1047 2081 1838 2081 
L 2419 2081 
L 2419 2278 
Q 2419 2681 2228 2873 
Q 2038 3066 1638 3066 
Q 1306 3066 1126 2930 
Q 947 2794 872 2484 
L 519 2484 
L 519 3200 
Q 816 3306 1134 3359 
Q 1453 3413 1806 3413 
Q 2697 3413 3111 3081 
Q 3525 2750 3525 2041 
z
M 2419 1044 
L 2419 1709 
L 2003 1709 
Q 1694 1709 1528 1540 
Q 1363 1372 1363 1056 
Q 1363 741 1483 584 
Q 1603 428 1850 428 
Q 2106 428 2262 597 
Q 2419 766 2419 1044 
z
" transform="scale(0.015625)"/>
      <path id="DejaVuSerif-Bold-29" d="M 325 -997 
L 325 -622 
Q 819 -322 1036 267 
Q 1253 856 1253 1931 
Q 1253 3009 1036 3598 
Q 819 4188 325 4488 
L 325 4863 
Q 1391 4450 1905 3731 
Q 2419 3013 2419 1931 
Q 2419 850 1898 122 
Q 1378 -606 325 -997 
z
" transform="scale(0.015625)"/>
      <path id="DejaVuSerif-Bold-20" transform="scale(0.015625)"/>
      <path id="DejaVuSerif-Bold-53" d="M 494 225 
L 494 1331 
L 891 1331 
Q 981 806 1318 547 
Q 1656 288 2253 288 
Q 2738 288 2991 472 
Q 3244 656 3244 1013 
Q 3244 1294 3072 1450 
Q 2900 1606 2363 1741 
L 1663 1913 
Q 978 2088 700 2398 
Q 422 2709 422 3284 
Q 422 3978 883 4364 
Q 1344 4750 2175 4750 
Q 2584 4750 3026 4681 
Q 3469 4613 3944 4475 
L 3944 3444 
L 3547 3444 
Q 3456 3925 3150 4148 
Q 2844 4372 2278 4372 
Q 1816 4372 1580 4211 
Q 1344 4050 1344 3731 
Q 1344 3441 1506 3289 
Q 1669 3138 2303 2975 
L 3003 2803 
Q 3653 2641 3945 2297 
Q 4238 1953 4238 1350 
Q 4238 644 3750 276 
Q 3263 -91 2316 -91 
Q 1859 -91 1409 -12 
Q 959 66 494 225 
z
" transform="scale(0.015625)"/>
      <path id="DejaVuSerif-Bold-74" d="M 634 2944 
L 153 2944 
L 153 3322 
L 634 3322 
L 634 4353 
L 1741 4353 
L 1741 3322 
L 2663 3322 
L 2663 2944 
L 1741 2944 
L 1741 909 
Q 1741 475 1809 369 
Q 1878 263 2059 263 
Q 2259 263 2356 397 
Q 2453 531 2459 813 
L 2925 813 
Q 2897 313 2651 111 
Q 2406 -91 1806 -91 
Q 1122 -91 878 123 
Q 634 338 634 909 
L 634 2944 
z
" transform="scale(0.015625)"/>
      <path id="DejaVuSerif-Bold-72" d="M 3438 3359 
L 3438 2369 
L 3084 2369 
Q 3066 2634 2941 2764 
Q 2816 2894 2578 2894 
Q 2216 2894 2006 2575 
Q 1797 2256 1797 1691 
L 1797 378 
L 2400 378 
L 2400 0 
L 219 0 
L 219 378 
L 691 378 
L 691 2944 
L 184 2944 
L 184 3322 
L 1797 3322 
L 1797 2731 
Q 1959 3078 2226 3245 
Q 2494 3413 2881 3413 
Q 2978 3413 3117 3398 
Q 3256 3384 3438 3359 
z
" transform="scale(0.015625)"/>
      <path id="DejaVuSerif-Bold-65" d="M 2566 1875 
Q 2566 2531 2444 2795 
Q 2322 3059 2028 3059 
Q 1744 3059 1620 2800 
Q 1497 2541 1497 1931 
L 1497 1875 
L 2566 1875 
z
M 3781 1503 
L 1497 1503 
L 1497 1478 
Q 1497 834 1690 548 
Q 1884 263 2316 263 
Q 2675 263 2897 453 
Q 3119 644 3181 1006 
L 3700 1006 
Q 3566 441 3166 175 
Q 2766 -91 2047 -91 
Q 1184 -91 723 364 
Q 263 819 263 1663 
Q 263 2488 734 2950 
Q 1206 3413 2047 3413 
Q 2872 3413 3312 2927 
Q 3753 2441 3781 1503 
z
" transform="scale(0.015625)"/>
      <path id="DejaVuSerif-Bold-73" d="M 300 97 
L 300 1025 
L 653 1025 
Q 697 653 931 458 
Q 1166 263 1569 263 
Q 1906 263 2086 380 
Q 2266 497 2266 716 
Q 2266 916 2152 1025 
Q 2038 1134 1709 1216 
L 1253 1331 
Q 738 1459 506 1698 
Q 275 1938 275 2344 
Q 275 2884 650 3148 
Q 1025 3413 1806 3413 
Q 2100 3413 2433 3364 
Q 2766 3316 3169 3213 
L 3169 2375 
L 2816 2375 
Q 2788 2716 2573 2887 
Q 2359 3059 1959 3059 
Q 1622 3059 1448 2951 
Q 1275 2844 1275 2638 
Q 1275 2469 1375 2372 
Q 1475 2275 1734 2209 
L 2188 2094 
Q 2841 1928 3091 1684 
Q 3341 1441 3341 1006 
Q 3341 444 2939 176 
Q 2538 -91 1691 -91 
Q 1381 -91 1034 -44 
Q 688 3 300 97 
z
" transform="scale(0.015625)"/>
      <path id="DejaVuSerif-Bold-3a" d="M 588 2541 
Q 588 2788 761 2963 
Q 934 3138 1178 3138 
Q 1422 3138 1597 2961 
Q 1772 2784 1772 2541 
Q 1772 2297 1598 2125 
Q 1425 1953 1178 1953 
Q 931 1953 759 2125 
Q 588 2297 588 2541 
z
M 588 506 
Q 588 750 761 925 
Q 934 1100 1178 1100 
Q 1422 1100 1597 925 
Q 1772 750 1772 506 
Q 1772 259 1597 84 
Q 1422 -91 1178 -91 
Q 934 -91 761 84 
Q 588 259 588 506 
z
" transform="scale(0.015625)"/>
      <path id="DejaVuSerif-Bold-4c" d="M 300 0 
L 300 378 
L 897 378 
L 897 4288 
L 300 4288 
L 300 4666 
L 2700 4666 
L 2700 4288 
L 2100 4288 
L 2100 428 
L 3938 428 
L 3938 1166 
L 4359 1166 
L 4359 0 
L 300 0 
z
" transform="scale(0.015625)"/>
      <path id="DejaVuSerif-Bold-6f" d="M 2138 263 
Q 2488 263 2630 563 
Q 2772 863 2772 1663 
Q 2772 2463 2631 2761 
Q 2491 3059 2138 3059 
Q 1784 3059 1640 2757 
Q 1497 2456 1497 1663 
Q 1497 869 1640 566 
Q 1784 263 2138 263 
z
M 2138 -91 
Q 1259 -91 761 376 
Q 263 844 263 1663 
Q 263 2484 761 2948 
Q 1259 3413 2138 3413 
Q 3019 3413 3516 2948 
Q 4013 2484 4013 1663 
Q 4013 844 3514 376 
Q 3016 -91 2138 -91 
z
" transform="scale(0.015625)"/>
      <path id="DejaVuSerif-Bold-77" d="M 3450 3322 
L 4206 1106 
L 4831 2944 
L 4397 2944 
L 4397 3322 
L 5638 3322 
L 5638 2944 
L 5247 2944 
L 4244 0 
L 3481 0 
L 2778 2081 
L 2069 0 
L 1313 0 
L 306 2944 
L -56 2944 
L -56 3322 
L 1825 3322 
L 1825 2944 
L 1434 2944 
L 2047 1147 
L 2791 3322 
L 3450 3322 
z
" transform="scale(0.015625)"/>
      <path id="DejaVuSerif-Bold-76" d="M 1428 0 
L 250 2944 
L -116 2944 
L -116 3322 
L 1791 3322 
L 1791 2944 
L 1388 2944 
L 2228 844 
L 3066 2944 
L 2631 2944 
L 2631 3322 
L 3878 3322 
L 3878 2944 
L 3494 2944 
L 2316 0 
L 1428 0 
z
" transform="scale(0.015625)"/>
      <path id="DejaVuSerif-Bold-48" d="M 300 0 
L 300 378 
L 897 378 
L 897 4288 
L 300 4288 
L 300 4666 
L 2700 4666 
L 2700 4288 
L 2100 4288 
L 2100 2719 
L 3956 2719 
L 3956 4288 
L 3359 4288 
L 3359 4666 
L 5759 4666 
L 5759 4288 
L 5159 4288 
L 5159 378 
L 5759 378 
L 5759 0 
L 3359 0 
L 3359 378 
L 3956 378 
L 3956 2291 
L 2100 2291 
L 2100 378 
L 2700 378 
L 2700 0 
L 300 0 
z
" transform="scale(0.015625)"/>
      <path id="DejaVuSerif-Bold-69" d="M 588 4263 
Q 588 4516 763 4689 
Q 938 4863 1191 4863 
Q 1438 4863 1611 4689 
Q 1784 4516 1784 4263 
Q 1784 4016 1611 3842 
Q 1438 3669 1191 3669 
Q 938 3669 763 3841 
Q 588 4013 588 4263 
z
M 1797 378 
L 2272 378 
L 2272 0 
L 219 0 
L 219 378 
L 691 378 
L 691 2944 
L 219 2944 
L 219 3322 
L 1797 3322 
L 1797 378 
z
" transform="scale(0.015625)"/>
      <path id="DejaVuSerif-Bold-67" d="M 3853 2944 
L 3853 44 
Q 3853 -656 3354 -1039 
Q 2856 -1422 1947 -1422 
Q 1616 -1422 1275 -1370 
Q 934 -1319 575 -1216 
L 575 -422 
L 928 -422 
Q 975 -750 1192 -909 
Q 1409 -1069 1813 -1069 
Q 2325 -1069 2536 -823 
Q 2747 -578 2747 44 
L 2747 422 
Q 2606 163 2367 36 
Q 2128 -91 1778 -91 
Q 1072 -91 667 378 
Q 263 847 263 1663 
Q 263 2481 667 2947 
Q 1072 3413 1778 3413 
Q 2128 3413 2367 3286 
Q 2606 3159 2747 2900 
L 2747 3322 
L 4325 3322 
L 4325 2944 
L 3853 2944 
z
M 2747 1825 
Q 2747 2406 2597 2665 
Q 2447 2925 2119 2925 
Q 1775 2925 1636 2651 
Q 1497 2378 1497 1663 
Q 1497 947 1637 672 
Q 1778 397 2119 397 
Q 2447 397 2597 656 
Q 2747 916 2747 1497 
L 2747 1825 
z
" transform="scale(0.015625)"/>
      <path id="DejaVuSerif-Bold-68" d="M 219 0 
L 219 378 
L 691 378 
L 691 4488 
L 197 4488 
L 197 4863 
L 1797 4863 
L 1797 2853 
Q 1997 3150 2253 3281 
Q 2509 3413 2900 3413 
Q 3459 3413 3745 3083 
Q 4031 2753 4031 2113 
L 4031 378 
L 4506 378 
L 4506 0 
L 2522 0 
L 2522 378 
L 2925 378 
L 2925 2144 
Q 2925 2566 2817 2730 
Q 2709 2894 2444 2894 
Q 2109 2894 1953 2648 
Q 1797 2403 1797 1869 
L 1797 378 
L 2203 378 
L 2203 0 
L 219 0 
z
" transform="scale(0.015625)"/>
      <path id="DejaVuSerif-Bold-63" d="M 3609 1038 
Q 3491 469 3123 189 
Q 2756 -91 2125 -91 
Q 1238 -91 750 368 
Q 263 828 263 1663 
Q 263 2488 744 2950 
Q 1225 3413 2081 3413 
Q 2428 3413 2781 3347 
Q 3134 3281 3500 3150 
L 3500 2228 
L 3150 2228 
Q 3100 2650 2903 2854 
Q 2706 3059 2350 3059 
Q 1888 3059 1692 2746 
Q 1497 2434 1497 1663 
Q 1497 909 1687 586 
Q 1878 263 2309 263 
Q 2644 263 2845 463 
Q 3047 663 3091 1038 
L 3609 1038 
z
" transform="scale(0.015625)"/>
      <path id="DejaVuSerif-Bold-43" d="M 4769 1331 
Q 4584 609 4106 259 
Q 3628 -91 2822 -91 
Q 1641 -91 955 561 
Q 269 1213 269 2328 
Q 269 3447 955 4098 
Q 1641 4750 2822 4750 
Q 3238 4750 3688 4650 
Q 4138 4550 4641 4347 
L 4641 3200 
L 4244 3200 
Q 4122 3788 3800 4080 
Q 3478 4372 2950 4372 
Q 2269 4372 1937 3870 
Q 1606 3369 1606 2328 
Q 1606 1288 1937 788 
Q 2269 288 2956 288 
Q 3422 288 3717 547 
Q 4013 806 4147 1331 
L 4769 1331 
z
" transform="scale(0.015625)"/>
     </defs>
     <use xlink:href="#DejaVuSerif-Bold-28"/>
     <use xlink:href="#DejaVuSerif-Bold-61" transform="translate(47.314453 0)"/>
     <use xlink:href="#DejaVuSerif-Bold-29" transform="translate(112.109375 0)"/>
     <use xlink:href="#DejaVuSerif-Bold-20" transform="translate(159.423828 0)"/>
     <use xlink:href="#DejaVuSerif-Bold-53" transform="translate(194.238281 0)"/>
     <use xlink:href="#DejaVuSerif-Bold-74" transform="translate(266.455078 0)"/>
     <use xlink:href="#DejaVuSerif-Bold-72" transform="translate(312.646484 0)"/>
     <use xlink:href="#DejaVuSerif-Bold-65" transform="translate(365.332031 0)"/>
     <use xlink:href="#DejaVuSerif-Bold-73" transform="translate(428.955078 0)"/>
     <use xlink:href="#DejaVuSerif-Bold-73" transform="translate(485.253906 0)"/>
     <use xlink:href="#DejaVuSerif-Bold-3a" transform="translate(541.552734 0)"/>
     <use xlink:href="#DejaVuSerif-Bold-20" transform="translate(578.466797 0)"/>
     <use xlink:href="#DejaVuSerif-Bold-4c" transform="translate(613.28125 0)"/>
     <use xlink:href="#DejaVuSerif-Bold-6f" transform="translate(683.59375 0)"/>
     <use xlink:href="#DejaVuSerif-Bold-77" transform="translate(750.292969 0)"/>
     <use xlink:href="#DejaVuSerif-Bold-20" transform="translate(836.376953 0)"/>
     <use xlink:href="#DejaVuSerif-Bold-76" transform="translate(871.191406 0)"/>
     <use xlink:href="#DejaVuSerif-Bold-73" transform="translate(929.296875 0)"/>
     <use xlink:href="#DejaVuSerif-Bold-20" transform="translate(985.595703 0)"/>
     <use xlink:href="#DejaVuSerif-Bold-48" transform="translate(1020.410156 0)"/>
     <use xlink:href="#DejaVuSerif-Bold-69" transform="translate(1114.892578 0)"/>
     <use xlink:href="#DejaVuSerif-Bold-67" transform="translate(1152.880859 0)"/>
     <use xlink:href="#DejaVuSerif-Bold-68" transform="translate(1222.802734 0)"/>
     <use xlink:href="#DejaVuSerif-Bold-20" transform="translate(1295.507812 0)"/>
     <use xlink:href="#DejaVuSerif-Bold-53" transform="translate(1330.322266 0)"/>
     <use xlink:href="#DejaVuSerif-Bold-65" transform="translate(1402.539062 0)"/>
     <use xlink:href="#DejaVuSerif-Bold-72" transform="translate(1466.162109 0)"/>
     <use xlink:href="#DejaVuSerif-Bold-76" transform="translate(1518.847656 0)"/>
     <use xlink:href="#DejaVuSerif-Bold-69" transform="translate(1576.953125 0)"/>
     <use xlink:href="#DejaVuSerif-Bold-63" transform="translate(1614.941406 0)"/>
     <use xlink:href="#DejaVuSerif-Bold-65" transform="translate(1675.830078 0)"/>
     <use xlink:href="#DejaVuSerif-Bold-20" transform="translate(1739.453125 0)"/>
     <use xlink:href="#DejaVuSerif-Bold-43" transform="translate(1774.267578 0)"/>
     <use xlink:href="#DejaVuSerif-Bold-6f" transform="translate(1853.857422 0)"/>
     <use xlink:href="#DejaVuSerif-Bold-73" transform="translate(1920.556641 0)"/>
     <use xlink:href="#DejaVuSerif-Bold-74" transform="translate(1976.855469 0)"/>
    </g>
   </g>
   <g id="PathCollection_1">
    <defs>
     <path id="m29125f27a3" d="M 0 4.472136 
C 1.186024 4.472136 2.323632 4.000923 3.162278 3.162278 
C 4.000923 2.323632 4.472136 1.186024 4.472136 0 
C 4.472136 -1.186024 4.000923 -2.323632 3.162278 -3.162278 
C 2.323632 -4.000923 1.186024 -4.472136 0 -4.472136 
C -1.186024 -4.472136 -2.323632 -4.000923 -3.162278 -3.162278 
C -4.000923 -2.323632 -4.472136 -1.186024 -4.472136 0 
C -4.472136 1.186024 -4.000923 2.323632 -3.162278 3.162278 
C -2.323632 4.000923 -1.186024 4.472136 0 4.472136 
z
" style="stroke: #2166ac"/>
    </defs>
    <g clip-path="url(#pbc7fc15a40)">
     <use xlink:href="#m29125f27a3" x="62.43505" y="344.325884" style="fill: #2166ac; stroke: #2166ac"/>
     <use xlink:href="#m29125f27a3" x="155.820331" y="225.748863" style="fill: #2166ac; stroke: #2166ac"/>
     <use xlink:href="#m29125f27a3" x="249.205612" y="68.668137" style="fill: #2166ac; stroke: #2166ac"/>
     <use xlink:href="#m29125f27a3" x="342.590894" y="343.664086" style="fill: #2166ac; stroke: #2166ac"/>
     <use xlink:href="#m29125f27a3" x="435.976175" y="335.362809" style="fill: #2166ac; stroke: #2166ac"/>
    </g>
   </g>
   <g id="PathCollection_2">
    <defs>
     <path id="mabac9a4182" d="M -4.472136 4.472136 
L 4.472136 4.472136 
L 4.472136 -4.472136 
L -4.472136 -4.472136 
z
" style="stroke: #b2182b"/>
    </defs>
    <g clip-path="url(#pbc7fc15a40)">
     <use xlink:href="#mabac9a4182" x="81.112106" y="337.190832" style="fill: #b2182b; stroke: #b2182b"/>
     <use xlink:href="#mabac9a4182" x="174.497387" y="288.656185" style="fill: #b2182b; stroke: #b2182b"/>
     <use xlink:href="#mabac9a4182" x="267.882669" y="68.668137" style="fill: #b2182b; stroke: #b2182b"/>
     <use xlink:href="#mabac9a4182" x="361.26795" y="330.974711" style="fill: #b2182b; stroke: #b2182b"/>
     <use xlink:href="#mabac9a4182" x="454.653232" y="330.745681" style="fill: #b2182b; stroke: #b2182b"/>
    </g>
   </g>
   <g id="legend_1">
    <g id="patch_5">
     <path d="M 393.479297 88.633844 
L 467.964141 88.633844 
Q 469.764141 88.633844 469.764141 86.833844 
L 469.764141 61.18525 
Q 469.764141 59.38525 467.964141 59.38525 
L 393.479297 59.38525 
Q 391.679297 59.38525 391.679297 61.18525 
L 391.679297 86.833844 
Q 391.679297 88.633844 393.479297 88.633844 
z
" style="fill: #ffffff; opacity: 0.95; stroke: #d9d9d9; stroke-width: 0.8; stroke-linejoin: miter"/>
    </g>
    <g id="PathCollection_3">
     <g>
      <use xlink:href="#m29125f27a3" x="404.279297" y="67.461344" style="fill: #2166ac; stroke: #2166ac"/>
     </g>
    </g>
    <g id="text_14">
     <!-- Low Cost -->
     <g transform="translate(420.479297 69.823844) scale(0.09 -0.09)">
      <defs>
       <path id="DejaVuSerif-4c" d="M 353 0 
L 353 331 
L 947 331 
L 947 4331 
L 353 4331 
L 353 4666 
L 2175 4666 
L 2175 4331 
L 1581 4331 
L 1581 384 
L 3713 384 
L 3713 1166 
L 4097 1166 
L 4097 0 
L 353 0 
z
" transform="scale(0.015625)"/>
       <path id="DejaVuSerif-77" d="M 3072 3322 
L 3922 728 
L 4672 2988 
L 4191 2988 
L 4191 3322 
L 5394 3322 
L 5394 2988 
L 5025 2988 
L 4038 0 
L 3559 0 
L 2741 2484 
L 1919 0 
L 1459 0 
L 475 2988 
L 103 2988 
L 103 3322 
L 1606 3322 
L 1606 2988 
L 1069 2988 
L 1813 728 
L 2669 3322 
L 3072 3322 
z
" transform="scale(0.015625)"/>
       <path id="DejaVuSerif-43" d="M 4513 1234 
Q 4306 581 3820 245 
Q 3334 -91 2591 -91 
Q 2134 -91 1743 65 
Q 1353 222 1050 525 
Q 700 875 529 1320 
Q 359 1766 359 2328 
Q 359 3416 987 4083 
Q 1616 4750 2644 4750 
Q 3025 4750 3456 4650 
Q 3888 4550 4384 4347 
L 4384 3272 
L 4031 3272 
Q 3916 3859 3567 4137 
Q 3219 4416 2591 4416 
Q 1844 4416 1459 3886 
Q 1075 3356 1075 2328 
Q 1075 1303 1459 773 
Q 1844 244 2591 244 
Q 3113 244 3450 492 
Q 3788 741 3938 1234 
L 4513 1234 
z
" transform="scale(0.015625)"/>
      </defs>
      <use xlink:href="#DejaVuSerif-4c"/>
      <use xlink:href="#DejaVuSerif-6f" transform="translate(66.40625 0)"/>
      <use xlink:href="#DejaVuSerif-77" transform="translate(126.611328 0)"/>
      <use xlink:href="#DejaVuSerif-20" transform="translate(212.207031 0)"/>
      <use xlink:href="#DejaVuSerif-43" transform="translate(243.994141 0)"/>
      <use xlink:href="#DejaVuSerif-6f" transform="translate(320.507812 0)"/>
      <use xlink:href="#DejaVuSerif-73" transform="translate(380.712891 0)"/>
      <use xlink:href="#DejaVuSerif-74" transform="translate(432.03125 0)"/>
     </g>
    </g>
    <g id="PathCollection_4">
     <g>
      <use xlink:href="#mabac9a4182" x="404.279297" y="80.671656" style="fill: #b2182b; stroke: #b2182b"/>
     </g>
    </g>
    <g id="text_15">
     <!-- High Cost -->
     <g transform="translate(420.479297 83.034156) scale(0.09 -0.09)">
      <defs>
       <path id="DejaVuSerif-48" d="M 353 0 
L 353 331 
L 947 331 
L 947 4331 
L 353 4331 
L 353 4666 
L 2175 4666 
L 2175 4331 
L 1581 4331 
L 1581 2719 
L 4000 2719 
L 4000 4331 
L 3406 4331 
L 3406 4666 
L 5228 4666 
L 5228 4331 
L 4634 4331 
L 4634 331 
L 5228 331 
L 5228 0 
L 3406 0 
L 3406 331 
L 4000 331 
L 4000 2338 
L 1581 2338 
L 1581 331 
L 2175 331 
L 2175 0 
L 353 0 
z
" transform="scale(0.015625)"/>
       <path id="DejaVuSerif-68" d="M 263 0 
L 263 331 
L 781 331 
L 781 4531 
L 231 4531 
L 231 4863 
L 1356 4863 
L 1356 2731 
Q 1516 3069 1770 3241 
Q 2025 3413 2363 3413 
Q 2913 3413 3172 3097 
Q 3431 2781 3431 2113 
L 3431 331 
L 3944 331 
L 3944 0 
L 2356 0 
L 2356 331 
L 2853 331 
L 2853 1931 
Q 2853 2541 2704 2764 
Q 2556 2988 2175 2988 
Q 1775 2988 1565 2697 
Q 1356 2406 1356 1850 
L 1356 331 
L 1856 331 
L 1856 0 
L 263 0 
z
" transform="scale(0.015625)"/>
      </defs>
      <use xlink:href="#DejaVuSerif-48"/>
      <use xlink:href="#DejaVuSerif-69" transform="translate(87.207031 0)"/>
      <use xlink:href="#DejaVuSerif-67" transform="translate(119.189453 0)"/>
      <use xlink:href="#DejaVuSerif-68" transform="translate(183.203125 0)"/>
      <use xlink:href="#DejaVuSerif-20" transform="translate(247.607422 0)"/>
      <use xlink:href="#DejaVuSerif-43" transform="translate(279.394531 0)"/>
      <use xlink:href="#DejaVuSerif-6f" transform="translate(355.908203 0)"/>
      <use xlink:href="#DejaVuSerif-73" transform="translate(416.113281 0)"/>
      <use xlink:href="#DejaVuSerif-74" transform="translate(467.431641 0)"/>
     </g>
    </g>
   </g>
  </g>
  <g id="axes_2">
   <g id="patch_6">
    <path d="M 520.994141 358.108771 
L 952.434141 358.108771 
L 952.434141 54.88525 
L 520.994141 54.88525 
z
" style="fill: #fafafa"/>
   </g>
   <g id="FillBetweenPolyCollection_1">
    <defs>
     <path id="m43e004ba83" d="M 540.60505 -329.81762 
L 540.60505 -54.159873 
L 683.229843 -54.159873 
L 804.460917 -54.159873 
L 932.823232 -54.159873 
L 932.823232 -308.613178 
L 932.823232 -308.613178 
L 804.460917 -308.613178 
L 683.229843 -308.613178 
L 540.60505 -329.81762 
z
" style="stroke: #e66101; stroke-opacity: 0.1"/>
    </defs>
    <g clip-path="url(#pb926cd9f22)">
     <use xlink:href="#m43e004ba83" x="0" y="398.485757" style="fill: #e66101; fill-opacity: 0.1; stroke: #e66101; stroke-opacity: 0.1"/>
    </g>
   </g>
   <g id="matplotlib.axis_3">
    <g id="xtick_6">
     <g id="line2d_28">
      <path d="M 576.261248 358.108771 
L 576.261248 54.88525 
" clip-path="url(#pb926cd9f22)" style="fill: none; stroke: #eeeeee; stroke-opacity: 0.75; stroke-width: 0.6; stroke-linecap: square"/>
     </g>
     <g id="line2d_29">
      <g>
       <use xlink:href="#m19cde35f5c" x="576.261248" y="358.108771" style="fill: #333333; stroke: #333333; stroke-width: 0.8"/>
      </g>
     </g>
     <g id="text_16">
      <!-- 0.4 -->
      <g style="fill: #333333" transform="translate(569.104842 371.947365) scale(0.09 -0.09)">
       <use xlink:href="#DejaVuSerif-30"/>
       <use xlink:href="#DejaVuSerif-2e" transform="translate(63.623047 0)"/>
       <use xlink:href="#DejaVuSerif-34" transform="translate(95.410156 0)"/>
      </g>
     </g>
    </g>
    <g id="xtick_7">
     <g id="line2d_30">
      <path d="M 647.573645 358.108771 
L 647.573645 54.88525 
" clip-path="url(#pb926cd9f22)" style="fill: none; stroke: #eeeeee; stroke-opacity: 0.75; stroke-width: 0.6; stroke-linecap: square"/>
     </g>
     <g id="line2d_31">
      <g>
       <use xlink:href="#m19cde35f5c" x="647.573645" y="358.108771" style="fill: #333333; stroke: #333333; stroke-width: 0.8"/>
      </g>
     </g>
     <g id="text_17">
      <!-- 0.5 -->
      <g style="fill: #333333" transform="translate(640.417239 371.947365) scale(0.09 -0.09)">
       <defs>
        <path id="DejaVuSerif-35" d="M 3219 4666 
L 3219 4153 
L 1081 4153 
L 1081 2816 
Q 1244 2928 1461 2984 
Q 1678 3041 1947 3041 
Q 2703 3041 3140 2622 
Q 3578 2203 3578 1478 
Q 3578 738 3136 323 
Q 2694 -91 1894 -91 
Q 1572 -91 1234 -12 
Q 897 66 544 225 
L 544 1131 
L 897 1131 
Q 925 688 1179 453 
Q 1434 219 1894 219 
Q 2388 219 2653 544 
Q 2919 869 2919 1478 
Q 2919 2084 2655 2407 
Q 2391 2731 1894 2731 
Q 1613 2731 1398 2631 
Q 1184 2531 1019 2322 
L 750 2322 
L 750 4666 
L 3219 4666 
z
" transform="scale(0.015625)"/>
       </defs>
       <use xlink:href="#DejaVuSerif-30"/>
       <use xlink:href="#DejaVuSerif-2e" transform="translate(63.623047 0)"/>
       <use xlink:href="#DejaVuSerif-35" transform="translate(95.410156 0)"/>
      </g>
     </g>
    </g>
    <g id="xtick_8">
     <g id="line2d_32">
      <path d="M 718.886041 358.108771 
L 718.886041 54.88525 
" clip-path="url(#pb926cd9f22)" style="fill: none; stroke: #eeeeee; stroke-opacity: 0.75; stroke-width: 0.6; stroke-linecap: square"/>
     </g>
     <g id="line2d_33">
      <g>
       <use xlink:href="#m19cde35f5c" x="718.886041" y="358.108771" style="fill: #333333; stroke: #333333; stroke-width: 0.8"/>
      </g>
     </g>
     <g id="text_18">
      <!-- 0.6 -->
      <g style="fill: #333333" transform="translate(711.729635 371.947365) scale(0.09 -0.09)">
       <use xlink:href="#DejaVuSerif-30"/>
       <use xlink:href="#DejaVuSerif-2e" transform="translate(63.623047 0)"/>
       <use xlink:href="#DejaVuSerif-36" transform="translate(95.410156 0)"/>
      </g>
     </g>
    </g>
    <g id="xtick_9">
     <g id="line2d_34">
      <path d="M 790.198438 358.108771 
L 790.198438 54.88525 
" clip-path="url(#pb926cd9f22)" style="fill: none; stroke: #eeeeee; stroke-opacity: 0.75; stroke-width: 0.6; stroke-linecap: square"/>
     </g>
     <g id="line2d_35">
      <g>
       <use xlink:href="#m19cde35f5c" x="790.198438" y="358.108771" style="fill: #333333; stroke: #333333; stroke-width: 0.8"/>
      </g>
     </g>
     <g id="text_19">
      <!-- 0.7 -->
      <g style="fill: #333333" transform="translate(783.042032 371.947365) scale(0.09 -0.09)">
       <defs>
        <path id="DejaVuSerif-37" d="M 3609 4347 
L 1784 0 
L 1319 0 
L 3059 4153 
L 903 4153 
L 903 3578 
L 538 3578 
L 538 4666 
L 3609 4666 
L 3609 4347 
z
" transform="scale(0.015625)"/>
       </defs>
       <use xlink:href="#DejaVuSerif-30"/>
       <use xlink:href="#DejaVuSerif-2e" transform="translate(63.623047 0)"/>
       <use xlink:href="#DejaVuSerif-37" transform="translate(95.410156 0)"/>
      </g>
     </g>
    </g>
    <g id="xtick_10">
     <g id="line2d_36">
      <path d="M 861.510835 358.108771 
L 861.510835 54.88525 
" clip-path="url(#pb926cd9f22)" style="fill: none; stroke: #eeeeee; stroke-opacity: 0.75; stroke-width: 0.6; stroke-linecap: square"/>
     </g>
     <g id="line2d_37">
      <g>
       <use xlink:href="#m19cde35f5c" x="861.510835" y="358.108771" style="fill: #333333; stroke: #333333; stroke-width: 0.8"/>
      </g>
     </g>
     <g id="text_20">
      <!-- 0.8 -->
      <g style="fill: #333333" transform="translate(854.354429 371.947365) scale(0.09 -0.09)">
       <use xlink:href="#DejaVuSerif-30"/>
       <use xlink:href="#DejaVuSerif-2e" transform="translate(63.623047 0)"/>
       <use xlink:href="#DejaVuSerif-38" transform="translate(95.410156 0)"/>
      </g>
     </g>
    </g>
    <g id="xtick_11">
     <g id="line2d_38">
      <path d="M 932.823232 358.108771 
L 932.823232 54.88525 
" clip-path="url(#pb926cd9f22)" style="fill: none; stroke: #eeeeee; stroke-opacity: 0.75; stroke-width: 0.6; stroke-linecap: square"/>
     </g>
     <g id="line2d_39">
      <g>
       <use xlink:href="#m19cde35f5c" x="932.823232" y="358.108771" style="fill: #333333; stroke: #333333; stroke-width: 0.8"/>
      </g>
     </g>
     <g id="text_21">
      <!-- 0.9 -->
      <g style="fill: #333333" transform="translate(925.666825 371.947365) scale(0.09 -0.09)">
       <defs>
        <path id="DejaVuSerif-39" d="M 2994 2091 
Q 2784 1856 2512 1740 
Q 2241 1625 1900 1625 
Q 1206 1625 804 2044 
Q 403 2463 403 3188 
Q 403 3897 839 4323 
Q 1275 4750 2003 4750 
Q 2794 4750 3217 4161 
Q 3641 3572 3641 2478 
Q 3641 1253 3137 581 
Q 2634 -91 1722 -91 
Q 1475 -91 1203 -44 
Q 931 3 647 97 
L 647 872 
L 997 872 
Q 1038 556 1241 387 
Q 1444 219 1784 219 
Q 2391 219 2687 676 
Q 2984 1134 2994 2091 
z
M 1978 4441 
Q 1534 4441 1298 4117 
Q 1063 3794 1063 3188 
Q 1063 2581 1298 2256 
Q 1534 1931 1978 1931 
Q 2422 1931 2658 2245 
Q 2894 2559 2894 3150 
Q 2894 3772 2656 4106 
Q 2419 4441 1978 4441 
z
" transform="scale(0.015625)"/>
       </defs>
       <use xlink:href="#DejaVuSerif-30"/>
       <use xlink:href="#DejaVuSerif-2e" transform="translate(63.623047 0)"/>
       <use xlink:href="#DejaVuSerif-39" transform="translate(95.410156 0)"/>
      </g>
     </g>
    </g>
    <g id="text_22">
     <!-- Delegation Preference Mean -->
     <g style="fill: #2e2e2e" transform="translate(660.212617 385.797443) scale(0.105 -0.105)">
      <defs>
       <path id="DejaVuSerif-6e" d="M 263 0 
L 263 331 
L 781 331 
L 781 2988 
L 231 2988 
L 231 3322 
L 1356 3322 
L 1356 2731 
Q 1516 3069 1770 3241 
Q 2025 3413 2363 3413 
Q 2913 3413 3172 3097 
Q 3431 2781 3431 2113 
L 3431 331 
L 3944 331 
L 3944 0 
L 2356 0 
L 2356 331 
L 2853 331 
L 2853 1931 
Q 2853 2541 2703 2767 
Q 2553 2994 2175 2994 
Q 1775 2994 1565 2701 
Q 1356 2409 1356 1850 
L 1356 331 
L 1856 331 
L 1856 0 
L 263 0 
z
" transform="scale(0.015625)"/>
       <path id="DejaVuSerif-50" d="M 1581 2375 
L 2406 2375 
Q 2872 2375 3115 2626 
Q 3359 2878 3359 3353 
Q 3359 3831 3115 4081 
Q 2872 4331 2406 4331 
L 1581 4331 
L 1581 2375 
z
M 353 0 
L 353 331 
L 947 331 
L 947 4331 
L 353 4331 
L 353 4666 
L 2559 4666 
Q 3259 4666 3668 4311 
Q 4078 3956 4078 3353 
Q 4078 2753 3668 2397 
Q 3259 2041 2559 2041 
L 1581 2041 
L 1581 331 
L 2303 331 
L 2303 0 
L 353 0 
z
" transform="scale(0.015625)"/>
       <path id="DejaVuSerif-63" d="M 3291 997 
Q 3169 466 2822 187 
Q 2475 -91 1925 -91 
Q 1200 -91 759 389 
Q 319 869 319 1663 
Q 319 2459 759 2936 
Q 1200 3413 1925 3413 
Q 2241 3413 2553 3339 
Q 2866 3266 3181 3116 
L 3181 2266 
L 2847 2266 
Q 2781 2703 2561 2903 
Q 2341 3103 1931 3103 
Q 1466 3103 1228 2742 
Q 991 2381 991 1663 
Q 991 944 1227 581 
Q 1463 219 1931 219 
Q 2303 219 2525 412 
Q 2747 606 2828 997 
L 3291 997 
z
" transform="scale(0.015625)"/>
       <path id="DejaVuSerif-4d" d="M 353 0 
L 353 331 
L 947 331 
L 947 4331 
L 319 4331 
L 319 4666 
L 1678 4666 
L 3316 1344 
L 4953 4666 
L 6228 4666 
L 6228 4331 
L 5606 4331 
L 5606 331 
L 6203 331 
L 6203 0 
L 4378 0 
L 4378 331 
L 4972 331 
L 4972 3938 
L 3372 684 
L 2931 684 
L 1331 3938 
L 1331 331 
L 1925 331 
L 1925 0 
L 353 0 
z
" transform="scale(0.015625)"/>
      </defs>
      <use xlink:href="#DejaVuSerif-44"/>
      <use xlink:href="#DejaVuSerif-65" transform="translate(80.175781 0)"/>
      <use xlink:href="#DejaVuSerif-6c" transform="translate(139.355469 0)"/>
      <use xlink:href="#DejaVuSerif-65" transform="translate(171.337891 0)"/>
      <use xlink:href="#DejaVuSerif-67" transform="translate(230.517578 0)"/>
      <use xlink:href="#DejaVuSerif-61" transform="translate(294.53125 0)"/>
      <use xlink:href="#DejaVuSerif-74" transform="translate(354.150391 0)"/>
      <use xlink:href="#DejaVuSerif-69" transform="translate(394.335938 0)"/>
      <use xlink:href="#DejaVuSerif-6f" transform="translate(426.318359 0)"/>
      <use xlink:href="#DejaVuSerif-6e" transform="translate(486.523438 0)"/>
      <use xlink:href="#DejaVuSerif-20" transform="translate(550.927734 0)"/>
      <use xlink:href="#DejaVuSerif-50" transform="translate(582.714844 0)"/>
      <use xlink:href="#DejaVuSerif-72" transform="translate(650 0)"/>
      <use xlink:href="#DejaVuSerif-65" transform="translate(697.802734 0)"/>
      <use xlink:href="#DejaVuSerif-66" transform="translate(756.982422 0)"/>
      <use xlink:href="#DejaVuSerif-65" transform="translate(793.994141 0)"/>
      <use xlink:href="#DejaVuSerif-72" transform="translate(853.173828 0)"/>
      <use xlink:href="#DejaVuSerif-65" transform="translate(900.976562 0)"/>
      <use xlink:href="#DejaVuSerif-6e" transform="translate(960.15625 0)"/>
      <use xlink:href="#DejaVuSerif-63" transform="translate(1024.560547 0)"/>
      <use xlink:href="#DejaVuSerif-65" transform="translate(1080.566406 0)"/>
      <use xlink:href="#DejaVuSerif-20" transform="translate(1139.746094 0)"/>
      <use xlink:href="#DejaVuSerif-4d" transform="translate(1171.533203 0)"/>
      <use xlink:href="#DejaVuSerif-65" transform="translate(1273.925781 0)"/>
      <use xlink:href="#DejaVuSerif-61" transform="translate(1333.105469 0)"/>
      <use xlink:href="#DejaVuSerif-6e" transform="translate(1392.724609 0)"/>
     </g>
    </g>
   </g>
   <g id="matplotlib.axis_4">
    <g id="ytick_7">
     <g id="line2d_40">
      <path d="M 520.994141 344.325884 
L 952.434141 344.325884 
" clip-path="url(#pb926cd9f22)" style="fill: none; stroke: #eeeeee; stroke-opacity: 0.75; stroke-width: 0.6; stroke-linecap: square"/>
     </g>
     <g id="line2d_41">
      <g>
       <use xlink:href="#mff904ef5c7" x="520.994141" y="344.325884" style="fill: #333333; stroke: #333333; stroke-width: 0.8"/>
      </g>
     </g>
     <g id="text_23">
      <!-- 0.0 -->
      <g style="fill: #333333" transform="translate(499.681328 347.745181) scale(0.09 -0.09)">
       <use xlink:href="#DejaVuSerif-30"/>
       <use xlink:href="#DejaVuSerif-2e" transform="translate(63.623047 0)"/>
       <use xlink:href="#DejaVuSerif-30" transform="translate(95.410156 0)"/>
      </g>
     </g>
    </g>
    <g id="ytick_8">
     <g id="line2d_42">
      <path d="M 520.994141 301.917 
L 952.434141 301.917 
" clip-path="url(#pb926cd9f22)" style="fill: none; stroke: #eeeeee; stroke-opacity: 0.75; stroke-width: 0.6; stroke-linecap: square"/>
     </g>
     <g id="line2d_43">
      <g>
       <use xlink:href="#mff904ef5c7" x="520.994141" y="301.917" style="fill: #333333; stroke: #333333; stroke-width: 0.8"/>
      </g>
     </g>
     <g id="text_24">
      <!-- 0.5 -->
      <g style="fill: #333333" transform="translate(499.681328 305.336297) scale(0.09 -0.09)">
       <use xlink:href="#DejaVuSerif-30"/>
       <use xlink:href="#DejaVuSerif-2e" transform="translate(63.623047 0)"/>
       <use xlink:href="#DejaVuSerif-35" transform="translate(95.410156 0)"/>
      </g>
     </g>
    </g>
    <g id="ytick_9">
     <g id="line2d_44">
      <path d="M 520.994141 259.508116 
L 952.434141 259.508116 
" clip-path="url(#pb926cd9f22)" style="fill: none; stroke: #eeeeee; stroke-opacity: 0.75; stroke-width: 0.6; stroke-linecap: square"/>
     </g>
     <g id="line2d_45">
      <g>
       <use xlink:href="#mff904ef5c7" x="520.994141" y="259.508116" style="fill: #333333; stroke: #333333; stroke-width: 0.8"/>
      </g>
     </g>
     <g id="text_25">
      <!-- 1.0 -->
      <g style="fill: #333333" transform="translate(499.681328 262.927413) scale(0.09 -0.09)">
       <use xlink:href="#DejaVuSerif-31"/>
       <use xlink:href="#DejaVuSerif-2e" transform="translate(63.623047 0)"/>
       <use xlink:href="#DejaVuSerif-30" transform="translate(95.410156 0)"/>
      </g>
     </g>
    </g>
    <g id="ytick_10">
     <g id="line2d_46">
      <path d="M 520.994141 217.099232 
L 952.434141 217.099232 
" clip-path="url(#pb926cd9f22)" style="fill: none; stroke: #eeeeee; stroke-opacity: 0.75; stroke-width: 0.6; stroke-linecap: square"/>
     </g>
     <g id="line2d_47">
      <g>
       <use xlink:href="#mff904ef5c7" x="520.994141" y="217.099232" style="fill: #333333; stroke: #333333; stroke-width: 0.8"/>
      </g>
     </g>
     <g id="text_26">
      <!-- 1.5 -->
      <g style="fill: #333333" transform="translate(499.681328 220.518528) scale(0.09 -0.09)">
       <use xlink:href="#DejaVuSerif-31"/>
       <use xlink:href="#DejaVuSerif-2e" transform="translate(63.623047 0)"/>
       <use xlink:href="#DejaVuSerif-35" transform="translate(95.410156 0)"/>
      </g>
     </g>
    </g>
    <g id="ytick_11">
     <g id="line2d_48">
      <path d="M 520.994141 174.690347 
L 952.434141 174.690347 
" clip-path="url(#pb926cd9f22)" style="fill: none; stroke: #eeeeee; stroke-opacity: 0.75; stroke-width: 0.6; stroke-linecap: square"/>
     </g>
     <g id="line2d_49">
      <g>
       <use xlink:href="#mff904ef5c7" x="520.994141" y="174.690347" style="fill: #333333; stroke: #333333; stroke-width: 0.8"/>
      </g>
     </g>
     <g id="text_27">
      <!-- 2.0 -->
      <g style="fill: #333333" transform="translate(499.681328 178.109644) scale(0.09 -0.09)">
       <use xlink:href="#DejaVuSerif-32"/>
       <use xlink:href="#DejaVuSerif-2e" transform="translate(63.623047 0)"/>
       <use xlink:href="#DejaVuSerif-30" transform="translate(95.410156 0)"/>
      </g>
     </g>
    </g>
    <g id="ytick_12">
     <g id="line2d_50">
      <path d="M 520.994141 132.281463 
L 952.434141 132.281463 
" clip-path="url(#pb926cd9f22)" style="fill: none; stroke: #eeeeee; stroke-opacity: 0.75; stroke-width: 0.6; stroke-linecap: square"/>
     </g>
     <g id="line2d_51">
      <g>
       <use xlink:href="#mff904ef5c7" x="520.994141" y="132.281463" style="fill: #333333; stroke: #333333; stroke-width: 0.8"/>
      </g>
     </g>
     <g id="text_28">
      <!-- 2.5 -->
      <g style="fill: #333333" transform="translate(499.681328 135.70076) scale(0.09 -0.09)">
       <use xlink:href="#DejaVuSerif-32"/>
       <use xlink:href="#DejaVuSerif-2e" transform="translate(63.623047 0)"/>
       <use xlink:href="#DejaVuSerif-35" transform="translate(95.410156 0)"/>
      </g>
     </g>
    </g>
    <g id="ytick_13">
     <g id="line2d_52">
      <path d="M 520.994141 89.872579 
L 952.434141 89.872579 
" clip-path="url(#pb926cd9f22)" style="fill: none; stroke: #eeeeee; stroke-opacity: 0.75; stroke-width: 0.6; stroke-linecap: square"/>
     </g>
     <g id="line2d_53">
      <g>
       <use xlink:href="#mff904ef5c7" x="520.994141" y="89.872579" style="fill: #333333; stroke: #333333; stroke-width: 0.8"/>
      </g>
     </g>
     <g id="text_29">
      <!-- 3.0 -->
      <g style="fill: #333333" transform="translate(499.681328 93.291876) scale(0.09 -0.09)">
       <defs>
        <path id="DejaVuSerif-33" d="M 622 4469 
Q 988 4606 1323 4678 
Q 1659 4750 1953 4750 
Q 2638 4750 3022 4454 
Q 3406 4159 3406 3634 
Q 3406 3213 3140 2930 
Q 2875 2647 2388 2547 
Q 2963 2466 3280 2130 
Q 3597 1794 3597 1259 
Q 3597 606 3158 257 
Q 2719 -91 1894 -91 
Q 1528 -91 1179 -12 
Q 831 66 488 225 
L 488 1131 
L 838 1131 
Q 869 681 1141 450 
Q 1413 219 1906 219 
Q 2384 219 2661 495 
Q 2938 772 2938 1253 
Q 2938 1803 2653 2086 
Q 2369 2369 1819 2369 
L 1522 2369 
L 1522 2688 
L 1678 2688 
Q 2225 2688 2498 2914 
Q 2772 3141 2772 3597 
Q 2772 4006 2547 4223 
Q 2322 4441 1900 4441 
Q 1478 4441 1245 4241 
Q 1013 4041 972 3647 
L 622 3647 
L 622 4469 
z
" transform="scale(0.015625)"/>
       </defs>
       <use xlink:href="#DejaVuSerif-33"/>
       <use xlink:href="#DejaVuSerif-2e" transform="translate(63.623047 0)"/>
       <use xlink:href="#DejaVuSerif-30" transform="translate(95.410156 0)"/>
      </g>
     </g>
    </g>
    <g id="text_30">
     <!-- Task Load Where Low Cost Flips to Higher Stress -->
     <g style="fill: #2e2e2e" transform="translate(493.348359 339.360565) rotate(-90) scale(0.105 -0.105)">
      <defs>
       <path id="DejaVuSerif-6b" d="M 1831 0 
L 219 0 
L 219 331 
L 738 331 
L 738 4531 
L 184 4531 
L 184 4863 
L 1313 4863 
L 1313 1697 
L 2713 2988 
L 2234 2988 
L 2234 3322 
L 3738 3322 
L 3738 2988 
L 3169 2988 
L 2181 2075 
L 3444 331 
L 3922 331 
L 3922 0 
L 2284 0 
L 2284 331 
L 2759 331 
L 1766 1697 
L 1313 1275 
L 1313 331 
L 1831 331 
L 1831 0 
z
" transform="scale(0.015625)"/>
       <path id="DejaVuSerif-57" d="M 4878 0 
L 4366 0 
L 3297 3794 
L 2228 0 
L 1716 0 
L 494 4331 
L 31 4331 
L 31 4666 
L 1734 4666 
L 1734 4331 
L 1153 4331 
L 2125 884 
L 3188 4666 
L 3694 4666 
L 4775 844 
L 5753 4331 
L 5216 4331 
L 5216 4666 
L 6559 4666 
L 6559 4331 
L 6100 4331 
L 4878 0 
z
" transform="scale(0.015625)"/>
       <path id="DejaVuSerif-46" d="M 353 0 
L 353 331 
L 947 331 
L 947 4331 
L 353 4331 
L 353 4666 
L 4172 4666 
L 4172 3628 
L 3788 3628 
L 3788 4281 
L 1581 4281 
L 1581 2719 
L 3175 2719 
L 3175 3303 
L 3559 3303 
L 3559 1753 
L 3175 1753 
L 3175 2338 
L 1581 2338 
L 1581 331 
L 2328 331 
L 2328 0 
L 353 0 
z
" transform="scale(0.015625)"/>
      </defs>
      <use xlink:href="#DejaVuSerif-54"/>
      <use xlink:href="#DejaVuSerif-61" transform="translate(58.949219 0)"/>
      <use xlink:href="#DejaVuSerif-73" transform="translate(118.568359 0)"/>
      <use xlink:href="#DejaVuSerif-6b" transform="translate(169.886719 0)"/>
      <use xlink:href="#DejaVuSerif-20" transform="translate(230.482422 0)"/>
      <use xlink:href="#DejaVuSerif-4c" transform="translate(262.269531 0)"/>
      <use xlink:href="#DejaVuSerif-6f" transform="translate(328.675781 0)"/>
      <use xlink:href="#DejaVuSerif-61" transform="translate(388.880859 0)"/>
      <use xlink:href="#DejaVuSerif-64" transform="translate(448.5 0)"/>
      <use xlink:href="#DejaVuSerif-20" transform="translate(512.513672 0)"/>
      <use xlink:href="#DejaVuSerif-57" transform="translate(544.300781 0)"/>
      <use xlink:href="#DejaVuSerif-68" transform="translate(647.083984 0)"/>
      <use xlink:href="#DejaVuSerif-65" transform="translate(711.488281 0)"/>
      <use xlink:href="#DejaVuSerif-72" transform="translate(770.667969 0)"/>
      <use xlink:href="#DejaVuSerif-65" transform="translate(818.470703 0)"/>
      <use xlink:href="#DejaVuSerif-20" transform="translate(877.650391 0)"/>
      <use xlink:href="#DejaVuSerif-4c" transform="translate(909.4375 0)"/>
      <use xlink:href="#DejaVuSerif-6f" transform="translate(975.84375 0)"/>
      <use xlink:href="#DejaVuSerif-77" transform="translate(1036.048828 0)"/>
      <use xlink:href="#DejaVuSerif-20" transform="translate(1121.644531 0)"/>
      <use xlink:href="#DejaVuSerif-43" transform="translate(1153.431641 0)"/>
      <use xlink:href="#DejaVuSerif-6f" transform="translate(1229.945312 0)"/>
      <use xlink:href="#DejaVuSerif-73" transform="translate(1290.150391 0)"/>
      <use xlink:href="#DejaVuSerif-74" transform="translate(1341.46875 0)"/>
      <use xlink:href="#DejaVuSerif-20" transform="translate(1381.654297 0)"/>
      <use xlink:href="#DejaVuSerif-46" transform="translate(1413.441406 0)"/>
      <use xlink:href="#DejaVuSerif-6c" transform="translate(1482.826172 0)"/>
      <use xlink:href="#DejaVuSerif-69" transform="translate(1514.808594 0)"/>
      <use xlink:href="#DejaVuSerif-70" transform="translate(1546.791016 0)"/>
      <use xlink:href="#DejaVuSerif-73" transform="translate(1610.804688 0)"/>
      <use xlink:href="#DejaVuSerif-20" transform="translate(1662.123047 0)"/>
      <use xlink:href="#DejaVuSerif-74" transform="translate(1693.910156 0)"/>
      <use xlink:href="#DejaVuSerif-6f" transform="translate(1734.095703 0)"/>
      <use xlink:href="#DejaVuSerif-20" transform="translate(1794.300781 0)"/>
      <use xlink:href="#DejaVuSerif-48" transform="translate(1826.087891 0)"/>
      <use xlink:href="#DejaVuSerif-69" transform="translate(1913.294922 0)"/>
      <use xlink:href="#DejaVuSerif-67" transform="translate(1945.277344 0)"/>
      <use xlink:href="#DejaVuSerif-68" transform="translate(2009.291016 0)"/>
      <use xlink:href="#DejaVuSerif-65" transform="translate(2073.695312 0)"/>
      <use xlink:href="#DejaVuSerif-72" transform="translate(2132.875 0)"/>
      <use xlink:href="#DejaVuSerif-20" transform="translate(2180.677734 0)"/>
      <use xlink:href="#DejaVuSerif-53" transform="translate(2212.464844 0)"/>
      <use xlink:href="#DejaVuSerif-74" transform="translate(2280.970703 0)"/>
      <use xlink:href="#DejaVuSerif-72" transform="translate(2321.15625 0)"/>
      <use xlink:href="#DejaVuSerif-65" transform="translate(2368.958984 0)"/>
      <use xlink:href="#DejaVuSerif-73" transform="translate(2428.138672 0)"/>
      <use xlink:href="#DejaVuSerif-73" transform="translate(2479.457031 0)"/>
     </g>
    </g>
   </g>
   <g id="line2d_54">
    <path d="M 540.60505 68.668137 
L 683.229843 89.872579 
L 804.460917 89.872579 
L 932.823232 89.872579 
" clip-path="url(#pb926cd9f22)" style="fill: none; stroke: #e66101; stroke-width: 2; stroke-linecap: square"/>
    <defs>
     <path id="mdf58199429" d="M 0 4 
C 1.060812 4 2.078319 3.578535 2.828427 2.828427 
C 3.578535 2.078319 4 1.060812 4 0 
C 4 -1.060812 3.578535 -2.078319 2.828427 -2.828427 
C 2.078319 -3.578535 1.060812 -4 0 -4 
C -1.060812 -4 -2.078319 -3.578535 -2.828427 -2.828427 
C -3.578535 -2.078319 -4 -1.060812 -4 0 
C -4 1.060812 -3.578535 2.078319 -2.828427 2.828427 
C -2.078319 3.578535 -1.060812 4 0 4 
z
" style="stroke: #e66101"/>
    </defs>
    <g clip-path="url(#pb926cd9f22)">
     <use xlink:href="#mdf58199429" x="540.60505" y="68.668137" style="fill: #e66101; stroke: #e66101"/>
     <use xlink:href="#mdf58199429" x="683.229843" y="89.872579" style="fill: #e66101; stroke: #e66101"/>
     <use xlink:href="#mdf58199429" x="804.460917" y="89.872579" style="fill: #e66101; stroke: #e66101"/>
     <use xlink:href="#mdf58199429" x="932.823232" y="89.872579" style="fill: #e66101; stroke: #e66101"/>
    </g>
   </g>
   <g id="patch_7">
    <path d="M 520.994141 358.108771 
L 520.994141 54.88525 
" style="fill: none; stroke: #444444; stroke-width: 0.9; stroke-linejoin: miter; stroke-linecap: square"/>
   </g>
   <g id="patch_8">
    <path d="M 520.994141 358.108771 
L 952.434141 358.108771 
" style="fill: none; stroke: #444444; stroke-width: 0.9; stroke-linejoin: miter; stroke-linecap: square"/>
   </g>
   <g id="text_31">
    <!-- (b) Cost-Amplification Threshold -->
    <g transform="translate(634.905703 44.88525) scale(0.11 -0.11)">
     <defs>
      <path id="DejaVuSerif-Bold-62" d="M 622 378 
L 622 4488 
L 147 4488 
L 147 4863 
L 1728 4863 
L 1728 2900 
Q 1869 3159 2106 3286 
Q 2344 3413 2694 3413 
Q 3403 3413 3811 2945 
Q 4219 2478 4219 1663 
Q 4219 847 3811 378 
Q 3403 -91 2694 -91 
Q 2344 -91 2106 36 
Q 1869 163 1728 422 
L 1728 0 
L 147 0 
L 147 378 
L 622 378 
z
M 1728 1497 
Q 1728 916 1876 656 
Q 2025 397 2356 397 
Q 2697 397 2836 672 
Q 2975 947 2975 1663 
Q 2975 2378 2836 2651 
Q 2697 2925 2356 2925 
Q 2025 2925 1876 2665 
Q 1728 2406 1728 1825 
L 1728 1497 
z
" transform="scale(0.015625)"/>
      <path id="DejaVuSerif-Bold-2d" d="M 347 2138 
L 2309 2138 
L 2309 1294 
L 347 1294 
L 347 2138 
z
" transform="scale(0.015625)"/>
      <path id="DejaVuSerif-Bold-41" d="M -50 0 
L -50 378 
L 331 378 
L 2088 4666 
L 2834 4666 
L 4594 378 
L 5038 378 
L 5038 0 
L 2853 0 
L 2853 378 
L 3309 378 
L 2925 1331 
L 1172 1331 
L 781 378 
L 1338 378 
L 1338 0 
L -50 0 
z
M 1325 1709 
L 2772 1709 
L 2053 3494 
L 1325 1709 
z
" transform="scale(0.015625)"/>
      <path id="DejaVuSerif-Bold-6d" d="M 3884 2778 
Q 4116 3109 4384 3261 
Q 4653 3413 5013 3413 
Q 5584 3413 5867 3089 
Q 6150 2766 6150 2113 
L 6150 378 
L 6625 378 
L 6625 0 
L 4647 0 
L 4647 378 
L 5044 378 
L 5044 1947 
Q 5044 2569 4948 2731 
Q 4853 2894 4594 2894 
Q 4300 2894 4137 2667 
Q 3975 2441 3975 2022 
L 3975 378 
L 4372 378 
L 4372 0 
L 2472 0 
L 2472 378 
L 2869 378 
L 2869 1947 
Q 2869 2569 2772 2731 
Q 2675 2894 2419 2894 
Q 2122 2894 1959 2667 
Q 1797 2441 1797 2022 
L 1797 378 
L 2194 378 
L 2194 0 
L 219 0 
L 219 378 
L 691 378 
L 691 2944 
L 219 2944 
L 219 3322 
L 1797 3322 
L 1797 2853 
Q 1991 3144 2241 3278 
Q 2491 3413 2834 3413 
Q 3241 3413 3494 3258 
Q 3747 3103 3884 2778 
z
" transform="scale(0.015625)"/>
      <path id="DejaVuSerif-Bold-70" d="M 1728 1825 
L 1728 1497 
Q 1728 916 1876 656 
Q 2025 397 2356 397 
Q 2697 397 2836 672 
Q 2975 947 2975 1663 
Q 2975 2378 2836 2651 
Q 2697 2925 2356 2925 
Q 2025 2925 1876 2665 
Q 1728 2406 1728 1825 
z
M 622 2944 
L 147 2944 
L 147 3322 
L 1728 3322 
L 1728 2900 
Q 1869 3159 2106 3286 
Q 2344 3413 2694 3413 
Q 3403 3413 3811 2945 
Q 4219 2478 4219 1663 
Q 4219 847 3811 378 
Q 3403 -91 2694 -91 
Q 2344 -91 2106 36 
Q 1869 163 1728 422 
L 1728 -953 
L 2241 -953 
L 2241 -1331 
L 147 -1331 
L 147 -953 
L 622 -953 
L 622 2944 
z
" transform="scale(0.015625)"/>
      <path id="DejaVuSerif-Bold-6c" d="M 1797 378 
L 2272 378 
L 2272 0 
L 219 0 
L 219 378 
L 691 378 
L 691 4488 
L 219 4488 
L 219 4863 
L 1797 4863 
L 1797 378 
z
" transform="scale(0.015625)"/>
      <path id="DejaVuSerif-Bold-66" d="M 3097 4031 
L 2747 4031 
Q 2722 4275 2605 4394 
Q 2488 4513 2272 4513 
Q 2022 4513 1909 4333 
Q 1797 4153 1797 3750 
L 1797 3322 
L 2631 3322 
L 2631 2944 
L 1797 2944 
L 1797 378 
L 2438 378 
L 2438 0 
L 219 0 
L 219 378 
L 691 378 
L 691 2944 
L 197 2944 
L 197 3322 
L 691 3322 
L 691 3738 
Q 691 4291 1044 4577 
Q 1397 4863 2081 4863 
Q 2347 4863 2600 4833 
Q 2853 4803 3097 4744 
L 3097 4031 
z
" transform="scale(0.015625)"/>
      <path id="DejaVuSerif-Bold-6e" d="M 219 0 
L 219 378 
L 691 378 
L 691 2944 
L 219 2944 
L 219 3322 
L 1797 3322 
L 1797 2853 
Q 1997 3150 2253 3281 
Q 2509 3413 2900 3413 
Q 3459 3413 3745 3083 
Q 4031 2753 4031 2113 
L 4031 378 
L 4506 378 
L 4506 0 
L 2522 0 
L 2522 378 
L 2925 378 
L 2925 2144 
Q 2925 2566 2817 2730 
Q 2709 2894 2444 2894 
Q 2109 2894 1953 2648 
Q 1797 2403 1797 1869 
L 1797 378 
L 2203 378 
L 2203 0 
L 219 0 
z
" transform="scale(0.015625)"/>
      <path id="DejaVuSerif-Bold-54" d="M 1159 0 
L 1159 378 
L 1778 378 
L 1778 4238 
L 500 4238 
L 500 3500 
L 72 3500 
L 72 4666 
L 4697 4666 
L 4697 3500 
L 4275 3500 
L 4275 4238 
L 2988 4238 
L 2988 378 
L 3609 378 
L 3609 0 
L 1159 0 
z
" transform="scale(0.015625)"/>
      <path id="DejaVuSerif-Bold-64" d="M 2747 1497 
L 2747 1825 
Q 2747 2406 2597 2665 
Q 2447 2925 2119 2925 
Q 1775 2925 1636 2651 
Q 1497 2378 1497 1663 
Q 1497 947 1637 672 
Q 1778 397 2119 397 
Q 2447 397 2597 656 
Q 2747 916 2747 1497 
z
M 3853 378 
L 4325 378 
L 4325 0 
L 2747 0 
L 2747 422 
Q 2606 163 2367 36 
Q 2128 -91 1778 -91 
Q 1072 -91 667 378 
Q 263 847 263 1663 
Q 263 2481 667 2947 
Q 1072 3413 1778 3413 
Q 2128 3413 2367 3286 
Q 2606 3159 2747 2900 
L 2747 4488 
L 2272 4488 
L 2272 4863 
L 3853 4863 
L 3853 378 
z
" transform="scale(0.015625)"/>
     </defs>
     <use xlink:href="#DejaVuSerif-Bold-28"/>
     <use xlink:href="#DejaVuSerif-Bold-62" transform="translate(47.314453 0)"/>
     <use xlink:href="#DejaVuSerif-Bold-29" transform="translate(117.236328 0)"/>
     <use xlink:href="#DejaVuSerif-Bold-20" transform="translate(164.550781 0)"/>
     <use xlink:href="#DejaVuSerif-Bold-43" transform="translate(199.365234 0)"/>
     <use xlink:href="#DejaVuSerif-Bold-6f" transform="translate(278.955078 0)"/>
     <use xlink:href="#DejaVuSerif-Bold-73" transform="translate(345.654297 0)"/>
     <use xlink:href="#DejaVuSerif-Bold-74" transform="translate(401.953125 0)"/>
     <use xlink:href="#DejaVuSerif-Bold-2d" transform="translate(448.144531 0)"/>
     <use xlink:href="#DejaVuSerif-Bold-41" transform="translate(489.648438 0)"/>
     <use xlink:href="#DejaVuSerif-Bold-6d" transform="translate(567.236328 0)"/>
     <use xlink:href="#DejaVuSerif-Bold-70" transform="translate(673.046875 0)"/>
     <use xlink:href="#DejaVuSerif-Bold-6c" transform="translate(742.96875 0)"/>
     <use xlink:href="#DejaVuSerif-Bold-69" transform="translate(780.957031 0)"/>
     <use xlink:href="#DejaVuSerif-Bold-66" transform="translate(818.945312 0)"/>
     <use xlink:href="#DejaVuSerif-Bold-69" transform="translate(861.962891 0)"/>
     <use xlink:href="#DejaVuSerif-Bold-63" transform="translate(899.951172 0)"/>
     <use xlink:href="#DejaVuSerif-Bold-61" transform="translate(960.839844 0)"/>
     <use xlink:href="#DejaVuSerif-Bold-74" transform="translate(1025.634766 0)"/>
     <use xlink:href="#DejaVuSerif-Bold-69" transform="translate(1071.826172 0)"/>
     <use xlink:href="#DejaVuSerif-Bold-6f" transform="translate(1109.814453 0)"/>
     <use xlink:href="#DejaVuSerif-Bold-6e" transform="translate(1176.513672 0)"/>
     <use xlink:href="#DejaVuSerif-Bold-20" transform="translate(1249.21875 0)"/>
     <use xlink:href="#DejaVuSerif-Bold-54" transform="translate(1284.033203 0)"/>
     <use xlink:href="#DejaVuSerif-Bold-68" transform="translate(1358.447266 0)"/>
     <use xlink:href="#DejaVuSerif-Bold-72" transform="translate(1431.152344 0)"/>
     <use xlink:href="#DejaVuSerif-Bold-65" transform="translate(1483.837891 0)"/>
     <use xlink:href="#DejaVuSerif-Bold-73" transform="translate(1547.460938 0)"/>
     <use xlink:href="#DejaVuSerif-Bold-68" transform="translate(1603.759766 0)"/>
     <use xlink:href="#DejaVuSerif-Bold-6f" transform="translate(1676.464844 0)"/>
     <use xlink:href="#DejaVuSerif-Bold-6c" transform="translate(1743.164062 0)"/>
     <use xlink:href="#DejaVuSerif-Bold-64" transform="translate(1781.152344 0)"/>
    </g>
   </g>
  </g>
  <g id="text_32">
   <!-- Figure 13. Service Cost Is Conditional: Relief at Low Load, Amplification Near Threshold -->
   <g transform="translate(151.199219 17.077969) scale(0.13 -0.13)">
    <defs>
     <path id="DejaVuSerif-Bold-46" d="M 300 0 
L 300 378 
L 897 378 
L 897 4288 
L 300 4288 
L 300 4666 
L 4459 4666 
L 4459 3566 
L 4031 3566 
L 4031 4238 
L 2106 4238 
L 2106 2741 
L 3291 2741 
L 3291 3334 
L 3719 3334 
L 3719 1722 
L 3291 1722 
L 3291 2316 
L 2106 2316 
L 2106 378 
L 2841 378 
L 2841 0 
L 300 0 
z
" transform="scale(0.015625)"/>
     <path id="DejaVuSerif-Bold-75" d="M 3963 3322 
L 3963 378 
L 4434 378 
L 4434 0 
L 2853 0 
L 2853 469 
Q 2656 172 2400 40 
Q 2144 -91 1753 -91 
Q 1194 -91 908 239 
Q 622 569 622 1209 
L 622 2944 
L 147 2944 
L 147 3322 
L 1728 3322 
L 1728 1381 
Q 1728 763 1831 595 
Q 1934 428 2209 428 
Q 2544 428 2698 675 
Q 2853 922 2853 1459 
L 2853 2944 
L 2450 2944 
L 2450 3322 
L 3963 3322 
z
" transform="scale(0.015625)"/>
     <path id="DejaVuSerif-Bold-31" d="M 878 0 
L 878 378 
L 1753 378 
L 1753 4153 
L 781 3578 
L 781 4044 
L 1953 4750 
L 2938 4750 
L 2938 378 
L 3816 378 
L 3816 0 
L 878 0 
z
" transform="scale(0.015625)"/>
     <path id="DejaVuSerif-Bold-33" d="M 550 4531 
Q 963 4641 1350 4695 
Q 1738 4750 2106 4750 
Q 2950 4750 3401 4448 
Q 3853 4147 3853 3584 
Q 3853 3163 3593 2900 
Q 3334 2638 2834 2547 
Q 3444 2450 3744 2131 
Q 4044 1813 4044 1259 
Q 4044 606 3526 257 
Q 3009 -91 2028 -91 
Q 1659 -91 1267 -28 
Q 875 34 447 159 
L 447 1184 
L 825 1184 
Q 859 741 1103 508 
Q 1347 275 1778 275 
Q 2253 275 2512 539 
Q 2772 803 2772 1288 
Q 2772 1794 2501 2069 
Q 2231 2344 1734 2344 
L 1528 2344 
L 1528 2719 
L 1691 2719 
Q 2150 2719 2381 2931 
Q 2613 3144 2613 3566 
Q 2613 3963 2395 4173 
Q 2178 4384 1772 4384 
Q 1403 4384 1187 4182 
Q 972 3981 928 3597 
L 550 3597 
L 550 4531 
z
" transform="scale(0.015625)"/>
     <path id="DejaVuSerif-Bold-2e" d="M 519 506 
Q 519 750 694 925 
Q 869 1100 1113 1100 
Q 1359 1100 1534 925 
Q 1709 750 1709 506 
Q 1709 259 1534 84 
Q 1359 -91 1113 -91 
Q 869 -91 694 84 
Q 519 259 519 506 
z
" transform="scale(0.015625)"/>
     <path id="DejaVuSerif-Bold-49" d="M 300 0 
L 300 378 
L 897 378 
L 897 4288 
L 300 4288 
L 300 4666 
L 2700 4666 
L 2700 4288 
L 2100 4288 
L 2100 378 
L 2700 378 
L 2700 0 
L 300 0 
z
" transform="scale(0.015625)"/>
     <path id="DejaVuSerif-Bold-52" d="M 3397 2278 
Q 3675 2238 3865 2094 
Q 4056 1950 4197 1678 
L 4878 378 
L 5356 378 
L 5356 0 
L 3822 0 
L 3078 1409 
Q 2863 1847 2711 1967 
Q 2559 2088 2291 2088 
L 2100 2088 
L 2100 378 
L 2700 378 
L 2700 0 
L 300 0 
L 300 378 
L 897 378 
L 897 4288 
L 300 4288 
L 300 4666 
L 2963 4666 
Q 3775 4666 4217 4339 
Q 4659 4013 4659 3413 
Q 4659 2925 4345 2642 
Q 4031 2359 3397 2278 
z
M 2100 2463 
L 2509 2463 
Q 2947 2463 3183 2700 
Q 3419 2938 3419 3378 
Q 3419 3819 3183 4053 
Q 2947 4288 2509 4288 
L 2100 4288 
L 2100 2463 
z
" transform="scale(0.015625)"/>
     <path id="DejaVuSerif-Bold-2c" d="M 84 -616 
Q 409 -353 562 -28 
Q 716 297 716 728 
L 716 997 
L 1606 997 
L 1606 972 
Q 1606 281 1317 -217 
Q 1028 -716 428 -1056 
L 84 -616 
z
" transform="scale(0.015625)"/>
     <path id="DejaVuSerif-Bold-4e" d="M 281 0 
L 281 378 
L 878 378 
L 878 4288 
L 281 4288 
L 281 4666 
L 1741 4666 
L 4556 1363 
L 4556 4288 
L 3963 4288 
L 3963 4666 
L 5594 4666 
L 5594 4288 
L 4997 4288 
L 4997 0 
L 4178 0 
L 1319 3372 
L 1319 378 
L 1913 378 
L 1913 0 
L 281 0 
z
" transform="scale(0.015625)"/>
    </defs>
    <use xlink:href="#DejaVuSerif-Bold-46"/>
    <use xlink:href="#DejaVuSerif-Bold-69" transform="translate(70.996094 0)"/>
    <use xlink:href="#DejaVuSerif-Bold-67" transform="translate(108.984375 0)"/>
    <use xlink:href="#DejaVuSerif-Bold-75" transform="translate(178.90625 0)"/>
    <use xlink:href="#DejaVuSerif-Bold-72" transform="translate(251.611328 0)"/>
    <use xlink:href="#DejaVuSerif-Bold-65" transform="translate(304.296875 0)"/>
    <use xlink:href="#DejaVuSerif-Bold-20" transform="translate(367.919922 0)"/>
    <use xlink:href="#DejaVuSerif-Bold-31" transform="translate(402.734375 0)"/>
    <use xlink:href="#DejaVuSerif-Bold-33" transform="translate(472.314453 0)"/>
    <use xlink:href="#DejaVuSerif-Bold-2e" transform="translate(541.894531 0)"/>
    <use xlink:href="#DejaVuSerif-Bold-20" transform="translate(576.708984 0)"/>
    <use xlink:href="#DejaVuSerif-Bold-53" transform="translate(611.523438 0)"/>
    <use xlink:href="#DejaVuSerif-Bold-65" transform="translate(683.740234 0)"/>
    <use xlink:href="#DejaVuSerif-Bold-72" transform="translate(747.363281 0)"/>
    <use xlink:href="#DejaVuSerif-Bold-76" transform="translate(800.048828 0)"/>
    <use xlink:href="#DejaVuSerif-Bold-69" transform="translate(858.154297 0)"/>
    <use xlink:href="#DejaVuSerif-Bold-63" transform="translate(896.142578 0)"/>
    <use xlink:href="#DejaVuSerif-Bold-65" transform="translate(957.03125 0)"/>
    <use xlink:href="#DejaVuSerif-Bold-20" transform="translate(1020.654297 0)"/>
    <use xlink:href="#DejaVuSerif-Bold-43" transform="translate(1055.46875 0)"/>
    <use xlink:href="#DejaVuSerif-Bold-6f" transform="translate(1135.058594 0)"/>
    <use xlink:href="#DejaVuSerif-Bold-73" transform="translate(1201.757812 0)"/>
    <use xlink:href="#DejaVuSerif-Bold-74" transform="translate(1258.056641 0)"/>
    <use xlink:href="#DejaVuSerif-Bold-20" transform="translate(1304.248047 0)"/>
    <use xlink:href="#DejaVuSerif-Bold-49" transform="translate(1339.0625 0)"/>
    <use xlink:href="#DejaVuSerif-Bold-73" transform="translate(1385.839844 0)"/>
    <use xlink:href="#DejaVuSerif-Bold-20" transform="translate(1442.138672 0)"/>
    <use xlink:href="#DejaVuSerif-Bold-43" transform="translate(1476.953125 0)"/>
    <use xlink:href="#DejaVuSerif-Bold-6f" transform="translate(1556.542969 0)"/>
    <use xlink:href="#DejaVuSerif-Bold-6e" transform="translate(1623.242188 0)"/>
    <use xlink:href="#DejaVuSerif-Bold-64" transform="translate(1695.947266 0)"/>
    <use xlink:href="#DejaVuSerif-Bold-69" transform="translate(1765.869141 0)"/>
    <use xlink:href="#DejaVuSerif-Bold-74" transform="translate(1803.857422 0)"/>
    <use xlink:href="#DejaVuSerif-Bold-69" transform="translate(1850.048828 0)"/>
    <use xlink:href="#DejaVuSerif-Bold-6f" transform="translate(1888.037109 0)"/>
    <use xlink:href="#DejaVuSerif-Bold-6e" transform="translate(1954.736328 0)"/>
    <use xlink:href="#DejaVuSerif-Bold-61" transform="translate(2027.441406 0)"/>
    <use xlink:href="#DejaVuSerif-Bold-6c" transform="translate(2092.236328 0)"/>
    <use xlink:href="#DejaVuSerif-Bold-3a" transform="translate(2130.224609 0)"/>
    <use xlink:href="#DejaVuSerif-Bold-20" transform="translate(2167.138672 0)"/>
    <use xlink:href="#DejaVuSerif-Bold-52" transform="translate(2201.953125 0)"/>
    <use xlink:href="#DejaVuSerif-Bold-65" transform="translate(2285.058594 0)"/>
    <use xlink:href="#DejaVuSerif-Bold-6c" transform="translate(2348.681641 0)"/>
    <use xlink:href="#DejaVuSerif-Bold-69" transform="translate(2386.669922 0)"/>
    <use xlink:href="#DejaVuSerif-Bold-65" transform="translate(2424.658203 0)"/>
    <use xlink:href="#DejaVuSerif-Bold-66" transform="translate(2488.28125 0)"/>
    <use xlink:href="#DejaVuSerif-Bold-20" transform="translate(2531.298828 0)"/>
    <use xlink:href="#DejaVuSerif-Bold-61" transform="translate(2566.113281 0)"/>
    <use xlink:href="#DejaVuSerif-Bold-74" transform="translate(2630.908203 0)"/>
    <use xlink:href="#DejaVuSerif-Bold-20" transform="translate(2677.099609 0)"/>
    <use xlink:href="#DejaVuSerif-Bold-4c" transform="translate(2711.914062 0)"/>
    <use xlink:href="#DejaVuSerif-Bold-6f" transform="translate(2782.226562 0)"/>
    <use xlink:href="#DejaVuSerif-Bold-77" transform="translate(2848.925781 0)"/>
    <use xlink:href="#DejaVuSerif-Bold-20" transform="translate(2935.009766 0)"/>
    <use xlink:href="#DejaVuSerif-Bold-4c" transform="translate(2969.824219 0)"/>
    <use xlink:href="#DejaVuSerif-Bold-6f" transform="translate(3040.136719 0)"/>
    <use xlink:href="#DejaVuSerif-Bold-61" transform="translate(3106.835938 0)"/>
    <use xlink:href="#DejaVuSerif-Bold-64" transform="translate(3171.630859 0)"/>
    <use xlink:href="#DejaVuSerif-Bold-2c" transform="translate(3241.552734 0)"/>
    <use xlink:href="#DejaVuSerif-Bold-20" transform="translate(3276.367188 0)"/>
    <use xlink:href="#DejaVuSerif-Bold-41" transform="translate(3311.181641 0)"/>
    <use xlink:href="#DejaVuSerif-Bold-6d" transform="translate(3388.769531 0)"/>
    <use xlink:href="#DejaVuSerif-Bold-70" transform="translate(3494.580078 0)"/>
    <use xlink:href="#DejaVuSerif-Bold-6c" transform="translate(3564.501953 0)"/>
    <use xlink:href="#DejaVuSerif-Bold-69" transform="translate(3602.490234 0)"/>
    <use xlink:href="#DejaVuSerif-Bold-66" transform="translate(3640.478516 0)"/>
    <use xlink:href="#DejaVuSerif-Bold-69" transform="translate(3683.496094 0)"/>
    <use xlink:href="#DejaVuSerif-Bold-63" transform="translate(3721.484375 0)"/>
    <use xlink:href="#DejaVuSerif-Bold-61" transform="translate(3782.373047 0)"/>
    <use xlink:href="#DejaVuSerif-Bold-74" transform="translate(3847.167969 0)"/>
    <use xlink:href="#DejaVuSerif-Bold-69" transform="translate(3893.359375 0)"/>
    <use xlink:href="#DejaVuSerif-Bold-6f" transform="translate(3931.347656 0)"/>
    <use xlink:href="#DejaVuSerif-Bold-6e" transform="translate(3998.046875 0)"/>
    <use xlink:href="#DejaVuSerif-Bold-20" transform="translate(4070.751953 0)"/>
    <use xlink:href="#DejaVuSerif-Bold-4e" transform="translate(4105.566406 0)"/>
    <use xlink:href="#DejaVuSerif-Bold-65" transform="translate(4196.972656 0)"/>
    <use xlink:href="#DejaVuSerif-Bold-61" transform="translate(4260.595703 0)"/>
    <use xlink:href="#DejaVuSerif-Bold-72" transform="translate(4325.390625 0)"/>
    <use xlink:href="#DejaVuSerif-Bold-20" transform="translate(4378.076172 0)"/>
    <use xlink:href="#DejaVuSerif-Bold-54" transform="translate(4412.890625 0)"/>
    <use xlink:href="#DejaVuSerif-Bold-68" transform="translate(4487.304688 0)"/>
    <use xlink:href="#DejaVuSerif-Bold-72" transform="translate(4560.009766 0)"/>
    <use xlink:href="#DejaVuSerif-Bold-65" transform="translate(4612.695312 0)"/>
    <use xlink:href="#DejaVuSerif-Bold-73" transform="translate(4676.318359 0)"/>
    <use xlink:href="#DejaVuSerif-Bold-68" transform="translate(4732.617188 0)"/>
    <use xlink:href="#DejaVuSerif-Bold-6f" transform="translate(4805.322266 0)"/>
    <use xlink:href="#DejaVuSerif-Bold-6c" transform="translate(4872.021484 0)"/>
    <use xlink:href="#DejaVuSerif-Bold-64" transform="translate(4910.009766 0)"/>
   </g>
  </g>
 </g>
 <defs>
  <clipPath id="pbc7fc15a40">
   <rect x="42.824141" y="54.88525" width="431.44" height="303.223521"/>
  </clipPath>
  <clipPath id="pb926cd9f22">
   <rect x="520.994141" y="54.88525" width="431.44" height="303.223521"/>
  </clipPath>
 </defs>
</svg>
